<svg width="318" height="89" viewBox="0 0 318 89" fill="none" xmlns="http://www.w3.org/2000/svg">
<rect width="318" height="89" fill="white"/>
<path d="M93.025 39.4225V17.5312H97.4819V35.7179H107.81V39.4225H93.025ZM110.84 39.4225V17.5312H115.297V39.4225H110.84ZM135.424 39.4225L135.271 36.4833H135.209C133.703 38.9939 131.644 39.8818 129.031 39.8818C125.712 39.8818 123.13 38.6877 121.316 36.6976C119.503 34.6768 118.458 31.8601 118.458 28.5534C118.458 24.9099 119.749 21.7257 122.054 19.6132C123.837 17.9904 126.173 17.1025 129.123 17.1025C134.656 17.1025 137.822 20.1337 138.529 24.4201H134.164C133.672 22.3075 132.043 20.7766 129.216 20.7766C125.066 20.7766 123.007 24.2057 123.007 28.5534C123.007 33.0235 125.373 36.2996 129.154 36.2996C132.566 36.2996 134.81 33.7583 134.81 31.3396V31.2171H129.523V27.7879H138.775V39.4225H135.424ZM142.505 39.4225V17.5312H146.962V26.104H155.599V17.5312H160.056V39.4225H155.599V29.7781H146.962V39.4225H142.505ZM162.904 21.2665V17.5312H180.578V21.2665H173.97V39.4225H169.512V21.2665H162.904ZM183.446 39.4225V17.5312H187.903V26.104H196.54V17.5312H200.997V39.4225H196.54V29.7781H187.903V39.4225H183.446ZM214.634 39.9124C208.149 39.9124 204.03 35.0749 204.03 28.5227C204.03 21.9707 208.149 17.1025 214.634 17.1025C221.12 17.1025 225.208 21.9707 225.208 28.5227C225.208 35.0749 221.12 39.9124 214.634 39.9124ZM214.665 36.269C218.691 36.269 220.659 32.8705 220.659 28.5227C220.659 24.1445 218.691 20.746 214.665 20.746C210.638 20.746 208.579 24.1445 208.579 28.5227C208.579 32.8705 210.638 36.269 214.665 36.269ZM236.743 39.7899C231.057 39.7899 228.075 37.1262 228.075 32.3805V17.5312H232.532V32.3805C232.532 34.6462 233.67 36.2383 236.651 36.2383C239.48 36.2383 240.8 34.585 240.8 32.3194V17.5312H245.257V32.3805C245.257 37.065 242.368 39.7899 236.743 39.7899ZM257.74 39.9124C251.777 39.9124 248.396 37.2794 248.243 32.6561H252.607C252.915 35.2892 254.42 36.3302 257.555 36.3302C259.83 36.3302 261.828 35.5342 261.828 33.5134C261.828 31.3702 259.739 30.9416 256.388 30.1761C252.453 29.2883 248.858 28.2472 248.858 23.6853C248.858 19.3682 252.391 17.1332 257.279 17.1332C262.228 17.1332 265.425 19.5519 265.763 23.9608H261.49C261.244 21.7564 259.523 20.6541 257.248 20.6541C254.851 20.6541 253.284 21.6645 253.284 23.226C253.284 25.0018 254.82 25.5223 258.079 26.2265C262.596 27.2062 266.285 28.2779 266.285 32.9929C266.285 37.4324 262.689 39.9124 257.74 39.9124ZM269.562 39.4225V17.5312H285.729V21.2665H274.019V26.1653H284.284V29.8087H274.019V35.7179H285.822V39.4225H269.562ZM101.539 67.5272C95.5762 67.5272 92.1951 64.8942 92.0415 60.2709H96.4061C96.7134 62.904 98.2196 63.945 101.355 63.945C103.629 63.945 105.627 63.149 105.627 61.1283C105.627 58.985 103.537 58.5564 100.187 57.7909C96.2524 56.9031 92.6562 55.862 92.6562 51.3001C92.6562 46.9831 96.191 44.7479 101.078 44.7479C106.027 44.7479 109.223 47.1668 109.562 51.5757H105.289C105.043 49.3712 103.322 48.269 101.047 48.269C98.6499 48.269 97.0823 49.2794 97.0823 50.8409C97.0823 52.6166 98.6192 53.1371 101.877 53.8413C106.396 54.8211 110.084 55.8927 110.084 60.6077C110.084 65.0472 106.488 67.5272 101.539 67.5272ZM111.293 48.8813V45.146H128.967V48.8813H122.358V67.0374H117.901V48.8813H111.293ZM140.319 67.4048C134.632 67.4048 131.651 64.7411 131.651 59.9953V45.146H136.108V59.9953C136.108 62.2611 137.245 63.8531 140.226 63.8531C143.054 63.8531 144.376 62.1998 144.376 59.9342V45.146H148.833V59.9953C148.833 64.6798 145.943 67.4048 140.319 67.4048ZM152.65 67.0374V45.146H161.227C167.097 45.146 170.878 49.8611 170.878 56.3213C170.878 59.8729 169.679 62.9959 167.374 64.9248C165.744 66.272 163.624 67.0374 160.858 67.0374H152.65ZM157.107 63.2102H160.551C164.731 63.2102 166.359 60.669 166.359 56.3213C166.359 51.9737 164.453 48.9425 160.673 48.9425H157.107V63.2102ZM173.948 67.0374V45.146H178.405V67.0374H173.948ZM192.077 67.5272C185.592 67.5272 181.474 62.6897 181.474 56.1376C181.474 49.5855 185.592 44.7174 192.077 44.7174C198.563 44.7174 202.651 49.5855 202.651 56.1376C202.651 62.6897 198.563 67.5272 192.077 67.5272ZM192.108 63.8838C196.135 63.8838 198.103 60.4853 198.103 56.1376C198.103 51.7594 196.135 48.3609 192.108 48.3609C188.082 48.3609 186.022 51.7594 186.022 56.1376C186.022 60.4853 188.082 63.8838 192.108 63.8838ZM214.217 67.5272C208.254 67.5272 204.874 64.8942 204.72 60.2709H209.085C209.392 62.904 210.898 63.945 214.033 63.945C216.308 63.945 218.306 63.149 218.306 61.1283C218.306 58.985 216.215 58.5564 212.865 57.7909C208.931 56.9031 205.334 55.862 205.334 51.3001C205.334 46.9831 208.869 44.7479 213.757 44.7479C218.705 44.7479 221.901 47.1668 222.24 51.5757H217.968C217.721 49.3712 216 48.269 213.726 48.269C211.329 48.269 209.76 49.2794 209.76 50.8409C209.76 52.6166 211.298 53.1371 214.555 53.8413C219.074 54.8211 222.763 55.8927 222.763 60.6077C222.763 65.0472 219.166 67.5272 214.217 67.5272Z" fill="#111111"/>
<path d="M34.9377 29.3481H35.2352V28.9333L34.8782 28.8741L34.9377 28.5778L35.1757 28.5185L34.9377 28.2222L35.0567 27.9259H35.5326L35.6516 27.6296L35.4137 27.3333L35.6516 27.2741L35.7111 26.9778H35.9491V27.1556H36.2465L35.9491 26.6222L36.2465 26.5037V26.1481L36.6035 26.2667V25.9111L36.7819 25.6741L37.0794 25.3778L37.3769 25.1407L37.5553 24.7852L37.8528 24.6667L38.0907 24.7259L38.0312 24.2519L38.3287 23.837H38.7451L38.5667 23.4815V23.1852L38.6262 23.0074L38.9236 23.363V23.0074L39.0426 22.7111L39.3995 22.6519H39.697V22.3556V21.7037L39.2806 21.4074V21.1111H39.459L39.578 21.2889L39.816 21.2296L39.697 20.6963L39.816 20.4H40.1134L40.1729 20.1037H40.4704V20.4H40.8273L41.1843 19.8667L41.5412 19.2148L41.8981 18.563L42.4336 17.2593H42.5525L42.3146 18.1481L42.0171 19.0963L41.8981 19.6889L42.7905 19.8667H43.8613L44.5752 19.6889L45.2296 19.0963L45.884 18.563L46.5384 18.1481L47.3118 17.7333L48.0852 17.2593L48.5016 17.0222L49.0965 16.7259L49.5725 16.5481L50.1079 16.3704L50.8218 16.1926L51.2977 15.837L51.6546 15.7185H52.2495L52.9039 15.837L53.6178 15.7185H54.1532L54.6887 15.363L55.1051 15.5407L55.8785 15.363L57.0683 15.5407L57.3062 15.363L57.4252 14.9481L57.7227 14.5333L58.0796 14.2963L58.4366 14.1778L58.7935 14H59.091L59.6264 14.1185L59.9833 14.4148L60.3998 14.5333L61.0542 14.7111H61.6491L61.8275 15.0667L62.1845 14.9481L62.4224 15.1852L62.7794 15.0667H63.1958L63.5528 15.1852L64.0287 15.4815L64.5046 15.7185L65.04 16.0741L65.397 16.5481L65.8729 16.3704L66.0514 16.5481H67.0627L67.4792 16.9037V17.2H67.8361V16.9037H68.3715L68.55 17.3778L68.9664 17.2H69.5018L70.0968 17.3778L70.3347 17.7333H70.6322V17.3778H70.9891L71.1676 17.7333L71.584 17.8519L71.7625 17.6148L71.8815 17.4963L72.5359 17.6148L72.6549 17.9704L73.1308 17.7333L73.4282 17.9704V19.2148L73.9637 19.5704L74.6775 19.6889L75.4509 20.2222L75.9863 20.6963L77.2951 20.9926L78.9014 21.8222L79.9127 22.7111L80.2697 23.0667L80.3887 24.1333L80.8646 24.6074H81.6974L82.0544 25.3185L82.4113 25.6148L82.5898 26.563V27.4519L83.1252 27.8074L83.4822 28.4V29.4667L83.8986 30.1778V31.0667L84.434 31.4222L84.791 31.9556V32.8444H85.4454L85.6833 33.6148V35.2741L85.9808 35.9852L86.1593 36.4L86.3377 35.9852L86.6352 35.7481L87.0516 35.2741L87.2896 35.5111L86.8136 35.9852L86.4567 36.8148L86.8136 37.2889L87.1111 37.1704L87.587 36.8148H87.825V37.1704L87.3491 37.4074L86.8136 37.8222L87.0516 38.4148L86.6352 38.7704L86.8136 39.1259L86.3972 39.6593L87.0516 39.9556L87.3491 40.2519L87.0516 40.7259L87.587 40.7852V41.3185H87.2896L86.7542 41.6741L87.2301 42.0296L87.706 42.0889V42.4444L87.4086 42.5037L87.2301 43.037L86.6352 43.6296L86.5162 44.0444L86.8136 44.163L87.2301 44.4593L87.706 45.2296L87.825 46.4148L87.587 47.0667L87.0516 47.3037L86.6352 47.6593L86.7542 48.1926H86.3972L85.9808 48.3704L85.4454 48.6074L85.7428 48.8444L85.9808 49.1407L86.2187 49.4963V49.9704L85.7428 49.6741L85.8618 50.0889L85.4454 50.2667L85.1479 50.4444L84.791 50.7407L84.9099 51.2148L84.4935 51.4519L84.434 51.6889L84.791 51.8667L85.4454 51.9852V52.2222L84.7315 52.2815L84.9099 52.9926L84.672 53.2889H84.0176V53.6444L84.672 53.8222V54L83.8391 53.8222V54.1185V54.3556L83.4227 54.4741L83.1847 54.8296L82.9468 55.2444L82.7088 56.0148L82.1734 56.1333L81.6974 56.2519L81.4595 56.9037L80.9836 57.2L81.043 57.4963L81.4 57.3185L81.6974 57.6741L81.638 58.1481L81.7569 58.4444L82.1139 58.5037L81.9949 58.8L81.1025 58.8593L80.8646 58.2667L80.8051 57.9704L80.9836 57.6741L80.8051 57.3185L80.4481 57.7333L79.9722 58.1481L79.7343 58.6222L79.3178 59.0963H78.7229L78.4849 59.5704L78.247 59.8667L77.5926 60.4L77.4736 61.0519L77.2356 61.5259L76.5218 61.8815L75.8674 61.5259L75.7484 61.763L75.2724 61.8815V62.237L74.737 61.8815V62.4148V62.8296V63.363L74.4396 63.837L74.0231 63.5407H73.5472L73.1903 63.363V63.837L72.8333 64.1926V64.7852L71.822 65.3185L70.9296 65.1407V66.0889L70.3942 65.9111L70.6322 67.2741L69.9183 66.6222V67.2741L69.6208 67.9852H69.0259V67.4519L69.4424 66.9185L69.6208 66.3852L69.2639 66.0889L69.0259 66.6222V67.4519L68.6095 67.9852L68.431 68.4L68.0146 68.9333L67.4792 69.1111L67.8361 68.637L68.0146 67.9852L67.7171 68.163L67.6576 68.2815L67.1817 68.637L66.7653 68.9333V68.637L66.4083 68.2815L66.0514 68.4L65.6349 68.9333L65.4565 69.6444L65.2185 70.0593H64.9211V70.5926H64.5046L64.3856 69.9407L64.1477 69.2296L63.9692 68.5185L63.4933 68.2815L63.2553 68.637H62.9579L62.7199 68.9333L62.4819 68.2815L62.0655 68.4L61.8275 68.7556L62.125 69.0519L61.8275 69.2296L61.5301 68.7556H61.2326L60.7567 68.5185L60.3403 68.4L59.9833 68.637H59.6859L59.3289 68.9333L59.0315 69.1111L58.972 69.2889L58.734 69.1111L58.4961 68.637L58.3176 68.4L58.615 68.5185H58.853L58.4961 68.2815L58.0796 68.1037L57.7822 67.8074H57.1278L57.0088 67.5704L56.7113 67.3926L56.7708 67.2148L57.0683 67.3926V66.9778H56.8303L56.1759 66.8L55.938 66.5037L55.8785 66.7407L55.819 66.9185L55.581 66.563L55.4025 66.6815L55.1646 66.9778L55.7595 67.2148L55.581 67.5111L55.6405 67.8667L55.2241 67.6889L55.7 68.1037L55.2241 68.0444L54.9266 67.8074L54.6292 67.5111V67.037L54.4507 66.563L54.2127 66.0889L53.9153 66.2074L53.5583 66.1481L53.3799 65.8519L53.1419 65.7926H52.7255L52.8444 66.1481L52.6065 66.0889L52.3685 65.8519L52.19 65.6741L51.8926 65.437L51.8331 65.6741L52.0711 65.7926V65.9704L52.7255 66.3259L51.8926 66.4444H51.5356L51.2382 66.5037L51.0002 66.3852V66.6222L51.5951 66.9185V67.0963L51.3572 67.2148L51.0002 67.3333H50.3458L50.0484 67.3926L49.7509 67.5704L49.5725 67.7683L49.275 67.7481L49.156 67.2741L49.275 66.9185L49.6914 66.7407L49.9889 66.6222H50.5838L50.7623 66.2667H50.2863H49.8699L49.6914 65.9704L49.5725 65.6741L49.037 66.0296L48.5611 66.2667L47.8472 66.6222L47.1928 66.2667L46.7169 65.6741L46.5979 66.5037L46.0625 66.8593L45.5866 66.6222L45.2296 66.2667L44.9917 65.6741L45.2296 65.2H45.8245L46.241 64.9037L46.4194 64.2519L46.1815 63.6593L45.8245 63.4815H45.4081L44.9917 63.7778L44.6942 64.2519L44.2183 64.6074L44.0993 64.2519L44.3968 63.6593L44.6942 63.0667V62.7111L44.2183 63.1852L44.0993 63.8963H43.8613V63.0667H43.4449V63.3037L43.2664 63.0667H43.088L42.9095 64.1333L42.731 64.0741L42.5525 63.6593H42.1361L41.8981 63.3037L41.7197 63.6593L41.1843 63.7778L40.9463 64.0741L41.3627 64.2519L41.7792 64.0741L42.1361 63.8963L42.2551 64.1333L41.7792 64.6074L41.6602 65.0222L41.1248 64.5481H40.7083L40.7678 65.2L40.2919 65.0222L39.935 64.5481L40.1729 63.6593L40.7083 63.0667L41.3032 62.7111L40.9463 62.4148L40.7083 62.1185H40.1729V61.763H40.7083L40.7678 61.4074V60.9926L40.1729 61.0519V60.5185L40.7083 60.3407L41.1248 60.1037L40.7083 59.8074L40.2919 59.6296V59.3333H39.935V59.8074L39.578 59.6296V59.3333L39.816 59.037L39.0426 58.6222V57.9704L38.6262 57.3778V56.963L37.5553 56.1926L37.7933 56.963L37.5553 57.3778V57.9704H36.8414L36.6035 57.3778L36.425 56.4889L36.6035 56.1926L36.8414 55.7185L36.6035 55.2444V55.6L36.0681 55.7185V55.2444L36.425 54.6519V54.0593L36.0086 53.8815V53.5852L35.8301 53.4074L35.8896 53.1704L36.0681 52.8148L35.6516 52.9333L35.4731 53.1111V53.3481L35.1757 53.2889L34.8485 53.2296L34.6998 53.2889L34.3428 53.1704L34.0454 53.0519L33.8669 52.8148L33.8074 52.8741L33.9859 53.1704L34.0454 53.4074L34.1049 53.6444H33.8669L33.7479 53.3481L33.6289 53.0519L33.51 53.1704L33.034 52.8148L32.5581 52.4593L32.4986 51.9852H32.2012L31.8442 52.1037H31.0708V51.8074H32.0227L32.2606 51.5704L32.3796 51.037L32.7961 50.9185L33.153 50.3852L33.6289 49.9704V49.6741L33.272 49.9704L33.034 50.1481L32.7961 50.5037H32.2012V50.1481H32.7961L32.8556 49.6741L33.272 49.437L33.7479 49.0815V48.6074L33.391 49.0815L33.034 49.2L32.7961 49.437L32.5581 49.5556H32.2606V49.2L32.5581 49.0815L33.034 48.8444L33.391 48.4889L33.7479 48.3111V48.0741L33.391 48.1333L33.272 48.4889H33.034V48.1333L33.272 47.7185H33.6289V47.4815L33.391 47.363L33.034 47.0074L32.7961 46.4148L32.2606 46.1778L31.8442 45.8815L31.4873 45.5259H31.1898L30.8329 45.7037L30.5354 45.8815L30 45.7037L30.1785 45.5259V45.2296L30.4164 45.1111L30.5354 45.2889H30.8329L30.8924 45.1111H31.4278L31.5468 45.2889L31.9037 45.4074V45.1111L31.6657 44.8148L31.1898 44.5185L31.4873 44.2815L31.9037 44.3407L32.1417 44.2815L32.5581 43.9852L32.3201 43.7481L32.0227 43.5111V43.2741L32.3796 43.2148L32.1417 42.8L32.4986 42.563L32.4391 42.2074L32.2012 41.5556L31.8442 41.9111L31.3683 42.3852L31.0708 42.7407L30.7139 42.6815L30.4759 42.2074V41.5556L30.8924 41.7333L31.1898 42.2074L31.5468 41.7333L32.0822 41.2L31.7252 40.9037L31.1898 39.2444H30.8924V38.5926L31.3683 38.4148L31.7252 38.1185L31.1898 37.9407H30.8924V37.5259H31.3683L31.7252 37.763L32.0822 38.1185V37.5259L32.2606 37.1704L32.5581 36.8741L32.2012 36.5778L32.4391 35.8667L32.2012 35.3926L32.0822 34.8V34.4444L32.2606 34.1481L32.4391 33.9704L32.5581 33.5556L32.6771 33.2593V33.0222L32.7366 32.8444L33.034 32.5481V33.0222V33.3185L33.4505 33.6148V33.0222L33.6884 32.5481H33.272V32.0741L33.4505 31.7185L33.6884 31.6H34.0454L34.2238 31.3037H33.6289L33.8074 30.8296L34.2238 30.4741L34.5213 29.9407L34.9377 29.3481Z" fill="black"/>
<path d="M31.7254 34.8001C31.594 34.8001 31.4875 34.6675 31.4875 34.5038C31.4875 34.3402 31.594 34.2075 31.7254 34.2075C31.8568 34.2075 31.9634 34.3402 31.9634 34.5038C31.9634 34.6675 31.8568 34.8001 31.7254 34.8001Z" fill="black"/>
<path d="M31.2493 36.9333C31.1179 36.9333 31.0114 36.8803 31.0114 36.8148C31.0114 36.7494 31.1179 36.6963 31.2493 36.6963C31.3808 36.6963 31.4873 36.7494 31.4873 36.8148C31.4873 36.8803 31.3808 36.9333 31.2493 36.9333Z" fill="black"/>
<path d="M30.8927 37.052C30.8273 37.052 30.7742 36.9989 30.7742 36.9335C30.7742 36.868 30.8273 36.8149 30.8927 36.8149C30.9582 36.8149 31.0112 36.868 31.0112 36.9335C31.0112 36.9989 30.9582 37.052 30.8927 37.052Z" fill="black"/>
<path d="M38.448 59.3931L38.7455 59.2153V59.6894H38.2695L38.448 59.3931Z" fill="black"/>
<path d="M39.0427 59.9854L39.2807 60.3409L39.3402 60.7557H38.8643L38.9832 60.3409L39.0427 59.9854Z" fill="black"/>
<path d="M39.1021 59.2153L39.697 59.3339V59.8079L39.578 60.2227L39.2805 60.1042L39.221 59.8079L39.1021 59.2153Z" fill="black"/>
<path d="M39.0601 58.978H39.459L39.5185 59.3336L39.215 59.2952L39.0601 59.6299V58.978Z" fill="black"/>
<path d="M39.2215 61.4668H38.7456V61.8224H39.2215V61.4668Z" fill="black"/>
<path d="M39.6966 62.1777H39.2207V62.5333H39.6966V62.1777Z" fill="black"/>
<path d="M39.6973 61.8223H38.9834V62.1778H39.6973V61.8223Z" fill="black"/>
<path d="M35.1763 54.8297C35.1763 54.6333 35.0165 54.4741 34.8193 54.4741C34.6222 54.4741 34.4624 54.6333 34.4624 54.8297V55.0667C34.4624 55.2631 34.6222 55.4223 34.8193 55.4223C35.0165 55.4223 35.1763 55.2631 35.1763 55.0667V54.8297Z" fill="black"/>
<path d="M32.4991 48.0739C32.6634 48.0739 32.7966 47.8085 32.7966 47.4813C32.7966 47.154 32.6634 46.8887 32.4991 46.8887C32.3348 46.8887 32.2017 47.154 32.2017 47.4813C32.2017 47.8085 32.3348 48.0739 32.4991 48.0739Z" fill="black"/>
<path d="M32.7959 30.5928L33.2718 29.9409L33.4503 30.652L33.2718 31.2446H32.7959V30.5928Z" fill="black"/>
<path d="M33.272 28.6965L33.6884 28.578L33.391 28.4002L33.6289 28.2817L33.7479 28.0447L33.8669 27.8076L34.1643 27.8669L34.4023 28.341L34.1643 28.815L34.0454 28.9928L33.7479 29.3484H33.272V28.6965Z" fill="black"/>
<path d="M35.2937 25.7925H35.0566V26.0295H35.2937V25.7925Z" fill="black"/>
<path d="M35.4128 25.5552H35.1758V25.7922H35.4128V25.5552Z" fill="black"/>
<path d="M35.8893 23.0664L36.0083 22.8886L36.2463 22.5923H36.7222L36.8412 23.0664L37.3766 23.3034L37.9715 23.4219L37.912 24.133L37.6146 24.4293L37.1981 24.5478L36.9007 24.3701L37.3171 24.133L37.1386 23.9552L36.7817 23.7182H36.4247L36.0083 23.5404H35.8893L35.6514 23.1256L35.8893 23.0664Z" fill="black"/>
<path d="M36.8406 24.4888H36.6035V24.8443H36.8406V24.4888Z" fill="black"/>
<path d="M36.6028 24.8442H36.3657V25.0813H36.6028V24.8442Z" fill="black"/>
<path d="M43.6235 18.9185H43.2666V19.1555H43.6235V18.9185Z" fill="black"/>
<path d="M43.8613 18.6816H43.5044V18.9187H43.8613V18.6816Z" fill="black"/>
<path d="M62.7793 71.0669H62.4224V71.541H62.7793V71.0669Z" fill="black"/>
<path d="M61.9468 72.8447H61.5898V73.2003H61.9468V72.8447Z" fill="black"/>
<path d="M67.063 74.1479H66.7061V74.5035H67.063V74.1479Z" fill="black"/>
<path d="M64.5645 73.437H64.2075V73.7926H64.5645V73.437Z" fill="black"/>
<path d="M65.04 74.0298H64.6831V74.3853H65.04V74.0298Z" fill="black"/>
<path d="M62.1851 73.0815H61.8281V73.5556H62.1851V73.0815Z" fill="black"/>
<path d="M67.3003 74.3848H66.9434V74.8588H67.3003V74.3848Z" fill="black"/>
<path d="M64.8018 73.6738H64.4448V74.1479H64.8018V73.6738Z" fill="black"/>
<path d="M65.2778 74.2666H64.9209V74.7407H65.2778V74.2666Z" fill="black"/>
<path d="M62.4229 73.3184H62.0659V73.7924H62.4229V73.3184Z" fill="black"/>
<path d="M65.04 73.9111H64.6831V74.3852H65.04V73.9111Z" fill="black"/>
<path d="M65.5156 74.5039H65.1587V74.978H65.5156V74.5039Z" fill="black"/>
<path d="M64.4452 71.7778H63.9692V72.2519H64.4452V71.7778Z" fill="black"/>
<path d="M68.6086 69.4072H68.3716V69.8813H68.6086V69.4072Z" fill="black"/>
<path d="M76.4624 63.2446L76.8788 63.3631L77.3548 63.7187L78.0687 64.1335L78.3661 64.6669V65.2594L77.6522 65.1409L77.1168 64.9039L76.8788 64.6669V64.3113L76.7599 63.7187L76.4624 63.2446Z" fill="black"/>
<path d="M50.1675 15.3628H49.4536V15.8369H50.1675V15.3628Z" fill="black"/>
<path d="M43.3845 67.6294H43.1475V67.985H43.3845V67.6294Z" fill="black"/>
<path d="M43.3851 67.2744H43.2666V67.63H43.3851V67.2744Z" fill="black"/>
</svg>
