<svg width="1277" height="524" viewBox="0 0 1277 524" fill="none" xmlns="http://www.w3.org/2000/svg">
<path d="M154.774 1H1274C1275.1 1 1276 1.89545 1276 3.00001V521C1276 522.105 1275.1 523 1274 523H1102.64C1101.53 523 1100.64 522.105 1100.64 521V377.635C1100.64 376.531 1099.74 375.635 1098.64 375.635H258.792C257.688 375.635 256.792 374.74 256.792 373.635V314.976C256.792 313.872 255.897 312.976 254.792 312.976H3.21326C1.73206 312.976 0.764771 311.422 1.41882 310.093L152.98 2.1169C153.316 1.43312 154.012 1 154.774 1Z" fill="#13C1E3" stroke="white"/>
<mask id="mask0_467_1952" style="mask-type:alpha" maskUnits="userSpaceOnUse" x="0" y="0" width="1277" height="524">
<path d="M154.774 1H1274C1275.1 1 1276 1.89545 1276 3.00001V521C1276 522.105 1275.1 523 1274 523H1102.64C1101.53 523 1100.64 522.105 1100.64 521V377.635C1100.64 376.531 1099.74 375.635 1098.64 375.635H258.792C257.688 375.635 256.792 374.74 256.792 373.635V314.976C256.792 313.872 255.897 312.976 254.792 312.976H3.21326C1.73206 312.976 0.764771 311.422 1.41882 310.093L152.98 2.1169C153.316 1.43312 154.012 1 154.774 1Z" fill="#D9D9D9" stroke="white"/>
</mask>
<g mask="url(#mask0_467_1952)">
<path d="M-62.3905 208.744L633.613 594.618L931.329 553.812L1048.01 247.654L351.311 -135.624L52.2409 -96.5555L-62.3905 208.744Z" stroke="white" stroke-width="1.76" stroke-miterlimit="10"/>
<circle cx="1048.01" cy="247.655" r="1.98613" fill="white"/>
<path d="M633.003 595.475L749.914 288.076L1048.01 247.654" stroke="white" stroke-width="1.76" stroke-linecap="round" stroke-linejoin="round"/>
<path d="M1048.01 247.654L931.329 553.812" stroke="white" stroke-width="1.76" stroke-linecap="round" stroke-linejoin="round"/>
<path d="M352.982 -135.014L1048.01 247.654" stroke="white" stroke-width="1.76" stroke-linecap="round" stroke-linejoin="round"/>
<path d="M1048.01 247.654L749.914 288.077L52.9854 -96.2847" stroke="white" stroke-width="1.76" stroke-linecap="round" stroke-linejoin="round"/>
<path d="M-63 210.437L633.003 595.475" stroke="white" stroke-width="1.76" stroke-miterlimit="10" stroke-linecap="round"/>
<path d="M931.329 553.812L237.222 170.489L-63 210.437" stroke="white" stroke-width="1.76" stroke-miterlimit="10" stroke-linecap="round"/>
<path d="M-63 210.437L237.222 170.489L352.981 -135.014" stroke="white" stroke-width="1.76" stroke-miterlimit="10" stroke-linecap="round"/>
<path d="M52.9854 -96.2847L749.914 288.077L633.003 595.475" stroke="white" stroke-width="1.76" stroke-miterlimit="10" stroke-linecap="round"/>
<path d="M-63 210.437L52.9854 -96.2847" stroke="white" stroke-width="1.76" stroke-miterlimit="10" stroke-linecap="round"/>
<path d="M931.329 553.812L1048.01 247.654" stroke="white" stroke-width="1.76" stroke-linecap="round" stroke-linejoin="round"/>
<path d="M352.982 -135.014L237.222 170.489L931.329 553.812" stroke="white" stroke-width="1.76" stroke-linecap="round" stroke-linejoin="round"/>
<path d="M1048.01 247.654C1048.01 247.654 891.516 161.483 813.267 118.421C688.525 49.7411 563.76 -18.9384 439.017 -87.6179C410.331 -103.417 381.668 -119.193 352.982 -134.992" stroke="white" stroke-width="1.76" stroke-linecap="round" stroke-linejoin="round"/>
<path d="M897.361 163.673L600.593 204.75L483.434 513.277" stroke="white" stroke-width="1.76" stroke-miterlimit="10"/>
<path d="M705 58.1372L410.015 98.9658L295.158 407.177" stroke="white" stroke-width="1.76" stroke-miterlimit="10"/>
<path d="M507.584 -52.0703L211.425 -11.1065L96.7933 296.541" stroke="white" stroke-width="1.76" stroke-miterlimit="10"/>
<path d="M180.843 -110.526L892.103 271.42L778.939 575.095" stroke="white" stroke-width="1.76" stroke-miterlimit="10"/>
<path d="M96.7933 296.541L391.576 253.433L507.584 -52.0703" stroke="white" stroke-width="1.76" stroke-miterlimit="10"/>
<path d="M295.158 407.177L591.452 365.423L706.196 57.9341" stroke="white" stroke-width="1.76" stroke-miterlimit="10"/>
<path d="M481.651 510.839L784.288 471.636L897.362 163.673" stroke="white" stroke-width="1.76" stroke-miterlimit="10"/>
<path d="M777.088 575.366L65.3087 193.736L180.843 -110.526" stroke="white" stroke-width="1.76" stroke-miterlimit="10"/>
<path d="M1241.16 541.314C1228.07 550.885 1171.77 591.223 1096.92 617.344C1021.82 643.573 940.413 671.985 850.275 639.857C830.138 632.684 732.61 595.069 696.744 496.028C669.997 422.158 692.488 355.31 703.485 322.578C727.057 252.532 770.744 206.815 821.085 154.183C853.213 120.565 900.162 82.8196 921.833 65.8808C944.778 50.7352 994.708 18.5428 1036.82 -1.20482C1102.74 -32.1225 1159.99 -59 1233.9 -59C1268.43 -59 1338.95 -59 1400.46 -10.128C1482.91 55.4236 1487.49 159.865 1487.86 181.234C1489.56 276.903 1436.7 345.005 1387.91 407.834C1339.3 470.425 1255.51 530.792 1241.19 541.271V541.314H1241.16Z" fill="#FFD33A" stroke="#010101" stroke-width="1.65" stroke-miterlimit="10"/>
<path d="M1351.92 -18.6626C1386.77 29.8205 1268.39 174.535 1087.51 304.537C906.622 434.538 731.746 500.63 696.896 452.147C662.046 403.664 780.423 258.949 961.306 128.947C1142.19 -1.05398 1317.07 -67.1458 1351.92 -18.6626ZM1351.92 -18.6626C1396.23 15.9713 1411.53 72.427 1421.18 102.956C1427.64 123.438 1441.04 198.82 1396.98 284.616C1384.89 308.167 1370.71 325.408 1360.1 336.664M1351.92 -18.6626C1305.77 -54.7441 1224.38 -65.8925 1164.4 -40.1602C1144.31 -31.5395 1124.73 -22.4004 1115.83 -14.039M1324.61 459.817C1333.55 458.024 1345.97 453.897 1354.66 443.44C1363.95 432.248 1370.41 412.068 1356.02 365.94C1315.68 236.587 1196.51 160.254 1196.51 160.254C1173.69 145.605 1131.43 117.54 1075.95 113.888M1380.8 393.811C1393.92 387.308 1422.5 370.909 1442.68 337.377C1463.12 303.435 1463.51 270.983 1463.49 253.245C1463.42 177.063 1416.6 124.129 1403.9 110.194C1360.34 62.4019 1309.24 46.889 1289.43 41.1635C1223.49 22.0857 1162.5 34.9195 1138.71 41.6389M1281.37 361.749C1290.1 333.899 1301.85 283.018 1292.24 220.707C1279.26 136.553 1235.29 83.2515 1215.86 60.3279C1201.32 43.1729 1149.34 -14.7519 1097.38 -17.9063C1086.4 -18.5761 1060.71 -20.1318 1044.7 -3.38739C1040.62 0.868926 1038.18 9.38166 1036.73 12.5145M917.684 227.988C903.468 281.743 916.604 330.744 923.216 357.039C923.216 357.039 957.569 494.321 1067.33 573.787C1106.45 602.112 1127.63 602.436 1141.22 597.186C1153.9 592.281 1161.76 581.824 1166.32 573.916M829.188 264.437C815.252 284.832 783.621 338.566 780.704 407.142C779.819 427.754 778.241 481.12 809.656 537.64C818.817 554.125 854.077 615.377 926.262 639.727C943.071 645.388 973.946 655.37 1012.62 646.814C1050.84 638.366 1079.34 614.686 1089.67 604.337M783.708 225.006C772.926 230.797 758.04 246.418 743.456 262.73C699.964 311.364 684.602 392.061 704.069 447.307C722.78 500.349 771.414 532.844 797.276 551.727C814.625 564.388 881.819 601.096 977.165 586.685C1003.35 582.731 1024.2 574.781 1038.24 568.32M835.173 157.186C831.759 157.553 821.777 158.482 816.44 160.989C795.461 170.841 788.763 195.666 785.89 206.296C772.321 256.551 810.65 324.284 822.295 343.535C837.83 369.246 874.343 427.927 949.985 467.033C1005.99 496.006 1057.97 501.084 1087.14 501.689M986.563 185.144C1008.99 229.759 1029.86 266.252 1045.98 293.086C1075.73 342.563 1115.07 407.315 1178.98 479.348C1200.03 503.05 1218.52 521.695 1231.42 534.205M1188.92 416.13C1186.37 410.75 1182.63 399.407 1178.01 390.139C1170.45 375.036 1146.4 327.936 1096 251.97C1064.37 204.33 1035.65 161.378 990.323 108.616C975.048 90.835 958.476 73.5936 949.034 63.6118M1390.5 345.696C1410.01 372.854 1347.01 451.52 1249.76 521.414C1152.52 591.309 1057.86 625.964 1038.35 598.806C1018.84 571.648 1081.84 492.982 1179.09 423.087C1276.34 353.193 1370.99 318.537 1390.5 345.696ZM929.805 77.0074C828.496 149.818 762.21 230.861 781.72 258.02C801.23 285.178 899.19 248.168 1000.48 175.356C1101.79 102.545 1168.07 21.5024 1148.56 -5.65596C1129.05 -32.8143 1031.09 4.19625 929.805 77.0074ZM1032.84 225.244C835.994 366.718 707.18 524.202 745.098 576.963C783.016 629.724 973.341 557.799 1170.19 416.325C1367.04 274.851 1495.85 117.367 1457.93 64.6057C1420.02 11.8447 1229.69 83.7699 1032.84 225.244ZM1387.89 407.877C1436.67 345.047 1489.57 276.946 1487.84 181.276C1487.45 159.887 1482.89 55.4665 1400.44 -10.0851C1338.95 -58.9787 1268.41 -58.9787 1233.88 -58.9571C1159.99 -58.9571 1102.74 -32.0797 1036.8 -1.16194C994.687 18.5856 944.778 50.7781 921.811 65.9237C900.141 82.8625 853.213 120.608 821.064 154.226C770.744 206.857 727.036 252.575 703.464 322.621C692.445 355.353 669.975 422.201 696.723 496.071C732.589 595.111 830.117 632.727 850.253 639.9C940.392 672.006 1021.8 643.595 1096.9 617.387C1171.72 591.266 1228.05 550.95 1241.14 541.357C1255.47 530.878 1339.28 470.512 1387.87 407.92V407.877H1387.89Z" stroke="#010101" stroke-width="1.7" stroke-miterlimit="10"/>
</g>
</svg>
