<svg width="303" height="127" viewBox="0 0 303 127" fill="none" xmlns="http://www.w3.org/2000/svg">
<path d="M1.65853 54.5404C0.901454 53.8586 0.675659 53.1768 0.675659 52.1187V40.156C0.675659 39.6247 1.05641 39.2484 1.58326 39.2484H2.11455C2.64583 39.2484 3.02215 39.4742 3.17268 40.0054C5.59444 50.3034 10.9692 55.0717 17.5571 55.0717C22.9319 55.0717 26.0355 50.755 26.0355 46.2126C26.0355 33.1165 1.27778 27.6664 1.27778 13.8088C1.27778 6.23807 6.95363 0.863281 16.1182 0.863281C21.192 0.863281 26.3365 2.37743 28.3067 4.04211C29.0638 4.72392 29.2896 5.40574 29.2896 6.46387V15.7746C29.2896 16.3059 28.9133 16.6822 28.382 16.6822H27.7754C27.2442 16.6822 26.8678 16.4564 26.7173 15.9251C24.145 6.99072 19.2218 3.73662 14.6041 3.73662C11.1995 3.73662 8.39695 6.76493 8.39695 11.0816C8.39695 22.8937 32.5481 27.3565 32.5481 43.3304C32.5481 51.8087 27.4744 57.9406 16.4237 57.9406C10.4424 57.9406 3.17711 55.8952 1.66296 54.5316V54.5404H1.65853Z" fill="white"/>
<path d="M36.9356 37.1278C36.9356 24.7136 43.9751 18.2009 53.06 18.2009C56.9959 18.2009 61.4631 19.4893 63.1278 20.9282C63.9601 21.6852 64.1107 22.1413 64.1107 23.4252V30.6949C64.1107 31.0756 63.8096 31.3767 63.4288 31.3767H62.8223C62.446 31.3767 62.0652 31.0756 61.9147 30.4691C60.1747 23.8059 57.3722 20.7776 52.9803 20.7776C47.9066 20.7776 44.3514 25.9266 44.3514 35.8439C44.3514 46.899 49.0444 53.0308 55.4818 53.0308C58.7359 53.0308 61.9147 51.592 64.1107 48.8647C64.487 48.4087 64.943 48.3334 65.3237 48.6389L65.6248 48.8647C66.0056 49.1658 66.1561 49.5465 65.9259 49.9981C63.2783 55.2976 59.0369 57.9496 53.2814 57.9496C44.803 57.9496 36.9268 50.6799 36.9268 37.1278H36.9356Z" fill="white"/>
<path d="M141.793 38.2654C141.793 26.1522 148.15 18.2051 157.917 18.2051C167.684 18.2051 173.816 26.0016 173.816 37.7385C173.816 49.4754 167.609 57.9538 157.992 57.9538C148.376 57.9538 141.793 50.1572 141.793 38.2698V38.2654ZM158.599 55.6029C163.518 55.6029 166.396 49.3205 166.396 38.6461C166.396 27.2147 163.141 20.5516 157.461 20.5516C152.237 20.5516 149.209 26.834 149.209 37.5836C149.209 48.9397 152.613 55.6029 158.595 55.6029H158.599Z" fill="white"/>
<path d="M141.846 26.6347V26.6303L140.943 25.9352L115.207 12.1838L93.7208 36.5874L101.305 56.1651L128.351 70.6159L149.063 46.27L141.846 26.6347Z" fill="#FFD33A"/>
<path d="M68.507 55.9042V55.5279C68.507 54.8461 68.808 54.6203 69.4146 54.4697C71.0793 54.0137 72.8192 52.5748 72.8192 50.6843V9.61629C72.8192 7.72581 71.6858 6.3622 69.2596 5.68039C68.8833 5.60512 68.7284 5.30405 68.7284 4.9233V4.31676C68.7284 3.93601 68.9542 3.63495 69.3349 3.55969C72.9698 2.80261 75.3163 1.81974 77.5122 0.380855C77.8133 0.15506 78.194 0.155048 78.4198 0.230313L78.7961 0.380855C79.1769 0.531385 79.3274 0.83686 79.3274 1.21318V24.1867C81.8997 20.025 85.6098 18.2053 89.5457 18.2053C96.8154 18.2053 100.07 23.2791 100.07 30.6949V50.6799C100.07 52.6501 101.96 54.1642 103.78 54.5406C104.16 54.6158 104.386 54.8416 104.386 55.5234V55.8998C104.386 56.6568 104.16 56.8074 103.704 56.8074C101.358 56.8074 98.9361 56.4266 96.5896 56.4266C94.2431 56.4266 91.9719 56.8074 89.6254 56.8074C89.1694 56.8074 88.9436 56.6568 88.9436 55.8998V55.5234C88.9436 54.8416 89.2447 54.6158 89.8512 54.4653C91.5159 54.0093 93.2559 52.5704 93.2559 50.6799V33.2672C93.2559 25.9222 90.7588 23.0489 86.7432 23.0489C84.016 23.0489 80.9877 24.6383 79.6285 28.1226V50.6843C79.6285 52.6545 81.5234 54.1687 83.3386 54.545C83.7149 54.6203 83.9451 54.8461 83.9451 55.5279V55.9042C83.9451 56.6613 83.7193 56.8118 83.2633 56.8118C80.9168 56.8118 78.4951 56.431 76.1486 56.431C73.8021 56.431 71.5309 56.8118 69.1844 56.8118C68.7284 56.8118 68.5026 56.6613 68.5026 55.9042H68.507Z" fill="white"/>
<path d="M177.074 55.9042V55.5279C177.074 54.8461 177.375 54.6203 177.982 54.4697C179.647 54.0137 181.387 52.5748 181.387 50.6843V9.61629C181.387 7.72581 180.253 6.3622 177.827 5.68039C177.446 5.60512 177.296 5.30405 177.296 4.9233V4.31676C177.296 3.93601 177.521 3.63495 177.902 3.55969C181.537 2.80261 184.185 1.81974 186.381 0.380855C186.682 0.15506 187.062 0.155048 187.288 0.230313L187.665 0.380855C188.041 0.531385 188.196 0.83686 188.196 1.21318V50.6843C188.196 52.6545 190.091 54.1687 191.906 54.545C192.282 54.6203 192.512 54.8461 192.512 55.5279V55.9042C192.512 56.6613 192.287 56.8118 191.831 56.8118C189.484 56.8118 187.062 56.431 184.716 56.431C182.369 56.431 180.098 56.8118 177.752 56.8118C177.296 56.8118 177.07 56.6613 177.07 55.9042H177.074Z" fill="white"/>
<path d="M197.135 55.2221C196.302 54.465 196.152 54.009 196.152 52.7251V44.1715C196.152 43.7907 196.453 43.4897 196.834 43.4897H197.44C197.816 43.4897 198.197 43.7907 198.348 44.3973C199.937 50.3786 204.781 55.3771 209.553 55.3771C212.807 55.3771 214.778 52.8801 214.778 49.7012C214.778 41.2981 196.683 38.044 196.683 27.8213C196.683 21.9152 200.694 18.2051 207.738 18.2051C211.9 18.2051 215.84 19.2632 217.199 20.4011C218.032 21.1581 218.182 21.6141 218.182 22.8981V29.5612C218.182 29.9375 217.881 30.243 217.5 30.243H216.894C216.518 30.243 216.137 29.942 215.986 29.3354C214.472 23.8101 210.611 20.7818 207.127 20.7818C204.48 20.7818 202.585 22.3712 202.585 25.1737C202.585 32.1379 220.223 35.3168 220.223 47.1289C220.223 53.6416 216.664 57.9538 208.11 57.9538C203.112 57.9538 198.569 56.4396 197.135 55.2265V55.2221Z" fill="white"/>
<path d="M239.518 38.2654C239.518 26.1522 245.875 18.2051 255.642 18.2051C265.409 18.2051 271.541 26.0016 271.541 37.7385C271.541 49.4754 265.333 57.9538 255.717 57.9538C246.101 57.9538 239.518 50.1572 239.518 38.2698V38.2654ZM256.324 55.6029C261.243 55.6029 264.12 49.3205 264.12 38.6461C264.12 27.2147 260.866 20.5516 255.186 20.5516C249.962 20.5516 246.933 26.834 246.933 37.5836C246.933 48.9397 250.338 55.6029 256.319 55.6029H256.324Z" fill="white"/>
<path d="M275.884 22.8982C274.976 22.8982 274.826 22.5175 274.826 21.9906V21.3841C274.826 20.8528 275.052 20.4012 276.114 20.171C277.478 19.7947 278.687 19.1128 278.992 18.5063V17.187C278.992 6.58789 286.638 0 294.59 0C300.496 0 302.767 1.97017 302.767 5.149C302.767 7.19444 301.328 8.93438 298.981 8.93438C295.347 8.93438 295.803 3.55959 290.353 3.55959C287.78 3.55959 285.81 6.20713 285.81 14.8405V19.2634C287.701 19.2634 289.671 19.1881 291.411 19.1881C292.85 19.1881 293.301 19.4892 293.301 20.3215V21.5346C293.301 22.5928 292.845 22.823 291.486 22.823L285.81 22.7477V50.6843C285.81 52.6544 287.701 54.1686 290.884 54.5449C291.265 54.6202 291.49 54.846 291.49 55.5278V55.9041C291.49 56.6612 291.265 56.8117 290.809 56.8117C287.098 56.8117 284.677 56.4309 282.33 56.4309C279.984 56.4309 277.712 56.8117 275.366 56.8117C274.91 56.8117 274.684 56.6612 274.684 55.9041V55.5278C274.684 54.846 274.985 54.6202 275.592 54.4696C277.256 54.0136 278.996 52.5747 278.996 50.6843V22.6724C277.558 22.6724 276.725 22.8982 275.893 22.8982H275.884Z" fill="white"/>
<path d="M14.5022 68.5487H12.8376C8.82638 68.5487 4.43445 70.5941 3.07083 78.9219C2.99556 79.5285 2.61481 79.8295 2.23849 79.8295H1.63194C1.25562 79.8295 0.950134 79.5285 0.950134 79.1477L1.70721 68.0926C1.85774 66.2022 0.631362 65.6709 3.43387 65.6709C10.1723 65.7462 12.0628 65.8967 18.2743 65.8967H24.7073C30.9144 65.8967 32.8093 65.7462 39.5477 65.6709C42.3502 65.6709 44.1832 66.2022 44.3337 68.0926L45.0908 79.1477C45.0908 79.5241 44.7897 79.8295 44.409 79.8295H43.8024C43.4261 79.8295 43.0453 79.5285 42.9701 78.9219C41.6064 70.5941 37.2145 68.5487 33.2033 68.5487H31.5387C28.5856 68.5487 26.6951 69.837 26.6951 71.8028V112.911C26.6951 114.881 28.5856 116.395 31.1623 116.771C31.5387 116.847 31.7689 117.072 31.7689 117.754V118.131C31.7689 118.888 31.5431 119.038 31.0871 119.038C27.9835 119.038 25.5617 118.657 22.8345 118.657C20.1073 118.657 17.836 119.038 14.7325 119.038C14.2764 119.038 14.0506 118.888 14.0506 118.131V117.754C14.0506 117.072 14.3517 116.847 14.9583 116.696C17.38 116.24 19.12 114.801 19.12 112.911V71.8028C19.12 69.9079 17.38 68.5487 14.5022 68.5487Z" fill="white"/>
<path d="M74.506 118.139V117.763C74.506 117.081 74.8071 116.855 75.4137 116.705C77.0783 116.249 78.8183 114.81 78.8183 112.92V91.0396C78.8183 89.1447 77.8354 87.7855 75.2587 87.1037C74.8824 87.0284 74.7274 86.723 74.7274 86.3466V85.7401C74.7274 85.3637 74.9532 85.0583 75.334 84.983C78.6633 84.3012 81.9219 82.1052 83.5113 80.5158C83.8123 80.2148 84.1931 80.29 84.6447 80.4406C85.176 80.6663 85.3265 80.9718 85.3265 81.3482V86.8735C87.8988 82.4063 91.4584 80.4406 95.5448 80.4406C100.087 80.4406 103.191 83.0128 104.404 87.2542C106.976 82.5613 110.686 80.4406 114.852 80.4406C120.759 80.4406 124.238 84.7572 124.238 91.5709V112.92C124.238 114.89 126.129 116.404 127.949 116.78C128.325 116.855 128.555 117.081 128.555 117.763V118.139C128.555 118.896 128.329 119.047 127.873 119.047C125.527 119.047 123.105 118.666 120.759 118.666C118.412 118.666 116.141 119.047 113.794 119.047C113.338 119.047 113.112 118.896 113.112 118.139V117.763C113.112 117.081 113.414 116.855 114.02 116.705C115.685 116.249 117.425 114.81 117.425 112.92V92.9345C117.425 87.4092 115.379 85.2885 112.05 85.2885C109.323 85.2885 106.294 86.8779 104.935 90.4375V112.924C104.935 114.894 106.83 116.408 108.645 116.785C109.022 116.86 109.252 117.086 109.252 117.768V118.144C109.252 118.901 109.026 119.051 108.57 119.051C106.224 119.051 103.802 118.671 101.455 118.671C99.1088 118.671 96.8376 119.051 94.4911 119.051C94.0351 119.051 93.8093 118.901 93.8093 118.144V117.768C93.8093 117.086 94.1103 116.86 94.7169 116.709C96.3816 116.253 98.1215 114.814 98.1215 112.924V92.9389C98.1215 87.4136 96.0761 85.2929 92.7467 85.2929C90.0195 85.2929 86.9912 86.8823 85.632 90.3667V112.928C85.632 114.899 87.5224 116.413 89.3421 116.789C89.7184 116.864 89.9486 117.09 89.9486 117.772V118.148C89.9486 118.905 89.7228 119.056 89.2668 119.056C86.9203 119.056 84.4986 118.675 82.1521 118.675C79.8056 118.675 77.5344 119.056 75.1879 119.056C74.7318 119.056 74.506 118.905 74.506 118.148V118.139Z" fill="white"/>
<path d="M130.18 100.496C130.18 88.3831 136.538 80.436 146.304 80.436C156.071 80.436 162.203 88.2326 162.203 99.9695C162.203 111.706 155.996 120.185 146.38 120.185C136.763 120.185 130.18 112.388 130.18 100.501V100.496ZM146.986 117.834C151.905 117.834 154.783 111.551 154.783 100.877C154.783 89.4457 151.529 82.7825 145.848 82.7825C140.624 82.7825 137.596 89.0649 137.596 99.8145C137.596 111.171 141 117.834 146.982 117.834H146.986Z" fill="white"/>
<path d="M164.811 118.139V117.763C164.811 117.081 165.112 116.855 165.718 116.705C167.383 116.249 169.123 114.81 169.123 112.92V91.0396C169.123 89.1447 168.14 87.7855 165.563 87.1037C165.183 87.0284 165.032 86.723 165.032 86.3466V85.7401C165.032 85.3637 165.258 85.0583 165.639 84.983C168.968 84.3012 172.226 82.1052 173.816 80.5158C174.117 80.2148 174.498 80.29 174.949 80.4406C175.481 80.6663 175.631 80.9718 175.631 81.3482V86.6477C178.128 83.0129 181.913 80.4406 184.791 80.4406C188.652 80.4406 190.547 82.8623 190.547 86.1164C190.547 88.5382 189.334 89.977 187.142 89.977C183.282 89.977 184.039 86.2669 180.404 86.2669C178.434 86.2669 176.919 87.7058 175.937 90.3534V112.915C175.937 114.885 177.831 116.399 179.647 116.776C180.023 116.851 180.253 117.077 180.253 117.759V118.135C180.253 118.892 180.027 119.043 179.571 119.043C177.225 119.043 174.803 118.662 172.457 118.662C170.11 118.662 167.839 119.043 165.492 119.043C165.036 119.043 164.811 118.892 164.811 118.135V118.139Z" fill="white"/>
<path d="M266.033 118.29L255.509 87.781C254.602 85.129 252.631 83.8451 250.891 83.4643C250.511 83.389 250.285 83.1632 250.285 82.4814V82.1051C250.285 81.348 250.511 81.1975 250.967 81.1975C253.313 81.1975 255.965 81.5738 259.069 81.5738C261.716 81.5738 263.988 81.1975 266.259 81.1975C266.715 81.1975 266.941 81.348 266.941 82.1051V82.4814C266.941 83.1632 266.64 83.389 266.033 83.5396C263.611 84.2214 262.779 85.7355 263.611 88.1573L269.517 107.159L274.361 91.1856L273.303 88.082C272.32 85.3548 270.425 83.8406 269.061 83.4643C268.681 83.389 268.455 83.1632 268.455 82.4814V82.1051C268.455 81.348 268.681 81.1975 269.137 81.1975C271.031 81.1975 273.679 81.5738 276.783 81.5738C279.43 81.5738 281.701 81.1975 284.429 81.1975C284.885 81.1975 285.11 81.348 285.11 82.1051V82.4814C285.11 83.1632 284.809 83.389 284.203 83.5396C281.555 84.1461 280.568 85.585 281.174 87.7057L287.005 107.314L293.363 87.9315C294.12 85.3592 292.38 83.9956 290.41 83.5396C289.803 83.389 289.502 83.1588 289.502 82.4814V82.1051C289.502 81.348 289.728 81.1975 290.184 81.1975C291.397 81.1975 293.744 81.5738 295.86 81.5738C297.675 81.5738 298.268 81.1975 299.402 81.1975C299.858 81.1975 300.084 81.348 300.084 82.1051V82.4814C300.084 83.1632 299.858 83.389 299.477 83.4643C297.662 83.8451 297.299 85.3592 296.312 88.082L286.014 118.29C285.863 118.746 285.558 119.047 285.031 119.047H284.424C283.893 119.047 283.592 118.746 283.441 118.29L275.871 95.6528L268.601 118.29C268.45 118.746 268.145 119.047 267.618 119.047H267.011C266.48 119.047 266.179 118.746 266.029 118.29H266.033Z" fill="white"/>
<path d="M262.704 106.867V106.854C262.704 106.734 262.704 106.606 262.699 106.478C262.69 106.101 262.673 105.734 262.65 105.389C262.646 105.313 262.642 105.242 262.637 105.172V105.154C262.588 104.521 262.526 103.972 262.478 103.564C262.42 103.122 262.376 102.852 262.371 102.825C262.358 102.745 262.345 102.661 262.332 102.582C262.239 102.024 262.124 101.382 261.942 100.594C261.929 100.545 261.92 100.496 261.907 100.443V100.43C261.845 100.16 261.769 99.8721 261.69 99.5621V99.5533C261.668 99.4692 261.645 99.385 261.623 99.3009C261.619 99.2788 261.614 99.2611 261.606 99.239C261.606 99.2213 261.597 99.2079 261.592 99.1902C261.583 99.1637 261.579 99.1415 261.57 99.115C261.566 99.0928 261.557 99.0707 261.552 99.0486C261.508 98.8892 261.464 98.7342 261.42 98.5837C261.411 98.5616 261.406 98.535 261.397 98.5129C261.349 98.3535 261.3 98.1985 261.256 98.048C261.238 97.9904 261.22 97.9373 261.203 97.8798C261.167 97.7735 261.136 97.6672 261.101 97.5654C261.074 97.4901 261.052 97.4149 261.026 97.344C260.99 97.2422 260.955 97.1404 260.924 97.043C260.906 96.9987 260.893 96.9544 260.875 96.9102C260.57 96.0424 260.335 95.4757 260.317 95.4314V95.4226C260.317 95.4226 260.304 95.3916 260.299 95.3783C260.171 95.064 259.87 94.329 259.414 93.3594C259.396 93.3196 259.379 93.2842 259.361 93.2443C259.308 93.1292 259.25 93.0097 259.193 92.8901C259.162 92.8237 259.126 92.7573 259.091 92.6865C259.029 92.5581 258.962 92.4253 258.892 92.2925C258.874 92.257 258.852 92.2172 258.834 92.1818C258.75 92.018 258.666 91.8541 258.573 91.6815C258.573 91.6815 258.573 91.6726 258.568 91.6682C258.568 91.6682 258.568 91.6593 258.564 91.6593C258.307 91.1812 257.555 89.7688 256.359 87.9846C255.996 87.4445 255.505 86.7229 255.102 86.2093C255.097 86.2004 255.089 86.1916 255.084 86.1827C254.898 85.9436 254.686 85.6691 254.469 85.3902C254.23 85.0847 253.991 84.7792 253.778 84.5269C253.371 84.0399 252.826 83.3891 252.383 82.933C252.383 82.933 252.383 82.9286 252.379 82.9286C251.994 82.5124 251.591 82.0919 251.17 81.6713C251.095 81.5916 251.015 81.5163 250.945 81.4455C250.909 81.41 250.869 81.3702 250.829 81.3348C250.816 81.3215 250.803 81.3082 250.79 81.2949C250.657 81.1665 250.511 81.0293 250.365 80.8876C250.28 80.8079 250.192 80.7238 250.103 80.6441C249.979 80.529 249.86 80.4183 249.74 80.3121C249.705 80.2766 249.665 80.2456 249.63 80.2102C249.559 80.1438 249.488 80.0818 249.422 80.0243C249.36 79.9711 249.302 79.9225 249.244 79.8693C249.165 79.7985 249.081 79.7276 249.001 79.6568C248.895 79.5638 248.788 79.4797 248.687 79.3912C248.576 79.2982 248.47 79.2096 248.359 79.1211C248.222 79.006 248.084 78.8997 247.952 78.7935C247.934 78.7802 247.916 78.7625 247.894 78.7492C247.876 78.7359 247.859 78.7226 247.841 78.7049C247.226 78.2179 246.685 77.8195 246.243 77.5095C245.809 77.2041 245.233 76.8189 244.768 76.5222C244.277 76.1946 243.595 75.8006 243.077 75.5217C243.024 75.4907 242.966 75.4641 242.909 75.4331C242.896 75.4243 242.878 75.4154 242.865 75.4066C242.289 75.0745 241.483 74.6937 240.877 74.4193C240.531 74.2599 240.124 74.0872 239.668 73.9057H239.664C239.084 73.6577 238.287 73.3788 237.685 73.2062C237.671 73.2062 237.654 73.1973 237.64 73.1929C236.976 72.9892 236.263 72.7988 235.515 72.6395C235.179 72.5686 234.754 72.4845 234.369 72.4225C233.78 72.3251 233.058 72.2499 232.496 72.21C232.239 72.1923 231.947 72.179 231.65 72.1702C231.624 72.1702 231.593 72.1702 231.566 72.1657C231.256 72.148 230.902 72.1525 230.539 72.1657C230.388 72.1657 230.247 72.1746 230.109 72.1834C229.901 72.1967 229.671 72.2144 229.436 72.2366C229.237 72.2543 229.042 72.272 228.865 72.2897C228.299 72.3428 227.604 72.4712 226.97 72.6173C226.953 72.6173 226.939 72.6262 226.922 72.6262C226.665 72.6882 226.417 72.7501 226.196 72.8121C226.174 72.8165 226.151 72.8254 226.125 72.8343C226.098 72.8431 226.072 72.8475 226.045 72.8564C225.589 72.9892 224.668 73.2726 223.579 73.7861C223.557 73.795 223.535 73.8083 223.513 73.8171C223.3 73.919 223.114 74.0119 222.955 74.0961C222.911 74.1182 222.862 74.1448 222.818 74.1669C222.72 74.22 222.636 74.2643 222.565 74.3041C222.193 74.5078 221.861 74.7115 221.556 74.9195C221.543 74.9284 221.534 74.9328 221.525 74.9417C221.405 75.0214 221.286 75.1055 221.175 75.1852C220.865 75.4021 220.564 75.6279 220.272 75.8626L220.263 75.8714C219.785 76.2389 219.2 76.7967 218.784 77.235C218.74 77.2837 218.687 77.3369 218.638 77.39C218.634 77.3988 218.625 77.4033 218.62 77.4121C218.616 77.4166 218.612 77.421 218.607 77.4299C218.381 77.6734 218.129 77.9478 217.952 78.1825C217.948 78.1913 217.939 78.2002 217.93 78.2091C217.359 78.9086 216.894 79.5948 216.522 80.2191C216.517 80.2279 216.513 80.2324 216.509 80.2412C216.256 80.6397 215.977 81.1975 215.769 81.6181C215.698 81.7598 215.628 81.9236 215.552 82.0874C215.437 82.3486 215.344 82.57 215.278 82.7382C215.238 82.8401 215.194 82.9463 215.154 83.057C215.132 83.1101 215.11 83.1677 215.092 83.2252C215.087 83.2429 215.079 83.2562 215.074 83.274C214.826 83.9469 214.578 84.735 214.441 85.3725C214.432 85.4212 214.419 85.4699 214.41 85.5186C214.348 85.7798 214.282 86.0455 214.242 86.2757C214.167 86.6786 214.087 87.17 214.02 87.6349C214.02 87.6614 214.012 87.6836 214.007 87.7101C213.936 88.1706 213.888 88.7948 213.861 89.2597C213.857 89.3394 213.852 89.4191 213.848 89.5032C213.821 90.0301 213.804 90.6765 213.821 91.4424V91.4955C213.826 91.8099 213.848 92.195 213.87 92.5581C213.874 92.6289 213.879 92.6953 213.883 92.7618V92.7971C213.888 92.868 213.892 92.9388 213.901 93.0052C213.905 93.0628 213.91 93.1204 213.914 93.1779C213.923 93.293 213.936 93.417 213.95 93.541C214.051 94.5371 214.175 95.2898 214.215 95.5023C214.299 96.007 214.428 96.618 214.53 97.0872C214.76 98.1587 215.256 100.076 216.194 102.427C216.261 102.599 216.332 102.768 216.398 102.927C216.677 103.604 216.96 104.224 217.221 104.764C217.221 104.769 217.226 104.773 217.23 104.778C217.244 104.809 217.261 104.84 217.275 104.871C217.301 104.928 217.328 104.986 217.354 105.039C218.337 107.049 219.262 108.505 219.271 108.519C219.355 108.647 219.444 108.784 219.532 108.922C219.758 109.28 219.98 109.626 220.183 109.94C220.56 110.515 221.011 111.144 221.476 111.764C221.644 111.994 221.844 112.246 222.047 112.503C222.313 112.844 222.579 113.172 222.835 113.477C223.566 114.385 224.589 115.47 225.43 116.306C225.434 116.311 225.439 116.315 225.447 116.324C225.496 116.373 225.545 116.421 225.589 116.466H225.594C225.594 116.466 225.598 116.475 225.602 116.479C225.682 116.559 225.766 116.638 225.855 116.727C226.249 117.108 226.607 117.44 226.944 117.736C227.006 117.794 227.068 117.847 227.13 117.9C227.156 117.922 227.183 117.944 227.21 117.971C227.236 117.993 227.258 118.015 227.285 118.033C227.75 118.44 228.192 118.808 228.591 119.127L228.6 119.135C228.635 119.166 229.18 119.609 230.016 120.211C230.127 120.291 230.229 120.362 230.318 120.424C230.45 120.517 230.596 120.619 230.747 120.72C230.796 120.751 230.844 120.787 230.893 120.818C230.898 120.822 230.906 120.827 230.911 120.831C231.013 120.898 231.114 120.968 231.221 121.039C231.283 121.079 231.345 121.119 231.402 121.159C231.42 121.168 231.433 121.181 231.451 121.19C231.606 121.292 231.756 121.385 231.894 121.469C231.907 121.477 231.92 121.486 231.933 121.491C232.584 121.898 233.186 122.243 233.704 122.522H233.709C234.191 122.801 234.829 123.107 235.382 123.364C235.405 123.372 235.431 123.386 235.453 123.395C235.471 123.403 235.489 123.412 235.506 123.421C235.559 123.443 235.613 123.47 235.67 123.496C235.688 123.505 235.71 123.514 235.728 123.523C236.21 123.74 236.804 123.992 237.485 124.245C237.53 124.262 237.574 124.276 237.618 124.293C237.662 124.311 237.707 124.324 237.755 124.342C237.822 124.364 237.884 124.386 237.95 124.413C237.99 124.426 238.03 124.439 238.065 124.453C238.127 124.475 238.189 124.497 238.256 124.515C238.309 124.532 238.362 124.55 238.42 124.568C238.428 124.568 238.433 124.572 238.442 124.577C238.451 124.577 238.455 124.581 238.464 124.586C238.814 124.701 239.181 124.811 239.557 124.918C239.584 124.926 239.61 124.931 239.641 124.94C239.761 124.971 239.885 125.006 240.009 125.037C240.058 125.05 240.106 125.064 240.155 125.073C240.252 125.095 240.35 125.121 240.447 125.143C240.496 125.157 240.54 125.165 240.585 125.174C240.686 125.196 240.788 125.219 240.89 125.245C240.917 125.25 240.943 125.258 240.97 125.263C241.005 125.272 241.041 125.281 241.076 125.285C241.528 125.378 242.134 125.498 242.59 125.551C242.626 125.551 242.661 125.56 242.696 125.564C243.148 125.621 243.622 125.67 244.016 125.706C244.268 125.728 244.569 125.737 244.861 125.745C244.914 125.745 244.968 125.75 245.021 125.754C245.145 125.759 245.362 125.768 245.672 125.763C246.331 125.763 247.141 125.706 247.757 125.621C248.47 125.542 249.391 125.369 250.121 125.17C250.205 125.148 250.285 125.126 250.347 125.108C250.71 124.997 251.197 124.86 251.551 124.723C251.671 124.674 251.803 124.625 251.936 124.572C252.034 124.537 252.131 124.501 252.22 124.466C252.454 124.373 252.733 124.249 252.994 124.125C253.132 124.063 253.26 123.997 253.38 123.935C254.309 123.47 255.102 122.934 255.376 122.744C255.562 122.615 255.761 122.469 255.952 122.319C256.058 122.235 256.169 122.15 256.271 122.071C256.284 122.062 256.297 122.053 256.306 122.044C256.461 121.925 256.629 121.779 256.797 121.628C257.059 121.402 257.338 121.15 257.541 120.929C257.55 120.92 257.559 120.906 257.568 120.898C257.82 120.641 258.108 120.318 258.334 120.07C258.334 120.07 258.498 119.888 258.745 119.578C258.918 119.366 259.082 119.153 259.219 118.954C259.219 118.949 259.228 118.941 259.232 118.936C259.449 118.631 259.693 118.277 259.936 117.874C260.14 117.542 260.361 117.148 260.574 116.745C260.671 116.568 260.769 116.364 260.862 116.165C260.977 115.921 261.083 115.682 261.167 115.461C261.185 115.416 261.203 115.372 261.22 115.323C261.433 114.797 261.668 114.181 261.818 113.659C261.893 113.415 261.964 113.176 262.017 112.959C262.026 112.915 262.039 112.866 262.048 112.818C262.115 112.565 262.181 112.313 262.225 112.096C262.349 111.485 262.509 110.666 262.575 110.042C262.575 110.028 262.575 110.011 262.58 109.997C262.615 109.679 262.646 109.351 262.673 109.077C262.739 108.412 262.774 107.523 262.748 106.858L262.704 106.867ZM246.566 110.692C246.566 110.692 246.61 110.675 246.632 110.662C246.561 110.692 246.451 110.741 246.318 110.781C246.287 110.79 246.252 110.799 246.212 110.808C246.19 110.812 246.172 110.816 246.15 110.821C246.132 110.821 246.11 110.83 246.088 110.834C245.968 110.852 245.862 110.865 245.76 110.874C245.729 110.874 245.698 110.878 245.663 110.883C245.614 110.883 245.565 110.887 245.512 110.887H245.3C245.052 110.883 244.826 110.861 244.653 110.839C244.631 110.839 244.609 110.834 244.587 110.83C244.419 110.803 244.224 110.763 244.029 110.723C243.75 110.662 243.445 110.586 243.201 110.515C243.135 110.498 243.064 110.476 242.993 110.449C242.98 110.445 242.966 110.44 242.953 110.436C242.754 110.369 242.546 110.29 242.364 110.219C242.103 110.117 241.798 109.984 241.563 109.873C241.51 109.851 241.457 109.825 241.399 109.798C241.249 109.727 241.111 109.656 240.992 109.594C240.828 109.51 240.669 109.422 240.509 109.333C240.252 109.187 239.951 109.01 239.712 108.86C239.637 108.811 239.549 108.753 239.442 108.687C239.225 108.545 238.991 108.381 238.796 108.249C238.526 108.058 238.225 107.832 237.893 107.571C237.676 107.394 237.379 107.142 236.905 106.743C236.764 106.619 236.635 106.5 236.52 106.394C236.33 106.216 236.139 106.031 235.976 105.876C235.772 105.676 235.436 105.34 235.024 104.888C234.754 104.592 234.435 104.184 234.16 103.901C233.594 103.215 233.142 102.604 232.85 102.192C232.722 102.006 232.598 101.825 232.487 101.661C232.341 101.435 232.159 101.165 231.995 100.904C231.885 100.722 231.779 100.549 231.681 100.386C231.517 100.102 231.336 99.7835 231.154 99.4603C230.8 98.7962 230.393 97.9107 230.087 97.2334C229.95 96.9013 229.782 96.4674 229.662 96.1354C229.653 96.1088 229.645 96.0823 229.636 96.0557C229.459 95.5023 229.343 95.1525 229.264 94.8957C229.153 94.5106 229.073 94.1918 229.034 94.0103C228.989 93.811 228.936 93.5631 228.892 93.3373C228.883 93.2886 228.874 93.2443 228.865 93.1956C228.865 93.1779 228.861 93.1646 228.856 93.1469C228.848 93.0849 228.834 93.0274 228.825 92.9654C228.825 92.9477 228.821 92.9256 228.817 92.9034C228.772 92.6422 228.737 92.3633 228.702 92.0357C228.684 91.8409 228.666 91.6151 228.653 91.4026V91.3184C228.653 91.252 228.648 91.1856 228.644 91.1236C228.644 90.7694 228.657 90.3001 228.684 89.9371C228.702 89.7334 228.728 89.5165 228.772 89.2774V89.2686C228.786 89.1977 228.799 89.1269 228.817 89.0516C228.852 88.9011 228.892 88.7373 228.945 88.569C228.967 88.4982 228.989 88.4362 229.011 88.3742C229.02 88.3521 229.029 88.3344 229.038 88.3123C229.104 88.1485 229.171 88.0201 229.228 87.9049C229.233 87.8961 229.242 87.8828 229.246 87.8739C229.255 87.8607 229.264 87.8474 229.273 87.8341C229.304 87.7854 229.335 87.7411 229.366 87.6969C229.37 87.688 229.379 87.6836 229.383 87.6747C229.419 87.6305 229.454 87.5817 229.494 87.5419C229.556 87.4799 229.622 87.4268 229.689 87.3781C229.711 87.3604 229.738 87.3471 229.769 87.3294C229.822 87.3028 229.87 87.2763 229.923 87.2541C229.937 87.2497 229.954 87.2408 229.968 87.2364C229.999 87.2231 230.03 87.2143 230.056 87.201C230.087 87.1922 230.114 87.1789 230.14 87.1744C230.158 87.17 230.171 87.1656 230.189 87.1611C230.242 87.1479 230.3 87.1346 230.357 87.1213C230.375 87.1213 230.388 87.1169 230.406 87.1125C230.424 87.1125 230.446 87.1036 230.464 87.1036C230.508 87.0947 230.557 87.0903 230.601 87.0859C230.698 87.077 230.809 87.0726 230.915 87.0638H231.305C231.354 87.0638 231.407 87.0682 231.446 87.0726C231.584 87.0859 231.752 87.1036 231.907 87.1257C232.248 87.1833 232.677 87.2807 233 87.3604C233.085 87.3825 233.173 87.4091 233.266 87.4356C233.315 87.4534 233.368 87.4666 233.412 87.4843C233.859 87.6437 234.453 87.8784 234.887 88.0732C235.072 88.1573 235.254 88.2503 235.431 88.3432C235.564 88.4141 235.697 88.4849 235.812 88.5469C235.825 88.5558 235.838 88.5602 235.852 88.569C236.113 88.7107 236.445 88.9144 236.693 89.0649C237.012 89.273 237.419 89.5342 237.915 89.8972C238.154 90.0743 238.406 90.2691 238.672 90.4817C239.394 91.0616 239.951 91.5796 240.27 91.8895C240.337 91.9515 240.403 92.0179 240.465 92.0799C240.469 92.0844 240.478 92.0932 240.483 92.0976C240.691 92.3057 240.943 92.5625 241.169 92.7971C241.2 92.8326 241.226 92.8591 241.257 92.8946C241.311 92.9521 241.364 93.0097 241.421 93.0717C241.461 93.1159 241.501 93.1602 241.545 93.2089C241.567 93.2355 241.594 93.262 241.616 93.2886C241.758 93.448 241.908 93.6207 242.05 93.7845C242.125 93.873 242.201 93.9616 242.276 94.0545C242.811 94.7009 243.467 95.6085 243.949 96.2948C244.078 96.494 244.233 96.7286 244.383 96.9589C244.494 97.1315 244.6 97.3086 244.702 97.4769C245.038 98.0701 245.255 98.4553 245.415 98.7431C245.601 99.0929 245.769 99.4382 245.928 99.7747C245.937 99.7879 245.942 99.8057 245.95 99.8189C246.101 100.16 246.309 100.616 246.451 100.966C246.575 101.276 246.725 101.683 246.84 102.01C246.871 102.108 246.907 102.205 246.938 102.298C246.942 102.316 246.951 102.334 246.955 102.351C246.995 102.475 247.035 102.599 247.071 102.719C247.079 102.75 247.088 102.776 247.097 102.803C247.128 102.909 247.159 103.011 247.186 103.113C247.199 103.162 247.212 103.206 247.226 103.25C247.257 103.361 247.283 103.467 247.31 103.573V103.587C247.367 103.808 247.416 104.02 247.456 104.22C247.54 104.671 247.597 104.977 247.637 105.207C247.686 105.535 247.717 105.8 247.735 105.982C247.735 106.008 247.735 106.039 247.739 106.07C247.748 106.172 247.752 106.287 247.761 106.407C247.775 106.637 247.783 106.854 247.783 107.075C247.783 107.337 247.77 107.646 247.752 107.934C247.752 107.956 247.752 107.979 247.748 108.001C247.748 108.049 247.739 108.098 247.735 108.147C247.726 108.218 247.717 108.293 247.708 108.368C247.664 108.678 247.611 108.935 247.558 109.138C247.496 109.373 247.407 109.63 247.292 109.873C247.283 109.896 247.274 109.913 247.261 109.935C247.234 109.984 247.212 110.033 247.186 110.077C247.177 110.095 247.164 110.113 247.15 110.135C247.133 110.166 247.115 110.192 247.093 110.219C247.079 110.236 247.066 110.259 247.053 110.276C247.035 110.298 247.017 110.321 247.004 110.338C246.986 110.36 246.969 110.378 246.947 110.4C246.933 110.414 246.92 110.431 246.902 110.445C246.871 110.476 246.84 110.502 246.805 110.529C246.792 110.538 246.783 110.546 246.774 110.551C246.743 110.573 246.708 110.595 246.677 110.617C246.646 110.635 246.619 110.648 246.597 110.662C246.575 110.67 246.553 110.679 246.53 110.692H246.566Z" fill="#13C1E3"/>
<path d="M193.429 118.139V117.763C193.429 117.081 193.73 116.855 194.337 116.705C196.001 116.249 197.741 114.81 197.741 112.92V91.0396C197.741 89.1447 196.758 87.7855 194.182 87.1037C193.805 87.0284 193.65 86.723 193.65 86.3466V85.7401C193.65 85.3637 193.876 85.0583 194.257 84.983C197.586 84.3012 200.845 82.1052 202.434 80.5158C202.735 80.2148 203.116 80.29 203.568 80.4406C204.099 80.6663 204.249 80.9718 204.249 81.3482V86.6477C206.746 83.0129 210.532 80.4406 213.41 80.4406C217.27 80.4406 219.165 82.8623 219.165 86.1164C219.165 88.5382 217.952 89.977 215.76 89.977C211.9 89.977 212.657 86.2669 209.022 86.2669C207.052 86.2669 205.538 87.7058 204.555 90.3534V112.915C204.555 114.885 206.45 116.399 208.265 116.776C208.641 116.851 208.871 117.077 208.871 117.759V118.135C208.871 118.892 208.646 119.043 208.19 119.043C205.843 119.043 203.421 118.662 201.075 118.662C198.728 118.662 196.457 119.043 194.111 119.043C193.655 119.043 193.429 118.892 193.429 118.135V118.139Z" fill="white"/>
<path d="M74.9664 110.794L82.0635 88.4625L66.2711 71.1516L43.3818 76.1722L33.4424 86.7934L26.3453 109.125L42.1377 126.436L65.0271 121.415L74.9664 110.794Z" fill="#EF4976"/>
</svg>
