<svg width="235" height="73" viewBox="0 0 235 73" fill="none" xmlns="http://www.w3.org/2000/svg">
<mask id="path-1-inside-1_407_297" fill="white">
<path d="M0.401855 0.916443H234.129V73.0006H0.401855V0.916443Z"/>
</mask>
<path d="M0.401855 0.916443V0.166114H-0.348473V0.916443H0.401855ZM234.129 0.916443H234.88V0.166114H234.129V0.916443ZM234.129 73.0006V73.7509H234.88V73.0006H234.129ZM0.401855 73.0006H-0.348473V73.7509H0.401855V73.0006ZM0.401855 1.66677H234.129V0.166114H0.401855V1.66677ZM233.379 0.916443V73.0006H234.88V0.916443H233.379ZM234.129 72.2502H0.401855V73.7509H234.129V72.2502ZM1.15218 73.0006V0.916443H-0.348473V73.0006H1.15218Z" fill="#FFD33A" mask="url(#path-1-inside-1_407_297)"/>
<path fill-rule="evenodd" clip-rule="evenodd" d="M75.7942 22.0236L60.558 51.8091H46.2467L52.6231 39.4646H52.337C47.0765 46.2935 39.2277 50.7889 28.0444 51.8091V39.6356C28.0444 39.6356 35.1987 39.2129 39.4044 34.7912H28.0444V22.0238H40.8118V32.5248L41.0984 32.5236L46.3157 22.0238H55.9713V32.4582L56.2578 32.4578L61.6708 22.0236H75.7942ZM158.88 48.5214H162.992V24.9194H158.88V48.5214ZM136.211 48.2804C137.105 48.6519 138.013 48.8377 138.937 48.8377C140.463 48.8377 141.829 48.4662 143.034 47.7231C144.239 46.9801 145.173 45.956 145.836 44.6505C146.498 43.3352 146.83 41.8439 146.83 40.1771C146.83 38.5103 146.488 37.0192 145.806 35.7038C145.123 34.3884 144.174 33.3692 142.959 32.6462C141.744 31.9132 140.363 31.5517 138.817 31.5617C137.833 31.5617 136.889 31.7525 135.985 32.1341C135.081 32.5157 134.328 33.0579 133.726 33.7608C133.679 33.8143 133.634 33.8684 133.59 33.9229V24.9345H129.463V48.5215H133.56L133.552 46.318C133.658 46.4479 133.771 46.5749 133.891 46.699C134.544 47.3718 135.317 47.8988 136.211 48.2804ZM140.428 44.4698C139.756 44.8815 138.987 45.0874 138.124 45.0874C137.27 45.0874 136.487 44.8764 135.774 44.4548C135.061 44.0229 134.494 43.4356 134.072 42.6925C133.66 41.9495 133.455 41.1059 133.455 40.162C133.445 39.2182 133.645 38.3747 134.057 37.6317C134.479 36.8786 135.046 36.2962 135.759 35.8845C136.472 35.4628 137.26 35.2569 138.124 35.267C138.987 35.2569 139.756 35.4578 140.428 35.8695C141.111 36.2711 141.633 36.8485 141.995 37.6016C142.366 38.3446 142.552 39.1981 142.552 40.162C142.552 41.1261 142.366 41.9796 141.995 42.7226C141.633 43.4657 141.111 44.048 140.428 44.4698ZM81.7511 26.3503H86.4504L90.6542 41.7024L95.1261 26.3503H99.0423L103.892 41.3943L107.929 26.3503H112.236L105.88 48.5215H101.829L96.8969 33.8246L92.3698 48.5215H88.273L81.7511 26.3503ZM119.177 48.9129C117.54 48.923 116.064 48.5615 114.748 47.8286C113.443 47.0854 112.414 46.0562 111.66 44.7408C110.918 43.4255 110.546 41.9243 110.546 40.2373C110.546 38.6005 110.928 37.1195 111.691 35.7941C112.454 34.4686 113.488 33.4344 114.793 32.6913C116.099 31.9483 117.555 31.5768 119.161 31.5768C120.969 31.5768 122.55 31.9784 123.906 32.7817C125.271 33.585 126.291 34.7247 126.963 36.2007C127.646 37.6668 127.892 39.3487 127.701 41.2465H114.8C114.836 42.0025 115.025 42.6904 115.366 43.31C115.747 43.9927 116.28 44.5249 116.962 44.9065C117.645 45.288 118.408 45.4788 119.252 45.4788C119.894 45.4688 120.492 45.3584 121.044 45.1476C121.596 44.9267 122.063 44.6305 122.445 44.2588C122.837 43.8873 123.113 43.4657 123.273 42.9937H127.581C127.32 44.1484 126.798 45.1777 126.015 46.0813C125.231 46.9751 124.247 47.6729 123.062 48.1749C121.878 48.677 120.582 48.923 119.177 48.9129ZM115.381 37.1045C115.14 37.5241 114.973 37.9759 114.881 38.4601H123.433C123.371 37.8485 123.182 37.2912 122.867 36.7882C122.505 36.1957 122.013 35.7388 121.391 35.4175C120.768 35.0862 120.065 34.9205 119.282 34.9205C118.448 34.9205 117.69 35.1113 117.007 35.4928C116.325 35.8744 115.782 36.4116 115.381 37.1045ZM149.858 31.9232C149.858 30.5777 150.164 29.3828 150.776 28.3385C151.389 27.2842 152.247 26.4658 153.352 25.8834C154.466 25.291 155.767 24.9847 157.253 24.9646V28.6246C156.56 28.6347 155.968 28.7803 155.476 29.0615C154.994 29.3326 154.622 29.7292 154.361 30.2513C154.121 30.732 153.991 31.2893 153.972 31.9232H157.162V35.4025H153.969V48.5215H149.858V35.4025H147.207V31.9232H149.858ZM173.444 48.8828C171.767 48.8828 170.266 48.5162 168.94 47.7833C167.625 47.0402 166.591 46.0161 165.838 44.7106C165.094 43.3953 164.723 41.9042 164.723 40.2372C164.723 38.5604 165.094 37.0642 165.838 35.7488C166.591 34.4234 167.625 33.3941 168.94 32.6611C170.266 31.9281 171.767 31.5616 173.444 31.5616C175.131 31.5616 176.637 31.9281 177.962 32.6611C179.298 33.3941 180.337 34.4183 181.08 35.7338C181.823 37.0492 182.2 38.5503 182.21 40.2372C182.2 41.9042 181.823 43.3953 181.08 44.7106C180.347 46.0161 179.313 47.0402 177.977 47.7833C176.642 48.5162 175.131 48.8828 173.444 48.8828ZM173.444 45.1023C174.327 45.1023 175.111 44.9014 175.793 44.4998C176.476 44.0881 177.003 43.5157 177.375 42.7827C177.746 42.0397 177.932 41.1911 177.932 40.2372C177.932 39.2733 177.746 38.4198 177.375 37.6767C177.003 36.9337 176.476 36.3613 175.793 35.9597C175.111 35.548 174.327 35.3421 173.444 35.3421C172.57 35.3421 171.792 35.548 171.109 35.9597C170.436 36.3613 169.914 36.9337 169.543 37.6767C169.171 38.4198 168.991 39.2733 169 40.2372C169 41.1911 169.186 42.0397 169.558 42.7827C169.939 43.5157 170.461 44.0881 171.124 44.4998C171.797 44.9014 172.57 45.1023 173.444 45.1023ZM186.653 31.9232H182.074L187.03 48.5214H191.036L194.295 37.9201L197.813 48.5214H201.76L206.731 31.9232H202.589L199.769 42.2546L196.653 31.9232H192.648L189.547 42.4821L186.653 31.9232Z" fill="#C7C7C7"/>
<path d="M75.7942 22.0236L60.558 51.8091H46.2467L52.6231 39.4646H52.337C47.0765 46.2935 39.2277 50.7889 28.0444 51.8091V39.6356C28.0444 39.6356 35.1987 39.2129 39.4044 34.7912H28.0444V22.0238H40.8118V32.5248L41.0984 32.5236L46.3157 22.0238H55.9713V32.4582L56.2578 32.4578L61.6708 22.0236H75.7942ZM158.88 48.5214H162.992V24.9194H158.88V48.5214ZM136.211 48.2804C137.105 48.6519 138.013 48.8377 138.937 48.8377C140.463 48.8377 141.829 48.4662 143.034 47.7231C144.239 46.9801 145.173 45.956 145.836 44.6505C146.498 43.3352 146.83 41.8439 146.83 40.1771C146.83 38.5103 146.488 37.0192 145.806 35.7038C145.123 34.3884 144.174 33.3692 142.959 32.6462C141.744 31.9132 140.363 31.5517 138.817 31.5617C137.833 31.5617 136.889 31.7525 135.985 32.1341C135.081 32.5157 134.328 33.0579 133.726 33.7608C133.679 33.8143 133.634 33.8684 133.59 33.9229V24.9345H129.463V48.5215H133.56L133.552 46.318C133.658 46.4479 133.771 46.5749 133.891 46.699C134.544 47.3718 135.317 47.8988 136.211 48.2804ZM140.428 44.4698C139.756 44.8815 138.987 45.0874 138.124 45.0874C137.27 45.0874 136.487 44.8764 135.774 44.4548C135.061 44.0229 134.494 43.4356 134.072 42.6925C133.66 41.9495 133.455 41.1059 133.455 40.162C133.445 39.2182 133.645 38.3747 134.057 37.6317C134.479 36.8786 135.046 36.2962 135.759 35.8845C136.472 35.4628 137.26 35.2569 138.124 35.267C138.987 35.2569 139.756 35.4578 140.428 35.8695C141.111 36.2711 141.633 36.8485 141.995 37.6016C142.366 38.3446 142.552 39.1981 142.552 40.162C142.552 41.1261 142.366 41.9796 141.995 42.7226C141.633 43.4657 141.111 44.048 140.428 44.4698ZM81.7511 26.3503H86.4504L90.6542 41.7024L95.1261 26.3503H99.0423L103.892 41.3943L107.929 26.3503H112.236L105.88 48.5215H101.829L96.8969 33.8246L92.3698 48.5215H88.273L81.7511 26.3503ZM119.177 48.9129C117.54 48.923 116.064 48.5615 114.748 47.8286C113.443 47.0854 112.414 46.0562 111.66 44.7408C110.918 43.4255 110.546 41.9243 110.546 40.2373C110.546 38.6005 110.928 37.1195 111.691 35.7941C112.454 34.4686 113.488 33.4344 114.793 32.6913C116.099 31.9483 117.555 31.5768 119.161 31.5768C120.969 31.5768 122.55 31.9784 123.906 32.7817C125.271 33.585 126.291 34.7247 126.963 36.2007C127.646 37.6668 127.892 39.3487 127.701 41.2465H114.8C114.836 42.0025 115.025 42.6904 115.366 43.31C115.747 43.9927 116.28 44.5249 116.962 44.9065C117.645 45.288 118.408 45.4788 119.252 45.4788C119.894 45.4688 120.492 45.3584 121.044 45.1476C121.596 44.9267 122.063 44.6305 122.445 44.2588C122.837 43.8873 123.113 43.4657 123.273 42.9937H127.581C127.32 44.1484 126.798 45.1777 126.015 46.0813C125.231 46.9751 124.247 47.6729 123.062 48.1749C121.878 48.677 120.582 48.923 119.177 48.9129ZM115.381 37.1045C115.14 37.5241 114.973 37.9759 114.881 38.4601H123.433C123.371 37.8485 123.182 37.2912 122.867 36.7882C122.505 36.1957 122.013 35.7388 121.391 35.4175C120.768 35.0862 120.065 34.9205 119.282 34.9205C118.448 34.9205 117.69 35.1113 117.007 35.4928C116.325 35.8744 115.782 36.4116 115.381 37.1045ZM149.858 31.9232C149.858 30.5777 150.164 29.3828 150.776 28.3385C151.389 27.2842 152.247 26.4658 153.352 25.8834C154.466 25.291 155.767 24.9847 157.253 24.9646V28.6246C156.56 28.6347 155.968 28.7803 155.476 29.0615C154.994 29.3326 154.622 29.7292 154.361 30.2513C154.121 30.732 153.991 31.2893 153.972 31.9232H157.162V35.4025H153.969V48.5215H149.858V35.4025H147.207V31.9232H149.858ZM173.444 48.8828C171.767 48.8828 170.266 48.5162 168.94 47.7833C167.625 47.0402 166.591 46.0161 165.838 44.7106C165.094 43.3953 164.723 41.9042 164.723 40.2372C164.723 38.5604 165.094 37.0642 165.838 35.7488C166.591 34.4234 167.625 33.3941 168.94 32.6611C170.266 31.9281 171.767 31.5616 173.444 31.5616C175.131 31.5616 176.637 31.9281 177.962 32.6611C179.298 33.3941 180.337 34.4183 181.08 35.7338C181.823 37.0492 182.2 38.5503 182.21 40.2372C182.2 41.9042 181.823 43.3953 181.08 44.7106C180.347 46.0161 179.313 47.0402 177.977 47.7833C176.642 48.5162 175.131 48.8828 173.444 48.8828ZM173.444 45.1023C174.327 45.1023 175.111 44.9014 175.793 44.4998C176.476 44.0881 177.003 43.5157 177.375 42.7827C177.746 42.0397 177.932 41.1911 177.932 40.2372C177.932 39.2733 177.746 38.4198 177.375 37.6767C177.003 36.9337 176.476 36.3613 175.793 35.9597C175.111 35.548 174.327 35.3421 173.444 35.3421C172.57 35.3421 171.792 35.548 171.109 35.9597C170.436 36.3613 169.914 36.9337 169.543 37.6767C169.171 38.4198 168.991 39.2733 169 40.2372C169 41.1911 169.186 42.0397 169.558 42.7827C169.939 43.5157 170.461 44.0881 171.124 44.4998C171.797 44.9014 172.57 45.1023 173.444 45.1023ZM186.653 31.9232H182.074L187.03 48.5214H191.036L194.295 37.9201L197.813 48.5214H201.76L206.731 31.9232H202.589L199.769 42.2546L196.653 31.9232H192.648L189.547 42.4821L186.653 31.9232Z" fill="#C7C7C7"/>
<path fill-rule="evenodd" clip-rule="evenodd" d="M75.7942 22.0236L60.558 51.8091H46.2467L52.6231 39.4646H52.337C47.0765 46.2935 39.2277 50.7889 28.0444 51.8091V39.6356C28.0444 39.6356 35.1987 39.2129 39.4044 34.7912H28.0444V22.0238H40.8118V32.5248L41.0984 32.5236L46.3157 22.0238H55.9713V32.4582L56.2578 32.4578L61.6708 22.0236H75.7942ZM158.88 48.5214H162.992V24.9194H158.88V48.5214ZM136.211 48.2804C137.105 48.6519 138.013 48.8377 138.937 48.8377C140.463 48.8377 141.829 48.4662 143.034 47.7231C144.239 46.9801 145.173 45.956 145.836 44.6505C146.498 43.3352 146.83 41.8439 146.83 40.1771C146.83 38.5103 146.488 37.0192 145.806 35.7038C145.123 34.3884 144.174 33.3692 142.959 32.6462C141.744 31.9132 140.363 31.5517 138.817 31.5617C137.833 31.5617 136.889 31.7525 135.985 32.1341C135.081 32.5157 134.328 33.0579 133.726 33.7608C133.679 33.8143 133.634 33.8684 133.59 33.9229V24.9345H129.463V48.5215H133.56L133.552 46.318C133.658 46.4479 133.771 46.5749 133.891 46.699C134.544 47.3718 135.317 47.8988 136.211 48.2804ZM140.428 44.4698C139.756 44.8815 138.987 45.0874 138.124 45.0874C137.27 45.0874 136.487 44.8764 135.774 44.4548C135.061 44.0229 134.494 43.4356 134.072 42.6925C133.66 41.9495 133.455 41.1059 133.455 40.162C133.445 39.2182 133.645 38.3747 134.057 37.6317C134.479 36.8786 135.046 36.2962 135.759 35.8845C136.472 35.4628 137.26 35.2569 138.124 35.267C138.987 35.2569 139.756 35.4578 140.428 35.8695C141.111 36.2711 141.633 36.8485 141.995 37.6016C142.366 38.3446 142.552 39.1981 142.552 40.162C142.552 41.1261 142.366 41.9796 141.995 42.7226C141.633 43.4657 141.111 44.048 140.428 44.4698ZM81.7511 26.3503H86.4504L90.6542 41.7024L95.1261 26.3503H99.0423L103.892 41.3943L107.929 26.3503H112.236L105.88 48.5215H101.829L96.8969 33.8246L92.3698 48.5215H88.273L81.7511 26.3503ZM119.177 48.9129C117.54 48.923 116.064 48.5615 114.748 47.8286C113.443 47.0854 112.414 46.0562 111.66 44.7408C110.918 43.4255 110.546 41.9243 110.546 40.2373C110.546 38.6005 110.928 37.1195 111.691 35.7941C112.454 34.4686 113.488 33.4344 114.793 32.6913C116.099 31.9483 117.555 31.5768 119.161 31.5768C120.969 31.5768 122.55 31.9784 123.906 32.7817C125.271 33.585 126.291 34.7247 126.963 36.2007C127.646 37.6668 127.892 39.3487 127.701 41.2465H114.8C114.836 42.0025 115.025 42.6904 115.366 43.31C115.747 43.9927 116.28 44.5249 116.962 44.9065C117.645 45.288 118.408 45.4788 119.252 45.4788C119.894 45.4688 120.492 45.3584 121.044 45.1476C121.596 44.9267 122.063 44.6305 122.445 44.2588C122.837 43.8873 123.113 43.4657 123.273 42.9937H127.581C127.32 44.1484 126.798 45.1777 126.015 46.0813C125.231 46.9751 124.247 47.6729 123.062 48.1749C121.878 48.677 120.582 48.923 119.177 48.9129ZM115.381 37.1045C115.14 37.5241 114.973 37.9759 114.881 38.4601H123.433C123.371 37.8485 123.182 37.2912 122.867 36.7882C122.505 36.1957 122.013 35.7388 121.391 35.4175C120.768 35.0862 120.065 34.9205 119.282 34.9205C118.448 34.9205 117.69 35.1113 117.007 35.4928C116.325 35.8744 115.782 36.4116 115.381 37.1045ZM149.858 31.9232C149.858 30.5777 150.164 29.3828 150.776 28.3385C151.389 27.2842 152.247 26.4658 153.352 25.8834C154.466 25.291 155.767 24.9847 157.253 24.9646V28.6246C156.56 28.6347 155.968 28.7803 155.476 29.0615C154.994 29.3326 154.622 29.7292 154.361 30.2513C154.121 30.732 153.991 31.2893 153.972 31.9232H157.162V35.4025H153.969V48.5215H149.858V35.4025H147.207V31.9232H149.858ZM173.444 48.8828C171.767 48.8828 170.266 48.5162 168.94 47.7833C167.625 47.0402 166.591 46.0161 165.838 44.7106C165.094 43.3953 164.723 41.9042 164.723 40.2372C164.723 38.5604 165.094 37.0642 165.838 35.7488C166.591 34.4234 167.625 33.3941 168.94 32.6611C170.266 31.9281 171.767 31.5616 173.444 31.5616C175.131 31.5616 176.637 31.9281 177.962 32.6611C179.298 33.3941 180.337 34.4183 181.08 35.7338C181.823 37.0492 182.2 38.5503 182.21 40.2372C182.2 41.9042 181.823 43.3953 181.08 44.7106C180.347 46.0161 179.313 47.0402 177.977 47.7833C176.642 48.5162 175.131 48.8828 173.444 48.8828ZM173.444 45.1023C174.327 45.1023 175.111 44.9014 175.793 44.4998C176.476 44.0881 177.003 43.5157 177.375 42.7827C177.746 42.0397 177.932 41.1911 177.932 40.2372C177.932 39.2733 177.746 38.4198 177.375 37.6767C177.003 36.9337 176.476 36.3613 175.793 35.9597C175.111 35.548 174.327 35.3421 173.444 35.3421C172.57 35.3421 171.792 35.548 171.109 35.9597C170.436 36.3613 169.914 36.9337 169.543 37.6767C169.171 38.4198 168.991 39.2733 169 40.2372C169 41.1911 169.186 42.0397 169.558 42.7827C169.939 43.5157 170.461 44.0881 171.124 44.4998C171.797 44.9014 172.57 45.1023 173.444 45.1023ZM186.653 31.9232H182.074L187.03 48.5214H191.036L194.295 37.9201L197.813 48.5214H201.76L206.731 31.9232H202.589L199.769 42.2546L196.653 31.9232H192.648L189.547 42.4821L186.653 31.9232Z" fill="#C7C7C7"/>
<path d="M75.7942 22.0236L60.558 51.8091H46.2467L52.6231 39.4646H52.337C47.0765 46.2935 39.2277 50.7889 28.0444 51.8091V39.6356C28.0444 39.6356 35.1987 39.2129 39.4044 34.7912H28.0444V22.0238H40.8118V32.5248L41.0984 32.5236L46.3157 22.0238H55.9713V32.4582L56.2578 32.4578L61.6708 22.0236H75.7942ZM158.88 48.5214H162.992V24.9194H158.88V48.5214ZM136.211 48.2804C137.105 48.6519 138.013 48.8377 138.937 48.8377C140.463 48.8377 141.829 48.4662 143.034 47.7231C144.239 46.9801 145.173 45.956 145.836 44.6505C146.498 43.3352 146.83 41.8439 146.83 40.1771C146.83 38.5103 146.488 37.0192 145.806 35.7038C145.123 34.3884 144.174 33.3692 142.959 32.6462C141.744 31.9132 140.363 31.5517 138.817 31.5617C137.833 31.5617 136.889 31.7525 135.985 32.1341C135.081 32.5157 134.328 33.0579 133.726 33.7608C133.679 33.8143 133.634 33.8684 133.59 33.9229V24.9345H129.463V48.5215H133.56L133.552 46.318C133.658 46.4479 133.771 46.5749 133.891 46.699C134.544 47.3718 135.317 47.8988 136.211 48.2804ZM140.428 44.4698C139.756 44.8815 138.987 45.0874 138.124 45.0874C137.27 45.0874 136.487 44.8764 135.774 44.4548C135.061 44.0229 134.494 43.4356 134.072 42.6925C133.66 41.9495 133.455 41.1059 133.455 40.162C133.445 39.2182 133.645 38.3747 134.057 37.6317C134.479 36.8786 135.046 36.2962 135.759 35.8845C136.472 35.4628 137.26 35.2569 138.124 35.267C138.987 35.2569 139.756 35.4578 140.428 35.8695C141.111 36.2711 141.633 36.8485 141.995 37.6016C142.366 38.3446 142.552 39.1981 142.552 40.162C142.552 41.1261 142.366 41.9796 141.995 42.7226C141.633 43.4657 141.111 44.048 140.428 44.4698ZM81.7511 26.3503H86.4504L90.6542 41.7024L95.1261 26.3503H99.0423L103.892 41.3943L107.929 26.3503H112.236L105.88 48.5215H101.829L96.8969 33.8246L92.3698 48.5215H88.273L81.7511 26.3503ZM119.177 48.9129C117.54 48.923 116.064 48.5615 114.748 47.8286C113.443 47.0854 112.414 46.0562 111.66 44.7408C110.918 43.4255 110.546 41.9243 110.546 40.2373C110.546 38.6005 110.928 37.1195 111.691 35.7941C112.454 34.4686 113.488 33.4344 114.793 32.6913C116.099 31.9483 117.555 31.5768 119.161 31.5768C120.969 31.5768 122.55 31.9784 123.906 32.7817C125.271 33.585 126.291 34.7247 126.963 36.2007C127.646 37.6668 127.892 39.3487 127.701 41.2465H114.8C114.836 42.0025 115.025 42.6904 115.366 43.31C115.747 43.9927 116.28 44.5249 116.962 44.9065C117.645 45.288 118.408 45.4788 119.252 45.4788C119.894 45.4688 120.492 45.3584 121.044 45.1476C121.596 44.9267 122.063 44.6305 122.445 44.2588C122.837 43.8873 123.113 43.4657 123.273 42.9937H127.581C127.32 44.1484 126.798 45.1777 126.015 46.0813C125.231 46.9751 124.247 47.6729 123.062 48.1749C121.878 48.677 120.582 48.923 119.177 48.9129ZM115.381 37.1045C115.14 37.5241 114.973 37.9759 114.881 38.4601H123.433C123.371 37.8485 123.182 37.2912 122.867 36.7882C122.505 36.1957 122.013 35.7388 121.391 35.4175C120.768 35.0862 120.065 34.9205 119.282 34.9205C118.448 34.9205 117.69 35.1113 117.007 35.4928C116.325 35.8744 115.782 36.4116 115.381 37.1045ZM149.858 31.9232C149.858 30.5777 150.164 29.3828 150.776 28.3385C151.389 27.2842 152.247 26.4658 153.352 25.8834C154.466 25.291 155.767 24.9847 157.253 24.9646V28.6246C156.56 28.6347 155.968 28.7803 155.476 29.0615C154.994 29.3326 154.622 29.7292 154.361 30.2513C154.121 30.732 153.991 31.2893 153.972 31.9232H157.162V35.4025H153.969V48.5215H149.858V35.4025H147.207V31.9232H149.858ZM173.444 48.8828C171.767 48.8828 170.266 48.5162 168.94 47.7833C167.625 47.0402 166.591 46.0161 165.838 44.7106C165.094 43.3953 164.723 41.9042 164.723 40.2372C164.723 38.5604 165.094 37.0642 165.838 35.7488C166.591 34.4234 167.625 33.3941 168.94 32.6611C170.266 31.9281 171.767 31.5616 173.444 31.5616C175.131 31.5616 176.637 31.9281 177.962 32.6611C179.298 33.3941 180.337 34.4183 181.08 35.7338C181.823 37.0492 182.2 38.5503 182.21 40.2372C182.2 41.9042 181.823 43.3953 181.08 44.7106C180.347 46.0161 179.313 47.0402 177.977 47.7833C176.642 48.5162 175.131 48.8828 173.444 48.8828ZM173.444 45.1023C174.327 45.1023 175.111 44.9014 175.793 44.4998C176.476 44.0881 177.003 43.5157 177.375 42.7827C177.746 42.0397 177.932 41.1911 177.932 40.2372C177.932 39.2733 177.746 38.4198 177.375 37.6767C177.003 36.9337 176.476 36.3613 175.793 35.9597C175.111 35.548 174.327 35.3421 173.444 35.3421C172.57 35.3421 171.792 35.548 171.109 35.9597C170.436 36.3613 169.914 36.9337 169.543 37.6767C169.171 38.4198 168.991 39.2733 169 40.2372C169 41.1911 169.186 42.0397 169.558 42.7827C169.939 43.5157 170.461 44.0881 171.124 44.4998C171.797 44.9014 172.57 45.1023 173.444 45.1023ZM186.653 31.9232H182.074L187.03 48.5214H191.036L194.295 37.9201L197.813 48.5214H201.76L206.731 31.9232H202.589L199.769 42.2546L196.653 31.9232H192.648L189.547 42.4821L186.653 31.9232Z" fill="#C7C7C7"/>
<path fill-rule="evenodd" clip-rule="evenodd" d="M75.7942 22.0236L60.558 51.8091H46.2467L52.6231 39.4646H52.337C47.0765 46.2935 39.2277 50.7889 28.0444 51.8091V39.6356C28.0444 39.6356 35.1987 39.2129 39.4044 34.7912H28.0444V22.0238H40.8118V32.5248L41.0984 32.5236L46.3157 22.0238H55.9713V32.4582L56.2578 32.4578L61.6708 22.0236H75.7942ZM158.88 48.5214H162.992V24.9194H158.88V48.5214ZM136.211 48.2804C137.105 48.6519 138.013 48.8377 138.937 48.8377C140.463 48.8377 141.829 48.4662 143.034 47.7231C144.239 46.9801 145.173 45.956 145.836 44.6505C146.498 43.3352 146.83 41.8439 146.83 40.1771C146.83 38.5103 146.488 37.0192 145.806 35.7038C145.123 34.3884 144.174 33.3692 142.959 32.6462C141.744 31.9132 140.363 31.5517 138.817 31.5617C137.833 31.5617 136.889 31.7525 135.985 32.1341C135.081 32.5157 134.328 33.0579 133.726 33.7608C133.679 33.8143 133.634 33.8684 133.59 33.9229V24.9345H129.463V48.5215H133.56L133.552 46.318C133.658 46.4479 133.771 46.5749 133.891 46.699C134.544 47.3718 135.317 47.8988 136.211 48.2804ZM140.428 44.4698C139.756 44.8815 138.987 45.0874 138.124 45.0874C137.27 45.0874 136.487 44.8764 135.774 44.4548C135.061 44.0229 134.494 43.4356 134.072 42.6925C133.66 41.9495 133.455 41.1059 133.455 40.162C133.445 39.2182 133.645 38.3747 134.057 37.6317C134.479 36.8786 135.046 36.2962 135.759 35.8845C136.472 35.4628 137.26 35.2569 138.124 35.267C138.987 35.2569 139.756 35.4578 140.428 35.8695C141.111 36.2711 141.633 36.8485 141.995 37.6016C142.366 38.3446 142.552 39.1981 142.552 40.162C142.552 41.1261 142.366 41.9796 141.995 42.7226C141.633 43.4657 141.111 44.048 140.428 44.4698ZM81.7511 26.3503H86.4504L90.6542 41.7024L95.1261 26.3503H99.0423L103.892 41.3943L107.929 26.3503H112.236L105.88 48.5215H101.829L96.8969 33.8246L92.3698 48.5215H88.273L81.7511 26.3503ZM119.177 48.9129C117.54 48.923 116.064 48.5615 114.748 47.8286C113.443 47.0854 112.414 46.0562 111.66 44.7408C110.918 43.4255 110.546 41.9243 110.546 40.2373C110.546 38.6005 110.928 37.1195 111.691 35.7941C112.454 34.4686 113.488 33.4344 114.793 32.6913C116.099 31.9483 117.555 31.5768 119.161 31.5768C120.969 31.5768 122.55 31.9784 123.906 32.7817C125.271 33.585 126.291 34.7247 126.963 36.2007C127.646 37.6668 127.892 39.3487 127.701 41.2465H114.8C114.836 42.0025 115.025 42.6904 115.366 43.31C115.747 43.9927 116.28 44.5249 116.962 44.9065C117.645 45.288 118.408 45.4788 119.252 45.4788C119.894 45.4688 120.492 45.3584 121.044 45.1476C121.596 44.9267 122.063 44.6305 122.445 44.2588C122.837 43.8873 123.113 43.4657 123.273 42.9937H127.581C127.32 44.1484 126.798 45.1777 126.015 46.0813C125.231 46.9751 124.247 47.6729 123.062 48.1749C121.878 48.677 120.582 48.923 119.177 48.9129ZM115.381 37.1045C115.14 37.5241 114.973 37.9759 114.881 38.4601H123.433C123.371 37.8485 123.182 37.2912 122.867 36.7882C122.505 36.1957 122.013 35.7388 121.391 35.4175C120.768 35.0862 120.065 34.9205 119.282 34.9205C118.448 34.9205 117.69 35.1113 117.007 35.4928C116.325 35.8744 115.782 36.4116 115.381 37.1045ZM149.858 31.9232C149.858 30.5777 150.164 29.3828 150.776 28.3385C151.389 27.2842 152.247 26.4658 153.352 25.8834C154.466 25.291 155.767 24.9847 157.253 24.9646V28.6246C156.56 28.6347 155.968 28.7803 155.476 29.0615C154.994 29.3326 154.622 29.7292 154.361 30.2513C154.121 30.732 153.991 31.2893 153.972 31.9232H157.162V35.4025H153.969V48.5215H149.858V35.4025H147.207V31.9232H149.858ZM173.444 48.8828C171.767 48.8828 170.266 48.5162 168.94 47.7833C167.625 47.0402 166.591 46.0161 165.838 44.7106C165.094 43.3953 164.723 41.9042 164.723 40.2372C164.723 38.5604 165.094 37.0642 165.838 35.7488C166.591 34.4234 167.625 33.3941 168.94 32.6611C170.266 31.9281 171.767 31.5616 173.444 31.5616C175.131 31.5616 176.637 31.9281 177.962 32.6611C179.298 33.3941 180.337 34.4183 181.08 35.7338C181.823 37.0492 182.2 38.5503 182.21 40.2372C182.2 41.9042 181.823 43.3953 181.08 44.7106C180.347 46.0161 179.313 47.0402 177.977 47.7833C176.642 48.5162 175.131 48.8828 173.444 48.8828ZM173.444 45.1023C174.327 45.1023 175.111 44.9014 175.793 44.4998C176.476 44.0881 177.003 43.5157 177.375 42.7827C177.746 42.0397 177.932 41.1911 177.932 40.2372C177.932 39.2733 177.746 38.4198 177.375 37.6767C177.003 36.9337 176.476 36.3613 175.793 35.9597C175.111 35.548 174.327 35.3421 173.444 35.3421C172.57 35.3421 171.792 35.548 171.109 35.9597C170.436 36.3613 169.914 36.9337 169.543 37.6767C169.171 38.4198 168.991 39.2733 169 40.2372C169 41.1911 169.186 42.0397 169.558 42.7827C169.939 43.5157 170.461 44.0881 171.124 44.4998C171.797 44.9014 172.57 45.1023 173.444 45.1023ZM186.653 31.9232H182.074L187.03 48.5214H191.036L194.295 37.9201L197.813 48.5214H201.76L206.731 31.9232H202.589L199.769 42.2546L196.653 31.9232H192.648L189.547 42.4821L186.653 31.9232Z" fill="#C7C7C7"/>
<path d="M75.7942 22.0236L60.558 51.8091H46.2467L52.6231 39.4646H52.337C47.0765 46.2935 39.2277 50.7889 28.0444 51.8091V39.6356C28.0444 39.6356 35.1987 39.2129 39.4044 34.7912H28.0444V22.0238H40.8118V32.5248L41.0984 32.5236L46.3157 22.0238H55.9713V32.4582L56.2578 32.4578L61.6708 22.0236H75.7942ZM158.88 48.5214H162.992V24.9194H158.88V48.5214ZM136.211 48.2804C137.105 48.6519 138.013 48.8377 138.937 48.8377C140.463 48.8377 141.829 48.4662 143.034 47.7231C144.239 46.9801 145.173 45.956 145.836 44.6505C146.498 43.3352 146.83 41.8439 146.83 40.1771C146.83 38.5103 146.488 37.0192 145.806 35.7038C145.123 34.3884 144.174 33.3692 142.959 32.6462C141.744 31.9132 140.363 31.5517 138.817 31.5617C137.833 31.5617 136.889 31.7525 135.985 32.1341C135.081 32.5157 134.328 33.0579 133.726 33.7608C133.679 33.8143 133.634 33.8684 133.59 33.9229V24.9345H129.463V48.5215H133.56L133.552 46.318C133.658 46.4479 133.771 46.5749 133.891 46.699C134.544 47.3718 135.317 47.8988 136.211 48.2804ZM140.428 44.4698C139.756 44.8815 138.987 45.0874 138.124 45.0874C137.27 45.0874 136.487 44.8764 135.774 44.4548C135.061 44.0229 134.494 43.4356 134.072 42.6925C133.66 41.9495 133.455 41.1059 133.455 40.162C133.445 39.2182 133.645 38.3747 134.057 37.6317C134.479 36.8786 135.046 36.2962 135.759 35.8845C136.472 35.4628 137.26 35.2569 138.124 35.267C138.987 35.2569 139.756 35.4578 140.428 35.8695C141.111 36.2711 141.633 36.8485 141.995 37.6016C142.366 38.3446 142.552 39.1981 142.552 40.162C142.552 41.1261 142.366 41.9796 141.995 42.7226C141.633 43.4657 141.111 44.048 140.428 44.4698ZM81.7511 26.3503H86.4504L90.6542 41.7024L95.1261 26.3503H99.0423L103.892 41.3943L107.929 26.3503H112.236L105.88 48.5215H101.829L96.8969 33.8246L92.3698 48.5215H88.273L81.7511 26.3503ZM119.177 48.9129C117.54 48.923 116.064 48.5615 114.748 47.8286C113.443 47.0854 112.414 46.0562 111.66 44.7408C110.918 43.4255 110.546 41.9243 110.546 40.2373C110.546 38.6005 110.928 37.1195 111.691 35.7941C112.454 34.4686 113.488 33.4344 114.793 32.6913C116.099 31.9483 117.555 31.5768 119.161 31.5768C120.969 31.5768 122.55 31.9784 123.906 32.7817C125.271 33.585 126.291 34.7247 126.963 36.2007C127.646 37.6668 127.892 39.3487 127.701 41.2465H114.8C114.836 42.0025 115.025 42.6904 115.366 43.31C115.747 43.9927 116.28 44.5249 116.962 44.9065C117.645 45.288 118.408 45.4788 119.252 45.4788C119.894 45.4688 120.492 45.3584 121.044 45.1476C121.596 44.9267 122.063 44.6305 122.445 44.2588C122.837 43.8873 123.113 43.4657 123.273 42.9937H127.581C127.32 44.1484 126.798 45.1777 126.015 46.0813C125.231 46.9751 124.247 47.6729 123.062 48.1749C121.878 48.677 120.582 48.923 119.177 48.9129ZM115.381 37.1045C115.14 37.5241 114.973 37.9759 114.881 38.4601H123.433C123.371 37.8485 123.182 37.2912 122.867 36.7882C122.505 36.1957 122.013 35.7388 121.391 35.4175C120.768 35.0862 120.065 34.9205 119.282 34.9205C118.448 34.9205 117.69 35.1113 117.007 35.4928C116.325 35.8744 115.782 36.4116 115.381 37.1045ZM149.858 31.9232C149.858 30.5777 150.164 29.3828 150.776 28.3385C151.389 27.2842 152.247 26.4658 153.352 25.8834C154.466 25.291 155.767 24.9847 157.253 24.9646V28.6246C156.56 28.6347 155.968 28.7803 155.476 29.0615C154.994 29.3326 154.622 29.7292 154.361 30.2513C154.121 30.732 153.991 31.2893 153.972 31.9232H157.162V35.4025H153.969V48.5215H149.858V35.4025H147.207V31.9232H149.858ZM173.444 48.8828C171.767 48.8828 170.266 48.5162 168.94 47.7833C167.625 47.0402 166.591 46.0161 165.838 44.7106C165.094 43.3953 164.723 41.9042 164.723 40.2372C164.723 38.5604 165.094 37.0642 165.838 35.7488C166.591 34.4234 167.625 33.3941 168.94 32.6611C170.266 31.9281 171.767 31.5616 173.444 31.5616C175.131 31.5616 176.637 31.9281 177.962 32.6611C179.298 33.3941 180.337 34.4183 181.08 35.7338C181.823 37.0492 182.2 38.5503 182.21 40.2372C182.2 41.9042 181.823 43.3953 181.08 44.7106C180.347 46.0161 179.313 47.0402 177.977 47.7833C176.642 48.5162 175.131 48.8828 173.444 48.8828ZM173.444 45.1023C174.327 45.1023 175.111 44.9014 175.793 44.4998C176.476 44.0881 177.003 43.5157 177.375 42.7827C177.746 42.0397 177.932 41.1911 177.932 40.2372C177.932 39.2733 177.746 38.4198 177.375 37.6767C177.003 36.9337 176.476 36.3613 175.793 35.9597C175.111 35.548 174.327 35.3421 173.444 35.3421C172.57 35.3421 171.792 35.548 171.109 35.9597C170.436 36.3613 169.914 36.9337 169.543 37.6767C169.171 38.4198 168.991 39.2733 169 40.2372C169 41.1911 169.186 42.0397 169.558 42.7827C169.939 43.5157 170.461 44.0881 171.124 44.4998C171.797 44.9014 172.57 45.1023 173.444 45.1023ZM186.653 31.9232H182.074L187.03 48.5214H191.036L194.295 37.9201L197.813 48.5214H201.76L206.731 31.9232H202.589L199.769 42.2546L196.653 31.9232H192.648L189.547 42.4821L186.653 31.9232Z" fill="#C7C7C7"/>
<path fill-rule="evenodd" clip-rule="evenodd" d="M75.7942 22.0236L60.558 51.8091H46.2467L52.6231 39.4646H52.337C47.0765 46.2935 39.2277 50.7889 28.0444 51.8091V39.6356C28.0444 39.6356 35.1987 39.2129 39.4044 34.7912H28.0444V22.0238H40.8118V32.5248L41.0984 32.5236L46.3157 22.0238H55.9713V32.4582L56.2578 32.4578L61.6708 22.0236H75.7942ZM158.88 48.5214H162.992V24.9194H158.88V48.5214ZM136.211 48.2804C137.105 48.6519 138.013 48.8377 138.937 48.8377C140.463 48.8377 141.829 48.4662 143.034 47.7231C144.239 46.9801 145.173 45.956 145.836 44.6505C146.498 43.3352 146.83 41.8439 146.83 40.1771C146.83 38.5103 146.488 37.0192 145.806 35.7038C145.123 34.3884 144.174 33.3692 142.959 32.6462C141.744 31.9132 140.363 31.5517 138.817 31.5617C137.833 31.5617 136.889 31.7525 135.985 32.1341C135.081 32.5157 134.328 33.0579 133.726 33.7608C133.679 33.8143 133.634 33.8684 133.59 33.9229V24.9345H129.463V48.5215H133.56L133.552 46.318C133.658 46.4479 133.771 46.5749 133.891 46.699C134.544 47.3718 135.317 47.8988 136.211 48.2804ZM140.428 44.4698C139.756 44.8815 138.987 45.0874 138.124 45.0874C137.27 45.0874 136.487 44.8764 135.774 44.4548C135.061 44.0229 134.494 43.4356 134.072 42.6925C133.66 41.9495 133.455 41.1059 133.455 40.162C133.445 39.2182 133.645 38.3747 134.057 37.6317C134.479 36.8786 135.046 36.2962 135.759 35.8845C136.472 35.4628 137.26 35.2569 138.124 35.267C138.987 35.2569 139.756 35.4578 140.428 35.8695C141.111 36.2711 141.633 36.8485 141.995 37.6016C142.366 38.3446 142.552 39.1981 142.552 40.162C142.552 41.1261 142.366 41.9796 141.995 42.7226C141.633 43.4657 141.111 44.048 140.428 44.4698ZM81.7511 26.3503H86.4504L90.6542 41.7024L95.1261 26.3503H99.0423L103.892 41.3943L107.929 26.3503H112.236L105.88 48.5215H101.829L96.8969 33.8246L92.3698 48.5215H88.273L81.7511 26.3503ZM119.177 48.9129C117.54 48.923 116.064 48.5615 114.748 47.8286C113.443 47.0854 112.414 46.0562 111.66 44.7408C110.918 43.4255 110.546 41.9243 110.546 40.2373C110.546 38.6005 110.928 37.1195 111.691 35.7941C112.454 34.4686 113.488 33.4344 114.793 32.6913C116.099 31.9483 117.555 31.5768 119.161 31.5768C120.969 31.5768 122.55 31.9784 123.906 32.7817C125.271 33.585 126.291 34.7247 126.963 36.2007C127.646 37.6668 127.892 39.3487 127.701 41.2465H114.8C114.836 42.0025 115.025 42.6904 115.366 43.31C115.747 43.9927 116.28 44.5249 116.962 44.9065C117.645 45.288 118.408 45.4788 119.252 45.4788C119.894 45.4688 120.492 45.3584 121.044 45.1476C121.596 44.9267 122.063 44.6305 122.445 44.2588C122.837 43.8873 123.113 43.4657 123.273 42.9937H127.581C127.32 44.1484 126.798 45.1777 126.015 46.0813C125.231 46.9751 124.247 47.6729 123.062 48.1749C121.878 48.677 120.582 48.923 119.177 48.9129ZM115.381 37.1045C115.14 37.5241 114.973 37.9759 114.881 38.4601H123.433C123.371 37.8485 123.182 37.2912 122.867 36.7882C122.505 36.1957 122.013 35.7388 121.391 35.4175C120.768 35.0862 120.065 34.9205 119.282 34.9205C118.448 34.9205 117.69 35.1113 117.007 35.4928C116.325 35.8744 115.782 36.4116 115.381 37.1045ZM149.858 31.9232C149.858 30.5777 150.164 29.3828 150.776 28.3385C151.389 27.2842 152.247 26.4658 153.352 25.8834C154.466 25.291 155.767 24.9847 157.253 24.9646V28.6246C156.56 28.6347 155.968 28.7803 155.476 29.0615C154.994 29.3326 154.622 29.7292 154.361 30.2513C154.121 30.732 153.991 31.2893 153.972 31.9232H157.162V35.4025H153.969V48.5215H149.858V35.4025H147.207V31.9232H149.858ZM173.444 48.8828C171.767 48.8828 170.266 48.5162 168.94 47.7833C167.625 47.0402 166.591 46.0161 165.838 44.7106C165.094 43.3953 164.723 41.9042 164.723 40.2372C164.723 38.5604 165.094 37.0642 165.838 35.7488C166.591 34.4234 167.625 33.3941 168.94 32.6611C170.266 31.9281 171.767 31.5616 173.444 31.5616C175.131 31.5616 176.637 31.9281 177.962 32.6611C179.298 33.3941 180.337 34.4183 181.08 35.7338C181.823 37.0492 182.2 38.5503 182.21 40.2372C182.2 41.9042 181.823 43.3953 181.08 44.7106C180.347 46.0161 179.313 47.0402 177.977 47.7833C176.642 48.5162 175.131 48.8828 173.444 48.8828ZM173.444 45.1023C174.327 45.1023 175.111 44.9014 175.793 44.4998C176.476 44.0881 177.003 43.5157 177.375 42.7827C177.746 42.0397 177.932 41.1911 177.932 40.2372C177.932 39.2733 177.746 38.4198 177.375 37.6767C177.003 36.9337 176.476 36.3613 175.793 35.9597C175.111 35.548 174.327 35.3421 173.444 35.3421C172.57 35.3421 171.792 35.548 171.109 35.9597C170.436 36.3613 169.914 36.9337 169.543 37.6767C169.171 38.4198 168.991 39.2733 169 40.2372C169 41.1911 169.186 42.0397 169.558 42.7827C169.939 43.5157 170.461 44.0881 171.124 44.4998C171.797 44.9014 172.57 45.1023 173.444 45.1023ZM186.653 31.9232H182.074L187.03 48.5214H191.036L194.295 37.9201L197.813 48.5214H201.76L206.731 31.9232H202.589L199.769 42.2546L196.653 31.9232H192.648L189.547 42.4821L186.653 31.9232Z" fill="#C7C7C7"/>
<path d="M75.7942 22.0236L60.558 51.8091H46.2467L52.6231 39.4646H52.337C47.0765 46.2935 39.2277 50.7889 28.0444 51.8091V39.6356C28.0444 39.6356 35.1987 39.2129 39.4044 34.7912H28.0444V22.0238H40.8118V32.5248L41.0984 32.5236L46.3157 22.0238H55.9713V32.4582L56.2578 32.4578L61.6708 22.0236H75.7942ZM158.88 48.5214H162.992V24.9194H158.88V48.5214ZM136.211 48.2804C137.105 48.6519 138.013 48.8377 138.937 48.8377C140.463 48.8377 141.829 48.4662 143.034 47.7231C144.239 46.9801 145.173 45.956 145.836 44.6505C146.498 43.3352 146.83 41.8439 146.83 40.1771C146.83 38.5103 146.488 37.0192 145.806 35.7038C145.123 34.3884 144.174 33.3692 142.959 32.6462C141.744 31.9132 140.363 31.5517 138.817 31.5617C137.833 31.5617 136.889 31.7525 135.985 32.1341C135.081 32.5157 134.328 33.0579 133.726 33.7608C133.679 33.8143 133.634 33.8684 133.59 33.9229V24.9345H129.463V48.5215H133.56L133.552 46.318C133.658 46.4479 133.771 46.5749 133.891 46.699C134.544 47.3718 135.317 47.8988 136.211 48.2804ZM140.428 44.4698C139.756 44.8815 138.987 45.0874 138.124 45.0874C137.27 45.0874 136.487 44.8764 135.774 44.4548C135.061 44.0229 134.494 43.4356 134.072 42.6925C133.66 41.9495 133.455 41.1059 133.455 40.162C133.445 39.2182 133.645 38.3747 134.057 37.6317C134.479 36.8786 135.046 36.2962 135.759 35.8845C136.472 35.4628 137.26 35.2569 138.124 35.267C138.987 35.2569 139.756 35.4578 140.428 35.8695C141.111 36.2711 141.633 36.8485 141.995 37.6016C142.366 38.3446 142.552 39.1981 142.552 40.162C142.552 41.1261 142.366 41.9796 141.995 42.7226C141.633 43.4657 141.111 44.048 140.428 44.4698ZM81.7511 26.3503H86.4504L90.6542 41.7024L95.1261 26.3503H99.0423L103.892 41.3943L107.929 26.3503H112.236L105.88 48.5215H101.829L96.8969 33.8246L92.3698 48.5215H88.273L81.7511 26.3503ZM119.177 48.9129C117.54 48.923 116.064 48.5615 114.748 47.8286C113.443 47.0854 112.414 46.0562 111.66 44.7408C110.918 43.4255 110.546 41.9243 110.546 40.2373C110.546 38.6005 110.928 37.1195 111.691 35.7941C112.454 34.4686 113.488 33.4344 114.793 32.6913C116.099 31.9483 117.555 31.5768 119.161 31.5768C120.969 31.5768 122.55 31.9784 123.906 32.7817C125.271 33.585 126.291 34.7247 126.963 36.2007C127.646 37.6668 127.892 39.3487 127.701 41.2465H114.8C114.836 42.0025 115.025 42.6904 115.366 43.31C115.747 43.9927 116.28 44.5249 116.962 44.9065C117.645 45.288 118.408 45.4788 119.252 45.4788C119.894 45.4688 120.492 45.3584 121.044 45.1476C121.596 44.9267 122.063 44.6305 122.445 44.2588C122.837 43.8873 123.113 43.4657 123.273 42.9937H127.581C127.32 44.1484 126.798 45.1777 126.015 46.0813C125.231 46.9751 124.247 47.6729 123.062 48.1749C121.878 48.677 120.582 48.923 119.177 48.9129ZM115.381 37.1045C115.14 37.5241 114.973 37.9759 114.881 38.4601H123.433C123.371 37.8485 123.182 37.2912 122.867 36.7882C122.505 36.1957 122.013 35.7388 121.391 35.4175C120.768 35.0862 120.065 34.9205 119.282 34.9205C118.448 34.9205 117.69 35.1113 117.007 35.4928C116.325 35.8744 115.782 36.4116 115.381 37.1045ZM149.858 31.9232C149.858 30.5777 150.164 29.3828 150.776 28.3385C151.389 27.2842 152.247 26.4658 153.352 25.8834C154.466 25.291 155.767 24.9847 157.253 24.9646V28.6246C156.56 28.6347 155.968 28.7803 155.476 29.0615C154.994 29.3326 154.622 29.7292 154.361 30.2513C154.121 30.732 153.991 31.2893 153.972 31.9232H157.162V35.4025H153.969V48.5215H149.858V35.4025H147.207V31.9232H149.858ZM173.444 48.8828C171.767 48.8828 170.266 48.5162 168.94 47.7833C167.625 47.0402 166.591 46.0161 165.838 44.7106C165.094 43.3953 164.723 41.9042 164.723 40.2372C164.723 38.5604 165.094 37.0642 165.838 35.7488C166.591 34.4234 167.625 33.3941 168.94 32.6611C170.266 31.9281 171.767 31.5616 173.444 31.5616C175.131 31.5616 176.637 31.9281 177.962 32.6611C179.298 33.3941 180.337 34.4183 181.08 35.7338C181.823 37.0492 182.2 38.5503 182.21 40.2372C182.2 41.9042 181.823 43.3953 181.08 44.7106C180.347 46.0161 179.313 47.0402 177.977 47.7833C176.642 48.5162 175.131 48.8828 173.444 48.8828ZM173.444 45.1023C174.327 45.1023 175.111 44.9014 175.793 44.4998C176.476 44.0881 177.003 43.5157 177.375 42.7827C177.746 42.0397 177.932 41.1911 177.932 40.2372C177.932 39.2733 177.746 38.4198 177.375 37.6767C177.003 36.9337 176.476 36.3613 175.793 35.9597C175.111 35.548 174.327 35.3421 173.444 35.3421C172.57 35.3421 171.792 35.548 171.109 35.9597C170.436 36.3613 169.914 36.9337 169.543 37.6767C169.171 38.4198 168.991 39.2733 169 40.2372C169 41.1911 169.186 42.0397 169.558 42.7827C169.939 43.5157 170.461 44.0881 171.124 44.4998C171.797 44.9014 172.57 45.1023 173.444 45.1023ZM186.653 31.9232H182.074L187.03 48.5214H191.036L194.295 37.9201L197.813 48.5214H201.76L206.731 31.9232H202.589L199.769 42.2546L196.653 31.9232H192.648L189.547 42.4821L186.653 31.9232Z" fill="#C7C7C7"/>
</svg>
