<svg width="373" height="399" viewBox="0 0 373 399" fill="none" xmlns="http://www.w3.org/2000/svg">
<path d="M186.686 161.828C183.665 156.64 179.697 151.97 175.608 147.594C171.52 143.217 167.301 139.445 162.358 136.172C150.422 128.295 137.621 121.468 123.988 117.022C113.275 113.526 102.038 111.571 90.7638 111.464C80.884 111.367 71.0485 112.594 61.3644 114.494C56.6639 115.419 51.9735 116.485 47.3066 117.57C41.259 118.974 34.7452 119.962 29.3081 123.103C23.2489 126.62 18.4115 133.552 20.3318 140.841C22.2522 148.13 29.987 150.617 36.7227 151.921C43.4583 153.225 50.3028 153.731 57.0732 153.482C61.9067 153.311 66.7849 152.812 71.5541 152.6C83.7125 152.057 95.9485 152.487 107.916 154.861C114.763 156.214 121.501 158.307 127.921 161.038C134.341 163.769 139.485 167.457 144.217 172.164C148.95 176.871 152.965 182.029 155.754 187.945C158.336 193.406 159.193 199.471 158.221 205.445C157.249 211.419 154.25 216.476 149.422 219.878C146.949 221.622 144.21 222.91 141.199 223.306C138.187 223.702 134.791 223.188 131.75 222.501C124.16 220.793 117.12 217.238 110.16 213.847C102.304 210.03 94.4431 206.2 86.5876 202.382C82.6599 200.473 78.7322 198.564 74.7987 196.644C71.3862 194.982 67.9701 193.102 64.322 191.979C57.5833 189.886 48.8549 191.043 45.7033 198.252C42.7088 205.093 47.6695 212.586 51.518 217.943C56.0851 224.296 61.8159 229.733 67.9539 234.532C79.6347 243.659 92.9677 250.797 106.55 256.644C119.91 262.394 133.809 266.785 147.9 270.366C161.99 273.946 176.723 276.834 191.267 279.36C203.366 281.465 215.472 283.553 227.648 285.182C236.956 286.421 246.333 287.289 255.073 290.369C255.607 290.564 256.146 290.74 256.679 290.935C256.914 291.025 257.154 291.128 257.388 291.219C258.162 291.516 257.173 291.046 257.611 291.315C258.926 292.124 260.152 292.991 261.354 293.987C266.579 298.324 271.44 303.115 276.623 307.515C282.179 312.231 287.843 316.808 293.447 321.472C294.695 322.503 296.779 321.885 297.611 320.647C298.592 319.174 298.039 317.526 296.786 316.483C291.048 311.694 285.227 307.004 279.531 302.151C274.458 297.828 269.72 293.138 264.582 288.891C259.444 284.645 253.028 283.155 246.674 281.973C236.784 280.139 226.749 279.181 216.827 277.553C202.6 275.225 188.366 272.914 174.208 270.127C146.421 264.647 118.503 257.182 93.4228 243.699C80.4118 236.711 67.4691 228.33 58.1344 216.715C55.8762 213.907 53.7437 210.906 52.1968 207.634C51.0869 205.291 50.0554 202.238 51.6001 199.848C53.061 197.586 56.1245 196.755 58.6767 196.919C62.0995 197.127 65.2902 198.634 68.3283 200.097C83.5835 207.428 98.6938 215.092 114.009 222.305C120.894 225.542 128.055 228.351 135.678 229.195C142.531 229.959 148.526 227.995 154.009 223.895C164.37 216.135 166.677 201.231 162.805 189.506C160.766 183.328 157.062 177.696 152.891 172.73C148.529 167.521 143.35 162.797 137.557 159.22C131.765 155.643 125.159 153.251 118.671 151.343C112.184 149.435 105.331 148.1 98.5245 147.313C87.2221 146.005 75.8674 146.245 64.5423 146.997C59.2244 147.344 54.001 147.645 48.6729 147.31C45.309 147.102 41.941 146.735 38.6104 146.175C35.6911 145.677 32.5438 145.042 29.9051 143.648C23.7266 140.39 25.7435 133.074 30.4503 129.454C35.157 125.833 41.7987 124.989 47.5221 123.64C66.4557 119.217 85.315 115.665 104.739 118.539C116.689 120.307 128.227 124.325 139.073 129.6C145.793 132.858 152.248 136.684 158.494 140.772C163.308 143.933 167.167 147.294 171.093 151.516C174.797 155.494 178.57 159.761 181.272 164.417C182.087 165.82 183.744 166.551 185.282 165.803C186.655 165.135 187.483 163.196 186.668 161.793L186.686 161.828Z" fill="white"/>
<path d="M192.614 130.12C181.945 119.886 170.456 110.461 157.242 103.718C144.029 96.9753 129.099 92.1788 114.203 90.1311C99.307 88.0834 84.0894 88.5333 69.2262 90.4642C56.6791 92.1028 44.0323 94.7704 32.2403 99.4364C25.0763 102.276 16.381 106.3 13.3189 113.934C10.5591 120.836 15.5604 129.977 22.5651 131.956C26.273 132.991 28.26 127.328 24.5288 126.275C20.0055 125.007 17.0011 118.888 19.6181 114.792C22.9896 109.509 29.6985 106.847 35.3193 104.655C45.9875 100.506 57.8316 98.0535 69.3774 96.4921C83.2454 94.6208 97.392 94.165 111.303 95.8134C125.215 97.4619 138.764 101.554 151.304 107.454C165.139 113.969 177.126 123.576 188.097 134.102C189.273 135.227 191.048 135.506 192.337 134.366C193.472 133.361 193.784 131.263 192.602 130.126L192.614 130.12Z" fill="white"/>
<path d="M194.878 106.794C191.827 102.776 187.626 99.5223 183.574 96.5762C177.947 92.4652 171.925 88.8971 165.703 85.7623C157.803 81.791 149.548 78.9574 141.193 76.1581C124.506 70.5773 106.403 69.0355 89.1976 73.1003C73.9334 76.704 60.0887 84.4605 48.3114 94.7233C45.4056 97.2629 49.3574 101.779 52.275 99.2337C62.2699 90.5107 73.8871 83.5594 86.6975 79.9345C96.6388 77.1195 106.718 76.2422 116.948 77.1202C124.403 77.7675 130.433 79.0347 137.523 81.2787C144.613 83.5227 151.269 85.6853 157.816 88.6177C164.884 91.7795 171.68 95.6151 178.052 100.023C182.566 103.139 187.026 106.383 190.35 110.751C192.694 113.826 197.199 109.85 194.861 106.788L194.878 106.794Z" fill="white"/>
<path d="M108.634 76.5105C113.586 73.5757 119.284 71.9025 124.865 70.6224C131.231 69.1803 137.76 68.3755 144.292 68.4182C155.584 68.5017 166.674 70.9959 176.938 75.7055C188.426 80.9758 198.681 89.1867 207.575 98.0889C212.784 103.296 217.164 109.023 220.76 115.454C224.355 121.885 227.5 129.105 230.436 136.135C236.353 150.289 242.65 164.111 250.721 177.189C254.664 183.582 258.915 189.796 263.575 195.68C265.868 198.589 268.249 201.41 270.779 204.116C272.071 205.507 273.583 207.625 275.376 208.304C278.787 209.601 282.402 210.535 285.88 211.639C292.647 213.791 299.426 215.937 306.194 218.09C317.336 221.626 328.46 225.274 339.638 228.705C339.844 228.766 340.055 228.839 340.26 228.9C343.943 230.065 345.912 224.396 342.224 223.219C334.87 220.884 327.522 218.56 320.179 216.22C308.533 212.519 296.892 208.83 285.245 205.129C282.565 204.281 279.897 203.428 277.217 202.58L278.496 203.436C266.115 191.153 256.446 176.234 248.341 160.861C244.145 152.923 240.539 144.756 237.094 136.467C233.648 128.178 230.175 119.801 225.706 111.966C221.238 104.131 216.163 97.8777 209.902 91.953C204.177 86.5286 198.05 81.3292 191.478 76.9606C180.097 69.414 167.046 64.4795 153.463 62.9347C145.405 62.0101 137.18 62.3077 129.179 63.6376C121.179 64.9675 112.947 66.995 106.04 71.0853C104.642 71.9114 103.906 73.557 104.654 75.0953C105.321 76.468 107.266 77.3075 108.664 76.4814L108.628 76.4987L108.634 76.5105Z" fill="white"/>
</svg>
