<svg width="312" height="97" viewBox="0 0 312 97" fill="none" xmlns="http://www.w3.org/2000/svg">
<rect width="311.5" height="96.0701" fill="white"/>
<path fill-rule="evenodd" clip-rule="evenodd" d="M215.273 61.264C215.327 61.0938 215.328 60.923 215.274 60.7521C215.204 60.6958 215.151 60.6271 215.119 60.5411C215.033 60.2365 214.827 60.0224 214.57 59.8837C214.026 59.5904 213.753 59.1342 213.704 58.5196L213.609 58.3902C213.477 58.2881 213.304 58.2411 213.215 58.0826C213.195 58.0238 213.19 57.9644 213.199 57.9025C213.154 57.4445 212.908 57.1815 212.564 56.8621C212.018 56.3552 211.684 55.6174 211.737 54.801C211.763 54.4043 211.678 54.265 211.249 54.2402C210.29 54.1833 209.881 53.344 209.707 52.6087C209.476 51.6308 208.997 51.0477 208.15 50.6454C207.784 50.4715 207.468 50.1713 207.271 49.696C206.833 51.0997 207.234 52.4212 207.254 53.7408L207.248 53.7327C207.537 54.0806 207.558 54.5398 207.579 54.9359C207.657 56.3973 207.823 57.8604 207.653 59.3273C207.619 59.6263 207.687 59.8998 207.847 60.1759C208.317 60.9855 208.537 61.8489 208.295 62.8008C208.159 63.3343 208.108 63.8877 208.061 64.4379C207.956 65.6882 206.745 66.2954 205.736 65.5706C205.441 65.3589 205.213 65.2463 204.845 65.3552C204.396 65.4889 204.025 65.3304 203.867 64.8248C203.816 64.662 203.73 64.5147 203.666 64.3575C202.953 62.4251 202.551 60.4408 202.737 58.3618C202.742 58.2986 202.721 58.2262 202.743 58.1711C203.136 57.2105 202.744 56.3013 202.571 55.3791C202.546 55.311 202.529 55.2411 202.517 55.1705C202.301 52.839 202.56 50.5031 202.462 48.1721C202.416 47.0723 202.33 45.9842 202.464 44.8794C202.562 44.0723 202.702 43.2813 202.95 42.5169C203.305 41.4232 204.526 40.6619 205.645 40.7653C206.039 40.8018 206.284 41.0197 206.477 41.3508C206.728 41.7797 206.809 42.2644 206.948 42.731C207.011 42.9452 207.066 43.2615 207.377 43.1513C208.241 42.8437 208.675 43.4113 209.123 43.9869C209.589 44.586 210.132 44.9747 210.894 45.2303C211.986 45.5943 212.837 46.4137 213.251 47.5903C213.663 47.8546 213.918 48.2582 214.021 48.7156C214.172 49.3834 214.712 49.6409 215.159 49.9986C215.392 50.1856 215.497 49.9751 215.546 49.7783C215.629 49.4416 215.604 49.0993 215.527 48.7645C215.387 48.1629 215.378 47.5235 215.189 46.9479C214.805 45.7713 215.11 44.6708 215.395 43.5623C215.488 43.2045 215.497 42.9588 215.233 42.6493C214.688 42.0106 214.623 41.2276 214.787 40.4162C215.254 39.5503 215.647 39.3423 216.562 39.533C217.052 39.6345 217.542 39.6976 218.038 39.7589C219.165 39.8981 220.003 40.9095 219.592 42.2668C219.416 42.8462 219.326 43.3419 219.622 43.8742C219.768 44.7376 219.727 45.6134 219.67 46.4738C219.581 47.8255 219.879 49.1142 220.091 50.422L220.085 50.4146C220.25 51.1307 220.445 51.8418 220.476 52.5833C220.508 52.7449 220.523 52.9089 220.526 53.0729C220.53 53.133 220.529 53.1949 220.527 53.2549C220.528 53.3124 220.524 53.3706 220.521 53.4276C220.511 53.5922 220.513 53.7556 220.568 53.9141L220.615 54.0744C220.646 54.3319 220.761 54.5602 220.858 54.7967C220.878 54.8555 220.893 54.9155 220.904 54.9768C221.064 55.5803 221.029 56.2041 221.096 56.8169L221.088 56.8051C221.295 57.3034 221.146 57.8245 221.179 58.3345C221.197 58.6081 221.178 58.8804 221.364 59.1082C221.404 59.1652 221.442 59.2227 221.482 59.2803C221.522 59.3391 221.554 59.4016 221.582 59.4672C221.604 59.5371 221.616 59.6071 221.619 59.6795C221.743 60.6958 221.826 61.7579 221.525 62.7074C221.192 63.7589 221.523 64.8037 221.279 65.8231C221.269 65.8937 221.251 65.9618 221.229 66.0286C220.756 67.3036 219.847 67.8012 218.247 67.6632C218.181 67.6508 218.119 67.6298 218.058 67.6026C216.853 66.9979 216.339 66.0069 216.329 64.6341C216.32 63.4649 215.809 62.4288 215.222 61.4435C215.202 61.3729 215.22 61.3129 215.273 61.264Z" fill="black"/>
<path fill-rule="evenodd" clip-rule="evenodd" d="M270.804 64.5502L270.829 64.5057L270.801 64.463C270.42 62.2348 270.105 60.001 270.163 57.7276C270.179 57.1161 270.174 56.5052 269.926 55.9166C269.793 55.601 269.882 55.2488 269.943 54.9096C270.078 54.1656 269.958 54.0369 269.219 54.1118C268.994 54.1353 268.738 54.1112 268.551 54.2418C267.993 54.6317 267.381 54.5989 266.757 54.5512C266.532 54.5345 266.305 54.5407 266.077 54.5995C265.025 54.87 264.868 55.4766 265.192 56.3016C265.52 57.1384 265.557 57.9901 265.603 58.8516C265.639 59.5517 265.607 60.2566 265.611 60.9585C265.615 61.7285 265.399 62.4217 264.925 63.019C264.52 63.529 264.074 63.7988 263.342 63.8025C262.465 63.8056 261.844 63.4467 261.224 62.9422C261.145 62.8772 261.09 62.7584 260.98 62.7578C260.02 62.7497 259.972 61.9265 259.821 61.2946C259.507 59.9831 259.504 58.635 259.475 57.2851C259.453 56.2509 259.31 55.2203 259.44 54.1842C259.451 54.1007 259.491 54.006 259.419 53.9428C258.736 53.3424 259.075 52.5118 258.953 51.7864L258.954 51.7914C258.75 51.4708 258.742 51.1025 258.757 50.7472C258.797 49.7972 258.634 48.8415 258.914 47.8939C259.025 47.5201 258.747 47.1109 258.754 46.7055C258.773 45.5574 258.675 44.4062 258.835 43.263C258.869 43.021 258.91 42.7722 258.73 42.5982C258.147 42.035 258.401 41.3201 258.399 40.6684C258.399 40.2785 258.727 40.0519 259.089 39.9387C259.465 39.5673 259.861 39.342 260.422 39.5333C260.663 39.6156 260.961 39.5413 261.166 39.3185C261.322 39.1489 261.52 39.108 261.733 39.1074C262.131 39.1452 262.46 39.2863 262.576 39.7251C262.617 39.878 262.732 39.9659 262.827 40.0773C263.178 40.4858 263.366 40.9426 263.366 41.5145C263.369 42.6775 263.625 43.8268 263.563 44.9991C263.541 45.4027 263.928 45.6744 264.003 46.0916C264.11 46.6901 263.907 47.2725 264.023 47.8574L264.019 47.85C264.209 48.0691 264.101 48.3327 264.107 48.5735C264.127 49.3125 264.23 49.3868 264.839 49.0272C265.042 48.9077 265.257 48.7889 265.483 48.8285C266.389 48.9863 267.278 48.6552 268.179 48.7505C268.421 48.7765 268.547 48.6391 268.687 48.4633C269.084 47.9645 269.291 47.4198 269.257 46.7625C269.225 46.1454 269.294 45.532 269.573 44.9645C269.75 44.6049 269.662 44.2558 269.502 43.9259C268.721 42.316 269.661 40.0513 271.357 39.7189C272.542 39.4868 273.408 39.8136 273.996 40.9568L274 40.9618C274.564 41.1679 274.776 41.6346 274.824 42.1916C274.885 42.9015 274.811 43.5675 274.379 44.192C274.055 44.6612 273.72 45.2114 274.194 45.8186C274.259 45.9015 274.236 46.0241 274.224 46.1299C274.118 47.0478 274.413 47.9837 274.111 48.8947C274.068 49.026 274.179 49.1287 274.22 49.2457C274.537 50.1283 274.606 51.014 274.235 51.9071C273.999 52.4778 274.377 52.9352 274.693 53.2428C275.295 53.8302 275.635 54.4504 275.537 55.3088C275.507 55.5818 275.544 55.8622 275.53 56.1376C275.459 57.5636 275.567 58.9711 275.899 60.36C275.97 60.6509 275.976 60.9492 275.969 61.2476C276.06 62.2781 276.186 63.3043 276.011 64.3435C275.962 64.6313 275.855 64.8096 275.627 64.9426C275.568 65.2212 275.399 65.3889 275.132 65.4545L275.154 65.4848L275.13 65.4557C274.889 65.7417 274.557 65.66 274.258 65.6588C273.446 65.6544 272.658 65.6711 271.959 66.2139C271.668 66.4411 271.349 66.3377 271.103 66.0017C270.776 65.5554 270.84 65.0472 270.804 64.5502Z" fill="black"/>
<path fill-rule="evenodd" clip-rule="evenodd" d="M233.256 41.965C233.516 41.9594 233.781 41.8796 233.98 42.1711C234.171 42.4515 234.472 42.3345 234.72 42.2751C234.878 42.2373 235.026 42.1699 235.196 42.1637C235.907 42.1352 235.907 42.1309 236.173 42.808C236.297 43.1218 236.432 43.4245 236.617 43.7123C236.956 44.2439 236.852 44.8573 236.832 45.4465C236.827 45.5821 236.717 45.665 236.58 45.6879C236.377 45.722 236.174 45.7591 235.969 45.7863C235.364 45.8662 234.941 46.2468 234.635 46.7358C234.226 47.3919 233.812 48.0387 233.289 48.6075C232.825 49.1125 232.895 49.7216 233.481 50.0855C233.795 50.2792 234.068 50.4748 234.097 50.8858C234.109 51.0709 234.253 51.0777 234.369 51.0542C234.888 50.9526 235.094 51.3048 235.32 51.6811C235.756 52.4096 236.219 53.1251 236.93 53.6129C237.256 53.8357 237.418 54.1247 237.385 54.5227C237.362 54.8068 237.449 55.0018 237.719 55.133C238.814 55.6653 239.387 56.611 239.599 57.7895C239.654 58.0934 239.728 58.2122 240.011 58.1676C240.292 58.1237 240.48 58.2685 240.658 58.4629C240.783 58.6003 240.888 58.7643 241.065 58.8466C241.477 59.3015 241.51 59.8753 241.236 60.5326C241.022 61.0426 240.675 61.4623 240.417 61.9419C240.066 62.5918 239.442 62.8951 238.705 62.9075L238.701 62.91C238.578 63.3612 238.239 63.3742 237.864 63.3804C237.465 63.3866 237.325 63.1272 237.21 62.8184C236.954 62.1351 236.544 61.5848 235.935 61.185C235.71 61.0383 235.5 60.8099 235.446 60.545C235.306 59.8524 234.88 59.4167 234.351 59.0199C234.111 58.8392 233.864 58.6189 233.744 58.3081L233.742 58.3075C233.49 58.1899 233.354 58.0185 233.409 57.7065C233.476 57.329 233.354 57.0956 232.924 57.087C232.65 57.0814 232.386 57.0164 232.39 56.6184C232.391 56.3504 232.19 56.2824 231.956 56.2737C231.755 56.2656 231.54 56.2842 231.376 56.1177L231.382 56.1233C231.209 56.0762 231.082 55.9611 231.015 55.8014C230.698 55.0457 229.981 54.8148 229.316 54.3698C229.547 55.8318 229.723 57.207 229.85 58.5891L229.848 58.5842C230.025 58.8349 229.886 59.1338 229.966 59.3993C229.928 60.2343 229.91 61.0686 229.975 61.903C229.932 62.3752 230.068 62.884 229.701 63.2894L229.713 63.277C229.124 63.8068 228.422 64.1739 227.813 64.6746C227.677 64.7866 227.513 64.8008 227.347 64.8083L227.339 64.8132C227.295 64.9351 227.179 64.9079 227.09 64.9389L227.081 64.9432C226.697 65.5436 226.011 65.3969 225.471 65.603C225.282 65.6754 225.011 65.4637 225.036 65.2483C225.101 64.695 224.815 64.1039 225.196 63.5865C225.348 63.3785 225.371 63.1303 225.254 62.9254C224.866 62.2434 224.798 61.4951 224.758 60.735L224.762 60.7418C224.709 60.6905 224.671 60.6286 224.648 60.5574C224.616 60.4905 224.593 60.42 224.579 60.3463C224.382 58.3756 223.727 56.4829 223.77 54.4571C223.796 53.2978 223.458 52.1224 223.121 50.991C222.947 50.4086 222.951 49.8126 222.959 49.2264C222.974 48.0783 222.691 46.9469 222.808 45.7963C222.824 45.6452 222.74 45.5091 222.705 45.3661C222.371 43.5365 222.354 41.71 222.763 39.8891C222.82 39.7059 222.936 39.5691 223.088 39.4614C223.735 39.0127 224.403 38.6462 225.225 38.9142L225.22 38.9099C226.023 39.1018 226.453 39.5988 226.523 40.4616C226.554 40.8336 226.627 41.2142 226.731 41.58L226.729 41.5763C226.956 41.6623 227.057 41.8629 227.039 42.0764C226.993 42.6304 227.213 43.1571 227.173 43.7042C227.12 44.3981 227.652 44.9044 227.717 45.558L227.709 45.5474C227.975 46.245 227.799 47.0106 228.023 47.7168C228.086 47.9106 228.017 48.1458 228.206 48.3147C228.418 48.1495 228.37 47.8932 228.424 47.6815C228.499 47.3944 228.545 47.1016 228.644 46.8175C228.873 46.1565 229.558 45.8563 229.821 45.2175C229.876 45.0826 230.113 45.0845 230.283 45.0863C230.554 45.0894 230.824 45.0888 231.094 45.0869C232.059 45.0801 231.944 45.1699 231.911 44.2322C231.88 43.3892 232.426 42.826 232.749 42.1538C232.845 41.952 233.097 42.0622 233.256 41.965Z" fill="black"/>
<path fill-rule="evenodd" clip-rule="evenodd" d="M241.729 62.1646C241.815 61.995 241.9 61.8254 241.985 61.6558C242.289 61.0548 242.782 60.7992 243.425 60.9149C243.504 60.9291 243.601 60.9483 243.649 61.0034C243.906 61.2999 244.281 61.3934 244.58 61.6013C244.93 61.8452 245.287 62.0352 245.68 62.1763C246.048 62.3094 246.28 62.5464 246.228 62.984C246.22 63.0465 246.227 63.1115 246.231 63.1753C246.238 63.2718 246.29 63.3374 246.383 63.3381C246.478 63.3381 246.537 63.2663 246.54 63.1759C246.548 62.8992 246.54 62.622 246.546 62.3453C246.556 61.8668 246.612 61.7808 247.092 61.7889C247.942 61.8037 248.624 61.4478 249.187 60.84C249.525 60.4742 249.953 60.3473 250.397 60.2533C250.649 60.1994 250.795 60.0954 250.886 59.8398C250.966 59.617 251.022 59.3378 251.354 59.3168C251.49 59.3081 251.455 59.1528 251.457 59.0568C251.461 58.4806 251.457 57.9056 251.46 57.3306C251.462 56.9803 251.29 56.7216 251.045 56.5093C250.752 56.2555 250.532 55.9479 250.407 55.5821C250.277 55.2021 249.963 54.9731 249.751 54.6636C249.668 54.5435 249.551 54.5256 249.422 54.5268C249.214 54.5287 249.004 54.5095 248.798 54.5312C248.482 54.5646 248.239 54.4736 248.034 54.2143C247.792 53.9079 247.468 53.7414 247.088 53.6448C246.418 53.4734 245.865 53.0321 245.249 52.7393C244.664 52.462 244.188 52.0845 243.824 51.5472C243.776 51.4779 243.69 51.4055 243.691 51.3368C243.712 50.7668 243.278 50.7191 242.906 50.5891C242.67 50.5068 242.438 50.4109 242.243 50.245C241.9 49.9547 241.904 49.8922 242.071 49.4435C242.254 48.9452 242.192 48.4507 241.975 47.966C241.689 47.3279 241.578 46.6855 242.057 46.0789C242.198 45.9 242.193 45.6778 242.218 45.4754C242.267 45.088 242.381 44.7284 242.578 44.4009C242.839 43.9664 243.104 43.5363 243.262 43.0473C243.335 42.8226 243.504 42.7044 243.72 42.6642C244.217 42.5732 244.516 42.2241 244.743 41.8107C244.889 41.5439 245.092 41.339 245.283 41.1156C245.517 40.842 245.787 40.6879 246.156 40.7263C246.31 40.743 246.496 40.7808 246.599 40.5876C247.133 39.9161 247.949 40.0572 248.642 39.8462C248.958 39.749 249.302 39.7539 249.611 39.6425C250.522 39.3157 251.162 39.6976 251.695 40.4125L251.701 40.4187C251.94 40.5276 252.02 40.777 252.167 40.9677L252.191 40.9361L252.164 40.964C252.361 41.0085 252.541 41.1057 252.524 41.3329C252.487 41.8429 252.647 42.3999 252.461 42.8517C252.187 43.5128 252.053 44.2233 251.728 44.8639C251.512 45.2885 251.187 45.3919 250.757 45.3795C249.746 45.3498 248.74 45.4494 247.745 45.6221C247.251 45.7075 246.899 46.0591 246.693 46.5208C246.463 47.0364 246.835 47.417 247.129 47.6838C247.661 48.1666 248.281 48.5373 248.965 48.8041C249.804 49.1315 250.691 49.3314 251.482 49.7888C251.757 49.9479 252.001 50.1404 252.164 50.4251L252.192 50.3942L252.166 50.4276C252.478 50.5186 252.748 50.724 253.072 50.7835L253.109 50.815L253.154 50.7952C253.227 50.8361 253.161 50.7494 253.21 50.8126C253.733 51.4779 254.43 51.8765 255.186 52.1878L255.187 52.1897C255.416 52.3017 255.609 52.4478 255.667 52.7226L255.664 52.7164C255.75 52.7758 255.859 52.8384 255.884 52.933C256.076 53.6653 256.519 54.2198 256.967 54.8103C257.352 55.3178 257.199 56.0556 257.014 56.6504C256.781 57.3993 256.595 58.1433 256.58 58.9281C256.572 59.4016 256.375 59.781 256.059 60.1072C255.889 60.8524 255.349 61.3191 254.817 61.7715C254.482 62.0575 254.112 62.2883 253.957 62.7389C253.91 62.8782 253.834 63.0558 253.707 63.093C253.084 63.2756 252.664 63.7373 252.184 64.1365C251.921 64.3556 251.585 64.498 251.312 64.7294C251.019 64.977 250.766 65.3069 250.29 65.1825C250.111 65.1355 249.94 65.3205 249.855 65.4951C249.473 66.2799 248.787 66.434 248.027 66.4408C247.675 66.4445 247.32 66.499 246.975 66.4879C246.258 66.465 245.635 66.702 245.036 67.0523C244.52 67.3531 244.033 67.087 243.72 66.7936C243.331 66.4303 242.818 66.0973 242.722 65.4746L242.723 65.4771C242.363 65.289 241.959 65.1875 241.664 64.8737C241.346 64.537 241.167 64.1761 241.373 63.7082L241.364 63.7212C241.494 63.2044 241.382 62.6275 241.729 62.1646Z" fill="black"/>
<path fill-rule="evenodd" clip-rule="evenodd" d="M191.568 58.9026C190.897 59.1879 190.183 59.0963 189.482 59.0975C189.193 59.0981 189.111 58.988 189.192 58.7119C189.293 58.3678 189.412 58.0286 189.543 57.6956C189.778 57.1002 189.676 56.4806 189.689 55.8691C189.691 55.7131 189.593 55.5968 189.508 55.4742C189.235 55.0806 189.222 54.7414 189.501 54.3929C189.758 54.0711 189.906 53.6979 190.012 53.3135C190.112 52.9502 190.35 52.9589 190.632 52.9465C190.968 52.9329 191.241 52.9892 191.406 53.3259C191.467 53.4497 191.417 53.5252 191.345 53.6032C190.913 54.0711 191.01 54.5557 191.301 55.0447C191.781 55.8505 192.246 56.6682 192.799 57.4251C193.028 57.7383 193.148 58.0868 193.248 58.5559C192.609 58.4996 192.086 58.6834 191.568 58.9026ZM202.274 67.0255C202.249 66.968 202.223 66.9123 202.193 66.8584C201.684 65.9715 201.668 64.9471 201.429 63.9853C201.414 63.9246 201.396 63.8646 201.372 63.807C201.126 63.3218 201.087 62.7486 200.759 62.2993L200.66 62.1415C200.402 61.8555 200.194 61.5318 200.208 61.1338C200.25 59.9046 199.599 59.0381 198.81 58.2372C197.856 57.6962 197.3 56.8483 197.159 55.7645C197.054 54.9729 196.944 54.2419 196.107 53.9126C196.049 53.8897 196.019 53.8254 195.984 53.7715C195.382 52.814 194.726 51.8924 194.383 50.7808C194.167 50.0839 193.685 49.5844 192.996 49.3281C192.817 49.2613 192.633 49.1839 192.554 49.0001C192.325 48.4678 191.946 48.037 191.629 47.5685C191.316 47.1061 191.151 46.6308 191.241 46.0855C191.366 45.3347 191.084 44.8185 190.443 44.4794C190.235 44.3042 190.054 44.087 189.771 44.0312C189.354 43.5769 188.61 43.4222 188.006 43.676C187.442 43.9118 187.251 44.3345 187.366 44.9529C187.56 46.0051 186.853 46.9143 186.872 47.9448C186.874 48.0587 186.792 48.1385 186.683 48.1726C186.043 48.37 186.154 48.9128 186.303 49.3145C186.459 49.736 186.342 49.9706 186.057 50.1848C185.664 50.4806 185.619 50.873 185.671 51.3211C185.709 51.643 186.034 51.7736 186.148 52.1487C185.352 52.0515 185.23 52.6649 185.053 53.2083C184.941 53.5518 184.819 53.8941 184.743 54.2463C184.383 55.8964 183.705 57.4889 183.871 59.2362C183.884 59.376 183.804 59.48 183.715 59.5691C183.515 59.7691 183.398 60.0142 183.322 60.284C183.198 60.7241 182.957 60.7 182.689 60.4313C182.432 60.1714 182.143 59.9789 181.794 59.8799C181.714 59.5964 181.503 59.441 181.28 59.2733C180.058 58.3523 178.918 57.3434 178.094 56.0164C177.694 55.3721 177.552 54.6059 177.21 53.9306C176.846 53.217 176.532 52.4965 175.782 52.0663C174.847 51.5297 174.524 50.714 175.86 50.1179C176.838 49.6816 177.589 49.054 177.944 47.9974C178.314 46.762 178.933 45.7166 180.082 45.0847C180.448 44.8841 180.73 44.6409 180.74 44.1643C180.767 42.8039 180.741 41.4435 180.757 40.083C180.759 39.8101 180.652 39.6473 180.408 39.5489C179.569 39.2103 178.478 39.5316 177.969 40.2972C177.596 40.8567 177.251 41.436 176.788 41.9287C176.425 42.4926 176.058 43.0793 175.479 43.4105C174.794 43.8035 174.19 44.3098 173.53 44.7356L173.391 44.8365L173.253 44.9368L173.11 45.029C172.77 45.1955 172.485 45.4437 172.189 45.6745C171.768 46.002 171.683 45.9871 171.558 45.4499C171.407 44.8031 171.244 44.1557 171.209 43.486V43.3578C171.29 43.2489 171.321 43.1251 171.306 42.989C171.1 42.427 171.087 41.847 171.137 41.259C171.152 41.2021 171.167 41.1464 171.18 41.0894C171.207 41.0083 171.238 40.9304 171.267 40.8511L171.295 40.7719L171.314 40.6896C171.324 40.6339 171.328 40.5769 171.327 40.5206C171.324 40.434 171.311 40.3492 171.283 40.2669L171.21 40.109C170.785 39.5396 170.384 38.9535 170.017 38.3401C169.59 37.6252 169.046 37.0273 168.213 36.8002C168.158 36.7773 168.103 36.7587 168.045 36.7482C167.986 36.742 167.927 36.7451 167.87 36.7587C167.814 36.7791 167.762 36.8064 167.715 36.8435C167.56 36.9809 167.415 37.1276 167.285 37.2885C167.249 37.3386 167.218 37.3919 167.192 37.4476C167.057 37.8158 166.868 38.1643 166.803 38.558C166.769 39.2307 166.767 39.9048 166.804 40.5788C166.849 40.9167 167.027 41.2219 167.037 41.5685C167.087 43.416 167.162 45.2623 167.276 47.1068C167.343 48.1868 167.322 49.27 167.372 50.3531C167.466 52.3684 167.544 54.3849 167.645 56.4014C167.713 57.7526 167.884 59.0647 168.295 60.3465C168.313 60.419 168.337 60.4883 168.37 60.5557C168.48 60.7841 168.623 60.9977 168.7 61.2372C168.944 61.9898 169.423 62.2851 170.204 62.2151C170.889 62.1538 171.569 62.3036 172.146 62.7171C172.455 62.9399 172.773 63.0117 173.129 62.9987C173.198 62.9962 173.262 62.9783 173.322 62.9424C173.955 62.5543 173.809 61.9762 173.681 61.4025L173.687 61.4136C173.673 60.648 173.238 59.9634 173.27 59.1922C173.297 58.4866 173.205 57.7934 173.104 57.099C172.945 56.7771 172.761 56.467 172.705 56.1018L172.651 55.9471L172.692 56.0078C172.743 56.2621 172.81 56.5122 172.946 56.7369C173.43 57.4035 174.369 57.5991 174.654 58.4792C174.689 58.5863 174.842 58.6445 174.957 58.6909C175.363 58.853 175.578 59.1656 175.667 59.5908C175.765 60.0544 176.064 60.2599 176.517 60.2747C176.912 60.2884 177.303 60.3304 177.657 60.5372L177.79 60.6628C177.922 60.807 177.97 60.994 178.017 61.1759C178.232 62.0338 178.854 62.5339 179.503 63.0346C180.257 63.6164 180.988 63.5223 181.74 63.0674C181.797 63.0476 181.854 63.0278 181.909 63.003C182.52 62.8174 182.625 62.9034 182.477 63.5025C182.397 63.8262 182.314 64.1506 182.197 64.4631C182.175 64.5238 182.156 64.5857 182.143 64.6488C181.956 65.5958 181.944 66.5403 182.177 67.4835C182.262 67.8289 182.399 68.1638 182.35 68.5376C182.187 69.7835 182.597 70.2465 183.84 70.2731C184.375 70.2849 184.923 70.1722 185.442 70.3697C185.985 70.577 186.497 70.5473 186.997 70.2502C187.06 70.2193 187.119 70.1828 187.175 70.1394C187.684 69.7445 187.921 69.0241 187.738 68.4373C187.712 68.3525 187.683 68.2659 187.596 68.2572C187.025 68.2059 187.279 67.8097 187.295 67.5133L187.29 67.5207C187.706 66.7452 187.819 65.839 188.28 65.0827C188.348 65.0623 188.393 65.0208 188.405 64.9471L188.404 64.9453L188.406 64.9447C188.485 64.9218 188.564 64.8927 188.616 64.8233C189.11 64.1598 189.726 63.7767 190.575 63.8801C190.8 63.9073 191.035 63.9147 191.257 63.8757C191.569 63.8219 191.768 63.8528 191.97 64.1766C192.147 64.46 192.502 64.5881 192.771 64.179L192.775 64.1741C193.005 64.153 193.106 63.9544 193.257 63.8182C193.895 63.2395 194.793 63.2927 195.321 63.9284L195.318 63.9253C195.386 64.1945 195.557 64.361 195.813 64.4402C195.905 64.5987 196.153 64.6042 196.16 64.8512C196.195 65.9523 196.839 66.5223 197.809 66.7798C198.09 66.8541 198.205 67.0385 198.309 67.2855C198.539 67.8332 198.539 68.4107 198.491 68.9771C198.426 69.7315 198.795 70.2211 199.316 70.6513C199.637 70.9174 199.97 70.928 200.267 70.6358C200.628 70.2805 201.044 70.0033 201.434 69.6901C201.811 69.3868 202.13 69.0253 202.325 68.5648C202.352 68.506 202.375 68.446 202.391 68.3829C202.558 67.9112 202.484 67.4619 202.274 67.0255Z" fill="black"/>
<path fill-rule="evenodd" clip-rule="evenodd" d="M43.103 94.9446L43.1278 94.9714L43.105 94.9419H43.1037L43.103 94.9446Z" fill="white"/>
<path fill-rule="evenodd" clip-rule="evenodd" d="M155.617 52.0305C155.606 52.413 155.268 52.6377 155.061 52.9224L154.894 52.9354C154.205 52.4143 153.47 52.7621 152.745 52.7856C152.009 52.8085 151.34 53.1242 150.62 53.1997L150.584 53.118L150.617 53.0753C150.743 52.785 150.853 52.4867 151 52.2069C151.169 51.8863 151.23 51.588 151.033 51.2488C150.9 51.0198 150.888 50.7716 151.095 50.5475C151.74 49.8488 151.987 48.9401 152.301 48.0718C152.394 47.8149 152.465 47.5512 152.588 47.303C152.774 46.9298 153.023 46.5783 152.966 46.1221C153.707 46.2378 154.206 46.6309 154.145 47.2102C154.033 48.2853 154.535 49.0862 155.068 49.9007C155.137 50.006 155.178 50.1372 155.263 50.2238C155.773 50.7468 155.636 51.4079 155.617 52.0305ZM167.451 63.7285C167.315 63.0984 167.247 62.4374 166.833 61.9033L166.807 61.8748L166.823 61.8407C166.416 60.367 165.648 59.0827 164.819 57.8306L164.823 57.8368C164.76 57.5348 164.672 57.2432 164.49 56.9907L164.406 56.849C164.368 56.7753 164.335 56.7004 164.3 56.6255L164.227 56.4739C163.987 55.85 163.447 55.4378 163.137 54.864C162.763 54.169 162.816 53.9988 163.485 53.6193L163.625 53.5284C163.706 53.4634 163.778 53.3891 163.851 53.3142L163.903 53.2591L164.006 53.1527L164.058 53.1007L164.166 52.9985L164.276 52.8902C164.333 52.8308 164.386 52.7671 164.429 52.6953L164.5 52.535C164.939 51.1758 164.832 50.7679 163.835 49.9973C163.601 49.8172 163.33 49.7076 163.079 49.5603C163.024 49.5306 162.97 49.5021 162.913 49.4786C162.315 49.2434 161.698 49.0577 161.104 48.8139C160.494 48.5632 159.793 48.3639 159.431 47.792C158.957 47.0443 158.655 46.1815 157.96 45.5867C157.613 44.8025 157.811 43.9112 157.501 43.119C157.484 43.0559 157.463 42.9934 157.436 42.9333C157.398 42.8417 157.355 42.752 157.303 42.6678C157.268 42.6109 157.23 42.557 157.185 42.5075C156.77 42.1145 156.508 41.6304 156.555 41.048C156.602 40.4613 156.654 39.8609 156.95 39.3298C157.261 38.7716 157.439 38.1588 157.639 37.5572C157.919 36.7105 157.776 35.9473 157.207 35.2355C156.62 34.4996 155.85 34.3195 154.995 34.3053C154.931 34.304 154.869 34.3139 154.807 34.3362C154.357 34.5071 154.032 34.8091 153.835 35.2609C153.724 35.5153 153.539 35.7171 153.359 35.9238C152.274 37.171 151.129 38.386 150.899 40.1568L150.832 40.2632L150.722 40.4037C150.04 41.3612 149.39 42.3398 148.823 43.374L148.745 43.5312C148.486 44.0078 148.169 44.4497 147.941 44.9449L147.853 45.0978C147.542 45.5768 147.339 46.0973 147.246 46.6686C147.179 47.0864 147.026 47.4807 146.82 47.8502C146.792 47.9028 146.766 47.956 146.743 48.0117C146.484 48.8083 146.293 49.6482 145.508 50.1223L145.409 50.2702C145.365 50.3489 145.324 50.4293 145.287 50.5123C145.262 50.568 145.238 50.6249 145.219 50.6831C145.106 50.9777 145.021 51.2847 144.919 51.583C144.72 52.1611 144.713 52.85 144.301 53.2975C143.799 53.8422 143.557 54.4376 143.528 55.1568C143.502 55.2144 143.475 55.2719 143.452 55.3301C143.051 55.8308 142.525 56.2505 142.521 56.9944C142.52 57.1869 142.356 57.3317 142.207 57.4493C141.728 57.8257 141.549 58.345 141.468 58.9354C141.373 59.6225 141.378 60.3324 141.051 60.9742C140.845 61.3778 140.813 61.8147 140.839 62.2715C140.891 63.1845 140.97 63.3002 141.845 63.3441C142.196 63.3621 142.493 63.458 142.74 63.713C142.79 63.7545 142.842 63.7941 142.898 63.8275C143.337 64.1494 143.754 64.5214 144.257 64.7194C145.187 65.0865 145.964 64.9373 146.206 63.8845C146.272 63.5954 146.368 63.3132 146.444 63.0266C146.655 62.2313 147.121 61.686 147.87 61.3765C148.178 61.249 148.483 61.1203 148.8 61.0175C148.858 60.9953 148.916 60.9717 148.972 60.9433C149.211 60.8139 149.472 60.7365 149.718 60.6202C150.525 60.234 151.12 59.6652 151.366 58.7466C151.568 57.9903 151.833 57.9451 152.362 58.5251C152.855 59.0648 153.683 59.495 154.349 58.9435L154.484 58.8197C154.55 58.7355 154.595 58.6402 154.635 58.5412C154.939 57.7749 154.939 57.778 155.684 58.0033C156.245 58.1729 156.793 58.2057 157.276 57.7848C157.469 57.6158 157.636 57.6196 157.815 57.8071C158.375 58.3939 159.074 58.881 159.116 59.8248C159.125 60.0402 159.236 60.2377 159.398 60.38C159.864 60.7923 160.055 61.3524 160.198 61.9348C160.325 62.4535 160.47 62.961 160.742 63.4215L160.856 63.567C161.366 64.1017 161.935 64.4842 162.672 64.0634C163.233 63.744 163.824 63.4754 164.339 63.0737L164.474 62.9517C164.987 62.4622 165.036 62.4714 165.323 63.0997C165.419 63.3113 165.484 63.5354 165.564 63.7533C165.823 64.4576 166.071 64.6148 166.833 64.5597C166.892 64.5399 166.948 64.5152 167.002 64.4842C167.284 64.314 167.528 64.0832 167.451 63.7285Z" fill="black"/>
<path fill-rule="evenodd" clip-rule="evenodd" d="M289.468 51.2034C289.453 51.4417 289.325 51.5036 289.132 51.5816C288.363 51.8947 287.542 52.0476 286.785 52.3955C286.523 52.5155 286.253 52.617 285.864 52.7774C286.033 51.9672 286.182 51.2702 286.322 50.5708C286.536 49.5032 286.988 48.5432 287.554 47.6315C287.632 47.5071 287.687 47.3672 287.754 47.2366C287.828 47.0942 287.845 46.8881 288.072 46.9042C288.303 46.9197 288.517 46.9605 288.634 47.2137C289.217 48.477 289.562 49.7903 289.468 51.2034ZM297.577 49.4097C297.535 48.8551 297.297 48.5698 296.835 48.472C296.104 48.3179 295.414 48.4893 294.777 48.8867L294.767 48.857L294.776 48.8873C294.334 49.0625 293.913 49.2989 293.445 49.3979C292.793 49.5353 292.559 49.3466 292.567 48.6824C292.577 47.6853 292.62 46.6802 292.308 45.722C292.101 45.087 292.17 44.538 292.506 43.9773C292.986 43.1763 292.804 42.1235 292.105 41.4625L292.109 41.465C292.094 41.3944 292.05 41.3511 291.984 41.3319L291.986 41.3362L291.98 41.33L291.984 41.3319C291.966 41.2644 291.923 41.2217 291.857 41.2007C291.831 41.0546 291.741 40.9797 291.602 40.9562C291.436 40.4753 290.977 40.5576 290.631 40.4239L290.623 40.4214C290.431 40.2017 290.176 40.1417 289.904 40.1219C288.934 40.0538 287.975 39.8774 287.008 39.7858L287.004 39.7845C286.017 39.3166 285.184 39.4516 284.476 40.1695C284.245 40.4047 284.204 40.7408 284.006 40.9871C283.655 41.4235 283.58 41.8908 283.868 42.3866C283.987 42.5908 284.008 42.8087 283.908 42.9925C283.748 43.2822 283.747 43.604 283.657 43.9055L283.63 43.9989C283.562 44.1147 283.572 44.2459 283.586 44.3672C283.683 45.1656 283.55 45.8273 282.667 46.0668H282.664C282.333 46.1145 281.929 46.1695 281.888 46.5533C281.824 47.1778 281.382 47.5795 281.167 48.1074L281.169 48.1056L281.166 48.1093L281.167 48.1074C281.046 48.1947 280.962 48.3148 280.917 48.4553C280.539 49.6344 279.729 50.6519 279.67 51.9505L279.677 51.9405C279.373 52.6833 278.847 53.3214 278.683 54.131L278.691 54.1205L278.682 54.1328L278.683 54.131C278.494 54.3445 278.63 54.6051 278.594 54.8409C278.569 55.0031 278.638 55.1863 278.49 55.3193C277.9 55.856 277.904 56.7101 277.475 57.334C277.379 57.4739 277.418 57.6565 277.421 57.8292C277.453 59.3901 277.667 60.9641 277.132 62.4892C276.935 63.1038 277.507 63.1985 277.774 63.5086C278.608 64.4778 279.635 64.5589 280.776 64.2748C281.202 64.169 281.498 63.9777 281.617 63.5376L281.649 63.5525L281.618 63.5346C282.332 63.1081 282.529 62.3945 282.626 61.6264L282.623 61.6282L282.626 61.6245V61.6264C283.067 61.315 282.958 60.7753 283.128 60.3513L283.126 60.3532L283.129 60.3495L283.128 60.3513C283.457 60.0969 283.455 59.6693 283.635 59.3369L283.636 59.335C283.956 59.2496 284.043 58.8281 284.369 58.7755C285.049 58.6647 285.497 58.1863 285.994 57.7716C286.372 57.4565 286.714 57.0747 287.284 57.0945C287.685 57.1087 287.87 57.2424 287.824 57.6602C287.673 59.0534 288.025 60.4337 287.923 61.8263C287.915 61.9309 287.951 62.0435 288.011 62.1289C288.241 62.4619 288.239 62.8463 288.263 63.2263C288.305 63.8638 288.129 64.4939 288.202 65.1308C288.372 66.5983 289.006 67.9482 290.525 68.0182L290.528 68.0175C291.073 68.3815 291.704 68.3641 292.314 68.4496C293.598 68.6291 293.624 68.6427 293.902 67.4023C294.177 66.1811 294.112 64.9402 293.98 63.7029L293.985 63.7134C293.935 63.6292 293.955 63.5092 293.856 63.4516V63.4553L293.853 63.4498L293.856 63.4516C293.756 62.7652 293.859 62.0386 293.469 61.4091L293.472 61.4159C293.44 60.4807 293.469 59.548 293.329 58.6127C293.201 57.7592 293.458 56.8983 293.443 56.033C293.431 55.2748 293.527 55.2154 294.237 54.9851C294.736 54.8236 295.271 54.6955 295.617 54.2263L295.621 54.2226C296.087 53.9905 296.099 53.5529 296.052 53.1258C295.974 52.4246 296.253 51.8867 296.753 51.4695C297.402 50.9261 297.641 50.2706 297.577 49.4097Z" fill="black"/>
<path fill-rule="evenodd" clip-rule="evenodd" d="M0.0585086 88.5194L0 88.4868L0.0272133 88.4609L0.0585086 88.5194Z" fill="white"/>
<path fill-rule="evenodd" clip-rule="evenodd" d="M0.974768 93.7939L0.942112 93.8525L0.91626 93.8266L0.974768 93.7939Z" fill="white"/>
<path fill-rule="evenodd" clip-rule="evenodd" d="M65.1307 54.3389L65.127 54.3426L65.1233 54.3463L65.1307 54.3389Z" fill="#FBDA1D"/>
<path fill-rule="evenodd" clip-rule="evenodd" d="M91.59 67.8526L91.5837 67.8456L91.5815 67.8435L91.59 67.8526Z" fill="#FBDA1D"/>
<path fill-rule="evenodd" clip-rule="evenodd" d="M119.606 23.6898C119.541 23.5682 119.47 23.45 119.463 23.3097C119.458 23.167 119.347 23.1153 119.2 23.1028C119.283 22.7908 119.518 22.8261 119.735 22.9579C119.98 23.1068 119.9 23.487 119.606 23.6898Z" fill="#FBDA1D"/>
<path fill-rule="evenodd" clip-rule="evenodd" d="M99.6173 52.9302L99.6124 52.9344L99.6082 52.9393L99.6173 52.9302Z" fill="#FBDA1D"/>
<path fill-rule="evenodd" clip-rule="evenodd" d="M78.6524 60.2119L78.644 60.219L78.6426 60.2197L78.6524 60.2119Z" fill="#FBDA1D"/>
<path fill-rule="evenodd" clip-rule="evenodd" d="M108.301 67.1939C108.252 67.2059 108.197 67.203 108.142 67.1996C108.062 67.1968 107.982 67.1905 107.908 67.2263C107.978 67.1888 108.061 67.1945 108.142 67.1996L108.244 67.1979L108.301 67.1939L108.411 67.1308C108.505 67.0229 108.341 66.9962 108.295 66.932C108.38 66.9376 108.449 66.9763 108.448 67.0672C108.448 67.178 108.376 67.1899 108.301 67.1939ZM104.791 57.87C103.968 57.9336 103.968 57.9336 103.542 57.1602C103.358 57.0801 103.172 57.0489 102.984 57.1494L102.863 57.2699C102.569 57.8683 102.156 58.3325 101.522 58.5655C101.44 58.5951 101.387 58.7445 101.313 58.7508C100.507 58.8241 100.279 59.5168 99.918 60.0771C99.7622 60.3197 99.5576 60.5016 99.2216 60.4732C98.8474 60.4413 98.4648 60.4436 98.1261 60.6647C98.0097 60.6919 97.9026 60.7584 97.7773 60.7505C97.5068 60.5254 97.7984 60.0481 97.4042 59.8788L97.4048 59.885C97.3554 59.7566 97.2429 59.6452 97.3017 59.4872L97.2989 59.4151C97.2606 59.2923 97.2224 59.169 97.4159 59.1542L97.4452 59.1781L97.5434 59.2616L97.555 59.2685C97.6083 59.3457 97.7119 59.3202 97.7729 59.3815L97.7823 59.3861C98.0135 59.5344 98.2226 59.4196 98.4332 59.3287C98.6217 58.9616 98.6583 58.5945 98.4349 58.2263C98.2758 58.0564 98.1172 57.8853 97.9581 57.7154C97.9248 57.541 98.0185 57.4165 98.1361 57.3239C98.4698 57.0614 98.4621 56.7608 98.258 56.4272L98.2142 56.3283C98.1754 56.2095 98.1355 56.0908 98.237 55.9817C98.7803 56.0237 98.7897 56.0237 98.7875 55.5225C98.7864 55.2861 98.8773 55.0253 98.67 54.8219C98.6339 54.7378 98.6323 54.6525 98.6661 54.5662C99.0764 54.1502 99.2438 53.5927 99.4911 53.0807C99.5227 53.0245 99.5631 52.9745 99.6119 52.933C99.6568 52.8773 99.7095 52.833 99.776 52.8085C99.9468 52.3931 100.367 52.2056 100.607 51.8544C100.888 51.8385 100.613 51.5908 100.744 51.5123L100.741 51.5112C100.785 51.3538 101.206 51.4322 100.979 51.0975C100.899 50.9793 101.02 50.8861 101.083 50.7941L101.079 50.7946C101.275 50.6827 101.511 50.6435 101.661 50.4503L101.666 50.4452C102.042 50.4633 101.974 50.8424 102.127 51.0418C102.323 51.3663 102.57 51.6618 102.639 52.0573C102.672 52.2391 102.8 52.371 102.968 52.4295C103.639 52.6653 103.817 53.2319 103.921 53.8644C103.989 54.2758 104.007 54.7128 104.328 55.035C104.716 55.2969 104.787 55.718 104.861 56.1385C104.937 56.5829 105.015 57.0273 105.089 57.4722C105.141 57.7876 105.095 57.8467 104.791 57.87ZM98.0196 65.5136C97.5489 65.8608 97.0455 65.9773 96.4916 65.7403C96.2799 65.6142 96.0625 65.6494 95.8452 65.7187C95.7703 65.7255 95.6916 65.7506 95.6206 65.7363C95.3928 65.6909 95.329 65.5534 95.471 65.3846C95.8241 64.9629 96.1252 64.5038 96.3896 64.0225C96.4922 63.8361 96.5859 63.8611 96.7533 63.9049C97.1752 64.014 97.5711 64.1924 97.9769 64.3418C98.1377 64.7271 98.0557 65.1209 98.0196 65.5136ZM95.0673 48.3273C95.2165 48.1744 95.3967 48.2278 95.5508 48.2381C95.8646 48.2579 95.9234 48.1068 95.9339 47.8158C95.9494 47.3692 95.7997 47.0345 95.4892 46.7282C95.1084 46.3526 94.5977 46.1361 94.3033 45.6491C94.1902 45.4616 93.9718 45.5513 93.6497 45.8707C93.4861 46.144 93.2488 46.3509 93.0365 46.5799C92.7881 46.7543 92.797 47.0601 92.7243 47.3067C92.6007 47.7221 92.3717 47.9698 91.9321 48.0636C91.8217 47.8454 91.8849 47.5118 91.5889 47.3919C91.4298 47.2686 91.2767 47.247 91.1365 47.422C90.8936 47.8482 90.8936 47.8482 90.2522 47.422C90.3886 47.1544 90.5272 46.8822 90.6658 46.6106C90.7123 46.5475 90.7656 46.4947 90.8404 46.4685C91.5395 45.9792 92.242 45.4962 92.9356 44.999C93.3214 44.7211 93.3226 44.312 92.9184 44.0534C92.5813 43.8369 92.3141 43.5187 91.9337 43.367C91.8101 43.3175 91.7086 43.2278 91.6826 43.0738C91.6349 42.7874 91.3882 42.5788 91.3716 42.2458C91.8411 42.1918 92.2852 42.0884 92.3989 41.5179C92.4105 41.4588 92.4566 41.4281 92.5192 41.4162C92.7049 41.3815 93.2704 41.6457 93.3514 41.8156C93.3996 41.9162 93.4772 42.0526 93.3054 42.0929C93.1235 42.1367 93.0476 42.2265 93.0531 42.4117C93.0603 42.6231 93.0332 42.8288 93.1912 43.0169C93.3475 43.2028 93.5721 43.2675 93.7445 43.4181C93.8958 43.5244 94.0195 43.4801 94.1248 43.3425C94.3865 43.2681 94.1281 42.8504 94.4536 42.8192C94.5373 42.9249 94.6454 43.0192 94.7003 43.1391C94.8905 43.5556 95.1716 43.8352 95.6312 43.9159C95.8358 43.9517 95.9805 44.0887 95.9356 44.3273C95.8807 44.6194 96.0453 44.8802 96.0004 45.1888C95.9622 45.4565 96.2688 45.5985 96.5199 45.6207C96.7766 45.644 96.8759 45.7411 97.0017 45.9889C97.2789 46.5367 97.626 47.0669 98.3185 47.1544C98.5203 47.1805 98.5635 47.3061 98.4931 47.4902C98.4449 47.6164 98.4271 47.7539 98.3329 47.8613C98.2026 48.0108 98.2237 48.1778 98.2957 48.3466C98.3595 48.3688 98.4094 48.4142 98.4648 48.4495L98.5735 48.475C98.6877 48.554 98.8125 48.616 98.92 48.7063L98.9178 48.7046C99.0825 48.8103 99.2227 48.9495 99.3807 49.0649L99.5166 49.1478C99.8903 49.1092 99.9923 49.3217 99.9767 49.6513C100.013 49.732 100.013 49.8246 100.053 49.9042C99.9939 50.0434 99.9108 50.161 99.7533 50.0434C99.3713 49.7564 98.9311 49.6752 98.4759 49.6104C98.1438 49.5632 97.8228 49.4837 97.5201 49.2905C97.1098 49.0291 96.6325 49.0904 96.1961 49.2274C95.9661 49.2996 95.8114 49.2757 95.7116 49.0882C95.5541 48.7904 95.3002 48.5858 95.0673 48.3273ZM95.1366 52.1113C94.6964 52.392 94.2623 52.6875 93.7068 52.6994C93.6186 52.2874 94.0544 52.1119 94.0001 51.7652C94.0971 51.4993 94.0583 51.2356 94.004 50.9668C93.9635 50.7679 94.04 50.7088 94.213 50.8316L94.2102 50.8265C94.2662 50.8532 94.3017 50.8986 94.3277 50.9538C94.5828 51.1674 94.7125 51.4839 94.9293 51.7289C94.9842 51.8647 95.334 51.8323 95.1366 52.1113ZM91.1803 64.6862C90.9652 64.8726 90.6297 64.776 90.3481 64.7481C90.2084 64.7345 90.1917 64.5993 90.1912 64.4782C90.1895 64.1151 90.3059 63.7804 90.5161 63.5042C90.8476 63.069 91.0544 63.0923 91.4264 63.5344C91.6077 63.7497 91.804 63.952 92.0158 64.1844C91.7336 64.3714 91.4298 64.4691 91.1803 64.6862ZM89.4172 43.5664L89.2891 43.5767C89.1433 43.6022 88.9975 43.6272 88.8517 43.6522L88.717 43.6738C88.3311 43.738 87.9314 43.7483 87.5837 43.9688C87.551 44.0256 87.5111 44.0767 87.4673 44.125C87.3403 44.2688 87.2328 44.4415 87.082 44.5507C86.5636 44.9274 86.3346 45.4888 86.0696 46.0469C85.809 46.5947 85.5069 47.1402 85.126 47.6016C84.9242 47.846 85.0644 48.25 84.7822 48.3335C84.5477 48.4034 84.2544 48.1591 83.9999 48.3898L83.9467 48.408C83.6008 48.5051 83.7344 48.2784 83.7638 48.1227C83.7682 47.8823 83.8708 47.6317 83.6878 47.4124C83.3651 46.7748 82.7115 46.5827 82.1642 46.2645C81.9003 46.1111 81.6442 45.9656 81.4291 45.748C81.316 45.6099 81.2456 45.4502 81.0038 45.4616C80.4383 45.4894 79.87 45.4718 79.3029 45.4701C79.0916 45.4695 78.9381 45.5531 78.8566 45.7576L78.8593 45.7559C78.7712 45.8593 78.8649 46.0253 78.7412 46.1162C78.4856 46.4185 78.3548 46.8117 78.0432 47.0771C77.8719 47.2243 77.7738 48.1534 77.8719 48.3528C77.9113 48.4335 77.9822 48.4455 78.0582 48.4495C78.2084 48.4591 78.3592 48.4688 78.51 48.4784L78.5738 48.5443L78.5494 48.5966C78.2389 48.9552 77.7971 49.1922 77.6163 49.6746C77.5764 49.7797 77.4799 49.8684 77.5088 49.9923C77.5442 50.1468 77.4156 50.3565 77.6424 50.4486C77.8569 50.5361 78.1624 50.4423 78.2899 50.2559C78.3798 50.1269 78.3786 49.8923 78.6292 49.9519L78.7634 49.9599C78.8688 49.9764 78.9741 49.9923 79.0794 50.0093C79.1726 50.0815 79.1543 50.1508 79.075 50.219C78.5611 50.3798 78.1558 50.7219 77.71 51.0032C77.1855 51.3339 77.0641 51.7243 77.0369 52.2516L77.0164 52.367C76.9915 52.5511 77.1168 52.8108 76.915 52.9017C76.681 53.0063 76.6267 52.7335 76.5235 52.5807C76.3971 52.3954 76.1826 52.4278 76.0589 52.5136C75.5394 52.8767 75.0881 53.3154 74.8442 53.9308C74.8242 53.982 74.8409 54.0479 74.8403 54.1064C74.7427 54.3349 74.5199 54.465 74.4079 54.6826C74.2166 55.1657 74.2876 55.5771 74.7073 55.9072C74.8087 55.9874 74.8813 56.1067 74.9673 56.2078C74.9756 56.3334 74.9745 56.4596 74.975 56.5846C74.766 56.7278 74.5326 56.796 74.287 56.8255C74.2055 56.8664 74.1146 56.8693 74.0292 56.8932C72.988 56.9142 72.988 56.9142 72.9963 57.9694C72.9974 58.1064 72.998 58.2428 73.0024 58.3797C73.0063 58.4888 72.9752 58.5633 72.8599 58.5894C72.5433 58.6593 72.3593 58.9321 72.1231 59.1179C71.7888 59.3815 71.7112 59.8117 71.6524 60.2015C71.5981 60.5607 71.6075 60.9408 71.6701 61.3096C71.7228 61.6222 71.8126 61.9126 72.0798 62.1086C72.2384 62.2245 72.3255 62.4013 72.443 62.5524C72.7086 63.003 72.2661 62.978 72.0771 63.1235C71.7705 63.111 71.4927 63.3326 71.175 63.2389C71.0625 63.1764 70.961 63.0945 70.844 63.04C70.3085 62.9587 69.7535 62.928 69.377 62.4382L69.2867 62.3689C68.8609 62.141 68.8603 62.1416 68.9141 61.6597C68.9856 61.529 68.9435 61.3756 68.9945 61.2409C68.9158 61.067 68.8598 60.8783 68.7555 60.7238C68.5304 60.3891 68.5182 60.3925 68.8176 60.1652C69.086 59.9612 69.3693 59.7765 69.6005 59.5242C69.8938 59.3247 69.983 59.0127 70.0396 58.6832C70.0806 58.611 70.1211 58.5394 70.1615 58.4678C70.202 58.4115 70.2508 58.3649 70.3024 58.3206C70.5236 58.0183 70.6694 57.6944 70.6322 57.3C70.6178 57.1477 70.6178 56.9687 70.839 56.954C71.4888 56.9102 71.6596 56.4266 71.6574 55.8993C71.6552 55.4873 71.8309 55.2429 72.1031 55.0145C72.1464 54.7508 71.903 54.39 72.346 54.2604C72.9764 54.1911 73.0074 54.1297 72.7696 53.4188C72.7241 53.3643 72.6764 53.312 72.6199 53.2688C72.4746 53.1739 72.3693 53.2211 72.2911 53.366C72.2517 53.5291 72.2739 53.7064 72.1985 53.8553C72.137 53.9763 72.061 54.1388 71.8991 53.9439L71.8631 53.8723C71.6524 53.7087 71.521 53.5615 71.7173 53.258C71.9817 52.85 71.7477 52.3562 71.8498 51.9107C72.0798 51.7601 72.3454 52.1283 72.5683 51.8613C72.8339 51.5419 73.1499 51.2765 73.3522 50.8901C73.6417 50.3395 73.5873 50.1582 72.9636 50.0428C72.9919 49.7155 73.1987 49.5422 73.4593 49.4064C73.7331 49.2626 73.9283 49.0717 73.8252 48.716C73.7337 48.5455 73.5036 48.6256 73.4033 48.4705C74.0347 48.2841 74.1185 47.7465 74.1817 47.1959C74.2604 47.0538 74.4134 47.0248 74.537 46.9515C74.7239 46.8896 74.9113 46.8288 75.0981 46.768C75.6137 46.5788 75.5162 46.1639 75.4507 45.7616C75.1031 44.9706 74.526 44.4688 73.7026 44.2472C73.1033 44.0858 72.4846 43.9835 71.9767 43.5511C71.7832 43.3863 71.4844 43.2766 71.2937 43.6306C70.9815 43.9886 70.757 44.4063 70.5241 44.8189C70.4692 44.8729 70.4232 44.9445 70.3584 44.9785C70.0978 45.1161 69.7302 45.0962 69.6881 44.9234C69.6188 44.637 69.8561 44.5524 70.0612 44.4489C70.6555 44.1478 70.7587 43.8489 70.4986 43.2403C70.3517 42.8948 70.3767 42.8192 70.7559 42.8555C71.7976 42.955 72.7779 42.693 73.7586 42.3998C73.8302 42.4254 73.8989 42.4123 73.9654 42.3805C74.5997 42.3498 75.2301 42.2435 75.8682 42.2776C76.0905 42.289 76.3184 42.239 76.4398 42.5208C76.5025 42.6675 76.6622 42.6328 76.7924 42.626C76.9399 42.5947 76.8218 42.422 76.9238 42.3668C77.0857 42.2435 77.2753 42.2867 77.4561 42.2719C77.7233 42.2504 77.9639 42.177 78.0942 41.9049C78.1452 41.8338 78.214 41.7918 78.296 41.7702C78.423 41.7401 78.5588 41.7503 78.6786 41.6918C78.8682 41.6003 78.9669 41.4395 78.9297 41.2281C78.8815 40.9547 78.6841 40.9911 78.4929 41.0434C78.3931 41.0701 78.2927 41.1332 78.1946 41.0422L78.1974 40.9849C78.3559 40.7217 78.1619 40.3081 78.5422 40.141C78.8732 40.4876 79.4736 40.5104 79.6139 41.0877C79.7131 41.4963 79.8229 41.8963 80.0225 42.2742C80.1983 42.6084 80.4361 42.7493 80.7932 42.7266C80.9434 42.7169 81.0948 42.7305 81.2461 42.7339C81.3293 42.7624 81.4158 42.7754 81.5006 42.793C82.1798 42.7606 82.717 43.1516 83.2809 43.4409C83.7094 43.6591 83.9667 43.6437 84.2727 43.2948C84.3708 43.1817 84.51 43.1073 84.6303 43.0152C84.7041 43.0084 84.7783 43.0033 84.8449 42.9675C85.2136 42.9124 85.5978 42.9146 85.9055 42.6453C86.0824 42.4896 86.2287 42.3384 86.1711 42.056C86.1317 41.8583 86.0824 41.6344 86.2603 41.4133C86.6235 41.698 86.7466 42.1697 87.0665 42.4754C87.1446 42.5027 87.1995 42.5578 87.2422 42.6282C87.5427 42.7078 87.8038 42.6396 87.9979 42.389C88.0744 42.2907 88.1648 42.235 88.2718 42.1941C88.7059 42.027 88.8816 41.7071 88.8434 41.2366C88.8212 40.9678 88.8389 40.6962 88.8389 40.374C89.8768 40.6933 90.5011 41.4662 91.2058 42.1475C91.0744 42.2833 90.8942 42.2572 90.8299 42.4345C90.5859 43.1033 90.0354 43.3823 89.4172 43.5664ZM80.9196 55.0208C81.0099 55.1043 80.9939 55.2003 80.9506 55.2998C80.8857 55.518 80.9063 55.743 80.9035 55.9663C80.8647 56.076 80.8813 56.1919 80.8658 56.3044C80.8436 56.459 80.8214 56.613 80.7987 56.7681C80.7682 56.8619 80.7505 56.9562 80.7876 57.0534C80.7083 57.6609 80.6673 57.7012 80.0824 57.7069C79.8734 57.7086 79.6638 57.7069 79.4553 57.695C79.3594 57.6887 79.2679 57.6444 79.2524 57.5285C79.2363 57.4069 79.3195 57.329 79.4149 57.3336C79.8246 57.35 79.9161 57.0437 79.9998 56.7397C80.1395 56.238 80.3014 55.7498 80.5969 55.314C80.6856 55.1821 80.746 55.0435 80.9196 55.0208ZM80.9168 53.0773C80.9545 52.9949 81.0077 52.983 81.0759 53.041C81.719 53.0716 81.7185 53.0716 81.7789 52.4119C81.785 52.3545 81.8033 52.2982 81.8161 52.242L81.8299 52.0937C81.8405 51.9113 81.851 51.7289 81.8621 51.547C81.9037 51.4652 81.9114 51.3754 81.9264 51.2867V50.5122C82.33 50.5122 82.6555 50.6378 82.9898 50.6975L83.1045 50.706C83.2038 50.8003 83.3563 50.7157 83.4538 50.8134L83.4566 50.8151C83.6229 50.8725 83.7432 50.9782 83.797 51.1543C83.9162 51.3453 84.123 51.4038 84.3004 51.5078C84.4141 51.5743 84.5283 51.6465 84.622 51.7379C84.7434 51.8567 84.8676 52.0022 84.8177 52.1863C84.7601 52.3943 84.566 52.2869 84.4307 52.3142C84.3753 52.325 84.3198 52.3352 84.265 52.346L84.1347 52.3835C83.9866 52.363 83.8386 52.3397 83.69 52.3227C83.4999 52.3005 83.3551 52.3687 83.2958 52.5648C83.0984 53.2131 82.5967 53.3967 82.0118 53.4626C81.9209 53.4734 81.8344 53.5217 81.7451 53.5524C81.6891 53.5626 81.6658 53.6535 81.5921 53.6177C81.4784 53.7007 81.3659 53.7837 81.2533 53.8666C81.1347 53.9496 81.3592 54.2371 81.0582 54.2116C80.7904 53.8621 80.9889 53.4524 80.9168 53.0773ZM79.9981 50.6196C80.0768 50.6446 80.1578 50.6423 80.2387 50.631C80.4356 50.5122 80.5514 50.5298 80.5154 50.8032C80.4178 50.9009 80.4533 51.0685 80.3396 51.1589C80.2626 51.2038 80.2415 51.2794 80.2332 51.3623C80.1827 51.6334 80.1279 51.9044 80.2504 52.1715C80.3502 52.3039 80.5248 52.3806 80.5475 52.592C80.4234 52.754 80.196 52.671 80.0469 52.8046C79.8955 52.9409 79.9482 53.1353 79.8651 53.2717C79.7181 53.516 79.4564 53.3819 79.2452 53.3995C79.0545 53.416 78.9015 53.3131 78.897 53.1035C78.8871 52.6011 78.8937 52.0982 78.9015 51.5953C78.9087 51.1663 79.3123 51.2078 79.5413 51.0413C79.5973 51.0111 79.6461 50.9702 79.6893 50.9231L79.773 50.8407C79.7043 50.6145 79.722 50.4793 79.9981 50.6196ZM86.5985 65.6409C86.3773 66.0614 86.2925 66.5512 85.9704 66.9172C85.7824 67.0217 85.5568 66.8922 85.3727 67.0189C85.32 67.0217 85.2668 67.0246 85.2147 67.0274C85.0655 67.0007 85.1443 66.8422 85.0733 66.77L84.9657 66.641C84.841 66.5472 84.8072 66.3904 84.7212 66.2699C84.2816 66.0767 83.8053 65.9852 83.4283 65.6267C83.1977 65.4073 82.8772 65.3971 82.6072 65.6517C82.5119 65.7415 82.3993 65.8125 82.2773 65.9045C82.0966 65.767 82.1559 65.5056 82.0062 65.3653C81.8366 65.08 81.8011 64.755 81.7401 64.4379L81.7368 64.4328C81.5311 64.1344 81.4313 63.7656 81.1558 63.5133C81.021 63.3457 80.8719 63.2195 80.6357 63.2559C80.5276 63.273 80.4139 63.2582 80.3019 63.2582C79.7464 63.2576 79.7464 63.2576 79.549 62.6888C79.3883 62.3081 79.1144 62.5081 78.8704 62.5484L78.7706 62.6462C78.1901 62.7894 77.6097 62.7882 77.0292 62.6462C76.9194 62.5348 76.9316 62.3882 76.9205 62.2484C77.0541 62.0694 77.231 62.1666 77.3934 62.1717C77.5381 62.1302 77.6889 62.1035 77.8259 62.0427C78.4075 61.7853 78.5721 61.3471 78.3287 60.7221L78.2317 60.6681C78.0887 60.5067 78.25 60.4987 78.3348 60.4527C78.3975 60.4072 78.4596 60.3618 78.5222 60.3169L78.6437 60.2169C78.6886 60.1583 78.7429 60.1129 78.8133 60.0907C78.8693 59.9737 78.9248 59.8566 78.9807 59.739C79.1 59.6071 79.177 59.4014 79.4149 59.4685C79.5878 59.7185 79.6527 59.96 79.3505 60.1612C79.0706 60.347 79.0545 60.6311 79.0478 60.9334C79.044 61.1261 79.116 61.2528 79.2879 61.2653C79.9477 61.313 80.2637 61.8733 80.69 62.2546C81.0149 62.5456 81.3398 62.7604 81.7789 62.8093C82.1703 62.853 82.5512 62.9462 82.885 63.2014C83.0774 63.3485 83.3075 63.4622 83.5658 63.4616C83.7599 63.4042 83.9683 63.4889 84.1574 63.398C84.4346 63.3559 84.6974 63.2622 84.9863 63.2616C85.3123 63.261 85.5751 63.344 85.7746 63.6105C85.9232 63.7401 85.9554 63.9583 86.1151 64.0799C86.2836 64.3481 86.3224 64.6765 86.5597 64.926C86.7288 65.1022 86.7077 65.4335 86.5985 65.6409ZM68.0631 47.5596C67.9694 47.555 67.915 47.4476 67.9145 47.3379V46.7526H67.9261C67.9261 46.6163 67.9195 46.4799 67.9278 46.3441C67.9477 46.0014 67.9965 45.9849 68.297 46.0844C68.6258 46.1935 68.7467 46.4822 68.8736 46.7481C68.9723 46.9538 69.0255 47.2357 68.8165 47.3987C68.6086 47.5618 68.3242 47.5715 68.0631 47.5596ZM66.8489 53.7069C66.7446 54.1235 66.5672 54.5053 66.3654 54.8776L66.2529 55.0031C65.6957 55.0435 65.8188 55.5157 65.7323 55.8532L65.7212 55.9993C65.5981 56.4056 65.3375 56.6931 64.9988 56.9284C64.6578 57.1648 64.3329 57.4273 64.003 57.6808C63.7945 57.8404 63.7613 58.1087 63.6338 58.3183C63.5778 58.3808 63.5744 58.4587 63.5695 58.5366C63.4719 59.0167 63.5196 59.4628 63.8722 59.831C63.9919 59.9566 63.9892 60.11 63.9892 60.2663C63.9892 60.5004 64.0002 60.7346 63.9886 60.9675C63.9692 61.3307 64.0662 61.6114 64.3068 61.9143C64.6589 62.3592 64.9051 62.8934 65.1784 63.3997C65.2715 63.5724 65.2222 63.7827 65.2288 63.9765C65.1091 64.1691 64.9616 64.3328 64.7592 64.4356C64.5297 64.568 64.2497 64.6157 64.0856 64.8578C64.0324 65.1113 63.9537 65.3664 64.1183 65.6102C64.2586 65.7403 64.2065 65.9375 64.2763 66.0972C64.359 66.287 64.2935 66.4359 64.0463 66.4313C63.804 66.4273 63.6282 66.6029 63.4248 66.6995C63.2024 66.8058 62.9507 66.8655 62.7905 66.6688C62.5671 66.3949 62.2948 66.4285 62.0143 66.4234C61.9006 66.4211 61.787 66.4228 61.6733 66.4234C60.942 66.429 60.9376 66.4273 60.6648 67.1706C60.5451 67.4968 60.2751 67.307 60.081 67.3718C59.9934 67.4815 59.8227 67.3695 59.7439 67.5036L59.7489 67.5008C59.6757 67.5502 59.5793 67.5371 59.5089 67.5928C59.4418 67.6036 59.3747 67.6139 59.3082 67.6247L59.2012 67.6576L59.113 67.5923L59.0531 67.4968L59.0454 67.49C58.6201 67.5525 58.181 67.5394 57.7879 67.7639C57.6915 67.8184 57.539 67.8292 57.4847 67.7224C57.4386 67.6326 57.4603 67.4923 57.4863 67.3831C57.5235 67.2257 57.6565 67.2644 57.763 67.29C58.2326 67.4053 58.6972 67.3849 59.159 67.2507L59.1623 67.2485L59.271 67.1382L59.2782 67.1286C59.4163 66.9126 59.439 66.6592 59.4956 66.4177C59.4823 65.9858 59.5876 65.6028 59.8853 65.2783C59.9696 65.1868 59.994 65.0391 60.0461 64.9169C60.0389 64.8646 60.0472 64.8141 60.0738 64.7669C60.081 64.6311 60.0866 64.4947 60.0932 64.3583C60.1071 64.3004 60.152 64.2572 60.1609 64.1975C60.1692 63.4821 60.1742 62.7672 60.1864 62.0523C60.1936 61.633 60.1986 61.6239 60.5916 61.6171C60.8206 61.6137 61.0446 61.6171 61.2409 61.4716C61.3296 61.4437 61.4244 61.4307 61.5042 61.3773C61.9594 60.9352 62.1873 60.3976 62.1518 59.7503C62.2194 59.6668 62.1939 59.5719 62.1856 59.4787C62.5992 58.6212 63.1442 57.8279 63.3981 56.8932C63.4364 56.7528 63.5173 56.6596 63.6094 56.5613C63.6892 56.4761 63.7507 56.3738 63.6504 56.2561C63.6742 56.205 63.6992 56.1539 63.7247 56.1027C63.8045 55.7345 63.6077 55.2566 64.1167 55.0566C64.4904 54.9901 64.7437 54.7321 64.9999 54.4764L65.1268 54.3417L65.2438 54.2207L65.2388 54.2286L65.3697 54.1007C65.5166 53.7729 65.76 53.5365 66.0594 53.3592C66.2767 53.2308 66.494 53.2495 66.7097 53.3757C66.8428 53.4535 66.8899 53.541 66.8489 53.7069ZM56.8155 60.2157C56.2472 60.3669 55.9511 60.734 55.9661 61.3471C55.9744 61.6898 55.919 62.0018 55.7682 62.3018C55.8114 62.4746 55.741 62.6024 55.6135 62.707C55.4948 62.7422 55.3751 62.7399 55.257 62.7058C54.8661 62.778 54.7708 63.0116 54.7735 63.4133C54.7796 64.2356 55.155 64.8669 55.6091 65.4897C55.8707 65.8494 56.1175 66.2097 56.4895 66.4637C56.6325 66.562 56.6098 66.7018 56.474 66.7984C56.3187 66.9092 56.1529 67.0058 55.9583 67.0325L55.833 67.0456C55.2581 67.2235 54.6965 67.1712 54.1454 66.9439C53.9447 66.9945 53.7296 66.9041 53.535 67.0126C53.3021 67.0087 53.169 67.1939 52.9927 67.3007C52.776 67.432 52.6501 67.3451 52.6163 67.0854C52.5564 66.6279 52.858 66.2807 52.96 65.8722C52.9883 65.7619 53.1036 65.6545 53.0909 65.5573C53.0243 65.026 53.3686 64.6987 53.6336 64.3293L53.6536 64.193C53.6874 63.9861 53.7207 63.7798 53.754 63.5724C53.7795 63.415 53.8343 63.2474 53.9602 63.1746C54.3461 62.9508 54.5235 62.5854 54.6976 62.1967C54.8994 61.7449 55.3634 61.4551 55.4632 60.934C55.502 60.7323 55.3673 60.5038 55.5508 60.3243L55.6279 60.2385C56.3265 59.8475 56.5787 59.1315 56.8526 58.4417C57.0045 58.0615 57.2396 57.8501 57.6266 57.8211C57.7236 57.9245 57.6959 58.0592 57.6477 58.1058C57.2291 58.5104 57.3167 59.0309 57.3178 59.531C57.3178 60.0811 57.3211 60.0811 56.8155 60.2157ZM52.0502 47.526L52.0846 47.4334C52.0979 47.3709 52.1422 47.3323 52.1877 47.2948C52.4178 46.8026 52.8663 46.5776 53.3021 46.3378C53.5233 45.9719 53.9569 45.9071 54.2457 45.6349C54.3821 45.507 54.5457 45.4081 54.697 45.2968C54.839 45.2178 54.9415 45.2172 54.9382 45.4252C54.8805 45.8787 54.59 46.0747 54.1831 46.144C53.8748 46.1958 53.5959 46.2986 53.4496 46.6157C53.4401 46.8833 53.4839 47.1595 53.0537 47.1209C52.7804 47.097 52.6351 47.4056 52.4178 47.5425C52.2953 47.5385 52.1617 47.8107 52.0502 47.526ZM60.6532 47.2328C60.6792 47.1487 60.7341 47.0913 60.8106 47.0532C61.1222 46.5856 61.6439 46.4708 62.1013 46.252C62.2727 46.1707 62.4639 46.1338 62.6175 46.0111C62.6674 45.9253 62.7805 45.9554 62.8382 45.8849L62.9241 45.8707C63.025 45.9463 63.0112 46.0355 62.9529 46.1298C62.9851 46.5577 62.775 46.7788 62.3763 46.8396L62.2544 46.8549C61.9317 46.9697 61.5514 47.0209 61.5552 47.5056C61.5159 47.5664 61.5364 47.626 61.5624 47.6846C61.5181 47.7931 61.609 47.9443 61.4626 48.021L61.3351 48.0062C61.2259 47.9789 61.1172 47.9511 61.0086 47.9238L60.8788 47.917C60.3632 47.7795 60.3549 47.7539 60.6532 47.2328ZM63.9282 45.0013C64.033 44.9558 64.1571 44.9371 64.2032 45.0814C64.2442 45.2115 64.2459 45.3564 64.0817 45.4076C63.9398 45.4519 63.7907 45.4559 63.5977 45.3922C63.6637 45.1939 63.7707 45.07 63.9282 45.0013ZM65.0043 43.3016L65.1274 43.1823L65.2449 43.0647L65.2377 43.0715L65.3558 42.9459L65.353 42.9544C65.3974 42.8987 65.4501 42.8538 65.516 42.8266C65.7084 42.8203 65.7328 42.9959 65.74 43.1073C65.7628 43.4874 65.8869 43.8602 65.8271 44.2466L65.8193 44.2569C65.4251 44.2858 65.1651 43.9966 64.8895 43.7937C64.7021 43.6557 64.9378 43.4641 65.0043 43.3016ZM50.3082 70.2159C49.929 70.1312 49.5159 70.1176 49.2703 69.7192C49.1633 69.5454 48.9759 69.4772 48.7769 69.4601C48.6078 69.3266 48.4631 69.1771 48.4492 68.9402C48.533 68.8623 48.6849 68.7873 48.6893 68.7049C48.7109 68.2753 48.987 68.2776 49.2853 68.2907C49.5453 68.3026 49.8325 68.2384 49.9301 68.6111C49.9523 68.6941 50.0399 68.7947 50.1192 68.8214C50.6636 69.0072 50.5882 69.5158 50.668 69.9301C50.7107 70.154 50.5538 70.271 50.3082 70.2159ZM47.7224 57.8563C47.718 57.9717 47.7052 58.0876 47.7107 58.203C47.7257 58.5121 47.6309 58.5866 47.2933 58.6275C46.8181 58.6849 46.1972 58.6655 46.0691 59.3838C45.7126 59.6697 45.6311 60.255 45.085 60.3351C44.9658 60.0595 45.0063 59.7793 45.0634 59.4992C45.2319 58.936 45.6167 58.5746 46.124 58.3468C46.5858 58.1393 47.041 57.9206 47.4812 57.6688C47.5317 57.5677 47.6004 57.5535 47.6886 57.62C47.7773 57.6876 47.7584 57.7705 47.7224 57.8563ZM44.7579 67.9469C44.535 68.352 44.1685 68.2577 43.8209 68.2293C43.6939 68.1878 43.5553 68.1673 43.4422 68.1014C42.895 67.7826 42.2918 67.9139 41.7158 67.8917C41.3632 67.8787 41.1309 68.1855 40.9318 68.5782C40.7655 68.1406 40.7821 67.773 40.862 67.428C40.9878 66.8854 41.0854 66.329 41.3498 65.8284C41.3853 65.7596 41.4114 65.6852 41.4336 65.6108C41.4962 65.3965 41.3687 65.0857 41.606 64.9783C41.7995 64.8913 42.054 64.9448 42.2813 64.9402C42.7037 64.9323 43.0253 64.6805 43.3546 64.4595C43.5115 64.3532 43.638 64.1998 43.8769 64.2259C43.6596 65.4681 44.0565 66.4183 45.1598 67.0217C45.2269 67.057 45.2718 67.111 45.2924 67.186C45.0113 67.3633 45.0556 67.7809 44.7579 67.9469ZM110.421 60.8647C110.511 60.3777 110.692 59.9384 110.902 59.4958C111.213 58.8394 111.595 58.2149 111.575 57.4216C111.541 56.0573 111.544 56.0249 110.215 56.159C109.801 56.201 109.48 56.1152 109.251 55.7231C108.89 55.102 108.469 54.5105 108.677 53.7149C108.726 53.5285 108.691 53.3245 108.574 53.1529C108.426 52.983 108.197 52.9091 108.071 52.7131C107.998 52.6221 107.926 52.5204 107.823 52.4744C107.125 52.159 106.828 51.5766 106.724 50.8373C106.692 50.6219 106.649 50.3656 106.394 50.2616C106.329 50.2179 106.267 50.1701 106.206 50.1224C106.145 50.0713 106.079 50.0315 106.003 50.0093C105.891 49.9457 105.741 50.0474 105.639 49.9258C105.826 49.803 105.849 49.6451 105.774 49.4246C105.584 48.8722 105.38 48.3807 104.887 47.9784C104.438 47.6113 104.114 47.1078 103.528 46.8771C102.944 46.6481 102.297 46.439 102.102 45.6849C102.069 45.5565 101.932 45.4695 101.8 45.432C101.324 45.2973 101.233 45.0064 101.373 44.5376C101.547 43.9585 101.433 43.7528 100.884 43.5687C100.569 43.463 100.322 43.2778 100.227 42.9686C100.016 42.2742 99.541 42.0753 98.8834 42.0299C98.4848 42.0026 98.0152 41.9418 97.7934 41.4997C97.5755 41.0638 97.2096 40.8524 96.7982 40.6712C96.3608 40.4785 95.8635 40.4064 95.4843 40.1069C95.1438 39.8381 94.794 39.7097 94.376 39.7478C93.9513 39.787 93.6519 39.6023 93.4224 39.2369C93.2228 38.9198 92.9711 38.6493 92.5564 38.6505C91.4425 38.7346 91.5013 38.5987 91.4065 39.7659C91.111 39.7819 91.1182 39.5193 91.0672 39.3392C90.9979 39.0954 90.9546 38.8476 90.7412 38.6823C90.5189 38.5561 90.3553 38.3481 90.1307 38.2254C90.0382 38.1856 89.9312 38.1998 89.843 38.143C89.7482 38.1765 89.6539 38.1799 89.5597 38.1441C89.0385 38.3129 88.5179 38.2822 87.9962 38.1481L87.948 38.1424C87.8909 38.1851 87.8327 38.1777 87.775 38.1453C87.6686 38.1743 87.5643 38.1765 87.464 38.1203L87.3681 38.0015C87.2921 37.6969 87.1152 37.4736 86.8441 37.3281C86.6795 37.2923 86.5425 37.2025 86.3973 37.1184C86.0541 36.9207 85.7015 36.8627 85.3771 37.1764C85.2856 37.231 85.3023 37.481 85.1021 37.3384C84.4196 36.0746 83.2304 35.6916 81.9608 35.4489C81.8377 35.4665 81.7146 35.4921 81.591 35.4563C81.4956 35.4358 81.398 35.437 81.301 35.4336C81.2023 35.4364 81.1086 35.4148 81.0166 35.3819C80.8608 35.3995 80.7333 35.3205 80.6008 35.2574C80.4539 35.2233 80.3064 35.2551 80.1589 35.2546C80.0513 35.2705 79.9687 35.2114 79.8839 35.1608C79.2812 34.9295 78.6498 35.0972 78.0344 35.0267C77.9861 34.9494 77.8397 35.2097 77.8397 34.9682C77.5442 34.8341 77.2504 34.9079 76.9554 34.9778C76.8656 35.0148 76.7741 35.0472 76.6782 35.067C76.6078 35.0801 76.538 35.0937 76.4687 35.1131C76.3994 35.1284 76.3295 35.1426 76.2585 35.1341C75.7413 34.8437 75.2179 34.5658 74.6125 34.5244C74.4916 34.5363 74.3707 34.5511 74.251 34.5158C74.0824 34.4891 73.9089 34.4942 73.742 34.4533C73.6405 34.5198 73.548 34.4312 73.4509 34.4357C73.248 34.4459 73.0412 34.4101 72.8405 34.4726C71.8675 34.4959 70.8939 34.5278 69.9204 34.455C68.9867 34.4647 68.0708 34.6181 67.1549 34.784C67.044 34.8039 66.9315 34.8039 66.82 34.8085C66.6271 34.8136 66.4347 34.813 66.244 34.8494C66.1154 34.8829 65.9845 34.8858 65.8548 34.8642C65.6208 34.8403 65.4018 34.9165 65.1856 34.9841C64.7692 35.1125 64.4033 35.3796 63.9587 35.4347C63.4746 35.4955 63.0433 35.6666 62.7295 36.0848C62.5515 36.3223 62.2765 36.4269 62.0198 36.5564C61.6961 36.7201 61.3196 36.7462 61.0224 36.9724C60.9858 37.0826 60.9287 37.1116 60.8417 37.0207C60.4935 36.9963 60.1525 37.0485 59.8144 37.1275C59.0492 37.3997 58.3296 37.781 57.5867 38.1066C57.4708 38.1771 57.3444 38.1987 57.213 38.193C57.137 38.1941 57.0605 38.1964 56.9851 38.197C56.266 38.2021 55.7222 38.7249 55.0568 38.8817C54.3926 39.0397 53.9325 39.4381 53.6841 40.0813C53.5971 40.3058 53.4695 40.4422 53.2383 40.4785C53.1402 40.5035 53.0482 40.5433 52.9595 40.5916L52.8403 40.6666L52.7399 40.7547L52.695 40.8007L52.6085 40.89L52.5664 40.9331L52.4821 41.0189L52.44 41.0621L52.3618 41.1542L52.2942 41.2565C52.2515 41.3281 52.201 41.394 52.1456 41.4554L52.1018 41.502L52.0092 41.594L51.9598 41.6389L51.8523 41.7242L51.7935 41.7645L51.6715 41.8469C51.355 42.135 50.9824 42.2975 50.5799 42.4333C49.9384 42.6487 49.4228 43.0186 49.4001 43.8102C49.394 44.0267 49.282 44.1699 49.1101 44.2768C49.053 44.3779 48.987 44.3859 48.9116 44.2978C47.9996 44.2262 47.7041 44.4256 47.4302 45.2877C47.2711 45.79 47.2206 46.3185 47.0709 46.8242C46.9451 47.2493 46.7588 47.6204 46.3519 47.8312C46.0841 47.9704 45.9322 48.2119 45.7935 48.475C45.3145 49.3848 44.8289 50.2917 44.2234 51.1242L44.1391 51.2561L44.0959 51.318L43.9978 51.4265L43.9429 51.4743L43.827 51.5601C43.6862 51.6607 43.557 51.7703 43.5315 51.9607C43.5548 52.1153 43.5021 52.246 43.4151 52.3659C43.3813 52.4352 43.3469 52.5096 43.3485 52.5869C43.3585 53.0688 43.2876 53.4961 42.8534 53.8087C42.6211 53.9763 42.5945 54.2996 42.6627 54.5656C42.7958 55.0861 42.5607 55.3816 42.1493 55.597C41.723 55.8203 41.5018 56.1772 41.4463 56.6602C41.4009 57.0585 41.2334 57.3813 40.9429 57.6739C40.6496 57.9689 40.3425 58.2524 40.1212 58.6337C39.6505 59.4429 39.2857 60.2856 39.0845 61.2034C39.0684 61.3187 39.0279 61.4256 38.9852 61.5313C38.8849 61.9268 38.8577 62.3382 38.7612 62.7314C38.504 63.7793 38.4214 64.851 38.0472 65.8949C37.7128 66.8308 37.8902 67.9298 38.0011 68.9572C38.0982 69.0413 38.0815 69.1356 38.0261 69.2328C38.0505 69.5238 38 69.8164 38.0377 70.1068C38.1431 70.9228 38.5539 71.3302 39.3373 71.3962C40.2926 71.4774 40.5565 71.299 40.8425 70.3767C40.8514 70.1545 40.8093 69.9227 40.9562 69.7289C40.8475 69.8715 40.8581 70.042 40.862 70.2102C41.0893 71.112 41.2595 71.2558 42.1621 71.2797C42.62 71.2916 43.0785 71.2848 43.5359 71.2837C44.6719 71.2814 45.6644 71.6894 46.5448 72.3997C46.9423 72.7202 47.2716 73.0907 47.2267 73.6743C47.2084 73.9152 47.2999 74.1391 47.4407 74.3306C47.8105 74.8324 48.0905 75.387 48.3744 75.9411C48.5695 76.3218 48.7908 76.6906 49.145 76.9469C49.2471 77.0156 49.3552 77.0708 49.4727 77.1054C49.8885 77.1685 50.3437 77.2759 50.6841 76.9827C51.0994 76.6247 51.4714 76.6963 51.8855 76.9139C52.3429 77.1532 52.817 77.2418 53.3176 77.0713C53.3986 77.0208 53.4468 76.944 53.4828 76.8571C53.5361 76.5105 53.3919 76.1343 53.6348 75.8166C54.254 74.8574 54.7902 73.8539 55.2825 72.8191C55.5813 72.1923 55.9888 71.6206 56.1601 70.9291C56.2039 70.754 56.3487 70.6398 56.4801 70.5256C56.546 70.4739 56.6153 70.4262 56.6896 70.3869C57.4204 70.308 58.1544 70.3631 58.8874 70.3546C59.1252 70.3511 59.3314 70.4273 59.4856 70.6222C59.6652 70.8472 59.9069 70.9092 60.1786 70.9342C60.6066 70.9728 61.0335 70.9313 61.4621 70.9535C61.5575 70.8921 61.6467 70.887 61.7282 70.9762C61.8879 71.0421 62.0609 71.0365 62.2261 71.07C62.3098 71.0967 62.3946 71.1223 62.48 71.1427C63.453 71.4331 64.4377 71.511 65.4384 71.3138C65.5155 71.2586 65.5571 71.1785 65.5815 71.0876C65.6053 70.9796 65.6108 70.8694 65.6308 70.7603C65.6824 70.5722 65.8088 70.6063 65.9357 70.6552C66.1431 70.7353 66.351 70.8075 66.575 70.8109C66.9298 70.8165 67.2902 70.8381 67.5619 70.5313C67.6838 70.396 67.7476 70.2312 67.7886 70.0551C67.8097 69.9733 67.8313 69.8914 67.8502 69.8085C67.9039 69.505 67.9799 69.2061 67.7692 68.9197C67.4881 68.5384 67.619 68.1895 67.8956 67.8758C68.0342 67.7184 68.1889 67.5752 68.2832 67.3809L68.3769 67.2542C68.9379 66.6569 69.6992 66.5404 70.4343 66.3592C70.5158 66.3535 70.5979 66.3535 70.6799 66.3506C70.8823 66.3484 71.0847 66.3495 71.2837 66.3035C71.399 66.2739 71.5138 66.2415 71.6335 66.2427C71.8215 66.237 72.0105 66.2432 72.1985 66.2438C72.9642 66.2586 73.7309 66.2154 74.4971 66.2665C75.0255 66.7501 75.6448 66.8768 76.3406 66.8365C77.0807 66.7933 77.8275 66.8649 78.5666 66.8143C79.1404 66.7757 79.6078 66.9439 80.0303 67.3144C80.4156 67.7292 80.9417 67.5968 81.4119 67.6849C81.5998 67.7934 81.6614 67.9946 81.7534 68.173L81.8333 68.3026C81.9724 68.4822 82.0561 68.7015 82.218 68.8652C82.2713 68.9208 82.3245 68.9777 82.3788 69.0322C82.9427 69.3283 83.2154 69.813 83.2553 70.4489C83.2809 70.5313 83.3064 70.6154 83.3374 70.6961C83.5486 71.3149 83.9994 71.6354 84.6126 71.6752C85.0816 71.7047 85.5479 71.7826 86.0203 71.7593C86.4804 71.7701 86.9417 71.7297 87.4013 71.7894C87.8842 71.786 88.2191 71.5706 88.3655 71.0842C88.6438 70.8336 88.7475 70.5182 88.6942 70.1454C88.6588 69.8982 88.6249 69.6511 88.5906 69.4033C88.5318 69.3044 88.4342 69.2368 88.3832 69.1317L88.3721 69.0237C88.376 68.939 88.3688 68.8566 88.3372 68.7754C88.32 68.7265 88.3017 68.6788 88.2978 68.6242L88.3183 68.5896L88.3527 68.6032C88.3777 68.6867 88.3888 68.7794 88.4287 68.864C88.4675 68.9368 88.5484 68.9601 88.5967 69.0209L88.6538 69.0101C88.7813 69.1067 88.9099 69.1021 89.0391 69.0123C89.1655 68.8623 89.2925 68.7123 89.4189 68.5623C89.6578 68.2799 89.9517 68.177 90.3071 68.2821C90.8565 68.2821 90.857 68.2821 90.8764 67.7781C90.8792 67.7008 90.8781 67.6235 90.8776 67.5462C90.8759 67.2979 91.0079 67.2985 91.1675 67.3956C91.2451 67.4434 91.3011 67.5269 91.3671 67.5945L91.473 67.7326L91.4675 67.7252L91.5833 67.8446L91.702 67.9685L91.6959 67.9599C91.748 67.9991 91.7874 68.0503 91.8267 68.102C91.8733 68.1327 91.9177 68.1713 91.9681 68.1929C92.6306 68.4759 93.3281 68.5174 94.0278 68.4566C94.4209 68.4225 94.6377 68.5651 94.7314 68.9447C94.7447 68.9993 94.7868 69.0464 94.8162 69.0959C94.9126 69.2925 95.0956 69.3749 95.2819 69.3953C95.9089 69.4635 96.5066 69.6567 97.0965 69.8585C97.5789 70.0233 98.039 69.8437 98.5097 69.8596C99.618 69.8977 100.762 70.1068 101.806 69.4846C101.876 69.4016 101.953 69.3516 102.057 69.4272C102.927 69.3669 103.782 69.2828 104.123 68.248C104.155 68.1531 104.233 68.0929 104.32 68.0474C104.416 68.0116 104.516 67.9991 104.617 67.9935C105.035 67.9781 105.513 68.0122 105.811 67.7235C106.111 67.432 106.269 67.519 106.493 67.7338C106.739 67.8423 106.988 67.9173 107.253 67.7957C107.445 67.6434 107.432 67.4235 107.429 67.2127C107.428 67.1581 107.359 67.1354 107.298 67.1308C107.279 67.1291 107.224 67.1877 107.234 67.1166C107.267 66.8712 107.271 66.8717 107.075 66.8461L107.025 66.8706C107.031 66.9484 106.975 66.8246 107.051 66.8314C107.466 66.8314 107.466 66.8314 107.679 66.454C107.8 66.2421 107.842 66.2023 108.049 66.3131C108.097 66.3091 108.148 66.3097 108.201 66.316C108.189 66.3927 108.228 66.2949 108.211 66.3717L108.202 66.4018L108.212 66.4075L108.162 66.4683L108.202 66.4018C108.142 66.3654 108.092 66.3359 108.049 66.3131C107.697 66.3415 107.48 66.6456 107.463 67.1649C107.459 67.2729 107.399 67.4224 107.534 67.4792C107.699 67.5491 107.756 67.3803 107.838 67.282L107.853 67.2684L107.862 67.2547L107.894 67.2348L107.853 67.2684C107.777 67.3792 107.693 67.4854 107.657 67.6195C107.779 68.1446 108.164 68.4134 108.615 68.5714C108.937 68.685 109.209 68.6072 109.408 68.2361C109.572 67.9327 109.648 67.5866 109.859 67.3098C109.883 67.2593 109.901 67.207 109.913 67.1519C109.954 66.9774 109.916 66.7848 110.031 66.6279C110.132 66.4671 110.343 66.4472 110.445 66.287C110.608 65.875 110.704 65.4522 110.641 65.0027C110.642 64.9027 110.655 64.805 110.709 64.7186C110.857 64.5294 111.115 64.5226 111.278 64.36L111.392 64.2401L111.442 64.1697C111.474 64.118 111.499 64.0634 111.515 64.0049C111.615 63.59 111.508 63.2616 111.207 62.9468C110.661 62.3774 110.26 61.7341 110.421 60.8647Z" fill="#FBDA1D"/>
<path fill-rule="evenodd" clip-rule="evenodd" d="M65.1284 43.1819L65.1278 43.1825L65.1223 43.1886L65.1284 43.1819Z" fill="#FBDA1D"/>
<path fill-rule="evenodd" clip-rule="evenodd" d="M69.5741 52.3066C69.3476 52.2741 69.1273 52.2306 69.0151 51.9893C69.266 51.9782 69.4904 52.0135 69.5741 52.3066Z" fill="#FBDA1D"/>
<path fill-rule="evenodd" clip-rule="evenodd" d="M89.7556 65.0571C89.8064 64.9613 89.8627 64.8214 89.984 64.8938C90.0782 64.9503 90.0762 65.135 89.9996 65.1943C89.8878 65.2804 89.8573 65.0757 89.7556 65.0571Z" fill="#FBDA1D"/>
<path fill-rule="evenodd" clip-rule="evenodd" d="M68.1905 51.4001C68.1234 51.4684 68.0563 51.5366 67.9885 51.6048C68.0102 51.4897 68.0766 51.4208 68.1905 51.4001Z" fill="#FBDA1D"/>
<path fill-rule="evenodd" clip-rule="evenodd" d="M48.9636 44.3915L49.1107 44.3784C49.0676 44.4539 49.0183 44.456 48.9636 44.3915Z" fill="#FBDA1D"/>
<path fill-rule="evenodd" clip-rule="evenodd" d="M77.8641 35.1189L77.7764 35.1642L77.8154 35.0757L77.8641 35.1189Z" fill="#FBDA1D"/>
<path fill-rule="evenodd" clip-rule="evenodd" d="M130.522 56.5406C130.36 56.9765 130.104 57.3754 130.127 57.8794C130.141 58.1999 129.9 58.4636 129.828 58.7716L129.827 58.7818C129.786 58.8875 129.711 58.9586 129.614 59.0086L129.599 59.0148C129.026 59.4882 128.354 59.4012 127.697 59.3484C127.402 59.3251 127.099 59.2802 126.829 59.1126C126.652 59.9098 126.131 60.3076 125.192 60.4093C124.753 60.4571 124.302 60.4605 123.891 60.6662C123.415 60.5417 122.992 60.7145 122.574 60.9122C122.504 60.935 122.451 60.9804 122.409 61.0389L122.416 61.0338L122.295 61.1577L122.299 61.1509L122.173 61.2418C122.023 61.2554 121.874 61.2685 121.724 61.2822C121.639 61.3333 121.549 61.3208 121.459 61.2998C121.138 61.3214 120.827 61.4259 120.498 61.3958C120.25 61.3731 120.064 61.5464 119.917 61.7203C119.749 61.9175 119.564 62.0078 119.317 61.9788C119.099 61.9521 118.892 62.0215 118.717 62.126C118.367 62.3351 117.998 62.3653 117.613 62.3368C117.261 62.3113 116.949 62.4011 116.632 62.5715C115.657 63.0972 114.615 63.3529 113.506 63.2773C113.28 63.262 113.129 63.2256 113.087 62.9273C113.004 62.3408 112.664 61.8271 112.572 61.2361C112.555 61.1293 112.493 61.0543 112.387 61.048C112.22 61.0384 112.096 61.0088 112.088 60.7912C112.081 60.5588 112.125 60.3315 112.325 60.2326C112.733 60.0326 113.082 59.716 113.539 59.6138C113.961 59.52 114.374 59.3751 114.8 59.3069C115.418 59.208 115.93 58.9012 116.423 58.5409C116.848 58.3602 117.295 58.4869 117.729 58.4494C117.913 58.4983 118.095 58.5682 118.281 58.5903C118.548 58.6222 118.781 58.5943 118.99 58.3448C119.323 57.9488 119.348 57.9715 119.778 58.2409C120.035 58.4022 120.304 58.4028 120.487 58.1658C120.817 57.7385 121.316 57.6362 121.745 57.3993C122.285 57.1015 122.87 57.0282 123.47 57.0248C123.548 57.0248 123.618 56.9998 123.672 56.9373L123.77 56.9549L123.898 56.9583C124.549 56.7117 125.263 56.6696 125.869 56.2741C126.272 56.0105 126.732 55.8962 127.209 55.857C127.438 55.7394 127.696 55.8718 127.926 55.7684C128.05 55.7195 128.205 55.7036 128.292 55.6167C128.713 55.1967 129.233 55.2632 129.739 55.2848C130.012 55.2967 130.256 55.4041 130.319 55.7309C130.356 55.7917 130.443 55.8127 130.443 55.9002C130.479 56.0838 130.447 56.2792 130.537 56.4531L130.522 56.5406Z" fill="#FBDA1D"/>
<path fill-rule="evenodd" clip-rule="evenodd" d="M111.136 51.431C111.055 51.6617 110.891 51.7419 110.656 51.7686C110.26 51.8135 109.965 51.5862 109.664 51.406C109.478 51.2941 109.529 50.7344 109.705 50.486C109.821 50.3218 110.023 50.1979 109.923 49.8888C109.672 50.1189 109.381 50.1439 109.083 50.1076C108.824 50.0757 108.552 49.9655 108.497 49.7109C108.414 49.3177 108.156 49.2984 107.867 49.2597C107.796 49.2501 107.731 49.1978 107.663 49.1654C107.523 48.9972 107.414 48.8131 107.386 48.5886C107.272 47.9641 107.51 47.4544 107.881 46.9867C108.054 46.7679 108.253 46.6372 108.518 46.8066C109.093 47.1731 109.577 47.0691 110.123 46.6656C110.601 46.3133 111.16 46.0383 111.817 46.1644C112.178 46.2338 112.454 46.3423 112.601 46.7225C112.718 47.0282 112.829 47.3339 112.922 47.647C112.989 47.7522 112.904 47.9039 113.024 47.9931C113.581 48.0249 113.588 48.0249 113.587 47.4623C113.586 47.1498 113.551 46.835 113.937 46.7208C114.16 46.6344 114.381 46.5395 114.615 46.6827C114.718 46.8617 114.715 47.1356 115.085 46.9401C115.309 46.8214 115.523 47.16 115.742 47.2913L115.887 47.3157C116.186 47.3413 116.494 47.3561 116.519 47.7749L116.633 47.863C116.792 47.9277 116.957 48.0363 117.088 47.8277C117.226 47.6084 117.007 47.5902 116.906 47.4942C116.716 47.3146 116.819 46.8464 117.087 46.5776C117.323 46.3417 117.492 46.4741 117.655 46.6736C117.741 46.7782 117.829 46.8805 117.957 46.9333C118.285 47.1771 118.482 47.7379 118.336 48.0761C118.276 48.217 118.145 48.2982 117.984 48.3397C117.664 48.421 117.458 48.6767 117.361 48.9654C117.173 49.524 116.803 49.7615 116.255 49.7757C116.197 49.8007 116.136 49.8064 116.073 49.7922C115.272 49.9524 114.467 49.9621 113.668 49.8007C113.192 49.7047 113.174 49.691 113.12 50.2042C113.103 50.3656 113.087 50.5139 112.925 50.5934C112.732 50.6503 112.539 50.6838 112.351 50.5741C112.157 50.2792 111.85 50.1081 111.614 49.857C111.46 49.6916 111.359 49.7712 111.298 49.9678C111.164 50.394 111.208 50.8395 111.15 51.2731C111.135 51.3248 111.131 51.3776 111.136 51.431Z" fill="#FBDA1D"/>
<path fill-rule="evenodd" clip-rule="evenodd" d="M115.762 47.411C115.69 47.5031 115.596 47.5269 115.555 47.4059C115.508 47.2667 115.437 47.1615 115.307 47.124C115.196 47.0922 115.026 46.8399 114.979 47.2127C114.965 47.332 114.791 47.199 114.697 47.1746C114.444 47.1087 114.662 46.924 114.622 46.8013C114.834 46.5217 115.069 46.7257 115.293 46.774C115.44 46.8052 115.577 46.8786 115.716 46.9416C116.411 47.2564 116.409 47.2542 116.82 46.6274C116.882 46.5325 116.958 46.4433 117.041 46.3643C117.269 46.3853 117.336 46.2654 117.333 46.0483C117.328 45.6045 117.312 45.159 117.402 44.7203L117.403 44.572C117.632 43.5554 117.675 43.4236 118.864 43.4054C119.055 43.4025 119.246 43.4003 119.436 43.4042C119.855 43.4128 120.025 43.5298 120.142 43.9327C120.442 44.963 119.834 45.9841 118.786 45.9949C118.402 45.9995 118.195 46.333 117.851 46.3614C117.769 46.416 117.611 46.4268 117.724 46.5933C117.847 46.6745 117.88 46.82 117.956 46.9337C117.644 46.9644 117.548 46.6103 117.271 46.5188C117.086 46.7746 116.951 47.0456 116.862 47.34L116.976 47.4013C117.196 47.44 117.417 47.4747 117.288 47.7986C117.162 48.1185 117 48.1764 116.689 48.0242C116.606 47.9827 116.504 47.9764 116.451 47.881C116.502 47.8321 116.545 47.773 116.608 47.7429L116.65 47.7292C116.582 47.7656 116.667 47.711 116.596 47.7457C116.538 47.7815 116.497 47.8344 116.449 47.8798L116.339 47.8594C116.189 47.7474 116.542 47.5775 116.308 47.4854C116.193 47.44 116.052 47.532 115.927 47.444C115.885 47.4144 115.818 47.4207 115.762 47.411Z" fill="#FBDA1D"/>
<path fill-rule="evenodd" clip-rule="evenodd" d="M115.087 45.1785C115.584 44.9546 116.072 45.0376 116.545 45.2467C116.729 45.3274 116.816 45.4967 116.806 45.7172C116.793 45.9667 116.8 46.2184 116.799 46.4685C116.848 46.5577 116.798 46.623 116.75 46.6889C116.697 46.7537 116.641 46.814 116.58 46.8691C116.258 47.1112 115.949 47.1538 115.701 46.7702C115.554 46.5435 115.398 46.5554 115.167 46.6378C114.922 46.7242 114.578 46.7742 114.452 46.502C114.31 46.194 114.34 45.8155 114.451 45.4769C114.495 45.3467 114.633 45.3371 114.743 45.4013C115.003 45.5524 114.999 45.2956 115.087 45.1785Z" fill="#FBDA1D"/>
<path fill-rule="evenodd" clip-rule="evenodd" d="M113.051 48.0667C112.821 47.984 112.911 47.8041 112.927 47.647C113.103 47.7462 113.044 47.9164 113.051 48.0667Z" fill="#FBDA1D"/>
<path fill-rule="evenodd" clip-rule="evenodd" d="M46.5674 36.3723C46.9228 36.8383 47.5222 36.9195 47.9402 37.2872C47.9735 37.3474 48.0173 37.3997 48.0555 37.456C48.1675 37.5287 48.285 37.5935 48.3893 37.6764C48.6787 37.9083 48.8855 38.1941 48.875 38.5913C48.86 39.1323 48.9675 39.6858 48.7558 40.208C48.5989 40.5956 48.4724 41.0036 48.1664 41.3087C48.0977 41.5707 47.9241 41.7474 47.7151 41.8969C47.5205 42.2066 47.3259 42.5168 47.1307 42.8265C46.9594 43.1857 46.6761 43.2431 46.3074 43.2289C45.9437 43.2152 45.6693 43.1601 45.4392 42.8243C45.269 42.5754 45.0722 42.3412 44.9507 42.0639C44.7312 41.5673 44.266 41.311 43.9339 40.9252C43.7848 40.8166 43.7981 40.6126 43.685 40.4825C43.4156 40.1296 43.3135 39.729 43.3263 39.2829C43.3407 38.7374 43.3518 38.1901 43.3224 37.6458C43.2786 36.8235 43.5908 36.17 44.2306 35.7216C44.6752 35.4108 45.228 35.6421 45.7281 35.583C45.9665 35.5546 46.1261 35.6728 46.2414 35.8734C46.3834 36.0171 46.4604 36.2052 46.5674 36.3723Z" fill="#FBDA1D"/>
<path fill-rule="evenodd" clip-rule="evenodd" d="M107.621 40.0402C107.497 40.4203 107.268 40.717 106.951 40.9494C106.844 41.0267 106.714 41.1165 106.672 41.2301C106.507 41.6824 106.135 41.8256 105.738 41.8705C105.417 41.9075 105.315 42.066 105.298 42.3513C105.285 42.403 105.261 42.4496 105.226 42.4905C105.223 42.7803 105.148 43.032 104.864 43.161C104.673 43.248 104.471 43.2349 104.327 43.0929C103.876 42.653 103.305 42.4291 102.77 42.1393C102.449 41.9654 102.138 41.7802 102.026 41.3881C101.918 41.2432 101.942 41.0949 102.012 40.9437L102.007 40.9488C102.067 40.9062 102.111 40.8522 102.126 40.7772C102.245 40.6846 102.421 40.6925 102.508 40.5471C102.168 39.9271 102.258 38.898 102.672 38.3337C102.912 38.0075 103.141 37.6836 103.472 37.4393C103.7 37.2711 103.732 36.9523 103.949 36.7363C104.336 36.3516 104.638 35.8771 104.975 35.4407C105.031 35.3953 105.081 35.3441 105.112 35.2776C105.534 34.8611 105.808 34.3031 106.318 33.9701C106.429 33.8968 106.471 33.7672 106.502 33.6229C106.624 33.0654 106.854 32.5597 107.253 32.1471C107.375 32.0284 107.467 31.8744 107.631 31.8045C107.944 31.5567 108.287 31.7277 108.63 31.717C108.785 31.1743 109.12 30.7356 109.466 30.2849C110.134 29.4155 111.081 28.8939 111.844 28.1517C112.265 27.742 112.71 27.5005 113.274 27.392C113.581 27.3329 113.859 27.1232 114.15 26.9817C114.207 26.9322 114.257 26.8777 114.275 26.8004C114.542 26.4242 114.922 26.1594 115.193 25.7747C115.412 25.4633 115.632 25.1331 115.783 24.8075C116.064 24.1938 116.523 23.6869 116.73 23.0317C116.852 22.647 117.072 22.5345 117.439 22.6311C118.177 22.8249 118.818 23.2164 119.153 23.9262C119.498 24.6575 119.458 25.4559 119.102 26.1787C118.877 26.6356 118.523 27.026 118.227 27.4465C118.137 27.4721 118.079 27.5306 118.053 27.6215C117.948 27.6812 117.843 27.7403 117.738 27.7994C117.682 27.8307 117.634 27.8716 117.597 27.9256L117.604 27.9182L117.481 28.0415L117.489 28.0375L117.353 28.1489C116.956 28.5893 116.631 29.0916 116.164 29.4758C115.898 29.6951 115.86 30.0917 115.746 30.4191C115.52 31.0686 115.416 31.1561 114.763 31.1629C114.406 31.1663 114.037 31.1754 113.72 30.9731C113.524 30.847 113.406 30.9168 113.416 31.1049C113.426 31.3095 113.297 31.4743 113.323 31.6715C113.301 31.738 113.304 31.8158 113.241 31.8641C113.165 32.0255 113.155 32.163 113.225 32.3534C113.306 32.5716 113.322 32.8199 113.043 33.0092C112.098 33.6502 111.215 34.3662 110.671 35.426L110.552 35.5487C110.465 35.572 110.407 35.6283 110.38 35.7163C109.93 36.6244 109.368 37.4631 108.823 38.311C108.483 38.8406 108.194 39.4077 107.783 39.8885C107.715 39.9226 107.662 39.9754 107.621 40.0402Z" fill="#FBDA1D"/>
<path fill-rule="evenodd" clip-rule="evenodd" d="M56.1501 26.514C56.5143 26.8129 56.715 27.2476 56.9667 27.6294C57.4829 28.4131 57.9525 29.2308 58.3888 30.069C58.7242 30.7145 59.1789 31.2896 59.5986 31.8834C59.9041 32.3153 60.3232 32.6034 60.6675 32.9796C60.7335 33.2614 60.7379 33.5433 60.6625 33.824C60.5999 33.9678 60.5383 34.1115 60.4768 34.2547C60.4069 34.2786 60.3559 34.3286 60.3043 34.378C59.9711 34.7122 59.5525 34.8861 59.1234 35.0361C59.0375 35.0662 58.9183 35.0901 58.8457 35.0526C58.141 34.6957 57.3903 34.9099 56.6635 34.852C56.5875 34.8463 56.5115 34.8372 56.4361 34.8298C56.3807 34.8082 56.3402 34.7645 56.2937 34.7292L56.2992 34.7372L56.1783 34.6122L56.1861 34.6184L56.0652 34.4928L56.0686 34.5025L55.9688 34.3741C55.1859 33.1586 54.3454 31.9766 53.6418 30.7151C53.2277 29.9718 52.8318 29.2035 52.5446 28.3767C52.2198 27.4408 51.8039 26.5253 51.2434 25.6997C50.8825 25.1666 50.6602 24.5711 50.4267 23.9767C50.3735 23.8415 50.3774 23.7108 50.378 23.5755C50.383 22.8726 50.3924 22.1697 50.3896 21.4673C50.389 21.3656 50.3868 21.2661 50.4362 21.1854C50.7272 20.7144 51.0239 20.2382 51.4546 19.8938C51.6875 19.7074 52.013 19.8517 52.2929 19.8131C52.6228 19.7676 52.7742 19.9535 52.9754 20.1967C53.806 21.2002 54.0737 22.3793 54.1148 23.646C54.1181 23.7426 54.1198 23.8437 54.0987 23.9375C53.9573 24.5563 53.9374 24.5933 54.4929 24.8774C54.9702 25.1212 55.2824 25.515 55.6123 25.9071C55.7414 26.156 55.9566 26.3247 56.1501 26.514Z" fill="#FBDA1D"/>
<path fill-rule="evenodd" clip-rule="evenodd" d="M87.1394 24.7855C87.1189 25.5515 87.0989 26.3176 87.079 27.0836C87.0646 27.179 87.0579 27.2773 87.0102 27.3643C87.0102 27.8422 87.0274 28.311 86.7873 28.7639C86.6304 29.0594 86.626 29.4242 86.6404 29.7697C86.5817 29.893 86.6255 30.0351 86.5717 30.159C86.5606 30.5056 86.5501 30.8534 86.539 31.2006C86.4852 31.3199 86.5051 31.4426 86.524 31.5648C86.4874 32.0603 86.6327 32.5871 86.315 33.0355C86.0843 33.3599 85.9973 33.8282 85.5138 33.9117C85.3608 33.9918 85.2056 33.9799 85.0503 33.9208C84.6767 33.8719 84.3035 33.8157 83.9515 33.6719C83.7014 33.5691 83.5761 33.4031 83.5789 33.0957C83.5939 31.6313 83.585 30.1663 83.5839 28.7014C83.5833 28.3468 83.6709 28.0087 83.7901 27.6836C83.8933 27.4029 83.9254 27.1233 83.9237 26.8284C83.9182 25.7146 83.9171 24.6014 83.9254 23.4882C83.9299 22.7836 84.0496 22.1216 84.4737 21.5209C84.634 21.2942 84.721 21.0203 84.9716 20.8561C85.1329 20.7498 85.1385 20.5611 85.1385 20.3816C85.1396 19.9718 85.1607 19.5604 85.1346 19.1519C85.1169 18.8842 85.1967 18.6495 85.296 18.4251C85.3924 18.2068 85.566 18.0364 85.8221 18.0296C86.468 18.0125 87.1145 18.0011 87.7609 18C87.8735 17.9994 87.9716 18.0824 88.0503 18.1728C88.2532 18.4967 88.2538 18.8416 88.1496 19.1967C87.9494 20.1105 87.7498 21.0243 87.5502 21.938C87.5131 22.0181 87.5175 22.1113 87.4765 22.1909C87.5791 22.4239 87.4249 22.6375 87.4277 22.8631C87.4205 22.9217 87.3723 22.9614 87.3579 23.0171C87.3495 23.1211 87.3418 23.2257 87.3329 23.3302C87.283 23.4115 87.2897 23.5087 87.263 23.5967C87.3479 23.9405 87.1804 24.2718 87.2154 24.6128C87.1926 24.6713 87.1455 24.7191 87.1394 24.7855Z" fill="#FBDA1D"/>
<path fill-rule="evenodd" clip-rule="evenodd" d="M95.1295 32.9489C95.2986 32.5 95.2415 32.0198 95.3047 31.5567C95.3063 31.4646 95.328 31.3754 95.3385 31.2851C95.3219 30.7554 95.4849 30.2832 95.705 29.8059C96.0138 29.1325 96.3121 28.4546 96.6946 27.821C96.7506 27.7278 96.8615 27.6692 96.9469 27.5942C97.0705 27.6329 97.1941 27.634 97.32 27.6067C98.1505 27.9352 98.8197 28.4529 99.3459 29.2109C99.6109 29.5911 99.8421 29.9218 99.8132 30.4111C99.8033 30.577 99.6719 30.6878 99.6968 30.8486C99.6774 30.9032 99.6336 30.943 99.6197 31.0004C99.6403 31.5555 99.3353 32.0062 99.164 32.5C99.0581 32.6449 99.0315 32.8279 98.9384 32.9785C98.7853 33.5672 98.5458 34.1309 98.4732 34.7412C98.5464 35.1327 98.3934 35.4953 98.3085 35.8595C98.2353 36.1732 97.9648 36.3545 97.6837 36.4761C97.4586 36.5738 97.2196 36.6886 96.9829 36.6983C96.6281 36.7136 96.5859 36.9096 96.6042 37.1892C96.5821 37.2432 96.5405 37.287 96.5261 37.3449C96.5238 37.441 96.5316 37.5387 96.5166 37.6325C96.4756 37.8978 96.3764 38.0933 96.0554 38.0251C95.7532 37.9609 95.4205 38.1337 95.1361 37.9075C94.0888 36.9057 94.3222 35.6737 94.5446 34.4446C94.5994 34.1371 94.7031 33.8445 94.7863 33.5456L94.7846 33.549C94.87 33.4888 94.8545 33.3842 94.89 33.3018L94.8822 33.3046C94.9742 33.1933 95.0336 33.0574 95.1295 32.9489Z" fill="#FBDA1D"/>
<path fill-rule="evenodd" clip-rule="evenodd" d="M69.4708 24.6161C69.7497 24.2877 70.1134 24.0649 70.4649 23.8416C71.2749 23.3256 72.3533 23.8348 72.549 24.7917C72.6954 25.51 72.7231 26.2408 72.7819 26.9687C72.7392 27.0471 72.7314 27.1267 72.7697 27.2091C72.8229 28.2172 72.8811 29.2281 72.7281 30.2311C72.5911 31.1335 72.1953 31.871 71.3342 32.2614C71.0204 32.3541 70.7072 32.3558 70.3934 32.2609C70.0657 32.1006 69.8174 31.8779 69.8057 31.471C69.7691 31.3863 69.7686 31.292 69.7381 31.2056C69.6981 30.8993 69.6588 30.5925 69.6194 30.2856L69.615 30.1475C69.2513 29.148 69.0195 28.1291 69.1099 27.0471C69.1471 26.605 69.1188 26.1572 69.1149 25.7112C69.1132 25.4981 69.1049 25.2861 69.223 25.0963C69.3805 24.9764 69.3644 24.7627 69.4708 24.6161Z" fill="#FBDA1D"/>
<path fill-rule="evenodd" clip-rule="evenodd" d="M37.8537 48.5014C37.8293 48.5701 37.7761 48.6639 37.8837 48.6866C38.0284 48.7184 38.1853 48.7406 38.31 48.6122C38.7685 48.6747 39.1583 48.8781 39.4599 49.2378C39.5519 49.3464 39.6473 49.4197 39.787 49.4271C40.0803 49.7515 40.2527 50.1999 40.7018 50.3647C41.0971 50.7681 41.0261 51.2676 40.8781 51.7171C40.7179 52.2047 40.429 52.6349 40.0925 53.0406C39.8114 53.3798 39.4821 53.6918 39.2786 54.0981C39.2121 54.1254 39.1588 54.1697 39.1167 54.2288L39.1217 54.2203L39.0008 54.3447L39.0091 54.3402L38.8805 54.4692C38.651 54.6459 38.4952 54.8823 38.3333 55.1221C38.0328 55.5648 37.7367 55.6046 37.2649 55.3358C36.9683 55.1664 36.6601 55.0181 36.3557 54.8613C35.9149 54.6345 35.6926 54.2322 35.5784 53.7731C35.5102 53.5009 35.5185 53.2054 35.7835 52.9519C35.4819 52.8394 35.2324 52.7638 35.0334 52.5769C34.8648 52.4183 34.6336 52.4979 34.4296 52.4882C33.8868 52.4627 33.8619 52.4399 33.8641 51.8723C33.8647 51.7171 33.873 51.5614 33.8774 51.4063L33.9561 51.2756L33.9506 51.283C34.0077 51.2449 34.0493 51.1943 34.0692 51.1267C34.0227 50.9432 33.8957 50.9932 33.8186 51.067C33.4383 51.4347 32.9815 51.4387 32.508 51.3853C31.8055 50.9488 31.2184 50.3749 30.6745 49.7515C30.613 49.6947 30.552 49.6379 30.4921 49.5805C30.323 49.3895 30.2227 49.1958 30.4666 48.9878C30.6562 48.898 30.8569 48.9099 31.0571 48.9349L31.1103 48.948C31.2007 48.9219 31.097 48.9111 31.1009 48.8883C30.6246 48.3377 29.8955 48.2485 29.3317 47.8592C29.162 47.7427 28.9381 47.7098 28.8216 47.5081L28.8205 47.5018C28.3975 47.1847 27.975 46.8665 27.552 46.5505C27.4406 46.467 27.3713 46.3528 27.3097 46.2312C27.0868 45.7885 26.7065 45.5481 26.2635 45.4061C25.8128 45.2617 25.3604 45.1174 24.8996 45.018C24.1384 44.8537 23.5668 44.4054 23.0734 43.8229C23.0212 43.7064 22.9298 43.6218 22.8472 43.5308C22.6686 43.2109 22.2395 43.062 22.2523 42.6125C22.0139 42.0443 22.0427 41.4783 22.2689 40.9152C22.438 40.4793 22.4907 39.9912 22.9065 39.6724C23.0717 39.5451 23.2247 39.411 23.4188 39.3354C23.5563 39.2814 23.7204 39.2712 23.7852 39.0996C23.9859 39.0797 24.1318 38.9456 24.292 38.8427C24.5354 38.7376 24.7832 38.7706 25.031 38.8166C25.5234 39.0064 25.9935 39.2314 26.3977 39.59C26.6549 39.8184 26.9881 39.911 27.2959 40.0469C27.3214 40.2662 27.5243 40.2935 27.6596 40.3719C28.4263 40.814 29.1781 41.2948 30.0685 41.4493C30.4727 41.5198 30.6423 41.9141 30.9495 42.1182L30.9889 42.1602C31.2372 42.4011 31.515 42.5926 31.8199 42.7586C32.2014 42.966 32.569 43.2069 32.9171 43.4695C33.109 43.6138 33.3169 43.7758 33.3845 44.0394C33.44 44.2559 33.5553 44.3815 33.787 44.3588C33.9517 44.2997 34.1158 44.2389 34.271 44.3798C34.5433 44.8435 34.7684 45.3237 34.7678 45.8817C34.9009 46.0653 35.1526 45.9817 35.3001 46.13C35.5734 46.1999 35.778 46.4323 36.0641 46.4721L36.1528 46.5352C36.2819 47.0444 36.685 46.9398 37.0138 46.9046C37.5222 46.8511 37.7628 47.1665 37.7756 47.7138C37.7811 47.9786 37.6885 48.2536 37.8537 48.5014Z" fill="#FBDA1D"/>
<path fill-rule="evenodd" clip-rule="evenodd" d="M39.001 54.3707C39.0185 54.2884 39.0671 54.2383 39.1481 54.2205C39.1454 54.3172 39.0955 54.3659 39.001 54.3707Z" fill="#FBDA1D"/>
<path fill-rule="evenodd" clip-rule="evenodd" d="M39.1167 54.2569C39.1431 54.1535 39.217 54.1108 39.3139 54.0984C39.2672 54.1749 39.2177 54.2486 39.1167 54.2569Z" fill="#FBDA1D"/>
<path fill-rule="evenodd" clip-rule="evenodd" d="M38.8804 54.4961C38.9033 54.4131 38.9499 54.3554 39.0369 54.3403C39.0268 54.4364 38.9681 54.4817 38.8804 54.4961Z" fill="#FBDA1D"/>
<path fill-rule="evenodd" clip-rule="evenodd" d="M29.3926 67.2342C29.2346 66.9938 28.9668 66.9233 28.7367 66.7978C28.195 66.5006 27.8496 65.98 27.4698 65.5277C27.1849 65.1885 27.0041 64.7066 26.9526 64.2202C26.9348 64.1639 26.8938 64.1196 26.8722 64.065C26.7596 63.3217 26.8051 62.6256 27.1788 61.9318C27.3944 61.5317 27.6606 61.1459 27.7947 60.6992C28.1268 60.3697 28.5122 60.2191 28.9806 60.2924C29.1664 60.3219 29.3604 60.3077 29.55 60.2952C29.8527 60.2748 30.0889 60.3566 30.3018 60.606C30.5696 60.9197 30.9195 61.0982 31.3541 61.0203C31.4645 61.001 31.5837 61.0374 31.6945 61.0203C32.5711 60.8834 33.2159 61.3232 33.8241 61.8841C34.1024 62.1403 34.3968 62.387 34.7367 62.5586C34.9041 62.6438 35.061 62.7791 35.0538 62.9404C35.0322 63.4314 35.3205 63.5087 35.6892 63.5195C35.907 63.6599 36.1033 63.8229 36.2098 64.0735C36.3035 64.4475 36.0468 64.6634 35.8511 64.906C35.7612 64.9316 35.703 64.9896 35.6775 65.0822C35.5977 65.2123 35.5178 65.3425 35.4375 65.4726C35.4075 65.5362 35.3593 65.5896 35.3299 65.6544C35.1553 66.0198 34.934 66.3648 34.8658 66.7762L34.8542 66.9228C34.8398 66.9779 34.8082 67.0347 34.8137 67.087C34.8731 67.5666 34.6812 67.9155 34.2937 68.1673L34.2892 68.1758L34.1967 68.182L34.1955 68.1792C33.599 68.144 33.0573 67.9865 32.6814 67.4626L32.6376 67.428C31.8653 67.4069 31.2466 66.8296 30.4759 66.8046C30.3806 66.8017 30.2591 66.7904 30.2148 66.8762C30.0535 67.1853 29.7374 67.1421 29.4857 67.2444L29.4397 67.2313L29.3926 67.2342Z" fill="#FBDA1D"/>
<path fill-rule="evenodd" clip-rule="evenodd" d="M38.772 55.8652L38.8278 55.8972C38.8169 55.9441 38.7958 55.9319 38.772 55.8652Z" fill="#FBDA1D"/>
</svg>
