<svg width="312" height="97" viewBox="0 0 312 97" fill="none" xmlns="http://www.w3.org/2000/svg">
<rect width="311.5" height="96.0701" fill="white"/>
<path fill-rule="evenodd" clip-rule="evenodd" d="M71.2362 89.6161C54.0423 87.0906 40.8489 72.2808 40.8489 54.3797C40.8489 46.601 43.3542 39.3881 47.5971 33.5288C47.3547 35.1856 47.2335 36.8625 47.2335 38.5799C47.2335 48.8235 51.5774 58.0569 58.5075 64.5627C58.9924 65.876 59.5379 67.1691 60.1643 68.4015C60.1643 68.4015 60.1643 68.4015 60.1643 68.4217C62.1241 72.2808 64.7506 75.7357 67.9227 78.6249C67.9227 78.6249 67.9227 78.6249 67.9429 78.6452C67.9429 78.6452 67.9429 78.6452 67.9631 78.6654C68.9127 79.5341 69.9028 80.3423 70.9534 81.1101C71.115 83.8983 71.1756 86.7067 71.1958 89.5757L71.2362 89.6161Z" fill="url(#paint0_linear_527_130)"/>
<path fill-rule="evenodd" clip-rule="evenodd" d="M47.5971 33.549C50.0418 16.2743 64.892 3 82.8335 3C98.209 3 111.322 12.7587 116.292 26.4169C109.928 20.4364 101.361 16.7794 91.9457 16.7794C87.6422 16.7794 83.5205 17.5471 79.7018 18.9412C78.631 18.8402 77.54 18.7796 76.4287 18.7796C64.5486 18.7796 54.0423 24.5985 47.5769 33.549H47.5971Z" fill="url(#paint1_linear_527_130)"/>
<path fill-rule="evenodd" clip-rule="evenodd" d="M58.4874 64.5626C51.5573 58.0568 47.2134 48.8436 47.2134 38.5798C47.2134 36.8624 47.3346 35.1854 47.5771 33.5287C54.0425 24.5983 64.5487 18.7593 76.4289 18.7593C77.5199 18.7593 78.611 18.8199 79.702 18.9209C76.4693 20.0928 73.4588 21.7293 70.7515 23.7498C70.7313 23.6891 70.7111 23.6285 70.6909 23.5881C70.3878 22.6183 69.3978 22.1334 68.4482 22.1334C67.4177 22.1334 66.4075 22.6789 66.2459 23.7296C66.1651 24.2953 66.3065 25.649 66.5692 27.3865C64.771 29.2251 63.1748 31.2456 61.8009 33.4276C61.3362 32.8013 60.9321 32.4174 60.6897 32.377C60.6291 32.3568 60.5483 32.3568 60.4876 32.3568C59.3966 32.3568 57.558 33.5085 57.5984 34.9026C57.6186 35.4885 57.8207 36.8018 58.8713 39.1455C57.2347 43.2268 56.3458 47.6919 56.3458 52.3591C56.3458 56.6425 57.0933 60.744 58.4874 64.5424V64.5626Z" fill="url(#paint2_linear_527_130)"/>
<path fill-rule="evenodd" clip-rule="evenodd" d="M91.966 87.9796C90.9356 87.9796 89.9052 87.919 88.8748 87.8382C88.8748 87.818 88.8748 87.7776 88.8748 87.7574C100.896 83.272 109.827 72.5031 111.685 59.4309C115.928 53.5716 118.434 46.3788 118.434 38.58C118.434 34.2966 117.686 30.1951 116.292 26.3967C123.202 32.8823 127.546 42.0955 127.566 52.3189V52.42C127.566 56.8447 126.758 61.0674 125.263 64.9669C125.142 64.9669 125.041 64.9467 124.919 64.9467C123.667 64.9467 122.414 65.4316 121.444 66.3812C119.666 68.1592 119.545 70.9474 121.04 72.8668C114.595 81.9991 103.967 87.9594 91.9256 87.9594L91.966 87.9796Z" fill="url(#paint3_linear_527_130)"/>
<path fill-rule="evenodd" clip-rule="evenodd" d="M70.994 81.1504C69.9434 80.3826 68.9533 79.5745 68.0037 78.7057C68.0037 78.7057 68.0037 78.7057 67.9835 78.6855C67.9835 78.6855 67.9835 78.6855 67.9633 78.6653C64.8114 75.776 62.1647 72.3211 60.2049 68.4621C60.2049 68.4621 60.2049 68.4621 60.2049 68.4419C59.5785 67.2094 59.033 65.9163 58.5481 64.603C61.8818 67.7347 65.8217 70.2198 70.1656 71.8968C70.6101 75.0285 70.893 78.1197 71.0546 81.211L70.994 81.1504Z" fill="url(#paint4_linear_527_130)"/>
<path fill-rule="evenodd" clip-rule="evenodd" d="M88.8749 87.7574C89.2184 82.2012 89.7437 75.857 90.4913 73.3719V73.3517C98.4316 71.6141 105.382 67.2095 110.372 61.128L110.393 61.1078C110.393 61.1078 110.393 61.1078 110.393 61.0876C110.393 61.0876 110.393 61.0876 110.393 61.0674L110.413 61.0472C110.857 60.5219 111.261 59.9764 111.665 59.4106C109.807 72.4829 100.876 83.272 88.8547 87.7372L88.8749 87.7574Z" fill="url(#paint5_linear_527_130)"/>
<path fill-rule="evenodd" clip-rule="evenodd" d="M90.5116 73.3718C91.6632 69.634 92.9765 65.7346 95.2394 62.5221C97.4013 59.451 100.371 56.481 102.735 53.5918C104.513 51.4097 107.382 47.4901 103.806 45.2474C103.503 45.0655 103.18 44.9645 102.836 44.9645C100.876 44.9645 98.4519 47.7123 96.876 49.2478C95.8455 50.2581 92.9563 52.824 91.441 52.824C91.1581 52.824 90.9157 52.723 90.754 52.5209C87.885 48.8033 93.9261 32.0135 94.8353 27.0836C95.098 25.6289 94.8151 24.0126 92.3098 23.5883C92.2088 23.5681 92.1279 23.5681 92.0269 23.5681C90.451 23.5681 89.3397 25.8512 88.875 27.2453C87.986 29.9325 84.2078 41.9945 83.1168 41.9945C82.9956 41.9945 82.9147 41.853 82.8743 41.5702C82.6521 40.2569 83.4401 26.3563 83.4603 23.4065C83.4805 22.073 83.6825 20.598 82.6723 19.5474C82.5713 19.4464 82.45 19.3454 82.3288 19.2444C99.1793 22.0528 112.049 36.7009 112.049 54.3595C112.049 56.0769 111.928 57.7539 111.686 59.4106C111.282 59.9764 110.857 60.5219 110.433 61.0472L110.413 61.0674C110.413 61.0674 110.413 61.0674 110.413 61.0876C110.413 61.0876 110.413 61.0876 110.413 61.1078L110.393 61.128C105.402 67.2095 98.4721 71.6141 90.5116 73.3516V73.3718ZM70.1254 71.8363C65.7814 70.1796 61.8416 67.6742 58.5079 64.5425C57.134 60.7441 56.3662 56.6426 56.3662 52.3593C56.3662 47.6921 57.2552 43.2269 58.8918 39.1457C59.1544 39.7316 59.4575 40.3579 59.8414 41.0853C65.9431 52.7836 68.7919 62.5221 70.1254 71.8363ZM68.8121 44.3584C68.5494 44.3584 68.1858 44.0957 67.8019 43.4492C67.2968 42.6208 63.8014 36.014 61.8012 33.4076C63.1751 31.2255 64.7712 29.2051 66.5694 27.3665C67.3574 32.6196 69.2162 41.449 69.3576 42.8431C69.4384 43.7522 69.2162 44.3382 68.8121 44.3382V44.3584ZM76.0251 40.8832C75.823 40.7822 75.7826 40.6206 75.722 40.3983C74.9946 36.8222 71.4993 26.033 70.7719 23.7297C73.4793 21.7093 76.4898 20.0929 79.7225 18.9009C79.7427 18.9009 79.7427 18.9009 79.7629 18.9009C79.3992 19.0221 79.0557 19.2444 78.7729 19.5272C77.9849 20.3556 77.9445 21.5679 77.803 22.6185C76.5504 31.569 76.5908 39.2871 76.0251 40.863V40.8832Z" fill="url(#paint6_linear_527_130)"/>
<path fill-rule="evenodd" clip-rule="evenodd" d="M111.706 59.4307C111.948 57.774 112.07 56.097 112.07 54.3796C112.07 36.721 99.2196 22.0728 82.349 19.2644C81.8843 18.9412 81.2984 18.7795 80.7124 18.7795C80.3892 18.7795 80.0659 18.8401 79.7628 18.9412C79.7426 18.9412 79.7426 18.9412 79.7224 18.9412C83.541 17.5471 87.6627 16.7793 91.9663 16.7793C101.381 16.7793 109.948 20.4363 116.313 26.4168C117.707 30.2152 118.454 34.3167 118.454 38.6C118.454 46.3787 115.949 53.5917 111.706 59.4509V59.4307Z" fill="url(#paint7_linear_527_130)"/>
<path fill-rule="evenodd" clip-rule="evenodd" d="M40.9499 33.5491C38.2426 33.5491 36.0403 31.3468 36.0403 28.6394C36.0403 25.932 38.2426 23.7297 40.9499 23.7297C43.6573 23.7297 45.8596 25.932 45.8596 28.6394C45.8596 31.3468 43.6573 33.5491 40.9499 33.5491Z" fill="url(#paint8_linear_527_130)"/>
<path fill-rule="evenodd" clip-rule="evenodd" d="M124.94 74.7859C123.687 74.7859 122.434 74.301 121.464 73.3514C121.323 73.21 121.182 73.0484 121.06 72.9069C119.565 70.9875 119.686 68.1993 121.464 66.4213C122.414 65.4717 123.687 64.9868 124.94 64.9868C125.061 64.9868 125.162 64.9868 125.283 65.007C126.435 65.0878 127.546 65.5525 128.415 66.4415C130.334 68.3609 130.334 71.4724 128.415 73.3716C127.465 74.3212 126.192 74.8061 124.94 74.8061V74.7859Z" fill="url(#paint9_linear_527_130)"/>
<path fill-rule="evenodd" clip-rule="evenodd" d="M38.0204 44.1158C36.9092 44.1158 36 43.2066 36 42.0954C36 40.9841 36.9092 40.075 38.0204 40.075C39.1317 40.075 40.0409 40.9841 40.0409 42.0954C40.0409 43.2066 39.1317 44.1158 38.0204 44.1158Z" fill="url(#paint10_linear_527_130)"/>
<path fill-rule="evenodd" clip-rule="evenodd" d="M132.84 59.2086C131.728 59.2086 130.819 58.2994 130.819 57.1882C130.819 56.0769 131.728 55.1677 132.84 55.1677C133.931 55.1677 134.82 56.0365 134.86 57.1275V57.2286C134.84 58.3196 133.951 59.1884 132.84 59.1884V59.2086Z" fill="url(#paint11_linear_527_130)"/>
<path fill-rule="evenodd" clip-rule="evenodd" d="M76.5704 89.9999H76.3481C74.6105 89.9999 72.9134 89.8585 71.2566 89.616C71.2364 86.7672 71.1556 83.9588 71.0142 81.1504C75.742 84.5851 81.3386 86.9086 87.4201 87.6764C87.8444 87.737 88.2889 87.7774 88.7132 87.8178C84.935 89.2119 80.8537 89.9595 76.5906 89.9797L76.5704 89.9999Z" fill="url(#paint12_linear_527_130)"/>
<path fill-rule="evenodd" clip-rule="evenodd" d="M58.8917 39.1659C57.8411 36.802 57.639 35.5089 57.6188 34.923C57.5784 33.5289 59.417 32.3772 60.508 32.3772C60.5889 32.3772 60.6495 32.3772 60.7101 32.3974C60.9525 32.4378 61.3364 32.8217 61.8213 33.448C60.6899 35.2462 59.6999 37.1657 58.9119 39.1861L58.8917 39.1659ZM66.5896 27.4069C66.3269 25.6694 66.1855 24.3157 66.2663 23.75C66.4279 22.6993 67.4381 22.1538 68.4686 22.1538C69.4384 22.1538 70.4082 22.6387 70.7112 23.6085C70.7315 23.6489 70.7517 23.7095 70.7719 23.7702C69.2767 24.8814 67.8826 26.0937 66.5694 27.4271L66.5896 27.4069Z" fill="url(#paint13_linear_527_130)"/>
<path fill-rule="evenodd" clip-rule="evenodd" d="M88.8747 87.8381C88.8141 87.8381 88.7535 87.8179 88.6929 87.8179C88.7535 87.7977 88.8141 87.7775 88.8747 87.7573C88.8747 87.7775 88.8747 87.8179 88.8747 87.8381Z" fill="url(#paint14_linear_527_130)"/>
<path fill-rule="evenodd" clip-rule="evenodd" d="M86.1068 87.4948C80.5304 86.5654 75.3783 84.3429 70.994 81.1506C70.8323 78.0594 70.5495 74.9681 70.105 71.8364C73.9438 73.3113 78.0857 74.1397 82.4296 74.1801C82.5711 74.1801 82.7125 74.1801 82.8337 74.1801C83.0762 74.1801 83.3186 74.1801 83.5611 74.1801C84.046 78.7059 85.1168 83.1105 86.1068 87.4948Z" fill="url(#paint15_linear_527_130)"/>
<path fill-rule="evenodd" clip-rule="evenodd" d="M88.6929 87.8382C88.2484 87.7977 87.8242 87.7573 87.3999 87.6967C86.9756 87.6361 86.5311 87.5755 86.1068 87.5149C85.1168 83.1305 84.0459 78.726 83.561 74.2002C85.9452 74.1598 88.2687 73.8769 90.5113 73.3718V73.392C89.7638 75.857 89.2183 82.2011 88.895 87.7775C88.8344 87.7977 88.7738 87.8179 88.7131 87.8382H88.6929Z" fill="url(#paint16_linear_527_130)"/>
<path fill-rule="evenodd" clip-rule="evenodd" d="M82.8337 74.2001C82.6923 74.2001 82.5509 74.2001 82.4296 74.2001C78.0857 74.1597 73.9438 73.3313 70.105 71.8564C68.7715 62.5422 65.9227 52.8037 59.8209 41.1054C59.4573 40.3982 59.134 39.7517 58.8713 39.1657C59.6795 37.1655 60.6493 35.2461 61.7808 33.4277C63.781 36.0341 67.2764 42.6409 67.7815 43.4693C68.1653 44.0956 68.5088 44.3785 68.7917 44.3785C69.1958 44.3785 69.418 43.7723 69.3372 42.8833C69.216 41.4892 67.337 32.6599 66.549 27.4068C67.8421 26.0935 69.2564 24.861 70.7515 23.7498C71.4991 26.0531 74.9944 36.8422 75.7016 40.4184C75.742 40.6407 75.8026 40.8023 76.0046 40.9033C76.5704 39.3274 76.53 31.6093 77.7826 22.6588C77.9241 21.6081 77.9645 20.3959 78.7524 19.5675C79.0353 19.2846 79.3586 19.0624 79.7424 18.9412C80.6112 19.022 81.48 19.1432 82.3286 19.2846C82.4498 19.3655 82.5711 19.4665 82.6721 19.5877C83.6823 20.6181 83.4803 22.1132 83.4601 23.4467C83.4398 26.4168 82.6519 40.2972 82.8741 41.6105C82.9145 41.8933 82.9954 42.0348 83.1166 42.0348C84.1874 42.0348 87.9858 29.9727 88.8748 27.2856C89.3395 25.8915 90.4508 23.6084 92.0267 23.6084C92.1277 23.6084 92.2085 23.6084 92.3096 23.6286C94.7947 24.0529 95.0978 25.6692 94.8351 27.1239C93.9259 32.0336 87.905 48.8436 90.7538 52.5612C90.9155 52.7835 91.1579 52.8643 91.4408 52.8643C92.9561 52.8643 95.8251 50.2983 96.8757 49.2881C98.4315 47.7526 100.876 45.0048 102.836 45.0048C103.18 45.0048 103.503 45.0856 103.806 45.2877C107.382 47.5101 104.513 51.45 102.735 53.6321C100.371 56.5213 97.4011 59.4711 95.2392 62.5624C92.9763 65.7951 91.663 69.6743 90.5114 73.4121C88.2687 73.897 85.9452 74.1799 83.5611 74.2405C83.3186 74.2405 83.0762 74.2405 82.8337 74.2405V74.2001Z" fill="url(#paint17_linear_527_130)"/>
<path fill-rule="evenodd" clip-rule="evenodd" d="M82.3486 19.2644C81.5 19.123 80.6312 19.0017 79.7625 18.9209C80.0655 18.8199 80.3888 18.7593 80.7121 18.7593C81.298 18.7593 81.8839 18.9209 82.3486 19.2442V19.2644Z" fill="url(#paint18_linear_527_130)"/>
<path d="M144.018 32.1141H147.891V49.0179H144.018V32.1141ZM143.493 24.7946C143.493 24.1382 143.723 23.5802 144.215 23.0878C144.708 22.5955 145.266 22.3657 145.922 22.3657C146.611 22.3657 147.202 22.5955 147.629 23.055C148.088 23.5145 148.318 24.0725 148.318 24.7618C148.318 25.4511 148.088 26.0419 147.629 26.5014C147.169 26.9609 146.579 27.1907 145.922 27.1907C145.266 27.1907 144.675 26.9609 144.215 26.4686C143.723 25.9762 143.493 25.4183 143.493 24.7618V24.7946Z" fill="#606062"/>
<path d="M162.892 26.5341V49.0506H158.657V26.5341H151.699V22.9236H169.784V26.5341H162.892Z" fill="#606062"/>
<path d="M173.789 49.0506V22.9236H188.362V26.5341H178.023V33.0659H188.362V36.8077H178.023V45.2432H188.362V49.0506H173.789Z" fill="#606062"/>
<path d="M199.456 38.7768H206.743L204.052 32.8031C203.888 32.4092 203.723 31.9825 203.559 31.4902C203.395 30.9978 203.231 30.4398 203.067 29.849C202.936 30.407 202.772 30.965 202.607 31.4573C202.443 31.9497 202.279 32.4092 202.115 32.8359L199.424 38.8097L199.456 38.7768ZM211.207 49.0176L208.253 42.2889H197.914L194.894 49.0176H190.43L203.067 21.873L215.704 49.0176H211.24H211.207Z" fill="#606062"/>
<path d="M239.205 29.2584C237.99 28.2409 236.743 27.4531 235.397 26.9608C234.052 26.4356 232.64 26.2058 231.163 26.2058C228.308 26.2058 225.977 27.1249 224.205 28.963C222.4 30.801 221.513 33.1643 221.513 36.0855C221.513 38.9083 222.4 41.2387 224.139 43.044C225.879 44.8821 228.078 45.8011 230.737 45.8011C232.279 45.8011 233.756 45.5385 235.168 44.9805C236.579 44.4226 237.892 43.602 239.205 42.486V47.2782C238.056 48.0987 236.809 48.7224 235.463 49.1162C234.117 49.5101 232.673 49.707 231.098 49.707C229.095 49.707 227.257 49.3788 225.551 48.7224C223.844 48.0659 222.367 47.114 221.087 45.8339C219.807 44.5867 218.822 43.1096 218.165 41.4029C217.476 39.6961 217.148 37.8908 217.148 35.9871C217.148 34.0833 217.476 32.2781 218.165 30.6041C218.855 28.9301 219.839 27.4531 221.152 26.173C222.432 24.8929 223.942 23.9082 225.616 23.2518C227.29 22.5953 229.095 22.2671 231.065 22.2671C232.608 22.2671 234.052 22.4969 235.463 22.9235C236.842 23.3831 238.22 24.0395 239.5 24.9586L239.271 29.2255L239.205 29.2584Z" fill="#606062"/>
<path d="M245.178 49.0506V22.9236H249.413V32.5735H262.279V22.9236H266.513V49.0506H262.279V36.3482H249.413V49.0506H245.178Z" fill="#606062"/>
<path d="M149.401 72.8142L151.568 71.8296C151.765 72.5845 152.159 73.1425 152.684 73.5363C153.242 73.9302 153.931 74.1272 154.784 74.1272C155.572 74.1272 156.229 73.8974 156.688 73.4707C157.148 73.0112 157.41 72.4204 157.41 71.6654C157.41 70.6808 156.59 69.8274 154.981 69.0396C154.752 68.9411 154.587 68.8427 154.456 68.777C152.618 67.8908 151.404 67.0702 150.78 66.3481C150.156 65.626 149.861 64.7398 149.861 63.6895C149.861 62.3437 150.321 61.2278 151.24 60.4072C152.159 59.5538 153.373 59.1599 154.85 59.1599C156.065 59.1599 157.115 59.3897 157.935 59.882C158.756 60.3415 159.347 61.0308 159.642 61.917L157.542 63.0002C157.213 62.475 156.852 62.0812 156.458 61.8514C156.065 61.6216 155.605 61.4903 155.08 61.4903C154.358 61.4903 153.767 61.6873 153.34 62.0483C152.914 62.4422 152.684 62.9345 152.684 63.5582C152.684 64.5429 153.636 65.4947 155.507 66.3481C155.638 66.4138 155.769 66.4794 155.835 66.5122C157.476 67.2672 158.625 68.0221 159.216 68.7442C159.839 69.4663 160.135 70.3853 160.135 71.4685C160.135 73.044 159.642 74.2913 158.658 75.2431C157.673 76.1622 156.327 76.6217 154.62 76.6217C153.209 76.6217 152.027 76.2935 151.141 75.637C150.222 74.9806 149.631 74.0615 149.369 72.8471L149.401 72.8142Z" fill="#606062"/>
<path d="M176.94 63.558C176.185 62.9016 175.364 62.4092 174.511 62.081C173.657 61.7528 172.771 61.5886 171.819 61.5886C170.014 61.5886 168.504 62.1795 167.388 63.3283C166.239 64.5099 165.681 66.0197 165.681 67.8578C165.681 69.6631 166.239 71.1401 167.355 72.2889C168.471 73.4705 169.85 74.0285 171.557 74.0285C172.541 74.0285 173.493 73.8644 174.379 73.5034C175.266 73.1423 176.119 72.6171 176.94 71.9279V74.9804C176.218 75.5056 175.43 75.8994 174.576 76.162C173.723 76.4246 172.804 76.5559 171.786 76.5559C170.506 76.5559 169.325 76.359 168.242 75.9323C167.158 75.5056 166.207 74.9147 165.386 74.0942C164.565 73.3064 163.942 72.3546 163.515 71.2714C163.088 70.1882 162.859 69.0394 162.859 67.825C162.859 66.6106 163.088 65.4617 163.515 64.3786C163.942 63.2954 164.565 62.3764 165.419 61.5558C166.239 60.7352 167.191 60.1116 168.274 59.6849C169.358 59.2582 170.506 59.0613 171.754 59.0613C172.738 59.0613 173.657 59.1926 174.544 59.488C175.43 59.7834 176.283 60.2101 177.137 60.7681L177.005 63.4924L176.94 63.558Z" fill="#606062"/>
<path d="M180.78 76.1622V59.521H183.472V65.6589H191.677V59.521H194.369V76.1622H191.677V68.0878H183.472V76.1622H180.78Z" fill="#606062"/>
<path d="M212.914 67.8578C212.914 67.0044 212.75 66.2167 212.454 65.4617C212.159 64.7068 211.699 64.0175 211.141 63.4267C210.583 62.8359 209.927 62.3764 209.205 62.081C208.45 61.7528 207.695 61.6215 206.874 61.6215C206.054 61.6215 205.266 61.7856 204.544 62.081C203.789 62.4092 203.132 62.8359 202.574 63.4267C201.984 64.0175 201.557 64.674 201.262 65.4289C200.966 66.1839 200.802 67.0044 200.802 67.825C200.802 68.6784 200.966 69.4661 201.262 70.2211C201.557 70.976 202.016 71.6325 202.574 72.2233C203.165 72.8141 203.822 73.2736 204.544 73.569C205.266 73.8644 206.054 74.0285 206.874 74.0285C207.695 74.0285 208.45 73.8644 209.205 73.569C209.927 73.2736 210.583 72.8141 211.174 72.2233C211.765 71.6325 212.192 70.9432 212.487 70.1882C212.782 69.4333 212.946 68.6456 212.946 67.7922L212.914 67.8578ZM215.736 67.8578C215.736 69.0394 215.507 70.1554 215.08 71.2058C214.62 72.2561 213.997 73.208 213.143 74.0285C212.29 74.8491 211.305 75.4727 210.255 75.9323C209.172 76.359 208.056 76.5887 206.874 76.5887C205.693 76.5887 204.544 76.359 203.461 75.9323C202.378 75.5056 201.426 74.8491 200.572 74.0285C199.719 73.208 199.062 72.2561 198.636 71.2058C198.209 70.1554 197.979 69.0394 197.979 67.825C197.979 66.6434 198.209 65.5274 198.636 64.4442C199.062 63.3939 199.719 62.442 200.572 61.6215C201.426 60.8009 202.378 60.1773 203.461 59.7177C204.544 59.291 205.693 59.0613 206.874 59.0613C208.089 59.0613 209.205 59.291 210.288 59.7177C211.371 60.1444 212.323 60.7681 213.176 61.6215C214.03 62.4749 214.686 63.4267 215.113 64.4771C215.54 65.5274 215.769 66.6434 215.769 67.825L215.736 67.8578Z" fill="#606062"/>
<path d="M233.559 67.8578C233.559 67.0044 233.395 66.2167 233.1 65.4617C232.804 64.7068 232.345 64.0175 231.787 63.4267C231.229 62.8359 230.573 62.3764 229.85 62.081C229.096 61.7528 228.341 61.6215 227.52 61.6215C226.699 61.6215 225.912 61.7856 225.19 62.081C224.435 62.4092 223.778 62.8359 223.22 63.4267C222.629 64.0175 222.203 64.674 221.907 65.4289C221.612 66.1839 221.448 67.0044 221.448 67.825C221.448 68.6784 221.612 69.4661 221.907 70.2211C222.203 70.976 222.662 71.6325 223.22 72.2233C223.811 72.8141 224.467 73.2736 225.19 73.569C225.912 73.8644 226.699 74.0285 227.52 74.0285C228.341 74.0285 229.096 73.8644 229.85 73.569C230.573 73.2736 231.229 72.8141 231.82 72.2233C232.411 71.6325 232.837 70.9432 233.133 70.1882C233.428 69.4333 233.592 68.6456 233.592 67.7922L233.559 67.8578ZM236.382 67.8578C236.382 69.0394 236.152 70.1554 235.726 71.2058C235.266 72.2561 234.643 73.208 233.789 74.0285C232.936 74.8491 231.951 75.4727 230.901 75.9323C229.818 76.359 228.702 76.5887 227.52 76.5887C226.306 76.5887 225.19 76.359 224.106 75.9323C223.023 75.5056 222.071 74.8491 221.218 74.0285C220.365 73.208 219.741 72.2561 219.281 71.2058C218.855 70.1554 218.625 69.0394 218.625 67.825C218.625 66.6434 218.855 65.5274 219.281 64.4442C219.708 63.3939 220.365 62.442 221.218 61.6215C222.071 60.8009 223.023 60.1773 224.106 59.7177C225.19 59.291 226.338 59.0613 227.52 59.0613C228.734 59.0613 229.85 59.291 230.934 59.7177C232.017 60.1444 232.969 60.7681 233.822 61.6215C234.675 62.4749 235.332 63.4267 235.759 64.4771C236.185 65.5274 236.415 66.6434 236.415 67.825L236.382 67.8578Z" fill="#606062"/>
<path d="M239.96 76.1622V59.521H242.651V73.7333H248.691V76.1622H239.96Z" fill="#606062"/>
<path d="M250.397 72.8142L252.564 71.8296C252.761 72.5845 253.154 73.1425 253.68 73.5363C254.238 73.9302 254.927 74.1272 255.78 74.1272C256.568 74.1272 257.224 73.8974 257.684 73.4707C258.144 73.0112 258.406 72.4204 258.406 71.6654C258.406 70.6808 257.586 69.8274 255.977 69.0396C255.747 68.9411 255.583 68.8427 255.452 68.777C253.614 67.8908 252.4 67.0702 251.776 66.3481C251.152 65.626 250.857 64.7398 250.857 63.6895C250.857 62.3437 251.316 61.2278 252.235 60.4072C253.154 59.5538 254.369 59.1599 255.846 59.1599C257.06 59.1599 258.111 59.3897 258.931 59.882C259.752 60.3415 260.343 61.0308 260.638 61.917L258.537 63.0002C258.209 62.475 257.848 62.0812 257.454 61.8514C257.06 61.6216 256.601 61.4903 256.076 61.4903C255.354 61.4903 254.763 61.6873 254.336 62.0483C253.909 62.4422 253.68 62.9345 253.68 63.5582C253.68 64.5429 254.631 65.4947 256.502 66.3481C256.634 66.4138 256.765 66.4794 256.831 66.5122C258.472 67.2672 259.621 68.0221 260.211 68.7442C260.835 69.4663 261.13 70.3853 261.13 71.4685C261.13 73.044 260.638 74.2913 259.653 75.2431C258.669 76.1622 257.323 76.6217 255.616 76.6217C254.205 76.6217 253.023 76.2935 252.137 75.637C251.218 74.9806 250.627 74.0615 250.365 72.8471L250.397 72.8142Z" fill="#606062"/>
<defs>
<linearGradient id="paint0_linear_527_130" x1="38.8893" y1="37.2438" x2="73.2003" y2="85.9092" gradientUnits="userSpaceOnUse">
<stop stop-color="#F26836"/>
<stop offset="1" stop-color="#F79633"/>
</linearGradient>
<linearGradient id="paint1_linear_527_130" x1="81.9344" y1="3" x2="81.9344" y2="33.549" gradientUnits="userSpaceOnUse">
<stop stop-color="white"/>
<stop offset="1" stop-color="white" stop-opacity="0"/>
</linearGradient>
<linearGradient id="paint2_linear_527_130" x1="45.8468" y1="31.0371" x2="81.1028" y2="52.3026" gradientUnits="userSpaceOnUse">
<stop stop-color="#FFC62A"/>
<stop offset="1" stop-color="#F89C32"/>
</linearGradient>
<linearGradient id="paint3_linear_527_130" x1="88.8778" y1="57.1957" x2="127.57" y2="57.1957" gradientUnits="userSpaceOnUse">
<stop stop-color="#C2D83E"/>
<stop offset="0.0313725" stop-color="#C2D83E"/>
<stop offset="1" stop-color="#57B952"/>
</linearGradient>
<linearGradient id="paint4_linear_527_130" x1="64.8013" y1="64.603" x2="64.8013" y2="81.211" gradientUnits="userSpaceOnUse">
<stop stop-color="white"/>
<stop offset="1" stop-color="white" stop-opacity="0"/>
</linearGradient>
<linearGradient id="paint5_linear_527_130" x1="88.883" y1="73.5979" x2="111.698" y2="73.5979" gradientUnits="userSpaceOnUse">
<stop stop-color="#79C14E"/>
<stop offset="0.0313725" stop-color="#79C14E"/>
<stop offset="1" stop-color="#007442"/>
</linearGradient>
<linearGradient id="paint6_linear_527_130" x1="55.8435" y1="21.9263" x2="112.574" y2="70.3713" gradientUnits="userSpaceOnUse">
<stop stop-color="#009ADC"/>
<stop offset="0.0196078" stop-color="#009ADC"/>
<stop offset="1" stop-color="#215BA8"/>
</linearGradient>
<linearGradient id="paint7_linear_527_130" x1="99.0883" y1="16.7793" x2="99.0883" y2="59.4509" gradientUnits="userSpaceOnUse">
<stop stop-color="white"/>
<stop offset="1" stop-color="white" stop-opacity="0"/>
</linearGradient>
<linearGradient id="paint8_linear_527_130" x1="36.0441" y1="28.6327" x2="45.8578" y2="28.6327" gradientUnits="userSpaceOnUse">
<stop stop-color="#F79633"/>
<stop offset="1" stop-color="#F16436"/>
</linearGradient>
<linearGradient id="paint9_linear_527_130" x1="124.941" y1="64.9868" x2="124.941" y2="74.8061" gradientUnits="userSpaceOnUse">
<stop stop-color="white"/>
<stop offset="1" stop-color="white" stop-opacity="0"/>
</linearGradient>
<linearGradient id="paint10_linear_527_130" x1="36.0162" y1="42.0988" x2="40.0425" y2="42.0988" gradientUnits="userSpaceOnUse">
<stop stop-color="#8B3F28"/>
<stop offset="0.980392" stop-color="#F58434"/>
<stop offset="1" stop-color="#F58434"/>
</linearGradient>
<linearGradient id="paint11_linear_527_130" x1="130.817" y1="57.1952" x2="134.842" y2="57.1952" gradientUnits="userSpaceOnUse">
<stop stop-color="#57B952"/>
<stop offset="1" stop-color="#006B3E"/>
</linearGradient>
<linearGradient id="paint12_linear_527_130" x1="79.8637" y1="81.1504" x2="79.8637" y2="89.9999" gradientUnits="userSpaceOnUse">
<stop stop-color="white"/>
<stop offset="1" stop-color="white" stop-opacity="0"/>
</linearGradient>
<linearGradient id="paint13_linear_527_130" x1="57.1099" y1="26.3996" x2="71.2265" y2="34.9143" gradientUnits="userSpaceOnUse">
<stop stop-color="#FEFEFE"/>
<stop offset="1" stop-color="#FEFEFE"/>
</linearGradient>
<linearGradient id="paint14_linear_527_130" x1="88.7838" y1="87.7573" x2="88.7838" y2="87.8381" gradientUnits="userSpaceOnUse">
<stop stop-color="white"/>
<stop offset="1" stop-color="white" stop-opacity="0"/>
</linearGradient>
<linearGradient id="paint15_linear_527_130" x1="70.108" y1="79.6737" x2="86.1141" y2="79.6737" gradientUnits="userSpaceOnUse">
<stop stop-color="#FEFEFE"/>
<stop offset="0.980392" stop-color="#FEFEFE"/>
<stop offset="1" stop-color="#FEFEFE"/>
</linearGradient>
<linearGradient id="paint16_linear_527_130" x1="83.5622" y1="80.5979" x2="90.513" y2="80.5979" gradientUnits="userSpaceOnUse">
<stop stop-color="#FEFEFE"/>
<stop offset="0.0313725" stop-color="#FEFEFE"/>
<stop offset="1" stop-color="#FEFEFE"/>
</linearGradient>
<linearGradient id="paint17_linear_527_130" x1="57.6791" y1="24.8315" x2="108.581" y2="68.2994" gradientUnits="userSpaceOnUse">
<stop stop-color="#FEFEFE"/>
<stop offset="0.0196078" stop-color="#FEFEFE"/>
<stop offset="1" stop-color="#FEFEFE"/>
</linearGradient>
<linearGradient id="paint18_linear_527_130" x1="79.7562" y1="19.2545" x2="82.3514" y2="18.7934" gradientUnits="userSpaceOnUse">
<stop stop-color="#FEFEFE"/>
<stop offset="1" stop-color="#FEFEFE"/>
</linearGradient>
</defs>
</svg>
