<svg width="318" height="89" viewBox="0 0 318 89" fill="none" xmlns="http://www.w3.org/2000/svg">
<path fill-rule="evenodd" clip-rule="evenodd" d="M207.865 54.618C207.91 54.4774 207.91 54.3363 207.866 54.1951C207.808 54.1486 207.764 54.0918 207.738 54.0208C207.667 53.7691 207.496 53.5922 207.284 53.4776C206.835 53.2353 206.609 52.8583 206.569 52.3505L206.49 52.2436C206.381 52.1593 206.238 52.1204 206.165 51.9895C206.148 51.9409 206.144 51.8918 206.151 51.8407C206.114 51.4623 205.911 51.245 205.627 50.9811C205.176 50.5623 204.9 49.9527 204.943 49.2781C204.965 48.9504 204.895 48.8353 204.54 48.8148C203.748 48.7678 203.41 48.0743 203.266 47.4668C203.075 46.6588 202.68 46.177 201.98 45.8447C201.677 45.701 201.416 45.4529 201.253 45.0602C200.892 46.22 201.223 47.3119 201.239 48.4022L201.234 48.3955C201.473 48.6829 201.491 49.0623 201.508 49.3896C201.572 50.597 201.71 51.8059 201.569 53.0179C201.541 53.2649 201.597 53.4909 201.729 53.719C202.118 54.3879 202.299 55.1013 202.1 55.8878C201.987 56.3286 201.945 56.7858 201.906 57.2404C201.819 58.2735 200.819 58.7751 199.985 58.1763C199.741 58.0014 199.553 57.9083 199.249 57.9983C198.878 58.1088 198.572 57.9778 198.441 57.5601C198.399 57.4256 198.328 57.3039 198.275 57.174C197.686 55.5774 197.354 53.9379 197.507 52.2202C197.511 52.168 197.494 52.1081 197.512 52.0626C197.837 51.2689 197.513 50.5177 197.37 49.7558C197.35 49.6995 197.335 49.6418 197.326 49.5834C197.147 47.6571 197.361 45.7271 197.28 43.8011C197.242 42.8925 197.171 41.9934 197.282 41.0806C197.363 40.4138 197.478 39.7602 197.683 39.1286C197.977 38.225 198.985 37.596 199.91 37.6814C200.236 37.7116 200.438 37.8916 200.597 38.1652C200.805 38.5196 200.872 38.92 200.987 39.3055C201.039 39.4825 201.084 39.7439 201.341 39.6528C202.055 39.3987 202.413 39.8676 202.784 40.3432C203.169 40.8382 203.617 41.1594 204.247 41.3705C205.149 41.6713 205.852 42.3483 206.194 43.3204C206.535 43.5388 206.745 43.8723 206.83 44.2502C206.955 44.802 207.401 45.0147 207.771 45.3102C207.963 45.4648 208.05 45.2908 208.091 45.1282C208.159 44.85 208.138 44.5672 208.075 44.2906C207.959 43.7935 207.952 43.2652 207.796 42.7897C207.478 41.8175 207.73 40.9083 207.966 39.9924C208.043 39.6968 208.05 39.4938 207.832 39.238C207.382 38.7103 207.328 38.0634 207.463 37.393C207.849 36.6776 208.174 36.5057 208.93 36.6633C209.335 36.7471 209.74 36.7993 210.149 36.8499C211.081 36.9649 211.773 37.8006 211.433 38.922C211.288 39.4007 211.214 39.8103 211.458 40.2501C211.579 40.9635 211.545 41.6871 211.498 42.398C211.424 43.5148 211.671 44.5795 211.846 45.6601L211.841 45.654C211.977 46.2456 212.138 46.8332 212.164 47.4458C212.19 47.5793 212.203 47.7148 212.205 47.8503C212.208 47.9 212.208 47.9511 212.206 48.0007C212.207 48.0482 212.203 48.0963 212.201 48.1434C212.193 48.2794 212.194 48.4144 212.24 48.5453L212.279 48.6778C212.304 48.8905 212.399 49.0792 212.479 49.2746C212.496 49.3232 212.508 49.3727 212.517 49.4234C212.65 49.922 212.621 50.4374 212.676 50.9437L212.669 50.934C212.84 51.3457 212.717 51.7762 212.745 52.1976C212.76 52.4237 212.744 52.6486 212.897 52.8369C212.931 52.884 212.962 52.9315 212.995 52.9791C213.028 53.0276 213.054 53.0793 213.078 53.1335C213.096 53.1912 213.106 53.2491 213.108 53.3089C213.211 54.1486 213.279 55.0261 213.031 55.8106C212.755 56.6794 213.029 57.5427 212.827 58.3849C212.819 58.4432 212.804 58.4995 212.786 58.5547C212.395 59.6081 211.644 60.0193 210.322 59.9053C210.268 59.895 210.216 59.8777 210.166 59.8552C209.17 59.3556 208.746 58.5368 208.737 57.4025C208.73 56.4365 208.308 55.5804 207.823 54.7664C207.806 54.708 207.821 54.6585 207.865 54.618Z" fill="black"/>
<path fill-rule="evenodd" clip-rule="evenodd" d="M253.746 57.3334L253.767 57.2966L253.744 57.2613C253.429 55.4203 253.169 53.5747 253.217 51.6963C253.23 51.1911 253.226 50.6863 253.021 50.2C252.911 49.9393 252.985 49.6483 253.035 49.368C253.147 48.7533 253.047 48.647 252.437 48.7088C252.251 48.7283 252.039 48.7083 251.885 48.8162C251.424 49.1384 250.918 49.1113 250.403 49.0719C250.217 49.0581 250.029 49.0632 249.841 49.1118C248.972 49.3353 248.842 49.8365 249.11 50.5181C249.381 51.2095 249.411 51.9132 249.449 52.625C249.479 53.2034 249.452 53.7859 249.456 54.3658C249.459 55.002 249.281 55.5747 248.889 56.0682C248.554 56.4896 248.186 56.7125 247.581 56.7156C246.856 56.7181 246.343 56.4216 245.831 56.0048C245.766 55.9511 245.72 55.8529 245.629 55.8524C244.836 55.8457 244.797 55.1656 244.672 54.6435C244.412 53.5599 244.41 52.446 244.386 51.3307C244.368 50.4762 244.25 49.6247 244.357 48.7687C244.366 48.6997 244.399 48.6214 244.34 48.5692C243.775 48.0731 244.056 47.3869 243.955 46.7875L243.956 46.7917C243.787 46.5268 243.78 46.2225 243.793 45.9289C243.826 45.144 243.691 44.3544 243.922 43.5714C244.014 43.2626 243.785 42.9245 243.79 42.5895C243.806 41.6409 243.725 40.6898 243.857 39.7452C243.885 39.5453 243.919 39.3397 243.77 39.196C243.289 38.7306 243.499 38.14 243.497 37.6015C243.497 37.2794 243.768 37.0921 244.067 36.9986C244.378 36.6918 244.705 36.5056 245.168 36.6637C245.368 36.7317 245.614 36.6703 245.783 36.4862C245.912 36.3461 246.076 36.3123 246.252 36.3118C246.58 36.343 246.852 36.4596 246.948 36.8221C246.982 36.9485 247.077 37.0211 247.156 37.1131C247.446 37.4506 247.601 37.8281 247.601 38.3006C247.603 39.2615 247.815 40.2111 247.764 41.1797C247.745 41.5131 248.065 41.7376 248.127 42.0823C248.216 42.5768 248.048 43.058 248.144 43.5413L248.14 43.5352C248.297 43.7162 248.208 43.934 248.213 44.1329C248.23 44.7435 248.315 44.8049 248.818 44.5078C248.986 44.4091 249.163 44.3109 249.35 44.3436C250.099 44.474 250.833 44.2004 251.577 44.2792C251.777 44.3007 251.882 44.1871 251.997 44.0419C252.325 43.6298 252.496 43.1797 252.468 42.6366C252.442 42.1268 252.499 41.62 252.729 41.1511C252.876 40.854 252.803 40.5655 252.671 40.293C252.025 38.9628 252.802 37.0916 254.203 36.817C255.182 36.6252 255.898 36.8953 256.384 37.8398L256.387 37.8439C256.853 38.0142 257.028 38.3998 257.068 38.86C257.118 39.4466 257.057 39.9968 256.7 40.5128C256.432 40.9005 256.156 41.3551 256.547 41.8568C256.601 41.9253 256.582 42.0265 256.572 42.114C256.484 42.8724 256.728 43.6456 256.479 44.3983C256.443 44.5068 256.535 44.5917 256.569 44.6883C256.831 45.4176 256.888 46.1493 256.581 46.8873C256.386 47.3588 256.698 47.7367 256.96 47.9908C257.457 48.4762 257.738 48.9886 257.657 49.6978C257.632 49.9234 257.663 50.1551 257.651 50.3826C257.592 51.5608 257.682 52.7237 257.956 53.8713C258.015 54.1116 258.02 54.3581 258.014 54.6046C258.089 55.4561 258.193 56.304 258.049 57.1626C258.008 57.4004 257.92 57.5477 257.731 57.6576C257.683 57.8877 257.543 58.0263 257.322 58.0805L257.34 58.1055L257.321 58.0815C257.122 58.3178 256.847 58.2503 256.6 58.2493C255.929 58.2457 255.278 58.2595 254.701 58.7079C254.46 58.8957 254.197 58.8102 253.993 58.5326C253.723 58.1639 253.776 57.744 253.746 57.3334Z" fill="black"/>
<path fill-rule="evenodd" clip-rule="evenodd" d="M222.723 38.673C222.938 38.6684 223.157 38.6024 223.321 38.8433C223.479 39.0749 223.727 38.9783 223.932 38.9292C224.063 38.898 224.185 38.8423 224.326 38.8372C224.913 38.8136 224.913 38.8101 225.133 39.3695C225.235 39.6288 225.347 39.8789 225.5 40.1167C225.78 40.5559 225.694 41.0627 225.677 41.5495C225.673 41.6615 225.582 41.73 225.469 41.749C225.301 41.7771 225.134 41.8078 224.964 41.8303C224.464 41.8963 224.115 42.2107 223.862 42.6148C223.524 43.1568 223.182 43.6913 222.75 44.1612C222.367 44.5785 222.425 45.0817 222.909 45.3824C223.168 45.5424 223.394 45.704 223.418 46.0436C223.428 46.1965 223.547 46.2022 223.642 46.1827C224.071 46.0988 224.241 46.3898 224.428 46.7007C224.788 47.3026 225.171 47.8938 225.758 48.2968C226.028 48.4809 226.162 48.7197 226.134 49.0485C226.115 49.2833 226.187 49.4444 226.41 49.5528C227.315 49.9926 227.788 50.7739 227.964 51.7476C228.009 51.9987 228.07 52.0969 228.304 52.06C228.536 52.0238 228.691 52.1434 228.839 52.304C228.942 52.4176 229.029 52.5531 229.175 52.6211C229.515 52.9969 229.542 53.471 229.316 54.0141C229.139 54.4355 228.853 54.7822 228.639 55.1785C228.349 55.7154 227.834 55.966 227.225 55.9763L227.222 55.9784C227.12 56.3511 226.84 56.3619 226.53 56.367C226.2 56.3721 226.085 56.1578 225.99 55.9027C225.778 55.3381 225.439 54.8834 224.936 54.5531C224.75 54.4319 224.577 54.2432 224.532 54.0243C224.417 53.4521 224.065 53.0921 223.628 52.7642C223.429 52.6149 223.225 52.4329 223.126 52.1761L223.124 52.1756C222.916 52.0785 222.804 51.9369 222.849 51.6791C222.905 51.3672 222.804 51.1743 222.448 51.1672C222.222 51.1626 222.004 51.1089 222.007 50.7801C222.008 50.5586 221.842 50.5024 221.649 50.4953C221.483 50.4886 221.305 50.5039 221.169 50.3664L221.174 50.371C221.032 50.3321 220.927 50.237 220.871 50.105C220.609 49.4806 220.017 49.2899 219.467 48.9222C219.658 50.1301 219.804 51.2664 219.909 52.4083L219.907 52.4043C220.053 52.6114 219.938 52.8583 220.005 53.0777C219.973 53.7676 219.958 54.4569 220.012 55.1463C219.976 55.5365 220.089 55.9569 219.786 56.2918L219.795 56.2816C219.309 56.7193 218.729 57.0226 218.226 57.4363C218.113 57.5289 217.978 57.5406 217.841 57.5468L217.834 57.5508C217.798 57.6516 217.702 57.6291 217.628 57.6547L217.621 57.6582C217.304 58.1543 216.737 58.0331 216.291 58.2034C216.134 58.2632 215.911 58.0883 215.931 57.9103C215.985 57.4532 215.749 56.9648 216.063 56.5373C216.189 56.3654 216.208 56.1604 216.111 55.9911C215.791 55.4276 215.735 54.8093 215.701 54.1813L215.705 54.1869C215.661 54.1445 215.63 54.0934 215.611 54.0346C215.584 53.9793 215.565 53.921 215.554 53.8601C215.391 52.2319 214.85 50.6681 214.885 48.9943C214.907 48.0365 214.627 47.0653 214.349 46.1305C214.205 45.6493 214.209 45.1569 214.215 44.6726C214.228 43.724 213.994 42.7892 214.09 41.8385C214.104 41.7137 214.034 41.6012 214.005 41.4831C213.729 39.9714 213.715 38.4623 214.053 36.9578C214.1 36.8064 214.196 36.6934 214.322 36.6044C214.856 36.2337 215.408 35.9309 216.087 36.1523L216.083 36.1488C216.747 36.3073 217.102 36.718 217.16 37.4308C217.185 37.7382 217.246 38.0527 217.332 38.3549L217.33 38.3518C217.518 38.4229 217.601 38.5886 217.586 38.765C217.548 39.2228 217.73 39.6579 217.697 40.11C217.653 40.6833 218.093 41.1016 218.146 41.6416L218.14 41.6329C218.359 42.2092 218.214 42.8418 218.399 43.4253C218.451 43.5854 218.394 43.7797 218.55 43.9193C218.725 43.7828 218.686 43.571 218.73 43.3961C218.792 43.1589 218.83 42.917 218.912 42.6823C219.101 42.1361 219.667 41.8881 219.885 41.3603C219.93 41.2488 220.126 41.2504 220.266 41.2519C220.49 41.2545 220.713 41.254 220.936 41.2524C221.734 41.2468 221.639 41.321 221.612 40.5462C221.586 39.8497 222.037 39.3844 222.304 38.829C222.383 38.6622 222.591 38.7533 222.723 38.673Z" fill="black"/>
<path fill-rule="evenodd" clip-rule="evenodd" d="M229.724 55.3623C229.795 55.2221 229.865 55.082 229.935 54.9419C230.186 54.4453 230.594 54.2341 231.125 54.3297C231.19 54.3414 231.27 54.3573 231.31 54.4028C231.522 54.6478 231.832 54.7251 232.079 54.8968C232.368 55.0984 232.663 55.2553 232.988 55.3719C233.292 55.4819 233.484 55.6777 233.441 56.0393C233.434 56.0909 233.44 56.1446 233.443 56.1973C233.449 56.2771 233.492 56.3313 233.569 56.3318C233.647 56.3318 233.696 56.2725 233.699 56.1978C233.705 55.9692 233.699 55.7402 233.704 55.5115C233.712 55.1162 233.758 55.0451 234.155 55.0518C234.857 55.0641 235.42 54.77 235.886 54.2678C236.165 53.9656 236.519 53.8607 236.885 53.7831C237.094 53.7385 237.214 53.6526 237.289 53.4414C237.356 53.2574 237.402 53.0267 237.676 53.0093C237.788 53.0021 237.76 52.8738 237.761 52.7945C237.764 52.3184 237.761 51.8433 237.764 51.3683C237.765 51.0788 237.623 50.8651 237.421 50.6897C237.179 50.48 236.997 50.2258 236.894 49.9236C236.786 49.6096 236.527 49.4204 236.352 49.1647C236.283 49.0655 236.186 49.0507 236.08 49.0517C235.908 49.0532 235.734 49.0374 235.564 49.0553C235.303 49.0829 235.102 49.0077 234.933 48.7935C234.733 48.5403 234.465 48.4028 234.151 48.3229C233.598 48.1813 233.141 47.8167 232.632 47.5748C232.149 47.3457 231.755 47.0338 231.455 46.5898C231.415 46.5326 231.344 46.4728 231.345 46.416C231.362 45.9451 231.003 45.9056 230.696 45.7982C230.501 45.7302 230.309 45.651 230.148 45.5139C229.865 45.2741 229.868 45.2224 230.006 44.8517C230.157 44.44 230.106 44.0314 229.927 43.631C229.691 43.1037 229.599 42.573 229.995 42.0718C230.111 41.924 230.107 41.7404 230.128 41.5731C230.168 41.2531 230.262 40.956 230.425 40.6854C230.641 40.3264 230.86 39.971 230.99 39.567C231.051 39.3813 231.19 39.2837 231.369 39.2505C231.779 39.1753 232.026 38.8868 232.214 38.5453C232.335 38.3248 232.502 38.1555 232.66 37.971C232.853 37.7449 233.076 37.6176 233.381 37.6493C233.509 37.6631 233.662 37.6943 233.747 37.5347C234.189 36.9799 234.863 37.0965 235.435 36.9221C235.696 36.8418 235.981 36.8459 236.236 36.7538C236.989 36.4838 237.517 36.7994 237.958 37.39L237.963 37.3952C238.16 37.4851 238.226 37.6912 238.348 37.8488L238.368 37.8226L238.345 37.8457C238.508 37.8825 238.657 37.9628 238.643 38.1505C238.612 38.5719 238.744 39.0321 238.591 39.4054C238.364 39.9516 238.254 40.5386 237.985 41.0679C237.807 41.4187 237.538 41.5042 237.183 41.4939C236.348 41.4694 235.516 41.5517 234.694 41.6944C234.286 41.7649 233.995 42.0554 233.825 42.4369C233.635 42.8629 233.942 43.1774 234.185 43.3978C234.625 43.7967 235.137 44.103 235.702 44.3234C236.395 44.5939 237.128 44.7591 237.782 45.137C238.009 45.2685 238.211 45.4275 238.345 45.6627L238.368 45.6372L238.347 45.6648C238.605 45.74 238.828 45.9097 239.096 45.9589L239.126 45.9849L239.163 45.9685C239.224 46.0023 239.169 45.9307 239.21 45.9829C239.642 46.5326 240.218 46.8619 240.842 47.1191L240.843 47.1207C241.032 47.2132 241.192 47.3339 241.24 47.561L241.237 47.5559C241.308 47.6049 241.398 47.6567 241.419 47.7348C241.578 48.3399 241.944 48.798 242.314 49.2859C242.632 49.7052 242.505 50.3148 242.353 50.8063C242.16 51.425 242.006 52.0397 241.994 52.6882C241.987 53.0794 241.825 53.3929 241.563 53.6624C241.423 54.2781 240.977 54.6637 240.537 55.0375C240.261 55.2738 239.955 55.4645 239.827 55.8368C239.788 55.9518 239.725 56.0986 239.62 56.1293C239.105 56.2802 238.758 56.6617 238.362 56.9915C238.145 57.1725 237.867 57.2902 237.641 57.4814C237.399 57.6859 237.19 57.9585 236.797 57.8557C236.649 57.8169 236.508 57.9697 236.438 58.114C236.122 58.7624 235.555 58.8898 234.927 58.8954C234.636 58.8984 234.343 58.9435 234.058 58.9343C233.466 58.9154 232.951 59.1112 232.456 59.4006C232.03 59.6491 231.627 59.4293 231.369 59.1869C231.047 58.8867 230.623 58.6116 230.544 58.0971L230.545 58.0991C230.247 57.9437 229.914 57.8599 229.67 57.6006C229.407 57.3224 229.259 57.0242 229.429 56.6376L229.422 56.6484C229.529 56.2214 229.437 55.7447 229.724 55.3623Z" fill="black"/>
<path fill-rule="evenodd" clip-rule="evenodd" d="M188.279 52.667C187.725 52.9027 187.135 52.827 186.556 52.828C186.317 52.8285 186.249 52.7376 186.316 52.5094C186.399 52.2251 186.498 51.9449 186.606 51.6697C186.8 51.1778 186.716 50.6659 186.727 50.1606C186.728 50.0317 186.647 49.9357 186.577 49.8344C186.351 49.5092 186.341 49.2289 186.571 48.941C186.784 48.6751 186.906 48.3667 186.993 48.0491C187.076 47.749 187.273 47.7561 187.506 47.7459C187.783 47.7347 188.009 47.7812 188.145 48.0594C188.196 48.1617 188.154 48.224 188.095 48.2885C187.738 48.6751 187.818 49.0755 188.058 49.4795C188.455 50.1453 188.839 50.8209 189.296 51.4462C189.485 51.705 189.584 51.993 189.667 52.3805C189.139 52.334 188.707 52.4859 188.279 52.667ZM197.125 59.3784C197.104 59.3309 197.083 59.2848 197.058 59.2403C196.637 58.5075 196.624 57.6611 196.427 56.8665C196.414 56.8163 196.399 56.7667 196.379 56.7192C196.176 56.3183 196.144 55.8447 195.873 55.4735L195.791 55.3431C195.578 55.1068 195.406 54.8393 195.418 54.5105C195.452 53.4949 194.914 52.779 194.263 52.1172C193.474 51.6702 193.015 50.9697 192.898 50.0742C192.812 49.4202 192.721 48.8162 192.029 48.5441C191.981 48.5252 191.957 48.4721 191.928 48.4275C191.43 47.6364 190.888 46.875 190.605 45.9565C190.426 45.3807 190.028 44.968 189.459 44.7563C189.311 44.7011 189.159 44.6371 189.094 44.4853C188.905 44.0455 188.591 43.6895 188.329 43.3024C188.071 42.9204 187.935 42.5277 188.009 42.0771C188.112 41.4568 187.879 41.0303 187.35 40.7501C187.178 40.6054 187.028 40.4259 186.794 40.3798C186.45 40.0045 185.835 39.8766 185.336 40.0863C184.87 40.2812 184.712 40.6304 184.807 41.1414C184.968 42.0107 184.383 42.7619 184.399 43.6133C184.401 43.7075 184.333 43.7734 184.243 43.8016C183.714 43.9647 183.806 44.4131 183.929 44.745C184.058 45.0933 183.961 45.2871 183.726 45.4641C183.401 45.7085 183.364 46.0327 183.407 46.4029C183.438 46.6689 183.707 46.7768 183.801 47.0867C183.143 47.0064 183.042 47.5132 182.896 47.9622C182.804 48.246 182.703 48.5288 182.64 48.8198C182.343 50.1832 181.782 51.499 181.92 52.9426C181.93 53.0581 181.864 53.1441 181.791 53.2177C181.625 53.3829 181.529 53.5854 181.466 53.8084C181.364 54.172 181.164 54.1521 180.943 53.9301C180.731 53.7153 180.492 53.5563 180.203 53.4745C180.137 53.2402 179.963 53.1118 179.779 52.9733C178.769 52.2123 177.827 51.3787 177.146 50.2823C176.816 49.75 176.699 49.1169 176.416 48.559C176.115 47.9694 175.856 47.3741 175.236 47.0186C174.464 46.5753 174.197 45.9013 175.301 45.4088C176.109 45.0483 176.729 44.5298 177.023 43.6568C177.328 42.6361 177.84 41.7723 178.789 41.2502C179.091 41.0845 179.324 40.8836 179.333 40.4898C179.355 39.3658 179.333 38.2418 179.347 37.1177C179.348 36.8922 179.26 36.7577 179.058 36.6764C178.365 36.3966 177.464 36.6621 177.043 37.2947C176.735 37.757 176.45 38.2356 176.067 38.6427C175.767 39.1086 175.464 39.5933 174.986 39.867C174.42 40.1917 173.921 40.61 173.376 40.9618L173.261 41.0452L173.147 41.128L173.029 41.2042C172.748 41.3418 172.512 41.5469 172.268 41.7376C171.92 42.0081 171.849 41.9958 171.746 41.552C171.621 41.0176 171.487 40.4827 171.458 39.9294V39.8234C171.525 39.7335 171.55 39.6312 171.538 39.5187C171.368 39.0544 171.357 38.5752 171.398 38.0893C171.411 38.0423 171.423 37.9963 171.434 37.9492C171.456 37.8822 171.482 37.8178 171.506 37.7523L171.529 37.6869L171.545 37.6189C171.553 37.5729 171.556 37.5258 171.555 37.4793C171.553 37.4077 171.542 37.3376 171.519 37.2696L171.459 37.1392C171.108 36.6687 170.776 36.1845 170.473 35.6777C170.12 35.087 169.671 34.593 168.982 34.4054C168.937 34.3864 168.892 34.3711 168.844 34.3624C168.795 34.3573 168.746 34.3598 168.699 34.3711C168.653 34.3879 168.61 34.4105 168.571 34.4411C168.443 34.5547 168.323 34.6759 168.216 34.8088C168.186 34.8502 168.16 34.8942 168.139 34.9403C168.027 35.2445 167.871 35.5324 167.817 35.8577C167.789 36.4135 167.788 36.9705 167.818 37.5273C167.855 37.8065 168.003 38.0587 168.011 38.3451C168.052 39.8715 168.114 41.397 168.208 42.921C168.264 43.8133 168.246 44.7083 168.288 45.6032C168.365 47.2683 168.43 48.9343 168.513 50.6004C168.569 51.7168 168.711 52.8009 169.05 53.86C169.065 53.9199 169.085 53.9771 169.112 54.0328C169.203 54.2215 169.321 54.398 169.385 54.5959C169.586 55.2177 169.982 55.4617 170.627 55.4039C171.193 55.3532 171.755 55.477 172.232 55.8186C172.487 56.0027 172.75 56.0621 173.044 56.0513C173.101 56.0493 173.154 56.0345 173.204 56.0048C173.727 55.6841 173.606 55.2065 173.5 54.7325L173.505 54.7417C173.494 54.1091 173.134 53.5435 173.161 52.9063C173.183 52.3233 173.107 51.7505 173.024 51.1768C172.892 50.9108 172.74 50.6546 172.694 50.3529L172.649 50.2251L172.683 50.2752C172.725 50.4853 172.781 50.692 172.893 50.8776C173.293 51.4284 174.069 51.59 174.304 52.3172C174.333 52.4057 174.46 52.4537 174.555 52.4921C174.89 52.626 175.068 52.8843 175.141 53.2356C175.222 53.6187 175.469 53.7884 175.843 53.8007C176.17 53.812 176.493 53.8467 176.785 54.0176L176.895 54.1213C177.004 54.2405 177.044 54.395 177.083 54.5453C177.26 55.2541 177.774 55.6673 178.311 56.081C178.934 56.5617 179.538 56.4839 180.159 56.1081C180.206 56.0917 180.253 56.0754 180.299 56.0549C180.803 55.9015 180.89 55.9726 180.768 56.4676C180.702 56.735 180.633 57.003 180.536 57.2612C180.518 57.3114 180.503 57.3625 180.492 57.4147C180.337 58.1971 180.327 58.9775 180.52 59.7568C180.59 60.0422 180.703 60.3189 180.663 60.6277C180.528 61.6571 180.867 62.0397 181.894 62.0616C182.336 62.0714 182.789 61.9783 183.218 62.1414C183.666 62.3127 184.089 62.2882 184.502 62.0427C184.554 62.0172 184.603 61.987 184.649 61.9512C185.07 61.6249 185.266 61.0297 185.115 60.5448C185.093 60.4748 185.069 60.4032 184.997 60.396C184.525 60.3537 184.735 60.0263 184.749 59.7814L184.744 59.7875C185.088 59.1468 185.182 58.3981 185.562 57.7732C185.619 57.7563 185.656 57.722 185.666 57.6611L185.665 57.6597L185.667 57.6592C185.732 57.6402 185.797 57.6162 185.84 57.5589C186.248 57.0107 186.757 56.6941 187.459 56.7796C187.645 56.802 187.839 56.8081 188.022 56.7759C188.28 56.7315 188.444 56.757 188.611 57.0245C188.757 57.2587 189.051 57.3645 189.273 57.0265L189.276 57.0225C189.466 57.005 189.55 56.8409 189.675 56.7284C190.202 56.2503 190.944 56.2942 191.38 56.8195L191.377 56.8169C191.434 57.0393 191.575 57.1769 191.786 57.2423C191.862 57.3733 192.067 57.3778 192.073 57.5819C192.102 58.4917 192.634 58.9626 193.436 59.1754C193.668 59.2368 193.763 59.3891 193.849 59.5932C194.039 60.0457 194.039 60.5229 193.999 60.9908C193.945 61.6141 194.25 62.0187 194.681 62.3741C194.946 62.594 195.221 62.6027 195.466 62.3613C195.765 62.0678 196.108 61.8387 196.431 61.5799C196.742 61.3294 197.006 61.0307 197.167 60.6502C197.189 60.6016 197.208 60.552 197.221 60.4999C197.359 60.1102 197.298 59.7389 197.125 59.3784Z" fill="black"/>
<path fill-rule="evenodd" clip-rule="evenodd" d="M158.575 46.9892C158.566 47.3052 158.287 47.4909 158.116 47.7261L157.978 47.7368C157.409 47.3063 156.801 47.5936 156.202 47.613C155.594 47.632 155.042 47.8928 154.447 47.9552L154.417 47.8877L154.444 47.8524C154.548 47.6126 154.639 47.3661 154.761 47.1349C154.9 46.87 154.951 46.6236 154.788 46.3433C154.678 46.1541 154.668 45.949 154.839 45.7639C155.372 45.1866 155.576 44.4358 155.836 43.7184C155.912 43.5061 155.971 43.2882 156.073 43.0832C156.226 42.7748 156.432 42.4844 156.385 42.1075C156.997 42.2031 157.409 42.5279 157.359 43.0065C157.267 43.8948 157.681 44.5565 158.122 45.2295C158.179 45.3165 158.213 45.4249 158.283 45.4964C158.704 45.9285 158.591 46.4748 158.575 46.9892ZM168.353 56.6544C168.241 56.1338 168.184 55.5876 167.842 55.1464L167.821 55.1228L167.834 55.0946C167.498 53.877 166.863 52.8159 166.178 51.7814L166.182 51.7865C166.13 51.537 166.057 51.296 165.906 51.0874L165.837 50.9703C165.806 50.9095 165.778 50.8476 165.749 50.7857L165.689 50.6604C165.491 50.1449 165.045 49.8044 164.789 49.3303C164.48 48.7561 164.523 48.6154 165.076 48.3019L165.192 48.2268C165.259 48.1731 165.318 48.1117 165.378 48.0498L165.421 48.0043L165.507 47.9164L165.549 47.8734L165.639 47.789L165.73 47.6995C165.777 47.6504 165.821 47.5978 165.856 47.5384L165.915 47.406C166.277 46.283 166.189 45.946 165.365 45.3093C165.172 45.1605 164.948 45.0699 164.741 44.9482C164.695 44.9237 164.651 44.9001 164.603 44.8807C164.109 44.6864 163.6 44.5329 163.109 44.3315C162.605 44.1244 162.026 43.9597 161.727 43.4872C161.335 42.8694 161.085 42.1565 160.511 41.6651C160.224 41.0172 160.388 40.2808 160.132 39.6262C160.118 39.5741 160.101 39.5224 160.078 39.4728C160.047 39.3971 160.011 39.323 159.968 39.2534C159.939 39.2064 159.908 39.1619 159.871 39.121C159.528 38.7963 159.311 38.3963 159.35 37.9151C159.389 37.4304 159.432 36.9343 159.677 36.4955C159.934 36.0343 160.081 35.528 160.246 35.0309C160.477 34.3313 160.359 33.7008 159.889 33.1126C159.404 32.5046 158.768 32.3558 158.061 32.3441C158.009 32.343 157.957 32.3512 157.906 32.3696C157.534 32.5108 157.266 32.7603 157.103 33.1336C157.011 33.3438 156.858 33.5106 156.71 33.6813C155.813 34.7118 154.867 35.7157 154.677 37.1788L154.622 37.2667L154.531 37.3828C153.967 38.1739 153.43 38.9824 152.962 39.8369L152.897 39.9668C152.683 40.3606 152.422 40.7257 152.233 41.1348L152.16 41.2612C151.903 41.6569 151.736 42.087 151.659 42.559C151.604 42.9042 151.477 43.23 151.307 43.5353C151.284 43.5787 151.262 43.6227 151.243 43.6687C151.029 44.3269 150.872 45.0208 150.223 45.4126L150.141 45.5348C150.105 45.5998 150.071 45.6662 150.04 45.7348C150.02 45.7808 150 45.8278 149.984 45.8759C149.891 46.1193 149.821 46.373 149.736 46.6194C149.572 47.0971 149.566 47.6663 149.226 48.036C148.811 48.486 148.611 48.978 148.587 49.5722C148.566 49.6198 148.543 49.6673 148.524 49.7154C148.193 50.1291 147.758 50.4758 147.755 51.0905C147.754 51.2495 147.619 51.3692 147.496 51.4663C147.1 51.7773 146.952 52.2064 146.885 52.6942C146.806 53.2619 146.811 53.8484 146.54 54.3787C146.37 54.7122 146.344 55.0732 146.365 55.4506C146.408 56.2049 146.474 56.3005 147.196 56.3368C147.486 56.3517 147.732 56.4309 147.936 56.6416C147.977 56.6759 148.02 56.7086 148.066 56.7362C148.429 57.0022 148.774 57.3095 149.189 57.4731C149.958 57.7764 150.6 57.6531 150.8 56.7833C150.854 56.5444 150.934 56.3113 150.996 56.0745C151.171 55.4174 151.556 54.9668 152.174 54.7111C152.429 54.6058 152.681 54.4994 152.943 54.4145C152.991 54.3961 153.039 54.3766 153.085 54.3532C153.282 54.2463 153.498 54.1823 153.701 54.0862C154.368 53.7671 154.86 53.2972 155.063 52.5382C155.23 51.9133 155.449 51.876 155.886 52.3552C156.293 52.8011 156.977 53.1566 157.528 52.7009L157.639 52.5986C157.694 52.529 157.731 52.4503 157.764 52.3685C158.015 51.7354 158.015 51.7379 158.631 51.9241C159.094 52.0642 159.547 52.0913 159.946 51.7435C160.105 51.6039 160.243 51.607 160.391 51.762C160.854 52.2468 161.432 52.6492 161.466 53.429C161.474 53.607 161.565 53.7702 161.699 53.8878C162.084 54.2284 162.242 54.6912 162.36 55.1724C162.465 55.6009 162.585 56.0203 162.81 56.4007L162.904 56.521C163.325 56.9627 163.795 57.2788 164.404 56.9311C164.868 56.6672 165.356 56.4453 165.782 56.1134L165.893 56.0126C166.317 55.6081 166.358 55.6157 166.595 56.1349C166.674 56.3097 166.728 56.4948 166.794 56.6749C167.008 57.2568 167.213 57.3867 167.842 57.3412C167.891 57.3248 167.937 57.3044 167.982 57.2788C168.215 57.1381 168.417 56.9475 168.353 56.6544Z" fill="black"/>
<path fill-rule="evenodd" clip-rule="evenodd" d="M269.167 46.3059C269.155 46.5028 269.049 46.5539 268.889 46.6184C268.254 46.8771 267.576 47.0034 266.95 47.2908C266.734 47.39 266.511 47.4738 266.189 47.6064C266.329 46.937 266.452 46.3611 266.568 45.7832C266.744 44.9011 267.118 44.108 267.586 43.3547C267.65 43.2519 267.695 43.1363 267.751 43.0284C267.812 42.9107 267.826 42.7405 268.014 42.7538C268.204 42.7666 268.381 42.8003 268.478 43.0095C268.96 44.0533 269.245 45.1383 269.167 46.3059ZM275.867 44.8239C275.832 44.3657 275.636 44.1299 275.254 44.0491C274.65 43.9218 274.08 44.0634 273.553 44.3918L273.545 44.3672L273.553 44.3923C273.187 44.537 272.84 44.7323 272.453 44.8141C271.914 44.9277 271.721 44.7717 271.727 44.223C271.736 43.3991 271.771 42.5687 271.513 41.777C271.342 41.2523 271.399 40.7987 271.677 40.3355C272.074 39.6737 271.923 38.8038 271.346 38.2577L271.349 38.2597C271.337 38.2014 271.3 38.1656 271.246 38.1498L271.247 38.1533L271.242 38.1482L271.246 38.1498C271.231 38.094 271.195 38.0587 271.141 38.0414C271.119 37.9207 271.045 37.8588 270.93 37.8394C270.793 37.442 270.414 37.51 270.128 37.3996L270.121 37.3975C269.963 37.216 269.752 37.1664 269.527 37.15C268.726 37.0938 267.933 36.948 267.134 36.8723L267.131 36.8713C266.316 36.4847 265.627 36.5962 265.042 37.1894C264.852 37.3837 264.818 37.6614 264.654 37.8649C264.364 38.2254 264.302 38.6115 264.54 39.0212C264.638 39.1899 264.656 39.3699 264.573 39.5218C264.441 39.7612 264.44 40.027 264.366 40.2761L264.343 40.3533C264.287 40.449 264.296 40.5574 264.307 40.6576C264.387 41.3173 264.277 41.864 263.548 42.0619H263.545C263.272 42.1013 262.938 42.1467 262.904 42.4638C262.851 42.9798 262.486 43.3117 262.308 43.7479L262.31 43.7464L262.308 43.7495L262.308 43.7479C262.208 43.82 262.139 43.9192 262.102 44.0353C261.79 45.0095 261.12 45.8502 261.072 46.9232L261.077 46.9149C260.826 47.5286 260.392 48.0558 260.256 48.7248L260.263 48.7161L260.255 48.7262L260.256 48.7248C260.1 48.9012 260.212 49.1165 260.183 49.3113C260.162 49.4453 260.219 49.5967 260.097 49.7066C259.609 50.15 259.612 50.8557 259.258 51.3712C259.179 51.4868 259.211 51.6376 259.213 51.7803C259.24 53.07 259.417 54.3705 258.975 55.6305C258.812 56.1383 259.284 56.2166 259.505 56.4728C260.194 57.2736 261.043 57.3406 261.985 57.1059C262.337 57.0184 262.582 56.8604 262.68 56.4968L262.707 56.5091L262.681 56.4943C263.271 56.1419 263.434 55.5523 263.514 54.9177L263.511 54.9192L263.514 54.9161V54.9177C263.878 54.6604 263.788 54.2145 263.929 53.8642L263.927 53.8657L263.93 53.8627L263.929 53.8642C264.201 53.654 264.199 53.3007 264.348 53.026L264.348 53.0245C264.613 52.9539 264.685 52.6056 264.954 52.5622C265.516 52.4706 265.886 52.0754 266.297 51.7327C266.609 51.4724 266.892 51.1569 267.362 51.1733C267.694 51.185 267.847 51.2955 267.809 51.6407C267.684 52.7918 267.975 53.9322 267.89 55.0828C267.884 55.1693 267.914 55.2623 267.963 55.3329C268.153 55.608 268.152 55.9256 268.171 56.2396C268.206 56.7663 268.061 57.2869 268.121 57.8131C268.261 59.0256 268.785 60.1409 270.04 60.1988L270.043 60.1982C270.493 60.4989 271.014 60.4846 271.518 60.5552C272.579 60.7035 272.601 60.7147 272.83 59.6899C273.058 58.6809 273.004 57.6556 272.895 56.6333L272.899 56.642C272.858 56.5724 272.874 56.4733 272.792 56.4257V56.4288L272.79 56.4242L272.792 56.4257C272.71 55.8586 272.795 55.2582 272.473 54.7381L272.475 54.7438C272.449 53.9711 272.473 53.2004 272.357 52.4277C272.251 51.7225 272.464 51.0112 272.451 50.2962C272.441 49.6698 272.521 49.6207 273.107 49.4304C273.52 49.297 273.962 49.1912 274.247 48.8035L274.251 48.8004C274.636 48.6087 274.646 48.2471 274.607 47.8942C274.542 47.3149 274.773 46.8705 275.186 46.5257C275.722 46.0768 275.92 45.5352 275.867 44.8239Z" fill="black"/>
<path fill-rule="evenodd" clip-rule="evenodd" d="M83.8129 48.8962L83.8098 48.8994L83.8066 48.9025L83.8129 48.8962Z" fill="#FBDA1D"/>
<path fill-rule="evenodd" clip-rule="evenodd" d="M105.675 60.0622L105.669 60.056L105.667 60.0542L105.675 60.0622Z" fill="#FBDA1D"/>
<path fill-rule="evenodd" clip-rule="evenodd" d="M128.822 23.574C128.769 23.4734 128.71 23.3757 128.704 23.2597C128.7 23.1417 128.608 23.0989 128.487 23.0886C128.555 22.8306 128.75 22.8598 128.929 22.9688C129.132 23.0919 129.065 23.4063 128.822 23.574Z" fill="#FBDA1D"/>
<path fill-rule="evenodd" clip-rule="evenodd" d="M112.307 47.7324L112.303 47.7361L112.299 47.7404L112.307 47.7324Z" fill="#FBDA1D"/>
<path fill-rule="evenodd" clip-rule="evenodd" d="M94.9855 53.7488L94.9781 53.7551L94.9768 53.7557L94.9855 53.7488Z" fill="#FBDA1D"/>
<path fill-rule="evenodd" clip-rule="evenodd" d="M119.481 59.5177C119.441 59.5276 119.396 59.5252 119.35 59.5224C119.284 59.5201 119.218 59.5149 119.157 59.5444C119.215 59.5135 119.283 59.5182 119.35 59.5224L119.434 59.521L119.481 59.5177L119.572 59.4655C119.65 59.3764 119.515 59.3543 119.477 59.3013C119.547 59.3059 119.604 59.3379 119.603 59.413C119.603 59.5045 119.543 59.5144 119.481 59.5177ZM116.581 51.814C115.901 51.8665 115.901 51.8665 115.549 51.2275C115.397 51.1614 115.244 51.1356 115.088 51.2186L114.988 51.3182C114.746 51.8126 114.404 52.1961 113.88 52.3886C113.813 52.4131 113.769 52.5365 113.708 52.5417C113.042 52.6023 112.853 53.1746 112.555 53.6376C112.426 53.838 112.257 53.9883 111.98 53.9648C111.671 53.9385 111.355 53.9404 111.075 54.1231C110.978 54.1455 110.89 54.2005 110.786 54.1939C110.563 54.008 110.804 53.6136 110.478 53.4737L110.479 53.4788C110.438 53.3728 110.345 53.2807 110.394 53.1502L110.391 53.0906C110.36 52.9891 110.328 52.8873 110.488 52.875L110.512 52.8948L110.593 52.9638L110.603 52.9695C110.647 53.0333 110.732 53.0122 110.783 53.0628L110.791 53.0666C110.982 53.1892 111.154 53.0943 111.328 53.0192C111.484 52.7159 111.514 52.4126 111.33 52.1084C111.198 51.968 111.067 51.8266 110.936 51.6863C110.908 51.5422 110.986 51.4393 111.083 51.3628C111.359 51.1459 111.352 50.8975 111.184 50.6219L111.147 50.5402C111.115 50.442 111.082 50.344 111.166 50.2538C111.615 50.2885 111.623 50.2885 111.621 49.8744C111.62 49.6791 111.695 49.4636 111.524 49.2956C111.494 49.2261 111.493 49.1556 111.521 49.0843C111.86 48.7406 111.998 48.28 112.202 47.8569C112.229 47.8105 112.262 47.7692 112.302 47.7349C112.339 47.6889 112.383 47.6523 112.438 47.632C112.579 47.2888 112.926 47.1339 113.124 46.8437C113.357 46.8306 113.129 46.6259 113.238 46.5611L113.235 46.5602C113.272 46.4301 113.619 46.4949 113.432 46.2184C113.366 46.1207 113.466 46.0437 113.518 45.9677L113.514 45.9681C113.676 45.8756 113.871 45.8432 113.995 45.6836L113.999 45.6794C114.31 45.6944 114.254 46.0076 114.38 46.1723C114.542 46.4404 114.746 46.6846 114.803 47.0114C114.831 47.1616 114.936 47.2706 115.075 47.3189C115.63 47.5137 115.777 47.9819 115.863 48.5044C115.919 48.8444 115.934 49.2054 116.199 49.4716C116.519 49.688 116.578 50.0359 116.639 50.3834C116.702 50.7506 116.766 51.1177 116.828 51.4853C116.871 51.7459 116.833 51.7947 116.581 51.814ZM110.987 58.1294C110.598 58.4162 110.182 58.5125 109.724 58.3167C109.549 58.2125 109.37 58.2416 109.19 58.2988C109.128 58.3044 109.063 58.3252 109.005 58.3134C108.816 58.2758 108.764 58.1622 108.881 58.0228C109.173 57.6744 109.421 57.295 109.64 56.8974C109.725 56.7434 109.802 56.764 109.94 56.8002C110.289 56.8903 110.616 57.0377 110.951 57.1612C111.084 57.4795 111.016 57.8049 110.987 58.1294ZM108.547 43.9295C108.671 43.8032 108.82 43.8473 108.947 43.8558C109.206 43.8722 109.255 43.7474 109.263 43.5069C109.276 43.1379 109.153 42.8614 108.896 42.6083C108.581 42.298 108.159 42.1191 107.916 41.7167C107.823 41.5618 107.642 41.6359 107.376 41.8998C107.241 42.1256 107.045 42.2966 106.869 42.4858C106.664 42.6299 106.672 42.8825 106.612 43.0863C106.509 43.4295 106.32 43.6342 105.957 43.7117C105.866 43.5314 105.918 43.2557 105.673 43.1567C105.542 43.0548 105.415 43.037 105.3 43.1816C105.099 43.5337 105.099 43.5337 104.569 43.1816C104.682 42.9605 104.796 42.7356 104.911 42.5111C104.949 42.459 104.993 42.4154 105.055 42.3937C105.633 41.9895 106.213 41.5904 106.786 41.1796C107.105 40.95 107.106 40.612 106.772 40.3983C106.493 40.2194 106.273 39.9565 105.958 39.8312C105.856 39.7903 105.772 39.7162 105.751 39.5889C105.711 39.3523 105.508 39.18 105.494 38.9048C105.882 38.8602 106.249 38.7748 106.343 38.3034C106.352 38.2546 106.39 38.2292 106.442 38.2194C106.596 38.1907 107.063 38.409 107.13 38.5494C107.169 38.6325 107.234 38.7452 107.092 38.7785C106.941 38.8147 106.879 38.8889 106.883 39.0419C106.889 39.2166 106.867 39.3865 106.997 39.5419C107.126 39.6955 107.312 39.749 107.454 39.8734C107.579 39.9612 107.682 39.9246 107.769 39.8109C107.985 39.7495 107.771 39.4044 108.04 39.3786C108.109 39.4659 108.199 39.5438 108.244 39.6429C108.401 39.987 108.634 40.218 109.013 40.2847C109.182 40.3143 109.302 40.4275 109.265 40.6246C109.219 40.866 109.355 41.0814 109.318 41.3364C109.287 41.5576 109.54 41.6749 109.748 41.6933C109.96 41.7125 110.042 41.7927 110.146 41.9975C110.375 42.4501 110.661 42.8882 111.234 42.9605C111.4 42.982 111.436 43.0858 111.378 43.2379C111.338 43.3422 111.323 43.4558 111.246 43.5445C111.138 43.668 111.155 43.806 111.215 43.9455C111.268 43.9638 111.309 44.0013 111.355 44.0305L111.444 44.0516C111.539 44.1168 111.642 44.1681 111.731 44.2427L111.729 44.2413C111.865 44.3286 111.981 44.4436 112.111 44.539L112.224 44.6075C112.532 44.5756 112.617 44.7511 112.604 45.0235C112.634 45.0901 112.634 45.1667 112.667 45.2324C112.618 45.3474 112.549 45.4446 112.419 45.3474C112.103 45.1103 111.74 45.0432 111.364 44.9897C111.089 44.9507 110.824 44.885 110.574 44.7254C110.235 44.5094 109.841 44.56 109.48 44.6732C109.29 44.7329 109.162 44.7131 109.08 44.5582C108.95 44.3122 108.74 44.1431 108.547 43.9295ZM108.605 47.056C108.241 47.2879 107.882 47.5321 107.423 47.5419C107.35 47.2015 107.711 47.0565 107.666 46.77C107.746 46.5503 107.714 46.3325 107.669 46.1104C107.635 45.946 107.699 45.8972 107.842 45.9987L107.839 45.9944C107.886 46.0165 107.915 46.054 107.936 46.0996C108.147 46.2761 108.254 46.5376 108.433 46.74C108.479 46.8522 108.768 46.8255 108.605 47.056ZM105.336 57.4457C105.158 57.5997 104.881 57.5199 104.648 57.4969C104.533 57.4856 104.519 57.3739 104.519 57.2739C104.517 56.9739 104.613 56.6973 104.787 56.4691C105.061 56.1096 105.232 56.1288 105.539 56.4941C105.689 56.672 105.851 56.8391 106.026 57.0311C105.793 57.1856 105.542 57.2664 105.336 57.4457ZM103.879 39.9959L103.773 40.0045C103.653 40.0255 103.532 40.0462 103.412 40.0668L103.301 40.0847C102.982 40.1377 102.652 40.1462 102.364 40.3284C102.337 40.3753 102.304 40.4176 102.268 40.4575C102.163 40.5763 102.074 40.719 101.95 40.8092C101.521 41.1204 101.332 41.5843 101.113 42.0454C100.898 42.498 100.648 42.9487 100.334 43.3299C100.167 43.5319 100.283 43.8657 100.05 43.9347C99.8558 43.9924 99.6135 43.7906 99.4032 43.9812L99.3592 43.9962C99.0734 44.0764 99.1838 43.8891 99.2081 43.7605C99.2118 43.5619 99.2965 43.3548 99.1453 43.1736C98.8787 42.6468 98.3387 42.4881 97.8865 42.2252C97.6684 42.0984 97.4568 41.9782 97.2791 41.7984C97.1857 41.6843 97.1275 41.5524 96.9277 41.5618C96.4605 41.5848 95.9909 41.5702 95.5224 41.5688C95.3478 41.5683 95.221 41.6374 95.1536 41.8064L95.1559 41.805C95.0831 41.8904 95.1605 42.0276 95.0583 42.1027C94.8471 42.3524 94.739 42.6773 94.4816 42.8966C94.3401 43.0182 94.259 43.7859 94.3401 43.9506C94.3726 44.0173 94.4312 44.0272 94.494 44.0305C94.6181 44.0384 94.7427 44.0464 94.8673 44.0544L94.92 44.1088L94.8998 44.152C94.6433 44.4483 94.2783 44.6441 94.1289 45.0427C94.0959 45.1296 94.0162 45.2028 94.04 45.3052C94.0693 45.4329 93.963 45.6061 94.1504 45.6822C94.3277 45.7545 94.5801 45.677 94.6854 45.523C94.7597 45.4164 94.7587 45.2226 94.9658 45.2718L95.0766 45.2784C95.1637 45.2921 95.2507 45.3052 95.3377 45.3193C95.4147 45.3789 95.3996 45.4362 95.3341 45.4925C94.9095 45.6254 94.5746 45.908 94.2063 46.1404C93.7729 46.4137 93.6726 46.7362 93.6502 47.1719L93.6332 47.2673C93.6126 47.4194 93.7162 47.6339 93.5494 47.709C93.3561 47.7955 93.3112 47.5701 93.226 47.4438C93.1215 47.2907 92.9443 47.3175 92.8421 47.3884C92.4129 47.6884 92.04 48.0509 91.8385 48.5593C91.822 48.6016 91.8358 48.6561 91.8353 48.7044C91.7546 48.8932 91.5705 49.0007 91.478 49.1805C91.3199 49.5796 91.3786 49.9195 91.7254 50.1923C91.8091 50.2585 91.8691 50.3571 91.9402 50.4406C91.947 50.5444 91.9461 50.6487 91.9465 50.752C91.7739 50.8703 91.581 50.9266 91.3781 50.951C91.3108 50.9848 91.2357 50.9872 91.1651 51.0069C90.3048 51.0243 90.3048 51.0243 90.3117 51.8961C90.3126 52.0093 90.3131 52.122 90.3167 52.2351C90.32 52.3253 90.2943 52.3868 90.199 52.4084C89.9374 52.4661 89.7854 52.6915 89.5902 52.845C89.314 53.0628 89.2499 53.4183 89.2013 53.7403C89.1565 54.0371 89.1642 54.3512 89.2159 54.6559C89.2595 54.9142 89.3337 55.1541 89.5545 55.3161C89.6855 55.4118 89.7575 55.5579 89.8545 55.6827C90.074 56.055 89.7084 56.0344 89.5522 56.1546C89.2989 56.1443 89.0694 56.3274 88.8069 56.2499C88.7139 56.1983 88.6301 56.1306 88.5334 56.0856C88.091 56.0184 87.6324 55.9931 87.3213 55.5884L87.2467 55.5311C86.8949 55.3428 86.8944 55.3433 86.9389 54.9452C86.9979 54.8372 86.9632 54.7104 87.0053 54.5991C86.9403 54.4554 86.894 54.2995 86.8078 54.1719C86.6218 53.8953 86.6118 53.8982 86.8591 53.7104C87.0809 53.5418 87.315 53.3892 87.506 53.1807C87.7483 53.0159 87.822 52.7581 87.8688 52.4859C87.9027 52.4262 87.9361 52.3671 87.9695 52.3079C88.003 52.2614 88.0433 52.2229 88.0859 52.1863C88.2687 51.9365 88.3891 51.6689 88.3584 51.343C88.3465 51.2172 88.3465 51.0693 88.5293 51.0572C89.0661 51.021 89.2073 50.6214 89.2055 50.1857C89.2036 49.8453 89.3488 49.6434 89.5737 49.4547C89.6095 49.2368 89.4084 48.9387 89.7744 48.8316C90.2952 48.7744 90.3209 48.7236 90.1244 48.1363C90.0868 48.0913 90.0474 48.048 90.0007 48.0123C89.8807 47.9339 89.7936 47.9729 89.729 48.0927C89.6965 48.2274 89.7148 48.3739 89.6525 48.4969C89.6017 48.5969 89.5389 48.7312 89.4052 48.5701L89.3754 48.511C89.2013 48.3758 89.0928 48.2542 89.2549 48.0034C89.4734 47.6663 89.2801 47.2583 89.3644 46.8902C89.5545 46.7658 89.7739 47.07 89.9581 46.8494C90.1775 46.5855 90.4386 46.3663 90.6057 46.047C90.8449 45.5921 90.8 45.4423 90.2847 45.3469C90.3081 45.0765 90.4789 44.9333 90.6942 44.8211C90.9205 44.7023 91.0817 44.5446 90.9966 44.2507C90.921 44.1098 90.7308 44.176 90.648 44.0479C91.1696 43.8938 91.2389 43.4497 91.2911 42.9947C91.3561 42.8773 91.4825 42.8534 91.5847 42.7928C91.7391 42.7417 91.8939 42.6914 92.0483 42.6412C92.4743 42.4849 92.3937 42.1421 92.3396 41.8097C92.0524 41.1561 91.5756 40.7415 90.8953 40.5584C90.4001 40.4251 89.8889 40.3406 89.4693 39.9833C89.3094 39.8471 89.0625 39.7565 88.905 40.049C88.647 40.3448 88.4615 40.6899 88.2691 41.0308C88.2237 41.0754 88.1857 41.1346 88.1322 41.1627C87.9169 41.2763 87.6131 41.2599 87.5784 41.1171C87.5211 40.8805 87.7172 40.8106 87.8866 40.7251C88.3777 40.4763 88.4629 40.2294 88.248 39.7265C88.1266 39.441 88.1473 39.3786 88.4606 39.4086C89.3213 39.4908 90.1312 39.2743 90.9415 39.0321C91.0007 39.0532 91.0574 39.0424 91.1124 39.0161C91.6365 38.9908 92.1573 38.9029 92.6845 38.9311C92.8682 38.9405 93.0565 38.8992 93.1568 39.132C93.2086 39.2532 93.3406 39.2246 93.4481 39.219C93.57 39.1931 93.4724 39.0504 93.5567 39.0048C93.6905 38.9029 93.8471 38.9386 93.9965 38.9264C94.2173 38.9086 94.4161 38.848 94.5237 38.6232C94.5659 38.5644 94.6227 38.5297 94.6905 38.5119C94.7954 38.487 94.9076 38.4954 95.0066 38.4471C95.1632 38.3715 95.2448 38.2386 95.214 38.064C95.1742 37.8381 95.0111 37.8682 94.8531 37.9114C94.7707 37.9334 94.6877 37.9856 94.6067 37.9104L94.609 37.863C94.74 37.6456 94.5797 37.3038 94.8939 37.1658C95.1674 37.4521 95.6634 37.471 95.7793 37.948C95.8613 38.2856 95.952 38.6161 96.1169 38.9283C96.2622 39.2044 96.4587 39.3208 96.7537 39.3021C96.8778 39.2941 97.0029 39.3053 97.1279 39.3081C97.1967 39.3317 97.2681 39.3424 97.3382 39.3569C97.8994 39.3302 98.3432 39.6532 98.8091 39.8922C99.1632 40.0725 99.3758 40.0598 99.6286 39.7715C99.7096 39.6781 99.8246 39.6166 99.924 39.5405C99.985 39.5349 100.046 39.5307 100.101 39.5011C100.406 39.4556 100.723 39.4574 100.978 39.2349C101.124 39.1063 101.245 38.9813 101.197 38.748C101.165 38.5847 101.124 38.3997 101.271 38.217C101.571 38.4522 101.673 38.8419 101.937 39.0945C102.001 39.1171 102.047 39.1626 102.082 39.2208C102.33 39.2865 102.546 39.2302 102.706 39.0231C102.77 38.9419 102.844 38.8959 102.933 38.8621C103.291 38.724 103.437 38.4597 103.405 38.071C103.387 37.8489 103.401 37.6245 103.401 37.3583C104.259 37.6221 104.775 38.2607 105.357 38.8236C105.248 38.9358 105.099 38.9142 105.046 39.0607C104.845 39.6133 104.39 39.8438 103.879 39.9959ZM96.8582 49.4599C96.9328 49.5289 96.9195 49.6082 96.8838 49.6904C96.8301 49.8707 96.8472 50.0566 96.8449 50.2411C96.8128 50.3317 96.8265 50.4275 96.8137 50.5205C96.7954 50.6482 96.777 50.7754 96.7583 50.9036C96.7331 50.9811 96.7184 51.059 96.7491 51.1393C96.6836 51.6412 96.6497 51.6745 96.1664 51.6792C95.9938 51.6806 95.8206 51.6792 95.6483 51.6694C95.5691 51.6642 95.4935 51.6276 95.4807 51.5318C95.4674 51.4314 95.5361 51.367 95.6149 51.3708C95.9534 51.3844 96.029 51.1313 96.0982 50.8801C96.2136 50.4656 96.3474 50.0622 96.5915 49.7022C96.6648 49.5932 96.7147 49.4787 96.8582 49.4599ZM96.8558 47.8541C96.887 47.786 96.9309 47.7762 96.9873 47.8241C97.5186 47.8494 97.5182 47.8494 97.5681 47.3044C97.5732 47.2569 97.5883 47.2104 97.5989 47.164L97.6103 47.0414C97.619 46.8907 97.6277 46.74 97.6369 46.5897C97.6712 46.5222 97.6776 46.448 97.69 46.3747V45.7348C98.0235 45.7348 98.2924 45.8385 98.5686 45.8879L98.6634 45.8949C98.7454 45.9728 98.8714 45.9029 98.952 45.9836L98.9543 45.985C99.0917 46.0325 99.1911 46.1198 99.2355 46.2653C99.334 46.4231 99.5049 46.4714 99.6515 46.5574C99.7454 46.6123 99.8398 46.672 99.9172 46.7475C100.017 46.8456 100.12 46.9658 100.079 47.118C100.031 47.2898 99.8709 47.2011 99.7591 47.2236C99.7134 47.2326 99.6675 47.241 99.6222 47.2499L99.5146 47.2809C99.3922 47.2639 99.2699 47.2447 99.1471 47.2307C98.9901 47.2123 98.8704 47.2687 98.8214 47.4307C98.6583 47.9663 98.2438 48.118 97.7606 48.1725C97.6855 48.1814 97.614 48.2213 97.5402 48.2467C97.4939 48.2551 97.4747 48.3302 97.4138 48.3006C97.3199 48.3692 97.2269 48.4378 97.1339 48.5063C97.0359 48.5748 97.2214 48.8124 96.9727 48.7913C96.7514 48.5026 96.9154 48.164 96.8558 47.8541ZM96.0968 45.8235C96.1618 45.8442 96.2287 45.8423 96.2956 45.8329C96.4583 45.7348 96.5539 45.7493 96.5242 45.9752C96.4436 46.0559 96.4729 46.1944 96.3789 46.2691C96.3153 46.3062 96.2979 46.3686 96.291 46.4371C96.2493 46.6611 96.204 46.885 96.3052 47.1057C96.3877 47.2151 96.532 47.2785 96.5507 47.4532C96.4482 47.587 96.2603 47.5184 96.1371 47.6288C96.012 47.7414 96.0556 47.902 95.9869 48.0147C95.8654 48.2166 95.6492 48.1058 95.4747 48.1203C95.3172 48.134 95.1907 48.049 95.187 47.8758C95.1788 47.4607 95.1843 47.0452 95.1907 46.6297C95.1967 46.2752 95.5302 46.3095 95.7194 46.1719C95.7656 46.147 95.806 46.1132 95.8416 46.0743L95.9108 46.0062C95.854 45.8193 95.8687 45.7076 96.0968 45.8235ZM101.55 58.2345C101.367 58.582 101.297 58.9867 101.031 59.2891C100.876 59.3754 100.69 59.2684 100.537 59.3731C100.494 59.3754 100.45 59.3778 100.407 59.3801C100.284 59.358 100.349 59.2271 100.29 59.1674L100.201 59.0608C100.098 58.9833 100.07 58.8538 99.9991 58.7542C99.6359 58.5946 99.2424 58.519 98.9309 58.2228C98.7404 58.0415 98.4756 58.0331 98.2525 58.2435C98.1738 58.3177 98.0807 58.3763 97.9799 58.4523C97.8306 58.3387 97.8796 58.1228 97.7559 58.0068C97.6158 57.7711 97.5865 57.5026 97.5361 57.2406L97.5333 57.2364C97.3634 56.9898 97.2809 56.6851 97.0533 56.4767C96.9419 56.3382 96.8187 56.2339 96.6236 56.264C96.5343 56.2781 96.4403 56.2659 96.3478 56.2659C95.8888 56.2654 95.8888 56.2654 95.7257 55.7954C95.593 55.4809 95.3666 55.6461 95.165 55.6794L95.0826 55.7602C94.603 55.8785 94.1234 55.8776 93.6438 55.7602C93.5531 55.6682 93.5632 55.5471 93.554 55.4316C93.6644 55.2837 93.8105 55.364 93.9447 55.3682C94.0643 55.3339 94.1889 55.3118 94.302 55.2616C94.7826 55.0489 94.9186 54.6869 94.7175 54.1705L94.6373 54.1259C94.5192 53.9925 94.6525 53.9859 94.7225 53.9479C94.7743 53.9103 94.8256 53.8728 94.8774 53.8357L94.9777 53.7531C95.0148 53.7047 95.0597 53.6671 95.1179 53.6488C95.1641 53.5521 95.21 53.4554 95.2562 53.3582C95.3547 53.2492 95.4184 53.0793 95.6149 53.1347C95.7578 53.3413 95.8114 53.5408 95.5617 53.7071C95.3305 53.8606 95.3172 54.0953 95.3116 54.3451C95.3085 54.5043 95.368 54.609 95.51 54.6193C96.0551 54.6587 96.3162 55.1216 96.6685 55.4367C96.9369 55.6771 97.2053 55.8546 97.5681 55.895C97.8915 55.9311 98.2062 56.0081 98.482 56.219C98.641 56.3405 98.8311 56.4344 99.0445 56.4339C99.2049 56.3865 99.3771 56.4565 99.5333 56.3814C99.7624 56.3466 99.9795 56.2692 100.218 56.2687C100.488 56.2682 100.705 56.3368 100.869 56.557C100.992 56.664 101.019 56.8443 101.151 56.9448C101.29 57.1664 101.322 57.4377 101.518 57.6439C101.658 57.7895 101.64 58.0632 101.55 58.2345ZM86.2357 43.2952C86.1583 43.2914 86.1134 43.2027 86.113 43.1121V42.6285H86.1225C86.1225 42.5159 86.1171 42.4032 86.124 42.291C86.1404 42.0078 86.1807 41.9942 86.429 42.0764C86.7007 42.1665 86.8005 42.4051 86.9054 42.6248C86.9869 42.7947 87.0309 43.0276 86.8582 43.1623C86.6864 43.2971 86.4515 43.3051 86.2357 43.2952ZM85.2325 48.3743C85.1464 48.7185 84.9998 49.034 84.8331 49.3416L84.7401 49.4453C84.2797 49.4787 84.3814 49.8688 84.31 50.1477L84.3008 50.2684C84.1991 50.6041 83.9838 50.8416 83.7039 51.036C83.4222 51.2313 83.1537 51.4482 82.8812 51.6577C82.7089 51.7895 82.6815 52.0112 82.5761 52.1844C82.5299 52.236 82.527 52.3004 82.523 52.3648C82.4424 52.7614 82.4818 53.13 82.7731 53.4342C82.872 53.538 82.8698 53.6647 82.8698 53.7939C82.8698 53.9873 82.8789 54.1808 82.8693 54.3732C82.8532 54.6733 82.9334 54.9052 83.1322 55.1555C83.4231 55.5231 83.6265 55.9645 83.8523 56.3828C83.9292 56.5255 83.8885 56.6992 83.894 56.8594C83.7951 57.0185 83.6732 57.1537 83.506 57.2387C83.3163 57.3481 83.085 57.3875 82.9494 57.5875C82.9055 57.797 82.8404 58.0077 82.9764 58.2092C83.0924 58.3167 83.0493 58.4796 83.107 58.6115C83.1753 58.7684 83.1212 58.8914 82.9169 58.8876C82.7167 58.8843 82.5715 59.0294 82.4034 59.1092C82.2197 59.197 82.0117 59.2463 81.8794 59.0838C81.6948 58.8575 81.4698 58.8853 81.238 58.8811C81.1441 58.8792 81.0502 58.8806 80.9563 58.8811C80.3521 58.8857 80.3484 58.8843 80.123 59.4984C80.0241 59.7679 79.8011 59.6111 79.6407 59.6647C79.5683 59.7553 79.4273 59.6628 79.3622 59.7736L79.3663 59.7712C79.3058 59.8121 79.2262 59.8012 79.168 59.8473C79.1126 59.8562 79.0571 59.8647 79.0022 59.8736L78.9138 59.9008L78.8409 59.8468L78.7914 59.7679L78.7851 59.7623C78.4337 59.814 78.0709 59.8031 77.7461 59.9886C77.6664 60.0337 77.5404 60.0426 77.4956 59.9543C77.4575 59.8801 77.4754 59.7642 77.4969 59.674C77.5276 59.5439 77.6375 59.5759 77.7255 59.5971C78.1135 59.6923 78.4974 59.6755 78.8789 59.5646L78.8816 59.5628L78.9714 59.4716L78.9774 59.4637C79.0915 59.2853 79.1103 59.0759 79.157 58.8764C79.146 58.5195 79.233 58.2031 79.479 57.9349C79.5487 57.8593 79.5688 57.7373 79.6119 57.6363C79.6059 57.5931 79.6128 57.5514 79.6347 57.5124C79.6407 57.4002 79.6453 57.2875 79.6508 57.1748C79.6623 57.127 79.6994 57.0913 79.7067 57.042C79.7136 56.4509 79.7177 55.8602 79.7278 55.2695C79.7337 54.9231 79.7379 54.9156 80.0626 54.91C80.2518 54.9071 80.4368 54.91 80.599 54.7897C80.6723 54.7667 80.7507 54.7559 80.8166 54.7118C81.1927 54.3466 81.381 53.9024 81.3516 53.3676C81.4075 53.2986 81.3864 53.2202 81.3796 53.1431C81.7213 52.4347 82.1716 51.7792 82.3814 51.0069C82.413 50.8909 82.4799 50.8139 82.556 50.7327C82.6219 50.6623 82.6727 50.5778 82.5898 50.4805C82.6095 50.4383 82.6302 50.3961 82.6512 50.3538C82.7172 50.0496 82.5546 49.6547 82.9751 49.4895C83.2839 49.4345 83.4932 49.2214 83.7048 49.0101L83.8097 48.8988L83.9063 48.7988L83.9022 48.8054L84.0104 48.6997C84.1317 48.4289 84.3329 48.2335 84.5802 48.087C84.7598 47.981 84.9393 47.9964 85.1175 48.1007C85.2275 48.165 85.2664 48.2372 85.2325 48.3743ZM76.9426 53.7521C76.4731 53.877 76.2284 54.1803 76.2408 54.6869C76.2477 54.97 76.2019 55.2278 76.0773 55.4757C76.113 55.6184 76.0549 55.724 75.9495 55.8105C75.8514 55.8395 75.7525 55.8376 75.655 55.8095C75.332 55.8691 75.2533 56.0621 75.2555 56.394C75.2605 57.0734 75.5707 57.595 75.9459 58.1096C76.162 58.4068 76.3659 58.7045 76.6733 58.9144C76.7914 58.9956 76.7727 59.1111 76.6605 59.1909C76.5322 59.2824 76.3952 59.3623 76.2344 59.3843L76.1309 59.3951C75.6559 59.5421 75.1919 59.4989 74.7365 59.3111C74.5707 59.3529 74.393 59.2782 74.2322 59.3679C74.0398 59.3647 73.9298 59.5177 73.7841 59.6059C73.6051 59.7144 73.5011 59.6426 73.4731 59.428C73.4236 59.05 73.6728 58.7632 73.7571 58.4256C73.7805 58.3345 73.8758 58.2458 73.8653 58.1655C73.8102 57.7265 74.0947 57.4561 74.3137 57.1509L74.3302 57.0382C74.3581 56.8673 74.3856 56.6968 74.4131 56.5255C74.4342 56.3954 74.4795 56.257 74.5835 56.1968C74.9024 56.0119 75.0489 55.71 75.1928 55.3888C75.3595 55.0156 75.7429 54.7761 75.8253 54.3456C75.8574 54.1789 75.7461 53.9901 75.8977 53.8418L75.9614 53.7709C76.5386 53.4479 76.747 52.8563 76.9733 52.2863C77.0988 51.9722 77.293 51.7976 77.6128 51.7736C77.6929 51.859 77.6701 51.9703 77.6302 52.0088C77.2844 52.3431 77.3567 52.7732 77.3577 53.1864C77.3577 53.6409 77.3604 53.6409 76.9426 53.7521ZM73.0054 43.2675L73.0338 43.191C73.0448 43.1393 73.0814 43.1074 73.119 43.0765C73.3091 42.6698 73.6797 42.4839 74.0398 42.2858C74.2225 41.9834 74.5808 41.9299 74.8194 41.705C74.9321 41.5993 75.0673 41.5176 75.1923 41.4256C75.3096 41.3604 75.3943 41.3599 75.3916 41.5317C75.3439 41.9064 75.1039 42.0684 74.7677 42.1256C74.513 42.1684 74.2825 42.2534 74.1616 42.5154C74.1538 42.7365 74.19 42.9647 73.8345 42.9328C73.6087 42.913 73.4887 43.168 73.3091 43.2811C73.2079 43.2778 73.0975 43.5027 73.0054 43.2675ZM80.1135 43.0252C80.1349 42.9557 80.1803 42.9083 80.2435 42.8768C80.501 42.4905 80.932 42.3956 81.3099 42.2149C81.4515 42.1477 81.6095 42.1172 81.7364 42.0158C81.7777 41.9449 81.8711 41.9698 81.9188 41.9116L81.9897 41.8998C82.0731 41.9623 82.0617 42.036 82.0135 42.1139C82.0401 42.4674 81.8666 42.6501 81.5371 42.7004L81.4364 42.713C81.1698 42.8078 80.8556 42.8502 80.8587 43.2506C80.8262 43.3009 80.8432 43.3501 80.8647 43.3985C80.8281 43.4882 80.9032 43.6131 80.7822 43.6765L80.6769 43.6642C80.5866 43.6417 80.4968 43.6187 80.4071 43.5962L80.2999 43.5905C79.8739 43.4769 79.867 43.4558 80.1135 43.0252ZM82.8194 41.1815C82.906 41.1439 83.0085 41.1285 83.0466 41.2477C83.0805 41.3552 83.0819 41.4749 82.9462 41.5172C82.829 41.5538 82.7058 41.5571 82.5463 41.5045C82.6008 41.3406 82.6892 41.2383 82.8194 41.1815ZM83.7085 39.7772L83.8102 39.6786L83.9073 39.5814L83.9013 39.587L83.9989 39.4833L83.9966 39.4903C84.0333 39.4443 84.0768 39.4072 84.1312 39.3847C84.2902 39.3795 84.3104 39.5246 84.3163 39.6166C84.3352 39.9307 84.4377 40.2387 84.3883 40.5579L84.3818 40.5665C84.0561 40.5903 83.8413 40.3514 83.6136 40.1837C83.4588 40.0697 83.6535 39.9114 83.7085 39.7772ZM71.5661 62.0145C71.2528 61.9446 70.9115 61.9333 70.7086 61.6041C70.6202 61.4605 70.4653 61.4042 70.3009 61.3901C70.1612 61.2798 70.0416 61.1562 70.0302 60.9605C70.0994 60.8962 70.2249 60.8342 70.2285 60.7661C70.2464 60.4112 70.4745 60.4131 70.721 60.4239C70.9358 60.4337 71.1731 60.3807 71.2537 60.6886C71.2721 60.7572 71.3444 60.8403 71.41 60.8624C71.8598 61.0159 71.7975 61.4361 71.8634 61.7784C71.8987 61.9634 71.769 62.0601 71.5661 62.0145ZM69.4297 51.8027C69.426 51.898 69.4154 51.9938 69.42 52.0891C69.4324 52.3445 69.3541 52.4061 69.0751 52.4399C68.6825 52.4873 68.1695 52.4713 68.0637 53.0647C67.7691 53.301 67.7018 53.7845 67.2506 53.8507C67.1521 53.623 67.1855 53.3915 67.2327 53.1601C67.3719 52.6948 67.6899 52.3962 68.109 52.2079C68.4906 52.0365 68.8667 51.8558 69.2304 51.6478C69.2721 51.5642 69.3289 51.5525 69.4017 51.6074C69.475 51.6633 69.4594 51.7318 69.4297 51.8027ZM66.9803 60.1398C66.7961 60.4745 66.4933 60.3966 66.2061 60.3732C66.1012 60.3389 65.9867 60.3219 65.8932 60.2675C65.4411 60.0041 64.9427 60.1126 64.4668 60.0942C64.1755 60.0835 63.9836 60.337 63.8191 60.6614C63.6817 60.2999 63.6954 59.9961 63.7614 59.7111C63.8653 59.2628 63.946 58.8031 64.1644 58.3895C64.1938 58.3326 64.2153 58.2711 64.2337 58.2097C64.2854 58.0326 64.18 57.7758 64.3761 57.6871C64.536 57.6152 64.7463 57.6594 64.9341 57.6556C65.2831 57.6491 65.5488 57.441 65.8209 57.2584C65.9505 57.1706 66.055 57.0439 66.2524 57.0654C66.0729 58.0918 66.4008 58.8768 67.3124 59.3754C67.3678 59.4046 67.4049 59.4492 67.4219 59.5111C67.1897 59.6576 67.2263 60.0027 66.9803 60.1398ZM121.233 54.2883C121.307 53.8859 121.457 53.523 121.63 53.1573C121.887 52.6149 122.203 52.099 122.187 51.4435C122.158 50.3163 122.161 50.2895 121.063 50.4003C120.721 50.435 120.456 50.3641 120.266 50.0402C119.968 49.527 119.62 49.0383 119.792 48.3809C119.833 48.2269 119.804 48.0584 119.707 47.9166C119.585 47.7762 119.396 47.7152 119.291 47.5532C119.231 47.478 119.172 47.394 119.087 47.356C118.51 47.0954 118.264 46.6142 118.179 46.0034C118.152 45.8254 118.117 45.6136 117.906 45.5277C117.852 45.4916 117.801 45.4521 117.751 45.4127C117.7 45.3705 117.646 45.3376 117.583 45.3193C117.49 45.2667 117.366 45.3507 117.282 45.2503C117.437 45.1488 117.456 45.0183 117.394 44.8362C117.237 44.3797 117.068 43.9737 116.661 43.6413C116.29 43.338 116.022 42.922 115.538 42.7313C115.055 42.5421 114.521 42.3694 114.36 41.7463C114.332 41.6402 114.219 41.5683 114.11 41.5374C113.717 41.4261 113.642 41.1857 113.757 40.7984C113.901 40.3199 113.807 40.1499 113.353 39.9978C113.093 39.9105 112.889 39.7575 112.81 39.502C112.636 38.9283 112.244 38.764 111.7 38.7264C111.371 38.7039 110.983 38.6536 110.8 38.2884C110.62 37.9282 110.317 37.7536 109.978 37.6038C109.616 37.4446 109.205 37.3851 108.892 37.1376C108.611 36.9155 108.322 36.8094 107.976 36.8409C107.625 36.8733 107.378 36.7207 107.188 36.4188C107.023 36.1568 106.815 35.9333 106.473 35.9343C105.552 36.0038 105.601 35.8915 105.523 36.8559C105.279 36.8691 105.285 36.6521 105.242 36.5033C105.185 36.3019 105.149 36.0971 104.973 35.9606C104.789 35.8563 104.654 35.6844 104.469 35.5831C104.392 35.5502 104.304 35.5619 104.231 35.515C104.153 35.5427 104.075 35.5455 103.997 35.5159C103.566 35.6553 103.136 35.63 102.705 35.5192L102.665 35.5145C102.618 35.5498 102.57 35.5436 102.522 35.5169C102.434 35.5408 102.348 35.5426 102.265 35.4962L102.186 35.3981C102.123 35.1464 101.977 34.9619 101.753 34.8417C101.617 34.8121 101.504 34.7379 101.384 34.6684C101.1 34.5051 100.809 34.4571 100.541 34.7163C100.465 34.7614 100.479 34.968 100.314 34.8502C99.75 33.806 98.7674 33.4896 97.7184 33.289C97.6167 33.3036 97.515 33.3247 97.4129 33.2951C97.3341 33.2782 97.2534 33.2792 97.1733 33.2764C97.0917 33.2787 97.0143 33.2609 96.9383 33.2337C96.8096 33.2482 96.7042 33.1829 96.5948 33.1308C96.4734 33.1026 96.3515 33.1289 96.2296 33.1285C96.1407 33.1416 96.0725 33.0928 96.0024 33.051C95.5045 32.8599 94.9828 32.9984 94.4743 32.9402C94.4344 32.8763 94.3134 33.0914 94.3134 32.8919C94.0693 32.7811 93.8266 32.842 93.5828 32.8998C93.5086 32.9304 93.433 32.9571 93.3538 32.9735C93.2956 32.9843 93.2379 32.9955 93.1807 33.0116C93.1234 33.0242 93.0657 33.036 93.007 33.0289C92.5797 32.789 92.1472 32.5594 91.647 32.5252C91.5472 32.535 91.4473 32.5472 91.3484 32.5181C91.2091 32.496 91.0657 32.5002 90.9278 32.4664C90.8439 32.5214 90.7675 32.4482 90.6873 32.4519C90.5197 32.4603 90.3488 32.4307 90.183 32.4824C89.379 32.5016 88.5746 32.528 87.7703 32.4678C86.9988 32.4759 86.2421 32.6026 85.4854 32.7397C85.3937 32.7561 85.3008 32.7561 85.2087 32.7599C85.0493 32.7641 84.8903 32.7636 84.7327 32.7937C84.6265 32.8214 84.5183 32.8238 84.4112 32.8059C84.2178 32.7862 84.0369 32.8491 83.8583 32.905C83.5142 33.0111 83.2119 33.2318 82.8446 33.2773C82.4446 33.3275 82.0882 33.4689 81.829 33.8144C81.6819 34.0107 81.4547 34.0971 81.2426 34.2041C80.9751 34.3393 80.6641 34.3609 80.4185 34.5478C80.3883 34.6388 80.3411 34.6628 80.2692 34.5877C79.9815 34.5675 79.6998 34.6107 79.4204 34.6759C78.7882 34.9008 78.1936 35.2159 77.5798 35.4849C77.4841 35.5431 77.3796 35.561 77.2711 35.5563C77.2083 35.5572 77.1451 35.5591 77.0828 35.5596C76.4886 35.5638 76.0393 35.9958 75.4896 36.1253C74.9408 36.2558 74.5606 36.585 74.3554 37.1164C74.2835 37.3019 74.1781 37.4146 73.9871 37.4446C73.906 37.4653 73.83 37.4982 73.7567 37.5381L73.6582 37.6L73.5753 37.6728L73.5382 37.7108L73.4667 37.7846L73.4319 37.8202L73.3623 37.8911L73.3275 37.9268L73.2629 38.0029L73.207 38.0874C73.1717 38.1466 73.13 38.201 73.0842 38.2518L73.048 38.2903L72.9715 38.3663L72.9307 38.4034L72.8419 38.4739L72.7933 38.5072L72.6925 38.5752C72.431 38.8133 72.1232 38.9475 71.7906 39.0597C71.2606 39.2377 70.8346 39.5433 70.8158 40.1974C70.8108 40.3763 70.7182 40.4946 70.5762 40.5829C70.529 40.6664 70.4745 40.673 70.4122 40.6002C69.6587 40.5411 69.4145 40.7058 69.1882 41.4181C69.0568 41.8331 69.0151 42.2698 68.8914 42.6876C68.7874 43.0389 68.6335 43.3455 68.2973 43.5196C68.076 43.6347 67.9505 43.8342 67.8359 44.0516C67.4402 44.8033 67.039 45.5526 66.5387 46.2404L66.469 46.3494L66.4333 46.4005L66.3523 46.4902L66.3069 46.5297L66.2112 46.6006C66.0948 46.6837 65.9881 46.7742 65.967 46.9316C65.9863 47.0593 65.9427 47.1673 65.8708 47.2663C65.8429 47.3236 65.8145 47.3851 65.8158 47.4489C65.8241 47.8471 65.7655 48.2002 65.4067 48.4584C65.2148 48.5969 65.1928 48.864 65.2492 49.0838C65.3592 49.5139 65.1649 49.758 64.825 49.936C64.4728 50.1205 64.29 50.4154 64.2442 50.8144C64.2067 51.1435 64.0683 51.4102 63.8282 51.652C63.5859 51.8957 63.3322 52.1299 63.1493 52.445C62.7604 53.1136 62.459 53.8098 62.2928 54.5681C62.2795 54.6634 62.246 54.7517 62.2107 54.8391C62.1279 55.1658 62.1054 55.5058 62.0257 55.8306C61.8131 56.6964 61.7449 57.5819 61.4357 58.4444C61.1594 59.2177 61.306 60.1257 61.3976 60.9746C61.4779 61.044 61.4641 61.122 61.4183 61.2023C61.4385 61.4427 61.3967 61.6845 61.4279 61.9244C61.515 62.5986 61.8544 62.9352 62.5016 62.9897C63.2909 63.0568 63.509 62.9094 63.7453 62.1474C63.7526 61.9638 63.7179 61.7723 63.8392 61.6122C63.7494 61.73 63.7582 61.8709 63.7614 62.0098C63.9492 62.7549 64.0898 62.8737 64.8356 62.8935C65.2139 62.9033 65.5927 62.8977 65.9706 62.8968C66.9092 62.8949 67.7293 63.232 68.4567 63.8189C68.7851 64.0837 69.0572 64.3898 69.0201 64.872C69.005 65.071 69.0806 65.256 69.1969 65.4142C69.5024 65.8288 69.7338 66.2871 69.9684 66.7449C70.1296 67.0594 70.3124 67.3641 70.6051 67.5759C70.6894 67.6326 70.7787 67.6783 70.8758 67.7068C71.2194 67.759 71.5955 67.8477 71.8767 67.6055C72.2198 67.3097 72.5272 67.3688 72.8693 67.5486C73.2473 67.7463 73.639 67.8195 74.0526 67.6787C74.1195 67.6369 74.1593 67.5735 74.1891 67.5017C74.2331 67.2153 74.114 66.9045 74.3147 66.642C74.8263 65.8495 75.2693 65.0204 75.676 64.1654C75.9229 63.6475 76.2596 63.1751 76.4011 62.6038C76.4373 62.4591 76.557 62.3648 76.6655 62.2704C76.72 62.2277 76.7772 62.1883 76.8386 62.1558C77.4424 62.0906 78.0489 62.1362 78.6545 62.1291C78.851 62.1262 79.0214 62.1892 79.1488 62.3502C79.2971 62.5361 79.4968 62.5874 79.7213 62.608C80.075 62.6399 80.4277 62.6056 80.7818 62.624C80.8606 62.5732 80.9343 62.569 81.0017 62.6427C81.1336 62.6972 81.2765 62.6925 81.413 62.7202C81.4822 62.7423 81.5523 62.7634 81.6228 62.7803C82.4267 63.0202 83.2403 63.0846 84.0671 62.9217C84.1308 62.876 84.1652 62.8099 84.1854 62.7348C84.205 62.6455 84.2096 62.5545 84.2261 62.4643C84.2687 62.3089 84.3732 62.3371 84.478 62.3775C84.6494 62.4437 84.8211 62.5033 85.0062 62.5061C85.2994 62.5108 85.5971 62.5286 85.8216 62.2751C85.9223 62.1633 85.9751 62.0272 86.0089 61.8817C86.0264 61.8141 86.0442 61.7464 86.0598 61.6779C86.1042 61.4272 86.167 61.1802 85.9929 60.9436C85.7607 60.6285 85.8688 60.3403 86.0973 60.0811C86.2119 59.951 86.3397 59.8327 86.4176 59.6722L86.495 59.5675C86.9585 59.074 87.5875 58.9777 88.1949 58.828C88.2622 58.8233 88.3301 58.8233 88.3978 58.8209C88.565 58.8191 88.7323 58.82 88.8967 58.782C88.992 58.7575 89.0868 58.7308 89.1857 58.7318C89.341 58.7271 89.4972 58.7322 89.6525 58.7327C90.2852 58.7449 90.9186 58.7092 91.5517 58.7514C91.9883 59.151 92.5 59.2557 93.0748 59.2224C93.6863 59.1867 94.3034 59.2458 94.914 59.204C95.3881 59.1721 95.7743 59.3111 96.1234 59.6172C96.4417 59.96 96.8764 59.8506 97.2649 59.9233C97.4202 60.013 97.4711 60.1792 97.5471 60.3266L97.6131 60.4337C97.728 60.5821 97.7972 60.7633 97.9309 60.8985C97.975 60.9445 98.0189 60.9915 98.0638 61.0365C98.5297 61.2812 98.755 61.6816 98.788 62.207C98.8091 62.2751 98.8302 62.3446 98.8558 62.4113C99.0303 62.9226 99.4028 63.1874 99.9094 63.2203C100.297 63.2446 100.682 63.309 101.073 63.2897C101.453 63.2987 101.834 63.2653 102.214 63.3146C102.613 63.3118 102.889 63.1338 103.01 62.7319C103.24 62.5249 103.326 62.2643 103.282 61.9563C103.253 61.752 103.224 61.5479 103.196 61.3431C103.148 61.2614 103.067 61.2056 103.025 61.1187L103.016 61.0295C103.019 60.9595 103.013 60.8914 102.987 60.8244C102.973 60.7839 102.957 60.7445 102.954 60.6994L102.971 60.6708L103 60.6821C103.02 60.7511 103.029 60.8277 103.062 60.8976C103.094 60.9577 103.161 60.977 103.201 61.0272L103.248 61.0183C103.354 61.0981 103.46 61.0943 103.567 61.0201C103.671 60.8962 103.776 60.7722 103.881 60.6483C104.078 60.415 104.321 60.3299 104.614 60.4168C105.068 60.4168 105.069 60.4168 105.085 60.0004C105.087 59.9365 105.086 59.8726 105.086 59.8088C105.084 59.6036 105.193 59.6041 105.325 59.6843C105.389 59.7238 105.436 59.7928 105.49 59.8487L105.578 59.9628L105.573 59.9566L105.669 60.0553L105.767 60.1577L105.762 60.1506C105.805 60.183 105.837 60.2253 105.87 60.268C105.908 60.2933 105.945 60.3252 105.987 60.3431C106.534 60.5769 107.11 60.6112 107.689 60.5609C108.013 60.5328 108.192 60.6506 108.27 60.9642C108.281 61.0093 108.316 61.0483 108.34 61.0892C108.42 61.2516 108.571 61.3197 108.725 61.3365C109.243 61.3929 109.737 61.5525 110.224 61.7192C110.623 61.8554 111.003 61.707 111.392 61.7201C112.307 61.7516 113.253 61.9244 114.115 61.4103C114.173 61.3417 114.237 61.3004 114.322 61.3629C115.041 61.3131 115.748 61.2436 116.029 60.3886C116.056 60.3102 116.12 60.2605 116.192 60.2229C116.272 60.1933 116.354 60.183 116.438 60.1783C116.783 60.1656 117.178 60.1938 117.424 59.9552C117.672 59.7144 117.803 59.7863 117.988 59.9638C118.191 60.0534 118.397 60.1154 118.616 60.0149C118.774 59.8891 118.763 59.7074 118.761 59.5332C118.76 59.4881 118.703 59.4693 118.653 59.4655C118.637 59.4641 118.592 59.5125 118.6 59.4538C118.627 59.251 118.63 59.2515 118.469 59.2303L118.427 59.2505C118.432 59.3148 118.386 59.2125 118.449 59.2182C118.792 59.2182 118.792 59.2182 118.968 58.9063C119.068 58.7313 119.102 58.6984 119.273 58.7899C119.313 58.7866 119.355 58.7871 119.399 58.7923C119.389 58.8557 119.421 58.7749 119.407 58.8383L119.4 58.8632L119.408 58.8679L119.367 58.9182L119.4 58.8632C119.35 58.8331 119.309 58.8088 119.273 58.7899C118.982 58.8134 118.803 59.0647 118.789 59.4937C118.786 59.5829 118.736 59.7065 118.848 59.7534C118.984 59.8111 119.031 59.6717 119.099 59.5905L119.111 59.5792L119.119 59.5679L119.145 59.5515L119.111 59.5792C119.049 59.6708 118.979 59.7585 118.949 59.8693C119.05 60.3032 119.368 60.5253 119.741 60.6558C120.007 60.7497 120.232 60.6854 120.396 60.3788C120.532 60.1281 120.594 59.8421 120.769 59.6134C120.789 59.5717 120.803 59.5285 120.813 59.483C120.847 59.3388 120.816 59.1797 120.911 59.05C120.994 58.9172 121.169 58.9007 121.253 58.7684C121.388 58.428 121.467 58.0786 121.415 57.7072C121.416 57.6246 121.426 57.5439 121.471 57.4725C121.593 57.3162 121.806 57.3106 121.941 57.1762L122.035 57.0772L122.077 57.019C122.103 56.9763 122.124 56.9312 122.137 56.8828C122.22 56.54 122.131 56.2687 121.882 56.0086C121.431 55.5381 121.1 55.0066 121.233 54.2883Z" fill="#FBDA1D"/>
<path fill-rule="evenodd" clip-rule="evenodd" d="M87.4847 47.2177C87.2974 47.1908 87.1152 47.1548 87.0225 46.9553C87.2299 46.9461 87.4155 46.9753 87.4847 47.2177Z" fill="#FBDA1D"/>
<path fill-rule="evenodd" clip-rule="evenodd" d="M104.159 57.7524C104.201 57.6732 104.247 57.5575 104.348 57.6174C104.425 57.6641 104.424 57.8169 104.36 57.8659C104.268 57.9371 104.243 57.7678 104.159 57.7524Z" fill="#FBDA1D"/>
<path fill-rule="evenodd" clip-rule="evenodd" d="M86.3411 46.4685C86.2856 46.525 86.2301 46.5814 86.1741 46.6378C86.192 46.5426 86.2469 46.4856 86.3411 46.4685Z" fill="#FBDA1D"/>
<path fill-rule="evenodd" clip-rule="evenodd" d="M70.4551 40.6776L70.5767 40.6667C70.5411 40.7292 70.5003 40.7309 70.4551 40.6776Z" fill="#FBDA1D"/>
<path fill-rule="evenodd" clip-rule="evenodd" d="M94.3338 33.0164L94.2612 33.0539L94.2935 32.9807L94.3338 33.0164Z" fill="#FBDA1D"/>
<path fill-rule="evenodd" clip-rule="evenodd" d="M137.841 50.7154C137.707 51.0755 137.496 51.4051 137.515 51.8215C137.526 52.0863 137.327 52.3042 137.268 52.5587L137.267 52.5671C137.233 52.6545 137.171 52.7132 137.091 52.7545L137.079 52.7596C136.605 53.1508 136.05 53.0789 135.507 53.0353C135.263 53.016 135.013 52.9789 134.79 52.8404C134.644 53.4991 134.213 53.8278 133.437 53.9118C133.075 53.9513 132.702 53.9541 132.362 54.1241C131.969 54.0212 131.62 54.164 131.274 54.3273C131.216 54.3462 131.173 54.3837 131.138 54.432L131.144 54.4278L131.044 54.5302L131.047 54.5245L130.943 54.5996C130.819 54.6109 130.696 54.6217 130.572 54.633C130.502 54.6752 130.427 54.6649 130.353 54.6476C130.088 54.6654 129.831 54.7518 129.559 54.7269C129.354 54.7081 129.2 54.8513 129.079 54.995C128.94 55.1579 128.787 55.2325 128.583 55.2086C128.403 55.1865 128.232 55.2439 128.088 55.3302C127.798 55.503 127.493 55.5279 127.175 55.5044C126.885 55.4833 126.627 55.5575 126.365 55.6983C125.559 56.1326 124.698 56.3439 123.782 56.2814C123.595 56.2688 123.471 56.2387 123.436 55.9923C123.367 55.5077 123.086 55.0832 123.01 54.5949C122.996 54.5067 122.945 54.4447 122.857 54.4395C122.719 54.4316 122.617 54.4071 122.61 54.2273C122.605 54.0353 122.641 53.8475 122.806 53.7658C123.143 53.6006 123.432 53.339 123.809 53.2545C124.158 53.177 124.499 53.0573 124.851 53.001C125.362 52.9193 125.785 52.6658 126.192 52.3681C126.543 52.2188 126.913 52.3235 127.271 52.2925C127.423 52.3329 127.574 52.3906 127.727 52.4089C127.948 52.4353 128.14 52.4122 128.313 52.2061C128.588 51.8789 128.609 51.8976 128.964 52.1202C129.176 52.2535 129.399 52.254 129.55 52.0582C129.823 51.7051 130.235 51.6206 130.589 51.4249C131.035 51.1788 131.519 51.1182 132.015 51.1154C132.079 51.1154 132.137 51.0948 132.181 51.0431L132.262 51.0577L132.368 51.0605C132.906 50.8567 133.496 50.822 133.997 50.4952C134.33 50.2774 134.71 50.183 135.104 50.1506C135.293 50.0534 135.506 50.1628 135.696 50.0774C135.799 50.037 135.927 50.0238 135.999 49.952C136.347 49.605 136.776 49.66 137.194 49.6778C137.42 49.6876 137.621 49.7764 137.673 50.0464C137.704 50.0966 137.776 50.114 137.776 50.1863C137.806 50.338 137.779 50.4994 137.854 50.6431L137.841 50.7154Z" fill="#FBDA1D"/>
<path fill-rule="evenodd" clip-rule="evenodd" d="M121.824 46.4938C121.757 46.6844 121.622 46.7507 121.427 46.7728C121.1 46.8099 120.856 46.6221 120.608 46.4732C120.454 46.3807 120.496 45.9183 120.642 45.7131C120.737 45.5774 120.904 45.475 120.822 45.2196C120.614 45.4097 120.374 45.4304 120.128 45.4004C119.914 45.3741 119.689 45.283 119.644 45.0726C119.575 44.7478 119.362 44.7318 119.123 44.6998C119.064 44.6919 119.011 44.6487 118.954 44.6219C118.839 44.483 118.749 44.3309 118.726 44.1454C118.631 43.6294 118.828 43.2083 119.135 42.8218C119.278 42.641 119.442 42.5331 119.661 42.673C120.136 42.9758 120.536 42.8899 120.987 42.5565C121.382 42.2654 121.844 42.0382 122.387 42.1424C122.685 42.1998 122.913 42.2894 123.034 42.6035C123.131 42.8561 123.223 43.1087 123.3 43.3674C123.355 43.4543 123.285 43.5796 123.384 43.6533C123.844 43.6796 123.85 43.6796 123.849 43.2148C123.848 42.9566 123.819 42.6965 124.138 42.6021C124.322 42.5307 124.505 42.4523 124.698 42.5707C124.784 42.7186 124.781 42.9449 125.087 42.7833C125.272 42.6853 125.449 42.965 125.63 43.0735L125.749 43.0937C125.996 43.1148 126.251 43.127 126.272 43.4731L126.366 43.5459C126.497 43.5993 126.633 43.689 126.742 43.5167C126.856 43.3355 126.675 43.3205 126.591 43.2411C126.434 43.0927 126.519 42.7059 126.741 42.4838C126.936 42.2889 127.075 42.3983 127.21 42.5631C127.281 42.6496 127.354 42.7341 127.46 42.7777C127.731 42.9791 127.893 43.4425 127.773 43.7219C127.723 43.8383 127.615 43.9054 127.482 43.9397C127.218 44.0069 127.047 44.2182 126.967 44.4567C126.812 44.9182 126.506 45.1144 126.053 45.1262C126.006 45.1468 125.955 45.1515 125.903 45.1398C125.241 45.2722 124.576 45.2802 123.916 45.1468C123.523 45.0675 123.508 45.0562 123.463 45.4802C123.449 45.6136 123.436 45.7361 123.302 45.8018C123.143 45.8488 122.983 45.8765 122.828 45.7858C122.668 45.5422 122.414 45.4008 122.219 45.1934C122.092 45.0567 122.008 45.1225 121.958 45.2849C121.847 45.637 121.883 46.0051 121.836 46.3634C121.823 46.4061 121.82 46.4497 121.824 46.4938Z" fill="#FBDA1D"/>
<path fill-rule="evenodd" clip-rule="evenodd" d="M125.646 43.1724C125.586 43.2485 125.509 43.2681 125.475 43.1682C125.436 43.0532 125.377 42.9662 125.27 42.9352C125.178 42.909 125.038 42.7005 124.999 43.0085C124.987 43.1071 124.844 42.9972 124.766 42.9771C124.557 42.9226 124.737 42.77 124.704 42.6686C124.879 42.4376 125.073 42.6062 125.258 42.6461C125.38 42.6718 125.493 42.7325 125.608 42.7845C126.182 43.0446 126.18 43.0428 126.52 42.5249C126.571 42.4465 126.634 42.3728 126.703 42.3076C126.891 42.3249 126.946 42.2259 126.944 42.0465C126.94 41.6798 126.926 41.3117 127.001 40.9492L127.002 40.8267C127.191 39.9868 127.226 39.8779 128.209 39.8628C128.367 39.8604 128.524 39.8586 128.681 39.8618C129.028 39.8689 129.168 39.9656 129.265 40.2985C129.513 41.1498 129.01 41.9934 128.144 42.0024C127.827 42.0062 127.656 42.2817 127.372 42.3052C127.304 42.3503 127.173 42.3592 127.267 42.4968C127.368 42.5639 127.396 42.6841 127.459 42.778C127.201 42.8034 127.121 42.5108 126.893 42.4352C126.74 42.6466 126.628 42.8705 126.555 43.1137L126.649 43.1644C126.831 43.1963 127.013 43.225 126.907 43.4926C126.803 43.7569 126.669 43.8048 126.412 43.679C126.343 43.6447 126.259 43.6395 126.215 43.5607C126.257 43.5203 126.293 43.4715 126.345 43.4466L126.379 43.4353C126.323 43.4654 126.394 43.4202 126.335 43.4489C126.287 43.4785 126.253 43.5222 126.213 43.5597L126.123 43.5429C125.999 43.4503 126.29 43.3099 126.097 43.2338C126.002 43.1963 125.885 43.2724 125.782 43.1996C125.747 43.1752 125.692 43.1804 125.646 43.1724Z" fill="#FBDA1D"/>
<path fill-rule="evenodd" clip-rule="evenodd" d="M125.088 41.328C125.499 41.143 125.902 41.2116 126.293 41.3843C126.445 41.451 126.517 41.5909 126.508 41.7731C126.498 41.9792 126.503 42.1872 126.503 42.3938C126.543 42.4675 126.502 42.5215 126.462 42.5759C126.418 42.6295 126.372 42.6793 126.322 42.7248C126.056 42.9248 125.8 42.96 125.595 42.6431C125.474 42.4558 125.345 42.4656 125.154 42.5337C124.952 42.6051 124.668 42.6464 124.563 42.4215C124.446 42.167 124.471 41.8543 124.563 41.5745C124.599 41.467 124.713 41.459 124.804 41.5121C125.019 41.6369 125.015 41.4247 125.088 41.328Z" fill="#FBDA1D"/>
<path fill-rule="evenodd" clip-rule="evenodd" d="M123.406 43.7145C123.216 43.6461 123.29 43.4973 123.304 43.3674C123.449 43.4495 123.4 43.5902 123.406 43.7145Z" fill="#FBDA1D"/>
<path fill-rule="evenodd" clip-rule="evenodd" d="M68.4755 34.0521C68.7691 34.4371 69.2644 34.5042 69.6097 34.808C69.6372 34.8577 69.6734 34.901 69.705 34.9475C69.7975 35.0075 69.8946 35.0611 69.9808 35.1296C70.2199 35.3212 70.3908 35.5573 70.3821 35.8855C70.3697 36.3325 70.4585 36.7898 70.2836 37.2213C70.154 37.5415 70.0494 37.8786 69.7966 38.1307C69.7399 38.3472 69.5964 38.4932 69.4237 38.6167C69.263 38.8726 69.1022 39.1289 68.9409 39.3847C68.7994 39.6815 68.5653 39.7289 68.2607 39.7172C67.9602 39.7059 67.7334 39.6604 67.5433 39.3829C67.4027 39.1773 67.2401 38.9838 67.1397 38.7547C66.9584 38.3443 66.574 38.1326 66.2996 37.8138C66.1764 37.7241 66.1874 37.5555 66.094 37.4481C65.8714 37.1565 65.787 36.8255 65.7976 36.4569C65.8095 36.0062 65.8187 35.554 65.7944 35.1043C65.7582 34.4249 66.0161 33.8849 66.5447 33.5145C66.9121 33.2577 67.3688 33.4488 67.782 33.3999C67.979 33.3765 68.1109 33.4741 68.2061 33.6399C68.3235 33.7586 68.3871 33.914 68.4755 34.0521Z" fill="#FBDA1D"/>
<path fill-rule="evenodd" clip-rule="evenodd" d="M118.92 37.0826C118.817 37.3966 118.628 37.6418 118.366 37.8338C118.278 37.8977 118.17 37.9719 118.135 38.0657C117.999 38.4394 117.692 38.5577 117.364 38.5948C117.099 38.6254 117.014 38.7564 117 38.9921C116.989 39.0348 116.97 39.0733 116.941 39.1071C116.938 39.3465 116.876 39.5545 116.642 39.6611C116.484 39.733 116.317 39.7221 116.198 39.6048C115.825 39.2414 115.354 39.0564 114.912 38.8169C114.646 38.6732 114.389 38.5202 114.297 38.1963C114.208 38.0765 114.227 37.954 114.285 37.8291L114.281 37.8333C114.331 37.7981 114.367 37.7535 114.379 37.6915C114.478 37.615 114.623 37.6215 114.695 37.5014C114.414 36.9891 114.488 36.1389 114.831 35.6726C115.029 35.4031 115.218 35.1355 115.492 34.9336C115.68 34.7947 115.706 34.5313 115.886 34.3528C116.205 34.035 116.455 33.6429 116.733 33.2823C116.78 33.2448 116.821 33.2025 116.847 33.1476C117.195 32.8035 117.422 32.3424 117.843 32.0673C117.935 32.0067 117.969 31.8996 117.995 31.7804C118.096 31.3198 118.286 30.902 118.616 30.5611C118.716 30.463 118.792 30.3358 118.928 30.278C119.186 30.0733 119.47 30.2146 119.753 30.2057C119.881 29.7573 120.158 29.3948 120.444 29.0225C120.996 28.3041 121.778 27.8732 122.409 27.26C122.757 26.9214 123.124 26.7219 123.59 26.6323C123.844 26.5834 124.074 26.4102 124.314 26.2933C124.361 26.2524 124.402 26.2073 124.417 26.1435C124.638 25.8326 124.952 25.6139 125.176 25.296C125.357 25.0387 125.538 24.7659 125.663 24.4969C125.895 23.9898 126.275 23.571 126.446 23.0297C126.546 22.7118 126.728 22.6189 127.031 22.6987C127.641 22.8588 128.171 23.1823 128.448 23.7687C128.733 24.3729 128.7 25.0326 128.406 25.6298C128.22 26.0073 127.927 26.3299 127.683 26.6773C127.608 26.6985 127.56 26.7468 127.539 26.8219C127.452 26.8712 127.365 26.92 127.279 26.9689C127.232 26.9947 127.193 27.0285 127.162 27.0731L127.168 27.067L127.066 27.1689L127.073 27.1656L126.96 27.2576C126.632 27.6215 126.364 28.0365 125.978 28.354C125.758 28.5352 125.727 28.8628 125.633 29.1333C125.446 29.67 125.36 29.7423 124.82 29.7479C124.526 29.7507 124.221 29.7582 123.959 29.5911C123.797 29.4869 123.699 29.5446 123.708 29.7C123.716 29.869 123.609 30.0052 123.631 30.1681C123.613 30.2231 123.615 30.2873 123.563 30.3272C123.5 30.4606 123.492 30.5742 123.55 30.7315C123.617 30.9118 123.63 31.117 123.399 31.2734C122.619 31.803 121.889 32.3946 121.44 33.2702L121.341 33.3716C121.269 33.3908 121.221 33.4373 121.199 33.51C120.827 34.2603 120.363 34.9533 119.913 35.6539C119.632 36.0914 119.393 36.56 119.053 36.9572C118.997 36.9854 118.953 37.029 118.92 37.0826Z" fill="#FBDA1D"/>
<path fill-rule="evenodd" clip-rule="evenodd" d="M76.3929 25.9067C76.6938 26.1536 76.8596 26.5128 77.0676 26.8282C77.4941 27.4757 77.8821 28.1514 78.2425 28.8439C78.5197 29.3772 78.8953 29.8524 79.2421 30.343C79.4945 30.6999 79.8408 30.9379 80.1253 31.2487C80.1798 31.4816 80.1834 31.7145 80.1211 31.9464C80.0694 32.0652 80.0185 32.1839 79.9677 32.3022C79.9099 32.322 79.8678 32.3633 79.8252 32.4041C79.5499 32.6802 79.204 32.8239 78.8495 32.9479C78.7785 32.9727 78.68 32.9925 78.62 32.9615C78.0378 32.6666 77.4175 32.8436 76.817 32.7958C76.7543 32.791 76.6915 32.7835 76.6292 32.7774C76.5834 32.7596 76.5499 32.7235 76.5115 32.6943L76.516 32.7009L76.4162 32.5976L76.4226 32.6027L76.3227 32.499L76.3255 32.507L76.2431 32.4009C75.5962 31.3966 74.9018 30.42 74.3204 29.3777C73.9783 28.7636 73.6512 28.1288 73.4139 27.4457C73.1455 26.6724 72.8019 25.916 72.3388 25.2339C72.0406 24.7934 71.8569 24.3014 71.664 23.8103C71.6201 23.6986 71.6233 23.5906 71.6238 23.4788C71.6279 22.898 71.6357 22.3173 71.6334 21.7369C71.6329 21.6529 71.6311 21.5707 71.6719 21.504C71.9123 21.1149 72.1574 20.7214 72.5133 20.4369C72.7057 20.2828 72.9747 20.4021 73.2059 20.3702C73.4785 20.3326 73.6036 20.4862 73.7698 20.6871C74.4561 21.5162 74.6773 22.4904 74.7112 23.537C74.714 23.6168 74.7154 23.7004 74.6979 23.7779C74.5811 24.2891 74.5647 24.3197 75.0236 24.5545C75.418 24.7559 75.6759 25.0813 75.9485 25.4052C76.0552 25.6109 76.233 25.7503 76.3929 25.9067Z" fill="#FBDA1D"/>
<path fill-rule="evenodd" clip-rule="evenodd" d="M101.997 24.4787C101.98 25.1116 101.964 25.7446 101.947 26.3775C101.935 26.4563 101.93 26.5375 101.89 26.6094C101.89 27.0042 101.905 27.3916 101.706 27.7658C101.577 28.0099 101.573 28.3113 101.585 28.5968C101.536 28.6987 101.573 28.8161 101.528 28.9184C101.519 29.2048 101.51 29.4922 101.501 29.779C101.457 29.8776 101.473 29.979 101.489 30.08C101.459 30.4893 101.579 30.9246 101.316 31.2951C101.125 31.5631 101.054 31.95 100.654 32.019C100.528 32.0852 100.399 32.0754 100.271 32.0265C99.9625 31.9861 99.6541 31.9397 99.3633 31.8209C99.1567 31.736 99.0531 31.5988 99.0555 31.3448C99.0679 30.1349 99.0605 28.9245 99.0596 27.7141C99.0591 27.4211 99.1315 27.1418 99.23 26.8732C99.3152 26.6413 99.3417 26.4103 99.3403 26.1666C99.3358 25.2463 99.3349 24.3266 99.3417 23.4068C99.3455 22.8247 99.4444 22.2777 99.7948 21.7814C99.9272 21.5941 99.9991 21.3678 100.206 21.2321C100.339 21.1443 100.344 20.9884 100.344 20.8401C100.345 20.5015 100.362 20.1616 100.341 19.824C100.326 19.6029 100.392 19.409 100.474 19.2235C100.554 19.0432 100.697 18.9024 100.909 18.8968C101.443 18.8826 101.977 18.8732 102.511 18.8723C102.604 18.8718 102.685 18.9404 102.75 19.0151C102.917 19.2827 102.918 19.5677 102.832 19.8611C102.666 20.6161 102.502 21.3711 102.337 22.126C102.306 22.1922 102.31 22.2692 102.276 22.335C102.361 22.5275 102.233 22.704 102.235 22.8904C102.229 22.9388 102.19 22.9716 102.178 23.0176C102.171 23.1035 102.164 23.1899 102.157 23.2763C102.116 23.3435 102.121 23.4238 102.099 23.4965C102.17 23.7805 102.031 24.0543 102.06 24.336C102.041 24.3843 102.002 24.4238 101.997 24.4787Z" fill="#FBDA1D"/>
<path fill-rule="evenodd" clip-rule="evenodd" d="M108.599 31.2235C108.739 30.8526 108.691 30.4559 108.744 30.0732C108.745 29.9972 108.763 29.9235 108.771 29.8488C108.758 29.4112 108.892 29.021 109.074 28.6267C109.329 28.0703 109.576 27.5102 109.892 26.9867C109.938 26.9097 110.03 26.8613 110.1 26.7993C110.203 26.8313 110.305 26.8322 110.409 26.8096C111.095 27.0811 111.648 27.5088 112.083 28.1351C112.301 28.4492 112.492 28.7224 112.469 29.1267C112.46 29.2638 112.352 29.3553 112.372 29.4882C112.356 29.5333 112.32 29.5662 112.309 29.6136C112.326 30.0723 112.074 30.4446 111.932 30.8526C111.845 30.9724 111.823 31.1236 111.746 31.248C111.619 31.7344 111.421 32.2001 111.361 32.7044C111.422 33.0278 111.296 33.3274 111.225 33.6283C111.165 33.8875 110.941 34.0373 110.709 34.1378C110.523 34.2185 110.326 34.3134 110.13 34.3214C109.837 34.334 109.802 34.496 109.817 34.727C109.799 34.7716 109.765 34.8078 109.753 34.8556C109.751 34.935 109.757 35.0158 109.745 35.0933C109.711 35.3125 109.629 35.474 109.364 35.4176C109.114 35.3646 108.839 35.5074 108.604 35.3205C107.739 34.4927 107.932 33.4748 108.116 32.4593C108.161 32.2052 108.246 31.9635 108.315 31.7165L108.314 31.7193C108.384 31.6696 108.372 31.5832 108.401 31.5151L108.394 31.5174C108.47 31.4255 108.52 31.3132 108.599 31.2235Z" fill="#FBDA1D"/>
<path fill-rule="evenodd" clip-rule="evenodd" d="M87.3988 24.3387C87.6293 24.0674 87.9298 23.8833 88.2202 23.6988C88.8894 23.2724 89.7804 23.6932 89.9421 24.4838C90.0631 25.0773 90.086 25.6811 90.1346 26.2825C90.0993 26.3473 90.0928 26.413 90.1245 26.4811C90.1684 27.314 90.2165 28.1493 90.0901 28.978C89.9769 29.7236 89.6499 30.3329 88.9384 30.6555C88.6792 30.7321 88.4204 30.7335 88.1611 30.6551C87.8904 30.5226 87.6852 30.3386 87.6755 30.0024C87.6453 29.9324 87.6449 29.8545 87.6197 29.7831C87.5866 29.5301 87.5542 29.2766 87.5216 29.023L87.518 28.9089C87.2175 28.0831 87.026 27.2412 87.1007 26.3473C87.1314 25.982 87.108 25.612 87.1048 25.2435C87.1034 25.0674 87.0965 24.8923 87.1941 24.7355C87.3242 24.6364 87.3109 24.4598 87.3988 24.3387Z" fill="#FBDA1D"/>
<path fill-rule="evenodd" clip-rule="evenodd" d="M61.2758 44.0733C61.2557 44.1301 61.2117 44.2076 61.3006 44.2263C61.4202 44.2526 61.5498 44.271 61.6528 44.1649C62.0316 44.2165 62.3537 44.3846 62.6029 44.6818C62.6789 44.7715 62.7577 44.832 62.8732 44.8382C63.1155 45.1062 63.2579 45.4767 63.629 45.6128C63.9556 45.9461 63.8969 46.3588 63.7747 46.7302C63.6423 47.1331 63.4036 47.4885 63.1256 47.8237C62.8933 48.104 62.6212 48.3618 62.4531 48.6975C62.3982 48.72 62.3541 48.7566 62.3193 48.8055L62.3235 48.7984L62.2236 48.9012L62.2304 48.8975L62.1242 49.0041C61.9346 49.1501 61.8058 49.3454 61.6721 49.5435C61.4238 49.9093 61.1791 49.9422 60.7893 49.7201C60.5443 49.5801 60.2896 49.4576 60.0381 49.3281C59.6739 49.1407 59.4902 48.8083 59.3959 48.429C59.3395 48.2041 59.3464 47.9599 59.5654 47.7505C59.3162 47.6575 59.11 47.595 58.9456 47.4406C58.8063 47.3096 58.6153 47.3753 58.4467 47.3673C57.9982 47.3463 57.9777 47.3274 57.9795 46.8585C57.98 46.7302 57.9868 46.6016 57.9905 46.4734L58.0555 46.3654L58.051 46.3716C58.0981 46.3401 58.1325 46.2983 58.1489 46.2424C58.1105 46.0908 58.0056 46.1321 57.9419 46.1931C57.6277 46.4969 57.2503 46.5002 56.859 46.4561C56.2786 46.0954 55.7935 45.6213 55.3441 45.1062C55.2933 45.0593 55.2429 45.0123 55.1934 44.9649C55.0537 44.8071 54.9709 44.6471 55.1724 44.4752C55.329 44.401 55.4949 44.4108 55.6603 44.4315L55.7042 44.4423C55.7789 44.4208 55.6932 44.4118 55.6965 44.393C55.3029 43.9381 54.7005 43.8644 54.2347 43.5427C54.0945 43.4465 53.9095 43.4193 53.8132 43.2526L53.8123 43.2474C53.4628 42.9854 53.1137 42.7225 52.7642 42.4614C52.6722 42.3924 52.6149 42.2981 52.5641 42.1976C52.3799 41.8318 52.0657 41.6332 51.6997 41.5159C51.3273 41.3966 50.9535 41.2774 50.5728 41.1952C49.9438 41.0595 49.4716 40.6891 49.0639 40.2078C49.0208 40.1116 48.9453 40.0417 48.877 39.9665C48.7294 39.7022 48.3749 39.5791 48.3855 39.2077C48.1885 38.7383 48.2123 38.2706 48.3992 37.8054C48.5389 37.4452 48.5825 37.0419 48.926 36.7785C49.0625 36.6734 49.1889 36.5626 49.3493 36.5001C49.4629 36.4555 49.5985 36.4471 49.652 36.3053C49.8178 36.2888 49.9384 36.178 50.0707 36.093C50.2718 36.0062 50.4766 36.0335 50.6813 36.0715C51.0882 36.2283 51.4766 36.4142 51.8105 36.7105C52.023 36.8992 52.2983 36.9757 52.5527 37.088C52.5737 37.2692 52.7414 37.2917 52.8531 37.3565C53.4866 37.7218 54.1078 38.119 54.8435 38.2467C55.1774 38.3049 55.3175 38.6307 55.5714 38.7993L55.6039 38.834C55.8091 39.0331 56.0386 39.1913 56.2905 39.3285C56.6057 39.4998 56.9094 39.6989 57.197 39.9158C57.3556 40.035 57.5274 40.1689 57.5832 40.3867C57.6291 40.5656 57.7243 40.6693 57.9158 40.6506C58.0519 40.6018 58.1875 40.5515 58.3157 40.6679C58.5407 41.0511 58.7266 41.4478 58.7262 41.9088C58.8361 42.0605 59.0441 41.9915 59.166 42.114C59.3918 42.1718 59.5608 42.3638 59.7972 42.3967L59.8705 42.4488C59.9771 42.8695 60.3102 42.7831 60.5819 42.754C61.0019 42.7098 61.2007 42.9704 61.2113 43.4226C61.2158 43.6414 61.1393 43.8686 61.2758 44.0733Z" fill="#FBDA1D"/>
<path fill-rule="evenodd" clip-rule="evenodd" d="M62.2236 48.9228C62.2381 48.8547 62.2783 48.8133 62.3453 48.7986C62.343 48.8785 62.3018 48.9188 62.2236 48.9228Z" fill="#FBDA1D"/>
<path fill-rule="evenodd" clip-rule="evenodd" d="M62.3193 48.8288C62.3412 48.7433 62.4023 48.708 62.4824 48.6978C62.4438 48.761 62.4029 48.822 62.3193 48.8288Z" fill="#FBDA1D"/>
<path fill-rule="evenodd" clip-rule="evenodd" d="M62.124 49.0263C62.143 48.9577 62.1815 48.9099 62.2534 48.8975C62.2451 48.9769 62.1965 49.0144 62.124 49.0263Z" fill="#FBDA1D"/>
<path fill-rule="evenodd" clip-rule="evenodd" d="M54.2851 59.5508C54.1545 59.3522 53.9333 59.294 53.7431 59.1903C53.2956 58.9447 53.0102 58.5146 52.6964 58.1409C52.461 57.8606 52.3116 57.4625 52.2691 57.0606C52.2544 57.0141 52.2205 56.9775 52.2026 56.9324C52.1096 56.3182 52.1472 55.7431 52.456 55.1699C52.6341 54.8393 52.854 54.5205 52.9648 54.1514C53.2392 53.8792 53.5577 53.7548 53.9447 53.8153C54.0982 53.8397 54.2585 53.828 54.4151 53.8176C54.6652 53.8008 54.8604 53.8684 55.0363 54.0744C55.2575 54.3336 55.5466 54.4811 55.9057 54.4167C55.9969 54.4008 56.0954 54.4309 56.187 54.4167C56.9112 54.3036 57.444 54.667 57.9465 55.1304C58.1764 55.3421 58.4197 55.546 58.7005 55.6877C58.8388 55.7581 58.9685 55.8699 58.9625 56.0032C58.9447 56.4089 59.1829 56.4727 59.4875 56.4817C59.6675 56.5977 59.8296 56.7323 59.9176 56.9394C59.9951 57.2484 59.783 57.4268 59.6213 57.6272C59.547 57.6484 59.4989 57.6963 59.4778 57.7728C59.4119 57.8803 59.3459 57.9879 59.2795 58.0954C59.2548 58.1479 59.2149 58.192 59.1906 58.2456C59.0464 58.5475 58.8635 58.8325 58.8072 59.1724L58.7976 59.2936C58.7857 59.3391 58.7596 59.386 58.7641 59.4292C58.8132 59.8255 58.6547 60.1138 58.3345 60.3218L58.3308 60.3288L58.2544 60.3339L58.2534 60.3316C57.7605 60.3026 57.313 60.1724 57.0024 59.7396L56.9662 59.711C56.3281 59.6935 55.8169 59.2166 55.1801 59.1959C55.1014 59.1935 55.001 59.1842 54.9644 59.2551C54.8311 59.5104 54.57 59.4748 54.362 59.5593L54.324 59.5485L54.2851 59.5508Z" fill="#FBDA1D"/>
<path fill-rule="evenodd" clip-rule="evenodd" d="M62.0347 50.1575L62.081 50.184C62.0719 50.223 62.0544 50.2128 62.0347 50.1575Z" fill="#FBDA1D"/>
</svg>
