<svg width="318" height="89" viewBox="0 0 318 89" fill="none" xmlns="http://www.w3.org/2000/svg">
<path fill-rule="evenodd" clip-rule="evenodd" d="M88.8455 78.0285C74.6422 75.9422 63.7437 63.7084 63.7437 48.921C63.7437 42.4952 65.8132 36.5369 69.3181 31.6968C69.1179 33.0654 69.0177 34.4506 69.0177 35.8693C69.0177 44.3312 72.6061 51.9586 78.3308 57.3328C78.7313 58.4176 79.182 59.4858 79.6993 60.5039C79.6993 60.5039 79.6993 60.5039 79.6993 60.5205C81.3183 63.7084 83.488 66.5624 86.1083 68.949C86.1083 68.949 86.1083 68.949 86.125 68.9658C86.125 68.9658 86.125 68.9658 86.1417 68.9825C86.9261 69.7001 87.744 70.3677 88.6119 71.002C88.7454 73.3052 88.7954 75.6251 88.8121 77.9951L88.8455 78.0285Z" fill="url(#paint0_linear_18_81)"/>
<path fill-rule="evenodd" clip-rule="evenodd" d="M69.3182 31.7135C71.3377 17.4434 83.6049 6.47803 98.4257 6.47803C111.127 6.47803 121.959 14.5393 126.065 25.8219C120.808 20.8816 113.731 17.8607 105.953 17.8607C102.398 17.8607 98.9932 18.4949 95.8387 19.6465C94.9542 19.563 94.053 19.513 93.1349 19.513C83.3212 19.513 74.6423 24.3198 69.3015 31.7135H69.3182Z" fill="url(#paint1_linear_18_81)"/>
<path fill-rule="evenodd" clip-rule="evenodd" d="M78.3143 57.3328C72.5896 51.9586 69.0012 44.3479 69.0012 35.8693C69.0012 34.4507 69.1013 33.0653 69.3017 31.6968C74.6425 24.3197 83.3213 19.4963 93.1351 19.4963C94.0363 19.4963 94.9376 19.5464 95.8389 19.6298C93.1685 20.5979 90.6816 21.9497 88.4452 23.6188C88.4285 23.5687 88.4118 23.5186 88.3951 23.4852C88.1448 22.6841 87.327 22.2836 86.5425 22.2836C85.6913 22.2836 84.8568 22.7342 84.7233 23.6021C84.6565 24.0694 84.7733 25.1877 84.9903 26.623C83.5049 28.1418 82.1864 29.8108 81.0514 31.6133C80.6676 31.0959 80.3337 30.7788 80.1335 30.7454C80.0834 30.7287 80.0167 30.7287 79.9666 30.7287C79.0653 30.7287 77.5465 31.6801 77.5799 32.8317C77.5966 33.3157 77.7635 34.4006 78.6314 36.3366C77.2795 39.7081 76.5452 43.3965 76.5452 47.2519C76.5452 50.7903 77.1626 54.1784 78.3143 57.3161V57.3328Z" fill="url(#paint2_linear_18_81)"/>
<path fill-rule="evenodd" clip-rule="evenodd" d="M105.97 76.6768C105.118 76.6768 104.267 76.6268 103.416 76.56C103.416 76.5433 103.416 76.51 103.416 76.4933C113.346 72.7881 120.724 63.8923 122.259 53.0938C125.764 48.2536 127.834 42.3119 127.834 35.8696C127.834 32.3312 127.216 28.9431 126.064 25.8054C131.772 31.1629 135.361 38.7736 135.377 47.2188V47.3023C135.377 50.9574 134.71 54.4456 133.475 57.6669C133.375 57.6669 133.292 57.6502 133.191 57.6502C132.157 57.6502 131.122 58.0507 130.32 58.8352C128.852 60.3039 128.752 62.6071 129.987 64.1927C124.663 71.7366 115.883 76.6601 105.936 76.6601L105.97 76.6768Z" fill="url(#paint3_linear_18_81)"/>
<path fill-rule="evenodd" clip-rule="evenodd" d="M88.6454 71.0354C87.7775 70.4012 86.9596 69.7336 86.1752 69.0159C86.1752 69.0159 86.1752 69.0159 86.1585 68.9993C86.1585 68.9993 86.1585 68.9993 86.1418 68.9826C83.5381 66.5958 81.3518 63.7419 79.7329 60.5541C79.7329 60.5541 79.7329 60.5541 79.7329 60.5374C79.2154 59.5193 78.7648 58.4511 78.3643 57.3662C81.1181 59.9532 84.3727 62.006 87.9611 63.3914C88.3282 65.9783 88.5619 68.5319 88.6954 71.0855L88.6454 71.0354Z" fill="url(#paint4_linear_18_81)"/>
<path fill-rule="evenodd" clip-rule="evenodd" d="M103.416 76.4934C103.7 71.9036 104.134 66.6629 104.751 64.6101V64.5934C111.311 63.158 117.052 59.5195 121.174 54.4958L121.191 54.4791C121.191 54.4791 121.191 54.4791 121.191 54.4625C121.191 54.4625 121.191 54.4625 121.191 54.4458L121.208 54.4291C121.575 53.9952 121.908 53.5445 122.242 53.0771C120.707 63.8757 113.33 72.7882 103.399 76.4767L103.416 76.4934Z" fill="url(#paint5_linear_18_81)"/>
<path fill-rule="evenodd" clip-rule="evenodd" d="M104.768 64.6097C105.72 61.5221 106.804 58.3009 108.674 55.6472C110.46 53.1103 112.913 50.6568 114.866 48.2702C116.334 46.4676 118.704 43.2298 115.75 41.3772C115.5 41.2269 115.233 41.1435 114.949 41.1435C113.33 41.1435 111.327 43.4133 110.026 44.6818C109.174 45.5163 106.788 47.6359 105.536 47.6359C105.302 47.6359 105.102 47.5525 104.969 47.3856C102.599 44.3146 107.589 30.4451 108.34 26.3727C108.557 25.171 108.323 23.8359 106.254 23.4854C106.17 23.4687 106.103 23.4687 106.02 23.4687C104.718 23.4687 103.8 25.3547 103.416 26.5063C102.682 28.7261 99.561 38.6901 98.6597 38.6901C98.5596 38.6901 98.4928 38.5732 98.4594 38.3396C98.2758 37.2547 98.9268 25.7719 98.9435 23.3352C98.9602 22.2336 99.127 21.0152 98.2925 20.1473C98.2091 20.0639 98.1089 19.9805 98.0088 19.897C111.928 22.217 122.56 34.3172 122.56 48.9044C122.56 50.323 122.46 51.7083 122.26 53.0769C121.926 53.5443 121.575 53.9949 121.225 54.4288L121.208 54.4455C121.208 54.4455 121.208 54.4455 121.208 54.4622C121.208 54.4622 121.208 54.4622 121.208 54.4789L121.192 54.4956C117.069 59.5193 111.344 63.1578 104.768 64.593V64.6097ZM87.928 63.3413C84.3396 61.9728 81.085 59.9031 78.3312 57.3162C77.1963 54.1784 76.562 50.7903 76.562 47.2521C76.562 43.3967 77.2964 39.7081 78.6483 36.3368C78.8652 36.8208 79.1156 37.3381 79.4327 37.939C84.4731 47.6026 86.8264 55.6472 87.928 63.3413ZM86.8431 40.6428C86.6261 40.6428 86.3258 40.4258 86.0086 39.8917C85.5914 39.2074 82.704 33.7498 81.0517 31.5967C82.1866 29.7942 83.5051 28.1252 84.9905 26.6064C85.6414 30.9458 87.1769 38.2394 87.2937 39.3911C87.3605 40.142 87.1769 40.6261 86.8431 40.6261V40.6428ZM92.8015 37.7721C92.6346 37.6886 92.6012 37.5551 92.5511 37.3715C91.9503 34.4174 89.0629 25.5049 88.462 23.6022C90.6985 21.9332 93.1854 20.5979 95.8558 19.6133C95.8725 19.6133 95.8725 19.6133 95.8892 19.6133C95.5887 19.7134 95.305 19.897 95.0714 20.1306C94.4204 20.815 94.3871 21.8164 94.2702 22.6843C93.2355 30.0779 93.2688 36.4536 92.8015 37.7554V37.7721Z" fill="url(#paint6_linear_18_81)"/>
<path fill-rule="evenodd" clip-rule="evenodd" d="M122.276 53.0936C122.476 51.7251 122.577 50.3398 122.577 48.9211C122.577 34.334 111.962 22.2336 98.0255 19.9137C97.6416 19.6467 97.1576 19.5131 96.6735 19.5131C96.4065 19.5131 96.1395 19.5632 95.8891 19.6467C95.8724 19.6467 95.8724 19.6467 95.8557 19.6467C99.0101 18.4951 102.415 17.8608 105.97 17.8608C113.747 17.8608 120.824 20.8818 126.082 25.822C127.233 28.9598 127.85 32.3479 127.85 35.8861C127.85 42.3118 125.781 48.2702 122.276 53.1103V53.0936Z" fill="url(#paint7_linear_18_81)"/>
<path fill-rule="evenodd" clip-rule="evenodd" d="M63.8274 31.7137C61.591 31.7137 59.7717 29.8945 59.7717 27.658C59.7717 25.4215 61.591 23.6023 63.8274 23.6023C66.0639 23.6023 67.8831 25.4215 67.8831 27.658C67.8831 29.8945 66.0639 31.7137 63.8274 31.7137Z" fill="url(#paint8_linear_18_81)"/>
<path fill-rule="evenodd" clip-rule="evenodd" d="M133.208 65.7778C132.173 65.7778 131.138 65.3772 130.337 64.5928C130.22 64.476 130.104 64.3425 130.003 64.2256C128.768 62.6401 128.868 60.3368 130.337 58.8681C131.122 58.0837 132.173 57.6831 133.208 57.6831C133.308 57.6831 133.392 57.6831 133.492 57.6998C134.443 57.7665 135.361 58.1504 136.079 58.8848C137.664 60.4703 137.664 63.0406 136.079 64.6095C135.294 65.3939 134.243 65.7945 133.208 65.7945V65.7778Z" fill="url(#paint9_linear_18_81)"/>
<path fill-rule="evenodd" clip-rule="evenodd" d="M61.4073 40.4424C60.4893 40.4424 59.7383 39.6914 59.7383 38.7735C59.7383 37.8555 60.4893 37.1045 61.4073 37.1045C62.3253 37.1045 63.0763 37.8555 63.0763 38.7735C63.0763 39.6914 62.3253 40.4424 61.4073 40.4424Z" fill="url(#paint10_linear_18_81)"/>
<path fill-rule="evenodd" clip-rule="evenodd" d="M139.734 52.9101C138.816 52.9101 138.065 52.159 138.065 51.2411C138.065 50.3231 138.816 49.572 139.734 49.572C140.636 49.572 141.37 50.2897 141.403 51.1909V51.2745C141.387 52.1757 140.652 52.8934 139.734 52.8934V52.9101Z" fill="url(#paint11_linear_18_81)"/>
<path fill-rule="evenodd" clip-rule="evenodd" d="M93.2521 78.3459H93.0685C91.6331 78.3459 90.2312 78.2291 88.8626 78.0288C88.8459 75.6755 88.7792 73.3556 88.6624 71.0356C92.5678 73.8729 97.191 75.7923 102.215 76.4265C102.565 76.4766 102.932 76.51 103.283 76.5433C100.162 77.695 96.7904 78.3125 93.2688 78.3292L93.2521 78.3459Z" fill="url(#paint12_linear_18_81)"/>
<path fill-rule="evenodd" clip-rule="evenodd" d="M78.6482 36.3536C77.7804 34.4009 77.6134 33.3327 77.5967 32.8487C77.5634 31.6971 79.0822 30.7457 79.9834 30.7457C80.0502 30.7457 80.1003 30.7457 80.1503 30.7624C80.3506 30.7958 80.6677 31.1129 81.0683 31.6303C80.1337 33.1157 79.3159 34.7013 78.6649 36.3703L78.6482 36.3536ZM85.0072 26.6399C84.7902 25.2046 84.6734 24.0864 84.7401 23.6191C84.8736 22.7512 85.7081 22.3005 86.5594 22.3005C87.3605 22.3005 88.1616 22.7011 88.4119 23.5022C88.4287 23.5356 88.4453 23.5856 88.462 23.6358C87.2269 24.5537 86.0753 25.5551 84.9905 26.6566L85.0072 26.6399Z" fill="url(#paint13_linear_18_81)"/>
<path fill-rule="evenodd" clip-rule="evenodd" d="M103.417 76.5607C103.367 76.5607 103.316 76.5439 103.266 76.5439C103.316 76.5271 103.367 76.5102 103.417 76.4934C103.417 76.5102 103.417 76.5439 103.417 76.5607Z" fill="url(#paint14_linear_18_81)"/>
<path fill-rule="evenodd" clip-rule="evenodd" d="M101.13 76.2761C96.5232 75.5084 92.2672 73.6725 88.6455 71.0354C88.5119 68.4819 88.2783 65.9283 87.9111 63.3413C91.0822 64.5597 94.5037 65.244 98.092 65.2774C98.2089 65.2774 98.3257 65.2774 98.4259 65.2774C98.6262 65.2774 98.8264 65.2774 99.0267 65.2774C99.4273 69.016 100.312 72.6544 101.13 76.2761Z" fill="url(#paint15_linear_18_81)"/>
<path fill-rule="evenodd" clip-rule="evenodd" d="M103.266 76.56C102.899 76.5266 102.549 76.4932 102.198 76.4431C101.848 76.3931 101.48 76.343 101.13 76.293C100.312 72.6712 99.4274 69.0328 99.0269 65.2942C100.996 65.2608 102.916 65.0271 104.768 64.6099V64.6265C104.151 66.6628 103.7 71.9034 103.433 76.5099C103.383 76.5266 103.333 76.5433 103.283 76.56H103.266Z" fill="url(#paint16_linear_18_81)"/>
<path fill-rule="evenodd" clip-rule="evenodd" d="M98.4261 65.2941C98.3093 65.2941 98.1925 65.2941 98.0923 65.2941C94.5039 65.2607 91.0824 64.5764 87.9113 63.3581C86.8098 55.6639 84.4565 47.6193 79.416 37.9558C79.1157 37.3716 78.8486 36.8375 78.6316 36.3535C79.2992 34.7012 80.1003 33.1156 81.035 31.6135C82.6873 33.7666 85.5747 39.2242 85.992 39.9085C86.309 40.4259 86.5928 40.6596 86.8265 40.6596C87.1603 40.6596 87.3438 40.1588 87.2771 39.4244C87.177 38.2728 85.6248 30.9793 84.9739 26.6399C86.042 25.555 87.2104 24.5369 88.4454 23.6189C89.063 25.5216 91.9503 34.4341 92.5345 37.3883C92.5679 37.5719 92.6179 37.7054 92.7848 37.7888C93.2522 36.487 93.2188 30.1114 94.2535 22.7177C94.3704 21.8498 94.4038 20.8484 95.0547 20.1641C95.2883 19.9304 95.5554 19.7468 95.8725 19.6467C96.5901 19.7135 97.3078 19.8136 98.0088 19.9304C98.1089 19.9972 98.2091 20.0807 98.2926 20.1808C99.1271 21.032 98.9602 22.267 98.9435 23.3686C98.9267 25.8221 98.2759 37.2882 98.4594 38.373C98.4928 38.6066 98.5596 38.7235 98.6598 38.7235C99.5443 38.7235 102.682 28.7595 103.416 26.5397C103.8 25.3881 104.718 23.5021 106.02 23.5021C106.104 23.5021 106.17 23.5021 106.254 23.5188C108.307 23.8693 108.557 25.2045 108.34 26.4062C107.589 30.4619 102.615 44.348 104.969 47.419C105.102 47.6026 105.302 47.6694 105.536 47.6694C106.788 47.6694 109.158 45.5497 110.026 44.7152C111.311 43.4468 113.33 41.1769 114.949 41.1769C115.233 41.1769 115.5 41.2437 115.751 41.4106C118.705 43.2465 116.335 46.5011 114.866 48.3036C112.913 50.6903 110.46 53.127 108.674 55.6806C106.804 58.3511 105.72 61.5555 104.768 64.6432C102.916 65.0437 100.996 65.2774 99.0269 65.3275C98.8266 65.3275 98.6264 65.3275 98.4261 65.3275V65.2941Z" fill="url(#paint17_linear_18_81)"/>
<path fill-rule="evenodd" clip-rule="evenodd" d="M98.0252 19.9136C97.3242 19.7968 96.6065 19.6966 95.8889 19.6298C96.1392 19.5464 96.4063 19.4963 96.6733 19.4963C97.1573 19.4963 97.6413 19.6298 98.0252 19.8969V19.9136Z" fill="url(#paint18_linear_18_81)"/>
<path d="M148.968 30.5286H152.167V44.4923H148.968V30.5286ZM148.534 24.4823C148.534 23.94 148.724 23.4791 149.131 23.0723C149.538 22.6657 149.999 22.4758 150.541 22.4758C151.11 22.4758 151.598 22.6657 151.951 23.0452C152.33 23.4248 152.52 23.8858 152.52 24.4552C152.52 25.0246 152.33 25.5126 151.951 25.8922C151.571 26.2718 151.083 26.4616 150.541 26.4616C149.999 26.4616 149.511 26.2718 149.131 25.8651C148.724 25.4583 148.534 24.9975 148.534 24.4552V24.4823Z" fill="#606062"/>
<path d="M164.559 25.9188V44.5189H161.061V25.9188H155.313V22.9363H170.253V25.9188H164.559Z" fill="#606062"/>
<path d="M173.561 44.5189V22.9363H185.599V25.9188H177.058V31.3145H185.599V34.4054H177.058V41.3737H185.599V44.5189H173.561Z" fill="#606062"/>
<path d="M194.763 36.032H200.783L198.56 31.0973C198.425 30.7719 198.288 30.4195 198.153 30.0128C198.017 29.606 197.882 29.1451 197.746 28.657C197.638 29.118 197.503 29.5789 197.366 29.9856C197.231 30.3924 197.095 30.7719 196.96 31.1244L194.737 36.0592L194.763 36.032ZM204.471 44.4915L202.03 38.9332H193.49L190.995 44.4915H187.307L197.746 22.0684L208.185 44.4915H204.498H204.471Z" fill="#606062"/>
<path d="M227.598 28.1693C226.595 27.3288 225.565 26.678 224.453 26.2713C223.342 25.8375 222.175 25.6477 220.955 25.6477C218.597 25.6477 216.671 26.4069 215.207 27.9253C213.716 29.4436 212.984 31.3958 212.984 33.8089C212.984 36.1407 213.716 38.0658 215.153 39.5571C216.59 41.0755 218.407 41.8346 220.603 41.8346C221.877 41.8346 223.097 41.6177 224.264 41.1568C225.429 40.6959 226.514 40.018 227.598 39.0961V43.0548C226.649 43.7326 225.619 44.2478 224.507 44.5731C223.395 44.8985 222.203 45.0612 220.902 45.0612C219.247 45.0612 217.729 44.79 216.319 44.2478C214.909 43.7055 213.689 42.9192 212.632 41.8617C211.574 40.8315 210.761 39.6113 210.218 38.2014C209.649 36.7915 209.378 35.3002 209.378 33.7276C209.378 32.155 209.649 30.6638 210.218 29.2809C210.788 27.8981 211.601 26.678 212.685 25.6206C213.743 24.5631 214.99 23.7497 216.373 23.2075C217.756 22.6652 219.247 22.394 220.874 22.394C222.149 22.394 223.342 22.5839 224.507 22.9363C225.646 23.3159 226.785 23.8582 227.842 24.6174L227.653 28.1421L227.598 28.1693Z" fill="#606062"/>
<path d="M232.533 44.5189V22.9363H236.031V30.9077H246.659V22.9363H250.157V44.5189H246.659V34.0259H236.031V44.5189H232.533Z" fill="#606062"/>
<path d="M153.415 64.1492L155.205 63.3359C155.367 63.9594 155.693 64.4204 156.127 64.7457C156.588 65.0711 157.157 65.2338 157.861 65.2338C158.512 65.2338 159.055 65.044 159.434 64.6915C159.814 64.3119 160.031 63.8239 160.031 63.2002C160.031 62.3869 159.353 61.6819 158.024 61.0311C157.835 60.9498 157.699 60.8685 157.59 60.8142C156.072 60.0822 155.069 59.4043 154.554 58.8078C154.038 58.2113 153.795 57.4792 153.795 56.6116C153.795 55.4999 154.175 54.5781 154.934 53.9002C155.693 53.1953 156.696 52.8699 157.916 52.8699C158.92 52.8699 159.787 53.0597 160.464 53.4664C161.142 53.8459 161.631 54.4154 161.874 55.1474L160.14 56.0422C159.868 55.6084 159.57 55.2831 159.244 55.0932C158.919 54.9034 158.54 54.7949 158.106 54.7949C157.509 54.7949 157.021 54.9577 156.668 55.2559C156.317 55.5813 156.127 55.9879 156.127 56.5032C156.127 57.3166 156.913 58.1028 158.459 58.8078C158.567 58.8621 158.675 58.9162 158.73 58.9433C160.085 59.567 161.034 60.1906 161.522 60.7871C162.037 61.3836 162.282 62.1428 162.282 63.0376C162.282 64.339 161.874 65.3694 161.061 66.1556C160.248 66.9149 159.136 67.2944 157.726 67.2944C156.56 67.2944 155.584 67.0233 154.852 66.481C154.093 65.9388 153.605 65.1795 153.388 64.1764L153.415 64.1492Z" fill="#606062"/>
<path d="M176.164 56.5031C175.54 55.9609 174.862 55.5542 174.157 55.283C173.452 55.0119 172.72 54.8763 171.933 54.8763C170.442 54.8763 169.195 55.3644 168.273 56.3134C167.324 57.2895 166.863 58.5367 166.863 60.0551C166.863 61.5463 167.324 62.7664 168.246 63.7154C169.168 64.6915 170.307 65.1524 171.717 65.1524C172.53 65.1524 173.316 65.0169 174.048 64.7187C174.781 64.4204 175.485 63.9865 176.164 63.4172V65.9388C175.567 66.3726 174.916 66.6979 174.211 66.9149C173.506 67.1318 172.747 67.2402 171.906 67.2402C170.849 67.2402 169.873 67.0776 168.978 66.7251C168.083 66.3726 167.297 65.8845 166.619 65.2067C165.941 64.5559 165.426 63.7697 165.074 62.8749C164.721 61.9801 164.532 61.0311 164.532 60.028C164.532 59.0248 164.721 58.0757 165.074 57.181C165.426 56.2862 165.941 55.5271 166.646 54.8492C167.324 54.1713 168.11 53.6562 169.005 53.3037C169.9 52.9512 170.849 52.7886 171.88 52.7886C172.692 52.7886 173.452 52.897 174.184 53.1411C174.916 53.3851 175.621 53.7376 176.326 54.1985L176.217 56.4489L176.164 56.5031Z" fill="#606062"/>
<path d="M179.336 66.9149V53.1682H181.56V58.2385H188.338V53.1682H190.561V66.9149H188.338V60.2449H181.56V66.9149H179.336Z" fill="#606062"/>
<path d="M205.881 60.055C205.881 59.3501 205.745 58.6994 205.501 58.0757C205.257 57.4521 204.877 56.8827 204.416 56.3947C203.955 55.9066 203.413 55.5271 202.817 55.283C202.193 55.0119 201.569 54.9035 200.891 54.9035C200.214 54.9035 199.563 55.039 198.967 55.283C198.343 55.5542 197.8 55.9066 197.339 56.3947C196.852 56.8827 196.499 57.425 196.255 58.0486C196.011 58.6723 195.875 59.3501 195.875 60.0279C195.875 60.7329 196.011 61.3836 196.255 62.0073C196.499 62.6309 196.878 63.1732 197.339 63.6612C197.827 64.1493 198.37 64.5288 198.967 64.7729C199.563 65.0169 200.214 65.1524 200.891 65.1524C201.569 65.1524 202.193 65.0169 202.817 64.7729C203.413 64.5288 203.955 64.1493 204.443 63.6612C204.932 63.1732 205.284 62.6038 205.528 61.9801C205.772 61.3565 205.907 60.7058 205.907 60.0009L205.881 60.055ZM208.212 60.055C208.212 61.0311 208.023 61.953 207.67 62.8207C207.29 63.6883 206.775 64.4747 206.07 65.1524C205.365 65.8303 204.552 66.3454 203.684 66.7251C202.79 67.0776 201.868 67.2673 200.891 67.2673C199.916 67.2673 198.967 67.0776 198.072 66.7251C197.177 66.3726 196.391 65.8303 195.685 65.1524C194.981 64.4747 194.438 63.6883 194.086 62.8207C193.733 61.953 193.543 61.0311 193.543 60.0279C193.543 59.0519 193.733 58.13 194.086 57.2352C194.438 56.3676 194.981 55.5812 195.685 54.9035C196.391 54.2256 197.177 53.7105 198.072 53.3308C198.967 52.9783 199.916 52.7886 200.891 52.7886C201.895 52.7886 202.817 52.9783 203.711 53.3308C204.606 53.6833 205.393 54.1985 206.097 54.9035C206.803 55.6084 207.345 56.3947 207.697 57.2624C208.05 58.13 208.239 59.0519 208.239 60.0279L208.212 60.055Z" fill="#606062"/>
<path d="M222.935 60.055C222.935 59.3501 222.799 58.6994 222.556 58.0757C222.311 57.4521 221.932 56.8827 221.471 56.3947C221.01 55.9066 220.468 55.5271 219.871 55.283C219.248 55.0119 218.624 54.9035 217.946 54.9035C217.268 54.9035 216.618 55.039 216.022 55.283C215.398 55.5542 214.855 55.9066 214.394 56.3947C213.906 56.8827 213.554 57.425 213.31 58.0486C213.066 58.6723 212.93 59.3501 212.93 60.0279C212.93 60.7329 213.066 61.3836 213.31 62.0073C213.554 62.6309 213.933 63.1732 214.394 63.6612C214.882 64.1493 215.424 64.5288 216.022 64.7729C216.618 65.0169 217.268 65.1524 217.946 65.1524C218.624 65.1524 219.248 65.0169 219.871 64.7729C220.468 64.5288 221.01 64.1493 221.498 63.6612C221.987 63.1732 222.338 62.6038 222.583 61.9801C222.827 61.3565 222.962 60.7058 222.962 60.0009L222.935 60.055ZM225.267 60.055C225.267 61.0311 225.077 61.953 224.725 62.8207C224.345 63.6883 223.83 64.4747 223.125 65.1524C222.42 65.8303 221.607 66.3454 220.739 66.7251C219.845 67.0776 218.923 67.2673 217.946 67.2673C216.943 67.2673 216.022 67.0776 215.126 66.7251C214.231 66.3726 213.445 65.8303 212.74 65.1524C212.036 64.4747 211.52 63.6883 211.14 62.8207C210.788 61.953 210.598 61.0311 210.598 60.0279C210.598 59.0519 210.788 58.13 211.14 57.2352C211.493 56.3676 212.036 55.5812 212.74 54.9035C213.445 54.2256 214.231 53.7105 215.126 53.3308C216.022 52.9783 216.97 52.7886 217.946 52.7886C218.949 52.7886 219.871 52.9783 220.766 53.3308C221.661 53.6833 222.447 54.1985 223.152 54.9035C223.857 55.6084 224.399 56.3947 224.752 57.2624C225.104 58.13 225.294 59.0519 225.294 60.0279L225.267 60.055Z" fill="#606062"/>
<path d="M228.222 66.9149V53.1682H230.445V64.9085H235.435V66.9149H228.222Z" fill="#606062"/>
<path d="M236.844 64.1492L238.634 63.3359C238.797 63.9594 239.122 64.4204 239.556 64.7457C240.017 65.0711 240.586 65.2338 241.291 65.2338C241.942 65.2338 242.484 65.044 242.864 64.6915C243.244 64.3119 243.46 63.8239 243.46 63.2002C243.46 62.3869 242.783 61.6819 241.453 61.0311C241.264 60.9498 241.128 60.8685 241.02 60.8142C239.502 60.0822 238.499 59.4043 237.983 58.8078C237.468 58.2113 237.224 57.4792 237.224 56.6116C237.224 55.4999 237.603 54.5781 238.362 53.9002C239.122 53.1953 240.125 52.8699 241.345 52.8699C242.348 52.8699 243.216 53.0597 243.894 53.4664C244.572 53.8459 245.06 54.4154 245.304 55.1474L243.568 56.0422C243.297 55.6084 242.999 55.2831 242.674 55.0932C242.348 54.9034 241.969 54.7949 241.535 54.7949C240.939 54.7949 240.451 54.9577 240.098 55.2559C239.745 55.5813 239.556 55.9879 239.556 56.5032C239.556 57.3166 240.342 58.1028 241.887 58.8078C241.996 58.8621 242.104 58.9162 242.159 58.9433C243.515 59.567 244.464 60.1906 244.951 60.7871C245.467 61.3836 245.71 62.1428 245.71 63.0376C245.71 64.339 245.304 65.3694 244.49 66.1556C243.677 66.9149 242.565 67.2944 241.155 67.2944C239.99 67.2944 239.013 67.0233 238.281 66.481C237.522 65.9388 237.034 65.1795 236.818 64.1764L236.844 64.1492Z" fill="#606062"/>
<defs>
<linearGradient id="paint0_linear_18_81" x1="62.1249" y1="34.7656" x2="90.468" y2="74.9663" gradientUnits="userSpaceOnUse">
<stop stop-color="#F26836"/>
<stop offset="1" stop-color="#F79633"/>
</linearGradient>
<linearGradient id="paint1_linear_18_81" x1="97.683" y1="6.47803" x2="97.683" y2="31.7135" gradientUnits="userSpaceOnUse">
<stop stop-color="white"/>
<stop offset="1" stop-color="white" stop-opacity="0"/>
</linearGradient>
<linearGradient id="paint2_linear_18_81" x1="67.8723" y1="29.6386" x2="96.996" y2="47.2053" gradientUnits="userSpaceOnUse">
<stop stop-color="#FFC62A"/>
<stop offset="1" stop-color="#F89C32"/>
</linearGradient>
<linearGradient id="paint3_linear_18_81" x1="103.418" y1="51.2474" x2="135.381" y2="51.2474" gradientUnits="userSpaceOnUse">
<stop stop-color="#C2D83E"/>
<stop offset="0.0313725" stop-color="#C2D83E"/>
<stop offset="1" stop-color="#57B952"/>
</linearGradient>
<linearGradient id="paint4_linear_18_81" x1="83.5298" y1="57.3662" x2="83.5298" y2="71.0855" gradientUnits="userSpaceOnUse">
<stop stop-color="white"/>
<stop offset="1" stop-color="white" stop-opacity="0"/>
</linearGradient>
<linearGradient id="paint5_linear_18_81" x1="103.423" y1="64.7968" x2="122.269" y2="64.7968" gradientUnits="userSpaceOnUse">
<stop stop-color="#79C14E"/>
<stop offset="0.0313725" stop-color="#79C14E"/>
<stop offset="1" stop-color="#007442"/>
</linearGradient>
<linearGradient id="paint6_linear_18_81" x1="76.1302" y1="22.1125" x2="122.993" y2="62.1311" gradientUnits="userSpaceOnUse">
<stop stop-color="#009ADC"/>
<stop offset="0.0196078" stop-color="#009ADC"/>
<stop offset="1" stop-color="#215BA8"/>
</linearGradient>
<linearGradient id="paint7_linear_18_81" x1="111.853" y1="17.8608" x2="111.853" y2="53.1103" gradientUnits="userSpaceOnUse">
<stop stop-color="white"/>
<stop offset="1" stop-color="white" stop-opacity="0"/>
</linearGradient>
<linearGradient id="paint8_linear_18_81" x1="59.7749" y1="27.6525" x2="67.8816" y2="27.6525" gradientUnits="userSpaceOnUse">
<stop stop-color="#F79633"/>
<stop offset="1" stop-color="#F16436"/>
</linearGradient>
<linearGradient id="paint9_linear_18_81" x1="133.209" y1="57.6831" x2="133.209" y2="65.7945" gradientUnits="userSpaceOnUse">
<stop stop-color="white"/>
<stop offset="1" stop-color="white" stop-opacity="0"/>
</linearGradient>
<linearGradient id="paint10_linear_18_81" x1="59.7517" y1="38.7763" x2="63.0776" y2="38.7763" gradientUnits="userSpaceOnUse">
<stop stop-color="#8B3F28"/>
<stop offset="0.980392" stop-color="#F58434"/>
<stop offset="1" stop-color="#F58434"/>
</linearGradient>
<linearGradient id="paint11_linear_18_81" x1="138.063" y1="51.2469" x2="141.388" y2="51.2469" gradientUnits="userSpaceOnUse">
<stop stop-color="#57B952"/>
<stop offset="1" stop-color="#006B3E"/>
</linearGradient>
<linearGradient id="paint12_linear_18_81" x1="95.9726" y1="71.0356" x2="95.9726" y2="78.3459" gradientUnits="userSpaceOnUse">
<stop stop-color="white"/>
<stop offset="1" stop-color="white" stop-opacity="0"/>
</linearGradient>
<linearGradient id="paint13_linear_18_81" x1="77.1763" y1="25.8078" x2="88.8376" y2="32.8415" gradientUnits="userSpaceOnUse">
<stop stop-color="#FEFEFE"/>
<stop offset="1" stop-color="#FEFEFE"/>
</linearGradient>
<linearGradient id="paint14_linear_18_81" x1="103.342" y1="76.4934" x2="103.342" y2="76.5607" gradientUnits="userSpaceOnUse">
<stop stop-color="white"/>
<stop offset="1" stop-color="white" stop-opacity="0"/>
</linearGradient>
<linearGradient id="paint15_linear_18_81" x1="87.9136" y1="69.8154" x2="101.136" y2="69.8154" gradientUnits="userSpaceOnUse">
<stop stop-color="#FEFEFE"/>
<stop offset="0.980392" stop-color="#FEFEFE"/>
<stop offset="1" stop-color="#FEFEFE"/>
</linearGradient>
<linearGradient id="paint16_linear_18_81" x1="99.0278" y1="70.5791" x2="104.77" y2="70.5791" gradientUnits="userSpaceOnUse">
<stop stop-color="#FEFEFE"/>
<stop offset="0.0313725" stop-color="#FEFEFE"/>
<stop offset="1" stop-color="#FEFEFE"/>
</linearGradient>
<linearGradient id="paint17_linear_18_81" x1="77.6468" y1="24.5125" x2="119.695" y2="60.4198" gradientUnits="userSpaceOnUse">
<stop stop-color="#FEFEFE"/>
<stop offset="0.0196078" stop-color="#FEFEFE"/>
<stop offset="1" stop-color="#FEFEFE"/>
</linearGradient>
<linearGradient id="paint18_linear_18_81" x1="95.8837" y1="19.9054" x2="98.0275" y2="19.5245" gradientUnits="userSpaceOnUse">
<stop stop-color="#FEFEFE"/>
<stop offset="1" stop-color="#FEFEFE"/>
</linearGradient>
</defs>
</svg>
