<svg width="200" height="200" viewBox="0 0 200 200" fill="none" xmlns="http://www.w3.org/2000/svg">
<g clip-path="url(#clip0_20_128)">
<mask id="mask0_20_128" style="mask-type:luminance" maskUnits="userSpaceOnUse" x="0" y="0" width="200" height="200">
<path d="M200 0H0V200H200V0Z" fill="white"/>
</mask>
<g mask="url(#mask0_20_128)">
<path d="M28.5714 0H171.429C187.143 0 200 12.8571 200 28.5714V171.429C200 187.143 187.143 200 171.429 200H28.5714C12.8571 200 0 187.143 0 171.429V28.5714C0 12.8571 12.8571 0 28.5714 0Z" fill="#24223C"/>
<path d="M135.333 58.0002C131.333 58.0002 127.333 61.3336 127.333 66.0002C127.333 70.6669 130.667 74.0002 135.333 74.0002C140 74.0002 143.333 70.6669 143.333 66.0002C142.667 61.3336 139.333 58.0002 135.333 58.0002Z" fill="white"/>
<path d="M100 68.0002C82.0001 68.0002 67.3335 82.6669 67.3335 100.667C67.3335 118.667 82.0001 133.334 100 133.334C118 133.334 132.667 118.667 132.667 100.667C133.333 82.6669 118.667 68.0002 100 68.0002ZM100 122C88.6668 122 78.6668 112.667 78.6668 100.667C78.6668 89.3336 88.0001 79.3336 100 79.3336C111.333 79.3336 121.333 88.6669 121.333 100.667C121.333 112.667 112 122 100 122Z" fill="white"/>
<path d="M126.667 33.3333H73.3332C51.3332 33.3333 33.3333 51.3332 33.3333 73.3332V126.667C33.3333 148.667 51.3332 166.667 73.3332 166.667H126.667C148.667 166.667 166.667 148.667 166.667 126.667V73.3332C166.667 51.3332 148.667 33.3333 126.667 33.3333ZM154 126.667C154 142 141.333 154 126.667 154H73.3332C57.9999 154 46 141.333 46 126.667V73.3332C46 57.9998 58.6665 45.9999 73.3332 45.9999H126.667C142 45.9999 154 58.6665 154 73.3332V126.667Z" fill="white"/>
</g>
</g>
<defs>
<clipPath id="clip0_20_128">
<rect width="200" height="200" fill="white"/>
</clipPath>
</defs>
</svg>
