<svg width="200" height="200" viewBox="0 0 200 200" fill="none" xmlns="http://www.w3.org/2000/svg">
<g clip-path="url(#clip0_20_137)">
<path d="M180 27H19V173H180V27Z" fill="white"/>
<mask id="mask0_20_137" style="mask-type:luminance" maskUnits="userSpaceOnUse" x="0" y="0" width="200" height="200">
<path d="M200 0H0V200H200V0Z" fill="white"/>
</mask>
<g mask="url(#mask0_20_137)">
<path d="M184.375 0H15.625C6.99219 0 0 6.99219 0 15.625V184.375C0 193.008 6.99219 200 15.625 200H184.375C193.008 200 200 193.008 200 184.375V15.625C200 6.99219 193.008 0 184.375 0ZM72.0312 141.836H52.5391V79.4531H72.0312V141.836ZM61.7578 71.6406H61.6016C54.5312 71.6406 49.9609 66.875 49.9609 60.8203C49.9609 54.6484 54.6875 50 61.875 50C69.0625 50 73.4766 54.6484 73.6328 60.8203C73.6719 66.8359 69.1016 71.6406 61.7578 71.6406ZM150 141.836H127.891V109.57C127.891 101.133 124.453 95.3516 116.836 95.3516C111.016 95.3516 107.773 99.2578 106.289 103.008C105.742 104.336 105.82 106.211 105.82 108.125V141.836H83.9063C83.9063 141.836 84.1797 84.6484 83.9063 79.4531H105.82V89.2578C107.109 84.9609 114.102 78.8672 125.273 78.8672C139.141 78.8672 150 87.8516 150 107.148V141.836Z" fill="#24223C"/>
</g>
</g>
<defs>
<clipPath id="clip0_20_137">
<rect width="200" height="200" fill="white"/>
</clipPath>
</defs>
</svg>
